<svg width="1800" height="1800" viewBox="0 0 1800 1800" xmlns="http://www.w3.org/2000/svg">
<polyline fill="none" opacity="1" stroke="#FF0000" stroke-width="1" points="1795,5 1795,56 1795,750 1795,1207 1498,1451 1110,1513 789,1429 565,1240 459,989 480,723 627,488 886,329 1234,290 1634,409 1795,721 1795,1254 1795,1795 1743,5 1795,5 1767,512 1581,898 1343,1127 1100,1219 890,1200 740,1100 668,953 682,794 782,659 954,583 1179,598 1425,733 1652,1012 1795,1454 1795,1795 1049,5 1287,32 1353,446 1305,748 1192,942 1056,1038 929,1053 835,1009 789,930 798,842 861,771 969,744 1102,784 1234,911 1330,1140 1346,1479 1230,1795 592,5 901,218 1051,494 1091,708 1063,855 1002,937 934,966 880,953 853,915 858,871 896,839 956,838 1024,884 1078,987 1087,1156 1015,1391 818,1687 348,301 672,456 857,607 944,736 967,832 953,893 924,920 897,921 883,906 886,888 905,877 934,886 960,924 965,996 924,1104 808,1242 581,1397 286,689 580,699 761,743 862,797 906,846 917,882 911,901 901,906 895,902 896,896 904,894 914,904 916,928 896,969 836,1021 711,1074 496,1110 370,1010 599,909 746,870 833,865 879,875 898,888 902,897 900,901 898,901 899,899 901,900 902,906 894,916 867,929 810,936 705,922 533,866 559,1234 699,1059 790,964 846,919 878,902 893,898 898,899 899,900 899,900 899,900 899,900 897,902 889,902 870,895 831,870 764,811 658,693 810,1340 846,1131 869,1010 884,946 893,916 897,904 898,901 899,900 899,900 899,900 899,900 898,899 896,893 890,877 880,837 863,757 835,611 1076,1319 1005,1117 957,1001 928,941 911,913 903,903 900,900 899,900 899,900 899,900 899,900 901,899 905,895 916,880 936,844 971,768 1025,627 1311,1172 1140,1017 1028,938 960,903 922,894 905,895 899,898 899,900 899,900 899,900 898,901 900,903 909,906 932,905 978,889 1059,842 1189,741 1470,913 1216,845 1055,830 961,843 913,865 895,885 893,897 897,902 900,901 900,898 896,899 893,906 899,921 925,943 986,963 1100,969 1289,940 1509,565 1201,620 1015,697 915,775 875,839 871,883 883,905 897,910 906,903 904,894 893,890 878,900 869,930 884,980 941,1050 1066,1130 1289,1202 1390,165 1066,374 888,565 812,721 803,834 830,903 870,932 904,929 922,909 919,883 894,867 856,874 819,915 800,999 828,1126 934,1296 1156,1495 1078,5 787,147 659,469 643,712 695,875 778,963 863,989 929,968 962,919 955,863 910,821 836,813 749,858 673,971 639,1160 687,1430 863,1776 545,5 345,5 320,453 408,784 557,991 725,1088 877,1094 988,1035 1042,936 1031,828 957,740 830,699 669,733 503,865 369,1112 313,1486 389,1795 5,5 5,5 5,569 112,981 402,1218 689,1303 933,1266 1106,1141 1188,964 1172,774 1058,610 859,510 597,510 304,643 23,936 5,1410 5,1795 "/>
</svg>
