<svg width="1800" height="1800" viewBox="0 0 1800 1800" xmlns="http://www.w3.org/2000/svg">
<polyline fill="none" opacity="1" stroke="#00FF00" stroke-width="1" points="5,701 5,696 6,691 7,686 8,681 9,677 10,673 11,670 12,667 13,664 13,662 14,660 15,659 16,658 17,657 18,657 19,657 20,657 21,658 21,659 22,660 23,662 24,664 25,667 26,669 27,673 28,676 29,680 30,684 30,688 31,693 32,698 33,703 34,708 35,714 36,720 37,726 38,733 38,740 39,746 40,754 41,761 42,768 43,776 44,784 45,792 46,800 47,808 47,816 48,825 49,834 50,842 51,851 52,860 53,869 54,877 55,886 55,895 56,896 57,887 58,878 59,869 60,860 61,851 62,843 63,834 64,825 64,817 65,808 66,800 67,792 68,784 69,776 70,769 71,761 72,754 72,747 73,740 74,733 75,727 76,720 77,714 78,709 79,703 80,698 81,693 81,688 82,684 83,680 84,676 85,673 86,670 87,667 88,664 89,662 89,660 90,659 91,658 92,657 93,657 94,657 95,657 96,658 97,659 98,660 98,662 99,664 100,667 101,670 102,673 103,677 104,681 105,685 106,690 106,696 107,701 108,707 109,714 110,720 111,727 112,735 113,743 114,751 115,759 115,768 116,777 117,787 118,797 119,807 120,817 121,828 122,839 123,851 123,862 124,874 125,887 126,899 127,888 128,875 129,862 130,848 131,835 132,821 132,807 133,792 134,778 135,763 136,749 137,734 138,719 139,703 140,688 140,673 141,657 142,642 143,626 144,611 145,595 146,579 147,564 148,548 149,532 149,516 150,501 151,485 152,470 153,454 154,439 155,424 156,408 157,393 157,378 158,364 159,349 160,335 161,320 162,306 163,292 164,279 165,265 166,252 166,239 167,226 168,214 169,202 170,190 171,178 172,167 173,156 174,146 174,135 175,125 176,116 177,107 178,98 179,89 180,81 181,73 182,66 183,59 183,52 184,46 185,41 186,35 187,30 188,26 189,22 190,18 191,15 191,13 192,10 193,8 194,7 195,6 196,6 197,6 198,6 199,7 200,8 200,10 201,12 202,15 203,18 204,21 205,25 206,29 207,34 208,40 208,45 209,51 210,58 211,65 212,72 213,79 214,88 215,96 216,105 216,114 217,123 218,133 219,144 220,154 221,165 222,176 223,188 224,199 225,212 225,224 226,237 227,249 228,263 229,276 230,290 231,303 232,317 233,332 233,346 234,361 235,375 236,390 237,405 238,420 239,436 240,451 241,467 242,482 242,498 243,513 244,529 245,545 246,560 247,576 248,592 249,607 250,623 250,639 251,654 252,670 253,685 254,700 255,716 256,731 257,746 258,760 259,775 259,789 260,804 261,818 262,832 263,846 264,859 265,872 266,885 267,898 267,889 268,877 269,865 270,853 271,842 272,831 273,820 274,809 275,799 276,789 276,779 277,770 278,761 279,752 280,744 281,736 282,729 283,722 284,715 284,708 285,702 286,697 287,691 288,686 289,682 290,678 291,674 292,670 293,667 293,665 294,662 295,661 296,659 297,658 298,657 299,657 300,657 301,657 301,658 302,659 303,660 304,662 305,664 306,666 307,669 308,672 309,675 310,679 310,683 311,687 312,692 313,697 314,702 315,708 316,713 317,719 318,725 318,732 319,738 320,745 321,752 322,760 323,767 324,775 325,783 326,790 327,799 327,807 328,815 329,824 330,832 331,841 332,850 333,858 334,867 335,876 335,885 336,894 337,897 338,888 339,879 340,870 341,862 342,853 343,844 344,835 344,827 345,818 346,810 347,802 348,793 349,785 350,778 351,770 352,762 352,755 353,748 354,741 355,734 356,728 357,721 358,715 359,710 360,704 361,699 361,694 362,689 363,685 364,681 365,677 366,673 367,670 368,667 369,665 369,662 370,661 371,659 372,658 373,657 374,657 375,657 376,657 377,657 378,659 378,660 379,662 380,664 381,666 382,669 383,673 384,676 385,680 386,685 386,689 387,695 388,700 389,706 390,712 391,719 392,726 393,734 394,741 395,749 395,758 396,767 397,776 398,785 399,795 400,805 401,816 402,827 403,838 403,849 404,861 405,873 406,885 407,897 408,890 409,877 410,864 411,850 411,837 412,823 413,809 414,795 415,780 416,766 417,751 418,736 419,721 420,706 420,691 421,675 422,660 423,644 424,629 425,613 426,597 427,582 428,566 428,550 429,535 430,519 431,503 432,488 433,472 434,457 435,441 436,426 437,411 437,396 438,381 439,366 440,351 441,337 442,323 443,308 444,295 445,281 445,267 446,254 447,241 448,228 449,216 450,204 451,192 452,180 453,169 454,158 454,147 455,137 456,127 457,117 458,108 459,99 460,91 461,82 462,75 462,67 463,60 464,54 465,47 466,42 467,36 468,31 469,27 470,23 471,19 471,16 472,13 473,11 474,9 475,7 476,6 477,6 478,6 479,6 479,7 480,8 481,10 482,12 483,14 484,17 485,21 486,24 487,29 488,34 488,39 489,44 490,50 491,57 492,63 493,71 494,78 495,86 496,95 496,103 497,112 498,122 499,132 500,142 501,152 502,163 503,174 504,186 505,198 505,210 506,222 507,235 508,247 509,260 510,274 511,287 512,301 513,315 513,329 514,344 515,358 516,373 517,388 518,403 519,418 520,433 521,449 522,464 522,480 523,495 524,511 525,526 526,542 527,558 528,574 529,589 530,605 530,621 531,636 532,652 533,667 534,683 535,698 536,713 537,728 538,743 539,758 539,773 540,787 541,802 542,816 543,830 544,843 545,857 546,870 547,883 547,896 548,891 549,879 550,867 551,855 552,843 553,832 554,821 555,811 556,800 556,790 557,781 558,771 559,762 560,754 561,746 562,738 563,730 564,723 564,716 565,709 566,703 567,698 568,692 569,687 570,683 571,678 572,674 573,671 573,668 574,665 575,663 576,661 577,659 578,658 579,657 580,657 581,657 581,657 582,657 583,658 584,660 585,661 586,663 587,666 588,668 589,672 590,675 590,679 591,682 592,687 593,691 594,696 595,701 596,707 597,712 598,718 598,724 599,731 600,737 601,744 602,751 603,758 604,766 605,774 606,781 606,789 607,797 608,805 609,814 610,822 611,831 612,839 613,848 614,857 615,866 615,875 616,884 617,892 618,899 619,890 620,881 621,872 622,863 623,854 623,845 624,837 625,828 626,820 627,811 628,803 629,795 630,787 631,779 632,771 632,764 633,756 634,749 635,742 636,735 637,729 638,722 639,716 640,710 640,705 641,700 642,695 643,690 644,685 645,681 646,677 647,674 648,671 649,668 649,665 650,663 651,661 652,659 653,658 654,657 655,657 656,657 657,657 657,657 658,658 659,660 660,661 661,663 662,666 663,669 664,672 665,676 666,680 666,684 667,689 668,694 669,699 670,705 671,711 672,718 673,725 674,732 674,740 675,748 676,757 677,765 678,774 679,784 680,794 681,804 682,814 683,825 683,836 684,847 685,859 686,871 687,883 688,895 689,892 690,879 691,866 691,853 692,839 693,825 694,811 695,797 696,783 697,768 698,753 699,738 700,723 700,708 701,693 702,678 703,662 704,647 705,631 706,616 707,600 708,584 708,569 709,553 710,537 711,521 712,506 713,490 714,475 715,459 716,444 717,428 717,413 718,398 719,383 720,368 721,354 722,339 723,325 724,311 725,297 725,283 726,270 727,256 728,243 729,230 730,218 731,206 732,194 733,182 734,171 734,160 735,149 736,139 737,129 738,119 739,109 740,100 741,92 742,84 742,76 743,68 744,61 745,55 746,48 747,42 748,37 749,32 750,27 751,23 751,19 752,16 753,13 754,11 755,9 756,7 757,6 758,6 759,6 759,6 760,6 761,8 762,9 763,11 764,14 765,17 766,20 767,24 768,28 768,33 769,38 770,43 771,49 772,56 773,62 774,69 775,77 776,85 776,93 777,102 778,111 779,120 780,130 781,140 782,151 783,161 784,173 785,184 785,196 786,208 787,220 788,232 789,245 790,258 791,272 792,285 793,299 793,313 794,327 795,341 796,356 797,371 798,386 799,401 800,416 801,431 802,446 802,462 803,477 804,493 805,508 806,524 807,540 808,555 809,571 810,587 810,602 811,618 812,634 813,649 814,665 815,680 816,696 817,711 818,726 818,741 819,756 820,770 821,785 822,799 823,813 824,827 825,841 826,855 827,868 827,881 828,894 829,893 830,881 831,869 832,857 833,845 834,834 835,823 835,812 836,802 837,792 838,782 839,773 840,764 841,755 842,747 843,739 844,731 844,724 845,717 846,710 847,704 848,698 849,693 850,688 851,683 852,679 852,675 853,671 854,668 855,666 856,663 857,661 858,659 859,658 860,657 861,657 861,657 862,657 863,657 864,658 865,660 866,661 867,663 868,665 869,668 869,671 870,674 871,678 872,682 873,686 874,691 875,695 876,700 877,706 878,711 878,717 879,723 880,730 881,736 882,743 883,750 884,757 885,765 886,772 886,780 887,788 888,796 889,804 890,812 891,821 892,829 893,838 894,847 895,856 895,864 896,873 897,882 898,891 899,900 900,891 901,882 902,873 903,864 903,856 904,847 905,838 906,829 907,821 908,812 909,804 910,796 911,788 912,780 912,772 913,765 914,757 915,750 916,743 917,736 918,730 919,723 920,717 920,711 921,706 922,700 923,695 924,691 925,686 926,682 927,678 928,674 929,671 929,668 930,665 931,663 932,661 933,660 934,658 935,657 936,657 937,657 937,657 938,657 939,658 940,659 941,661 942,663 943,666 944,668 945,671 946,675 946,679 947,683 948,688 949,693 950,698 951,704 952,710 953,717 954,724 954,731 955,739 956,747 957,755 958,764 959,773 960,782 961,792 962,802 963,812 963,823 964,834 965,845 966,857 967,869 968,881 969,893 970,894 971,881 971,868 972,855 973,841 974,827 975,813 976,799 977,785 978,770 979,756 980,741 980,726 981,711 982,696 983,680 984,665 985,649 986,634 987,618 988,602 988,587 989,571 990,555 991,540 992,524 993,508 994,493 995,477 996,462 997,446 997,431 998,416 999,401 1000,386 1001,371 1002,356 1003,341 1004,327 1005,313 1005,299 1006,285 1007,272 1008,258 1009,245 1010,232 1011,220 1012,208 1013,196 1013,184 1014,173 1015,161 1016,151 1017,140 1018,130 1019,120 1020,111 1021,102 1022,93 1022,85 1023,77 1024,69 1025,62 1026,56 1027,49 1028,43 1029,38 1030,33 1030,28 1031,24 1032,20 1033,17 1034,14 1035,11 1036,9 1037,8 1038,6 1039,6 1039,6 1040,6 1041,6 1042,7 1043,9 1044,11 1045,13 1046,16 1047,19 1047,23 1048,27 1049,32 1050,37 1051,42 1052,48 1053,55 1054,61 1055,68 1056,76 1056,84 1057,92 1058,100 1059,109 1060,119 1061,129 1062,139 1063,149 1064,160 1064,171 1065,182 1066,194 1067,206 1068,218 1069,230 1070,243 1071,256 1072,270 1073,283 1073,297 1074,311 1075,325 1076,339 1077,354 1078,368 1079,383 1080,398 1081,413 1081,428 1082,444 1083,459 1084,475 1085,490 1086,506 1087,521 1088,537 1089,553 1090,569 1090,584 1091,600 1092,616 1093,631 1094,647 1095,662 1096,678 1097,693 1098,708 1098,723 1099,738 1100,753 1101,768 1102,783 1103,797 1104,811 1105,825 1106,839 1107,853 1107,866 1108,879 1109,892 1110,895 1111,883 1112,871 1113,859 1114,847 1115,836 1115,825 1116,814 1117,804 1118,794 1119,784 1120,774 1121,765 1122,757 1123,748 1124,740 1124,732 1125,725 1126,718 1127,711 1128,705 1129,699 1130,694 1131,689 1132,684 1132,680 1133,676 1134,672 1135,669 1136,666 1137,663 1138,661 1139,660 1140,658 1141,657 1141,657 1142,657 1143,657 1144,657 1145,658 1146,659 1147,661 1148,663 1149,665 1149,668 1150,671 1151,674 1152,677 1153,681 1154,685 1155,690 1156,695 1157,700 1158,705 1158,710 1159,716 1160,722 1161,729 1162,735 1163,742 1164,749 1165,756 1166,764 1166,771 1167,779 1168,787 1169,795 1170,803 1171,811 1172,820 1173,828 1174,837 1175,845 1175,854 1176,863 1177,872 1178,881 1179,890 1180,899 1181,892 1182,884 1183,875 1183,866 1184,857 1185,848 1186,839 1187,831 1188,822 1189,814 1190,805 1191,797 1192,789 1192,781 1193,774 1194,766 1195,758 1196,751 1197,744 1198,737 1199,731 1200,724 1200,718 1201,712 1202,707 1203,701 1204,696 1205,691 1206,687 1207,682 1208,679 1208,675 1209,672 1210,668 1211,666 1212,663 1213,661 1214,660 1215,658 1216,657 1217,657 1217,657 1218,657 1219,657 1220,658 1221,659 1222,661 1223,663 1224,665 1225,668 1225,671 1226,674 1227,678 1228,683 1229,687 1230,692 1231,698 1232,703 1233,709 1234,716 1234,723 1235,730 1236,738 1237,746 1238,754 1239,762 1240,771 1241,781 1242,790 1242,800 1243,811 1244,821 1245,832 1246,843 1247,855 1248,867 1249,879 1250,891 1251,896 1251,883 1252,870 1253,857 1254,843 1255,830 1256,816 1257,802 1258,787 1259,773 1259,758 1260,743 1261,728 1262,713 1263,698 1264,683 1265,667 1266,652 1267,636 1268,621 1268,605 1269,589 1270,574 1271,558 1272,542 1273,526 1274,511 1275,495 1276,480 1276,464 1277,449 1278,433 1279,418 1280,403 1281,388 1282,373 1283,358 1284,344 1285,329 1285,315 1286,301 1287,287 1288,274 1289,260 1290,247 1291,235 1292,222 1293,210 1293,198 1294,186 1295,174 1296,163 1297,152 1298,142 1299,132 1300,122 1301,112 1302,103 1302,95 1303,86 1304,78 1305,71 1306,63 1307,57 1308,50 1309,44 1310,39 1310,34 1311,29 1312,24 1313,21 1314,17 1315,14 1316,12 1317,10 1318,8 1319,7 1319,6 1320,6 1321,6 1322,6 1323,7 1324,9 1325,11 1326,13 1327,16 1327,19 1328,23 1329,27 1330,31 1331,36 1332,42 1333,47 1334,54 1335,60 1336,67 1336,75 1337,82 1338,91 1339,99 1340,108 1341,117 1342,127 1343,137 1344,147 1344,158 1345,169 1346,180 1347,192 1348,204 1349,216 1350,228 1351,241 1352,254 1353,267 1353,281 1354,295 1355,308 1356,323 1357,337 1358,351 1359,366 1360,381 1361,396 1361,411 1362,426 1363,441 1364,457 1365,472 1366,488 1367,503 1368,519 1369,535 1370,550 1370,566 1371,582 1372,597 1373,613 1374,629 1375,644 1376,660 1377,675 1378,691 1378,706 1379,721 1380,736 1381,751 1382,766 1383,780 1384,795 1385,809 1386,823 1387,837 1387,850 1388,864 1389,877 1390,890 1391,897 1392,885 1393,873 1394,861 1395,849 1395,838 1396,827 1397,816 1398,805 1399,795 1400,785 1401,776 1402,767 1403,758 1403,749 1404,741 1405,734 1406,726 1407,719 1408,712 1409,706 1410,700 1411,695 1412,689 1412,685 1413,680 1414,676 1415,673 1416,669 1417,666 1418,664 1419,662 1420,660 1420,659 1421,657 1422,657 1423,657 1424,657 1425,657 1426,658 1427,659 1428,661 1429,662 1429,665 1430,667 1431,670 1432,673 1433,677 1434,681 1435,685 1436,689 1437,694 1437,699 1438,704 1439,710 1440,715 1441,721 1442,728 1443,734 1444,741 1445,748 1446,755 1446,762 1447,770 1448,778 1449,785 1450,793 1451,802 1452,810 1453,818 1454,827 1454,835 1455,844 1456,853 1457,862 1458,870 1459,879 1460,888 1461,897 1462,894 1463,885 1463,876 1464,867 1465,858 1466,850 1467,841 1468,832 1469,824 1470,815 1471,807 1471,799 1472,790 1473,783 1474,775 1475,767 1476,760 1477,752 1478,745 1479,738 1480,732 1480,725 1481,719 1482,713 1483,708 1484,702 1485,697 1486,692 1487,687 1488,683 1488,679 1489,675 1490,672 1491,669 1492,666 1493,664 1494,662 1495,660 1496,659 1497,658 1497,657 1498,657 1499,657 1500,657 1501,658 1502,659 1503,661 1504,662 1505,665 1505,667 1506,670 1507,674 1508,678 1509,682 1510,686 1511,691 1512,697 1513,702 1514,708 1514,715 1515,722 1516,729 1517,736 1518,744 1519,752 1520,761 1521,770 1522,779 1522,789 1523,799 1524,809 1525,820 1526,831 1527,842 1528,853 1529,865 1530,877 1531,889 1531,898 1532,885 1533,872 1534,859 1535,846 1536,832 1537,818 1538,804 1539,789 1539,775 1540,760 1541,746 1542,731 1543,716 1544,700 1545,685 1546,670 1547,654 1548,639 1548,623 1549,607 1550,592 1551,576 1552,560 1553,545 1554,529 1555,513 1556,498 1556,482 1557,467 1558,451 1559,436 1560,420 1561,405 1562,390 1563,375 1564,361 1565,346 1565,332 1566,317 1567,303 1568,290 1569,276 1570,263 1571,249 1572,237 1573,224 1573,212 1574,199 1575,188 1576,176 1577,165 1578,154 1579,144 1580,133 1581,123 1582,114 1582,105 1583,96 1584,88 1585,79 1586,72 1587,65 1588,58 1589,51 1590,45 1590,40 1591,34 1592,29 1593,25 1594,21 1595,18 1596,15 1597,12 1598,10 1599,8 1599,7 1600,6 1601,6 1602,6 1603,6 1604,7 1605,8 1606,10 1607,13 1607,15 1608,18 1609,22 1610,26 1611,30 1612,35 1613,41 1614,46 1615,52 1615,59 1616,66 1617,73 1618,81 1619,89 1620,98 1621,107 1622,116 1623,125 1624,135 1624,146 1625,156 1626,167 1627,178 1628,190 1629,202 1630,214 1631,226 1632,239 1632,252 1633,265 1634,279 1635,292 1636,306 1637,320 1638,335 1639,349 1640,364 1641,378 1641,393 1642,408 1643,424 1644,439 1645,454 1646,470 1647,485 1648,501 1649,516 1649,532 1650,548 1651,564 1652,579 1653,595 1654,611 1655,626 1656,642 1657,657 1658,673 1658,688 1659,703 1660,719 1661,734 1662,749 1663,763 1664,778 1665,792 1666,807 1666,821 1667,835 1668,848 1669,862 1670,875 1671,888 1672,899 1673,887 1674,874 1675,862 1675,851 1676,839 1677,828 1678,817 1679,807 1680,797 1681,787 1682,777 1683,768 1683,759 1684,751 1685,743 1686,735 1687,727 1688,720 1689,714 1690,707 1691,701 1692,696 1692,690 1693,685 1694,681 1695,677 1696,673 1697,670 1698,667 1699,664 1700,662 1700,660 1701,659 1702,658 1703,657 1704,657 1705,657 1706,657 1707,658 1708,659 1709,660 1709,662 1710,664 1711,667 1712,670 1713,673 1714,676 1715,680 1716,684 1717,688 1717,693 1718,698 1719,703 1720,709 1721,714 1722,720 1723,727 1724,733 1725,740 1726,747 1726,754 1727,761 1728,769 1729,776 1730,784 1731,792 1732,800 1733,808 1734,817 1734,825 1735,834 1736,843 1737,851 1738,860 1739,869 1740,878 1741,887 1742,896 1743,895 1743,886 1744,877 1745,869 1746,860 1747,851 1748,842 1749,834 1750,825 1751,816 1751,808 1752,800 1753,792 1754,784 1755,776 1756,768 1757,761 1758,754 1759,746 1760,740 1760,733 1761,726 1762,720 1763,714 1764,708 1765,703 1766,698 1767,693 1768,688 1768,684 1769,680 1770,676 1771,673 1772,669 1773,667 1774,664 1775,662 1776,660 1777,659 1777,658 1778,657 1779,657 1780,657 1781,657 1782,658 1783,659 1784,660 1785,662 1785,664 1786,667 1787,670 1788,673 1789,677 1790,681 1791,686 1792,691 1793,696 1794,701 "/>
</svg>
