<svg width="1800" height="1800" viewBox="0 0 1800 1800" xmlns="http://www.w3.org/2000/svg">
<polyline fill="none" opacity="1" stroke="#FF0000" stroke-width="1" points="843,844 834,845 824,847 813,853 803,861 794,874 788,889 787,906 791,922 799,935 810,945 820,951 831,955 840,956 844,835 833,834 821,835 806,840 791,849 778,864 769,885 768,908 774,929 787,946 801,957 816,963 829,966 841,965 846,825 834,822 819,820 800,822 779,831 757,849 742,878 740,911 751,942 771,964 793,976 813,980 830,979 843,976 852,814 839,807 821,801 797,798 766,803 731,823 702,864 697,918 719,965 754,992 788,1001 814,1000 834,995 848,988 860,804 848,792 830,780 802,767 759,760 698,774 636,834 624,934 675,1012 741,1039 790,1036 822,1025 843,1012 857,1000 873,795 863,779 848,758 822,732 773,699 675,676 513,746 469,986 626,1118 748,1112 810,1079 841,1050 859,1027 870,1010 888,789 884,770 877,743 863,703 833,637 745,514 340,341 5,1347 675,1347 815,1195 856,1115 873,1068 882,1038 887,1016 905,788 907,769 910,741 917,698 933,625 985,470 1346,5 1795,1795 1031,1426 944,1213 921,1121 912,1071 908,1039 905,1017 921,792 928,775 941,752 964,720 1011,676 1117,627 1346,676 1425,1032 1179,1180 1037,1141 976,1093 947,1057 932,1032 923,1013 934,800 945,788 963,772 991,755 1038,742 1111,749 1194,816 1212,945 1140,1038 1059,1060 1004,1050 971,1033 950,1017 937,1004 944,811 956,802 975,794 1000,789 1035,791 1078,811 1114,857 1120,922 1092,977 1049,1005 1011,1012 982,1008 962,1001 948,992 950,821 962,817 979,814 999,815 1024,823 1049,842 1067,874 1070,913 1056,948 1032,972 1007,983 985,986 967,984 954,980 954,832 965,830 978,831 994,835 1011,844 1026,860 1037,883 1038,909 1031,933 1016,951 1000,963 983,968 969,970 957,969 955,841 964,842 975,844 987,849 999,858 1009,871 1015,888 1016,906 1012,924 1003,938 991,949 979,955 968,958 958,959 "/>
</svg>
