<svg width="1800" height="1800" viewBox="0 0 1800 1800" xmlns="http://www.w3.org/2000/svg">
<polyline fill="none" opacity="1" stroke="#FFCDD2" stroke-width="1" points="1795,1795 1795,1795 1795,1795 1795,1795 1795,1795 1795,1795 1795,1795 1795,1795 1795,1795 1758,1795 1704,1795 1650,1795 1597,1795 1543,1795 1489,1795 1436,1795 1382,1795 1328,1795 1275,1795 1221,1795 1167,1795 1114,1795 1060,1795 1006,1795 953,1795 899,1795 845,1795 792,1795 738,1795 684,1795 631,1795 577,1795 523,1795 470,1795 416,1795 362,1795 309,1795 255,1795 201,1795 148,1795 94,1795 40,1795 5,1795 5,1795 5,1795 5,1795 5,1795 5,1795 5,1795 5,1795 1795,1795 1795,1795 1795,1795 1795,1795 1795,1795 1795,1795 1795,1795 1795,1795 1795,1795 1758,1795 1704,1795 1650,1795 1597,1795 1543,1795 1489,1795 1436,1795 1382,1795 1328,1795 1275,1795 1221,1795 1167,1795 1114,1795 1060,1795 1006,1795 953,1795 899,1795 845,1795 792,1795 738,1795 684,1795 631,1795 577,1795 523,1795 470,1795 416,1795 362,1795 309,1795 255,1795 201,1795 148,1795 94,1795 40,1795 5,1795 5,1795 5,1795 5,1795 5,1795 5,1795 5,1795 5,1795 1795,1795 1795,1795 1795,1795 1795,1795 1795,1795 1795,1795 1795,1795 1795,1795 1795,1795 1758,1795 1704,1795 1650,1795 1597,1795 1543,1795 1489,1795 1436,1795 1382,1795 1328,1795 1275,1795 1221,1795 1167,1795 1114,1795 1060,1795 1006,1795 953,1795 899,1795 845,1795 792,1795 738,1795 684,1795 631,1795 577,1795 523,1795 470,1795 416,1795 362,1795 309,1795 255,1795 201,1795 148,1795 94,1795 40,1795 5,1795 5,1795 5,1795 5,1795 5,1795 5,1795 5,1795 5,1795 1795,1795 1795,1795 1795,1795 1795,1795 1795,1795 1795,1795 1795,1795 1795,1795 1795,1795 1758,1795 1704,1795 1650,1795 1597,1795 1543,1795 1489,1795 1436,1795 1382,1795 1328,1795 1275,1795 1221,1795 1167,1795 1114,1795 1060,1795 1006,1795 953,1795 899,1795 845,1795 792,1795 738,1795 684,1795 631,1795 577,1795 523,1795 470,1795 416,1795 362,1795 309,1795 255,1795 201,1795 148,1795 94,1795 40,1795 5,1795 5,1795 5,1795 5,1795 5,1795 5,1795 5,1795 5,1795 1795,1795 1795,1795 1795,1795 1795,1795 1795,1795 1795,1795 1795,1795 1795,1795 1795,1795 1758,1795 1704,1795 1650,1795 1597,1795 1543,1795 1489,1795 1436,1795 1382,1795 1328,1795 1275,1795 1221,1795 1167,1795 1114,1795 1060,1795 1006,1795 953,1795 899,1795 845,1795 792,1795 738,1795 684,1795 631,1795 577,1795 523,1795 470,1795 416,1795 362,1795 309,1795 255,1795 201,1795 148,1795 94,1795 40,1795 5,1795 5,1795 5,1795 5,1795 5,1795 5,1795 5,1795 5,1795 1795,1795 1795,1795 1795,1795 1795,1795 1795,1795 1795,1795 1795,1795 1795,1795 1795,1795 1758,1795 1704,1795 1650,1795 1597,1795 1543,1795 1489,1795 1436,1795 1382,1795 1328,1795 1275,1795 1221,1795 1167,1795 1114,1795 1060,1795 1006,1795 953,1795 899,1795 845,1795 792,1795 738,1795 684,1795 631,1795 577,1795 523,1795 470,1795 416,1795 362,1795 309,1795 255,1795 201,1795 148,1795 94,1795 40,1795 5,1795 5,1795 5,1795 5,1795 5,1795 5,1795 5,1795 5,1795 1795,1795 1795,1795 1795,1795 1795,1795 1795,1795 1795,1795 1795,1795 1795,1795 1795,1795 1758,1795 1704,1795 1650,1795 1597,1795 1543,1795 1489,1795 1436,1795 1382,1795 1328,1795 1275,1795 1221,1795 1167,1795 1114,1795 1060,1795 1006,1795 953,1795 899,1795 845,1795 792,1795 738,1795 684,1795 631,1795 577,1795 523,1795 470,1795 416,1795 362,1795 309,1795 255,1795 201,1795 148,1795 94,1795 40,1795 5,1795 5,1795 5,1795 5,1795 5,1795 5,1795 5,1795 5,1795 1795,1795 1795,1795 1795,1795 1795,1795 1795,1795 1795,1795 1795,1795 1795,1795 1795,1795 1758,1795 1704,1795 1650,1795 1597,1795 1543,1795 1489,1795 1436,1795 1382,1795 1328,1795 1275,1795 1221,1795 1167,1795 1114,1795 1060,1795 1006,1795 953,1795 899,1795 845,1795 792,1795 738,1795 684,1795 631,1795 577,1795 523,1795 470,1795 416,1795 362,1795 309,1795 255,1795 201,1795 148,1795 94,1795 40,1795 5,1795 5,1795 5,1795 5,1795 5,1795 5,1795 5,1795 5,1795 1795,1795 1795,1795 1795,1795 1795,1795 1795,1795 1795,1795 1795,1795 1795,1795 1795,1795 1758,1795 1704,1795 1650,1795 1597,1795 1543,1795 1489,1795 1436,1795 1382,1795 1328,1795 1275,1795 1221,1795 1167,1795 1114,1795 1060,1795 1006,1795 953,1795 899,1795 845,1795 792,1795 738,1795 684,1795 631,1795 577,1795 523,1795 470,1795 416,1795 362,1795 309,1795 255,1795 201,1795 148,1795 94,1795 40,1795 5,1795 5,1795 5,1795 5,1795 5,1795 5,1795 5,1795 5,1795 1795,1759 1795,1759 1795,1759 1795,1759 1795,1759 1795,1759 1795,1759 1795,1759 1795,1759 1758,1759 1704,1759 1650,1759 1597,1759 1543,1759 1489,1759 1436,1759 1382,1759 1328,1759 1275,1759 1221,1759 1167,1759 1114,1759 1060,1759 1006,1759 953,1759 899,1759 845,1759 792,1759 738,1759 684,1759 631,1759 577,1759 523,1759 470,1759 416,1759 362,1759 309,1759 255,1759 201,1759 148,1759 94,1759 40,1759 5,1759 5,1759 5,1759 5,1759 5,1759 5,1759 5,1759 5,1759 1795,1705 1795,1705 1795,1705 1795,1705 1795,1705 1795,1705 1795,1705 1795,1705 1795,1705 1758,1705 1704,1705 1650,1705 1597,1705 1543,1705 1489,1705 1436,1705 1382,1705 1328,1705 1275,1705 1221,1705 1167,1705 1114,1705 1060,1705 1006,1705 953,1705 899,1705 845,1705 792,1705 738,1705 684,1705 631,1705 577,1705 523,1705 470,1705 416,1705 362,1705 309,1705 255,1705 201,1705 148,1705 94,1705 40,1705 5,1705 5,1705 5,1705 5,1705 5,1705 5,1705 5,1705 5,1705 1795,1651 1795,1651 1795,1651 1795,1651 1795,1651 1795,1651 1795,1651 1795,1651 1795,1651 1758,1651 1704,1651 1650,1651 1597,1651 1543,1651 1489,1651 1436,1651 1382,1651 1328,1651 1275,1651 1221,1651 1167,1651 1114,1651 1060,1651 1006,1651 953,1651 899,1651 845,1651 792,1651 738,1651 684,1651 631,1651 577,1651 523,1651 470,1651 416,1651 362,1651 309,1651 255,1651 201,1651 148,1651 94,1651 40,1651 5,1651 5,1651 5,1651 5,1651 5,1651 5,1651 5,1651 5,1651 1795,1598 1795,1598 1795,1598 1795,1598 1795,1598 1795,1598 1795,1598 1795,1598 1795,1598 1758,1598 1704,1598 1650,1598 1597,1598 1543,1598 1489,1598 1436,1598 1382,1598 1328,1598 1275,1598 1221,1598 1167,1598 1114,1598 1060,1598 1006,1598 953,1598 899,1598 845,1598 792,1598 738,1598 684,1598 631,1598 577,1598 523,1598 470,1598 416,1598 362,1598 309,1598 255,1598 201,1598 148,1598 94,1598 40,1598 5,1598 5,1598 5,1598 5,1598 5,1598 5,1598 5,1598 5,1598 1795,1544 1795,1544 1795,1544 1795,1544 1795,1544 1795,1544 1795,1544 1795,1544 1795,1544 1758,1544 1704,1544 1650,1544 1597,1544 1543,1544 1489,1544 1436,1544 1382,1544 1328,1544 1275,1544 1221,1544 1167,1544 1114,1544 1060,1544 1006,1544 953,1544 899,1544 845,1544 792,1544 738,1544 684,1544 631,1544 577,1544 523,1544 470,1544 416,1544 362,1544 309,1544 255,1544 201,1544 148,1544 94,1544 40,1544 5,1544 5,1544 5,1544 5,1544 5,1544 5,1544 5,1544 5,1544 1795,1490 1795,1490 1795,1490 1795,1490 1795,1490 1795,1490 1795,1490 1795,1490 1795,1490 1758,1490 1704,1490 1650,1490 1597,1490 1543,1490 1489,1490 1436,1490 1382,1490 1328,1490 1275,1490 1221,1490 1167,1490 1114,1490 1060,1490 1006,1490 953,1490 899,1490 845,1490 792,1490 738,1490 684,1490 631,1490 577,1490 523,1490 470,1490 416,1490 362,1490 309,1490 255,1490 201,1490 148,1490 94,1490 40,1490 5,1490 5,1490 5,1490 5,1490 5,1490 5,1490 5,1490 5,1490 1795,1437 1795,1437 1795,1437 1795,1437 1795,1437 1795,1437 1795,1437 1795,1437 1795,1437 1758,1437 1704,1437 1650,1437 1597,1437 1543,1437 1489,1437 1436,1437 1382,1437 1328,1437 1275,1437 1221,1437 1167,1437 1114,1437 1060,1437 1006,1437 953,1437 899,1437 845,1437 792,1437 738,1437 684,1437 631,1437 577,1437 523,1437 470,1437 416,1437 362,1437 309,1437 255,1437 201,1437 148,1437 94,1437 40,1437 5,1437 5,1437 5,1437 5,1437 5,1437 5,1437 5,1437 5,1437 1795,1383 1795,1383 1795,1383 1795,1383 1795,1383 1795,1383 1795,1383 1795,1383 1795,1383 1758,1383 1704,1383 1650,1383 1597,1383 1543,1383 1489,1383 1436,1383 1382,1383 1328,1383 1275,1383 1221,1383 1167,1383 1114,1383 1060,1383 1006,1383 953,1383 899,1383 845,1383 792,1383 738,1383 684,1383 631,1383 577,1383 523,1383 470,1383 416,1383 362,1383 309,1383 255,1383 201,1383 148,1383 94,1383 40,1383 5,1383 5,1383 5,1383 5,1383 5,1383 5,1383 5,1383 5,1383 1795,1329 1795,1329 1795,1329 1795,1329 1795,1329 1795,1329 1795,1329 1795,1329 1795,1329 1758,1329 1704,1329 1650,1329 1597,1329 1543,1329 1489,1329 1436,1329 1382,1329 1328,1329 1275,1329 1221,1329 1167,1329 1114,1329 1060,1329 1006,1329 953,1329 899,1329 845,1329 792,1329 738,1329 684,1329 631,1329 577,1329 523,1329 470,1329 416,1329 362,1329 309,1329 255,1329 201,1329 148,1329 94,1329 40,1329 5,1329 5,1329 5,1329 5,1329 5,1329 5,1329 5,1329 5,1329 1795,1276 1795,1276 1795,1276 1795,1276 1795,1276 1795,1276 1795,1276 1795,1276 1795,1276 1758,1276 1704,1276 1650,1276 1597,1276 1543,1276 1489,1276 1436,1276 1382,1276 1328,1276 1275,1276 1221,1276 1167,1276 1114,1276 1060,1276 1006,1276 953,1276 899,1276 845,1276 792,1276 738,1276 684,1276 631,1276 577,1276 523,1276 470,1276 416,1276 362,1276 309,1276 255,1276 201,1276 148,1276 94,1276 40,1276 5,1276 5,1276 5,1276 5,1276 5,1276 5,1276 5,1276 5,1276 1795,1222 1795,1222 1795,1222 1795,1222 1795,1222 1795,1222 1795,1222 1795,1222 1795,1222 1758,1222 1704,1222 1650,1222 1597,1222 1543,1222 1489,1222 1436,1222 1382,1222 1328,1222 1275,1222 1221,1222 1167,1222 1114,1222 1060,1222 1006,1222 953,1222 899,1222 845,1222 792,1222 738,1222 684,1222 631,1222 577,1222 523,1222 470,1222 416,1222 362,1222 309,1222 255,1222 201,1222 148,1222 94,1222 40,1222 5,1222 5,1222 5,1222 5,1222 5,1222 5,1222 5,1222 5,1222 1795,1168 1795,1168 1795,1168 1795,1168 1795,1168 1795,1168 1795,1168 1795,1168 1795,1168 1758,1168 1704,1168 1650,1168 1597,1168 1543,1168 1489,1168 1436,1168 1382,1168 1328,1168 1275,1168 1221,1168 1167,1168 1114,1168 1060,1168 1006,1168 953,1168 899,1168 845,1168 792,1168 738,1168 684,1168 631,1168 577,1168 523,1168 470,1168 416,1168 362,1168 309,1168 255,1168 201,1168 148,1168 94,1168 40,1168 5,1168 5,1168 5,1168 5,1168 5,1168 5,1168 5,1168 5,1168 1795,1115 1795,1115 1795,1115 1795,1115 1795,1115 1795,1115 1795,1115 1795,1115 1795,1115 1758,1115 1704,1115 1650,1115 1597,1115 1543,1115 1489,1115 1436,1115 1382,1115 1328,1115 1275,1115 1221,1115 1167,1115 1114,1115 1060,1115 1006,1115 953,1115 899,1115 845,1115 792,1115 738,1115 684,1115 631,1115 577,1115 523,1115 470,1115 416,1115 362,1115 309,1115 255,1115 201,1115 148,1115 94,1115 40,1115 5,1115 5,1115 5,1115 5,1115 5,1115 5,1115 5,1115 5,1115 1795,1061 1795,1061 1795,1061 1795,1061 1795,1061 1795,1061 1795,1061 1795,1061 1795,1061 1758,1061 1704,1061 1650,1061 1597,1061 1543,1061 1489,1061 1436,1061 1382,1061 1328,1061 1275,1061 1221,1061 1167,1061 1114,1061 1060,1061 1006,1061 953,1061 899,1061 845,1061 792,1061 738,1061 684,1061 631,1061 577,1061 523,1061 470,1061 416,1061 362,1061 309,1061 255,1061 201,1061 148,1061 94,1061 40,1061 5,1061 5,1061 5,1061 5,1061 5,1061 5,1061 5,1061 5,1061 1795,1007 1795,1007 1795,1007 1795,1007 1795,1007 1795,1007 1795,1007 1795,1007 1795,1007 1758,1007 1704,1007 1650,1007 1597,1007 1543,1007 1489,1007 1436,1007 1382,1007 1328,1007 1275,1007 1221,1007 1167,1007 1114,1007 1060,1007 1006,1007 953,1007 899,1007 845,1007 792,1007 738,1007 684,1007 631,1007 577,1007 523,1007 470,1007 416,1007 362,1007 309,1007 255,1007 201,1007 148,1007 94,1007 40,1007 5,1007 5,1007 5,1007 5,1007 5,1007 5,1007 5,1007 5,1007 1795,954 1795,954 1795,954 1795,954 1795,954 1795,954 1795,954 1795,954 1795,954 1758,954 1704,954 1650,954 1597,954 1543,954 1489,954 1436,954 1382,954 1328,954 1275,954 1221,954 1167,954 1114,954 1060,954 1006,954 953,954 899,954 845,954 792,954 738,954 684,954 631,954 577,954 523,954 470,954 416,954 362,954 309,954 255,954 201,954 148,954 94,954 40,954 5,954 5,954 5,954 5,954 5,954 5,954 5,954 5,954 1795,900 1795,900 1795,900 1795,900 1795,900 1795,900 1795,900 1795,900 1795,900 1758,900 1704,900 1650,900 1597,900 1543,900 1489,900 1436,900 1382,900 1328,900 1275,900 1221,900 1167,900 1114,900 1060,900 1006,900 953,900 899,900 845,900 792,900 738,900 684,900 631,900 577,900 523,900 470,900 416,900 362,900 309,900 255,900 201,900 148,900 94,900 40,900 5,900 5,900 5,900 5,900 5,900 5,900 5,900 5,900 1795,846 1795,846 1795,846 1795,846 1795,846 1795,846 1795,846 1795,846 1795,846 1758,846 1704,846 1650,846 1597,846 1543,846 1489,846 1436,846 1382,846 1328,846 1275,846 1221,846 1167,846 1114,846 1060,846 1006,846 953,846 899,846 845,846 792,846 738,846 684,846 631,846 577,846 523,846 470,846 416,846 362,846 309,846 255,846 201,846 148,846 94,846 40,846 5,846 5,846 5,846 5,846 5,846 5,846 5,846 5,846 1795,793 1795,793 1795,793 1795,793 1795,793 1795,793 1795,793 1795,793 1795,793 1758,793 1704,793 1650,793 1597,793 1543,793 1489,793 1436,793 1382,793 1328,793 1275,793 1221,793 1167,793 1114,793 1060,793 1006,793 953,793 899,793 845,793 792,793 738,793 684,793 631,793 577,793 523,793 470,793 416,793 362,793 309,793 255,793 201,793 148,793 94,793 40,793 5,793 5,793 5,793 5,793 5,793 5,793 5,793 5,793 1795,739 1795,739 1795,739 1795,739 1795,739 1795,739 1795,739 1795,739 1795,739 1758,739 1704,739 1650,739 1597,739 1543,739 1489,739 1436,739 1382,739 1328,739 1275,739 1221,739 1167,739 1114,739 1060,739 1006,739 953,739 899,739 845,739 792,739 738,739 684,739 631,739 577,739 523,739 470,739 416,739 362,739 309,739 255,739 201,739 148,739 94,739 40,739 5,739 5,739 5,739 5,739 5,739 5,739 5,739 5,739 1795,685 1795,685 1795,685 1795,685 1795,685 1795,685 1795,685 1795,685 1795,685 1758,685 1704,685 1650,685 1597,685 1543,685 1489,685 1436,685 1382,685 1328,685 1275,685 1221,685 1167,685 1114,685 1060,685 1006,685 953,685 899,685 845,685 792,685 738,685 684,685 631,685 577,685 523,685 470,685 416,685 362,685 309,685 255,685 201,685 148,685 94,685 40,685 5,685 5,685 5,685 5,685 5,685 5,685 5,685 5,685 1795,632 1795,632 1795,632 1795,632 1795,632 1795,632 1795,632 1795,632 1795,632 1758,632 1704,632 1650,632 1597,632 1543,632 1489,632 1436,632 1382,632 1328,632 1275,632 1221,632 1167,632 1114,632 1060,632 1006,632 953,632 899,632 845,632 792,632 738,632 684,632 631,632 577,632 523,632 470,632 416,632 362,632 309,632 255,632 201,632 148,632 94,632 40,632 5,632 5,632 5,632 5,632 5,632 5,632 5,632 5,632 1795,578 1795,578 1795,578 1795,578 1795,578 1795,578 1795,578 1795,578 1795,578 1758,578 1704,578 1650,578 1597,578 1543,578 1489,578 1436,578 1382,578 1328,578 1275,578 1221,578 1167,578 1114,578 1060,578 1006,578 953,578 899,578 845,578 792,578 738,578 684,578 631,578 577,578 523,578 470,578 416,578 362,578 309,578 255,578 201,578 148,578 94,578 40,578 5,578 5,578 5,578 5,578 5,578 5,578 5,578 5,578 1795,524 1795,524 1795,524 1795,524 1795,524 1795,524 1795,524 1795,524 1795,524 1758,524 1704,524 1650,524 1597,524 1543,524 1489,524 1436,524 1382,524 1328,524 1275,524 1221,524 1167,524 1114,524 1060,524 1006,524 953,524 899,524 845,524 792,524 738,524 684,524 631,524 577,524 523,524 470,524 416,524 362,524 309,524 255,524 201,524 148,524 94,524 40,524 5,524 5,524 5,524 5,524 5,524 5,524 5,524 5,524 1795,471 1795,471 1795,471 1795,471 1795,471 1795,471 1795,471 1795,471 1795,471 1758,471 1704,471 1650,471 1597,471 1543,471 1489,471 1436,471 1382,471 1328,471 1275,471 1221,471 1167,471 1114,471 1060,471 1006,471 953,471 899,471 845,471 792,471 738,471 684,471 631,471 577,471 523,471 470,471 416,471 362,471 309,471 255,471 201,471 148,471 94,471 40,471 5,471 5,471 5,471 5,471 5,471 5,471 5,471 5,471 1795,417 1795,417 1795,417 1795,417 1795,417 1795,417 1795,417 1795,417 1795,417 1758,417 1704,417 1650,417 1597,417 1543,417 1489,417 1436,417 1382,417 1328,417 1275,417 1221,417 1167,417 1114,417 1060,417 1006,417 953,417 899,417 845,417 792,417 738,417 684,417 631,417 577,417 523,417 470,417 416,417 362,417 309,417 255,417 201,417 148,417 94,417 40,417 5,417 5,417 5,417 5,417 5,417 5,417 5,417 5,417 1795,363 1795,363 1795,363 1795,363 1795,363 1795,363 1795,363 1795,363 1795,363 1758,363 1704,363 1650,363 1597,363 1543,363 1489,363 1436,363 1382,363 1328,363 1275,363 1221,363 1167,363 1114,363 1060,363 1006,363 953,363 899,363 845,363 792,363 738,363 684,363 631,363 577,363 523,363 470,363 416,363 362,363 309,363 255,363 201,363 148,363 94,363 40,363 5,363 5,363 5,363 5,363 5,363 5,363 5,363 5,363 1795,310 1795,310 1795,310 1795,310 1795,310 1795,310 1795,310 1795,310 1795,310 1758,310 1704,310 1650,310 1597,310 1543,310 1489,310 1436,310 1382,310 1328,310 1275,310 1221,310 1167,310 1114,310 1060,310 1006,310 953,310 899,310 845,310 792,310 738,310 684,310 631,310 577,310 523,310 470,310 416,310 362,310 309,310 255,310 201,310 148,310 94,310 40,310 5,310 5,310 5,310 5,310 5,310 5,310 5,310 5,310 1795,256 1795,256 1795,256 1795,256 1795,256 1795,256 1795,256 1795,256 1795,256 1758,256 1704,256 1650,256 1597,256 1543,256 1489,256 1436,256 1382,256 1328,256 1275,256 1221,256 1167,256 1114,256 1060,256 1006,256 953,256 899,256 845,256 792,256 738,256 684,256 631,256 577,256 523,256 470,256 416,256 362,256 309,256 255,256 201,256 148,256 94,256 40,256 5,256 5,256 5,256 5,256 5,256 5,256 5,256 5,256 1795,202 1795,202 1795,202 1795,202 1795,202 1795,202 1795,202 1795,202 1795,202 1758,202 1704,202 1650,202 1597,202 1543,202 1489,202 1436,202 1382,202 1328,202 1275,202 1221,202 1167,202 1114,202 1060,202 1006,202 953,202 899,202 845,202 792,202 738,202 684,202 631,202 577,202 523,202 470,202 416,202 362,202 309,202 255,202 201,202 148,202 94,202 40,202 5,202 5,202 5,202 5,202 5,202 5,202 5,202 5,202 1795,149 1795,149 1795,149 1795,149 1795,149 1795,149 1795,149 1795,149 1795,149 1758,149 1704,149 1650,149 1597,149 1543,149 1489,149 1436,149 1382,149 1328,149 1275,149 1221,149 1167,149 1114,149 1060,149 1006,149 953,149 899,149 845,149 792,149 738,149 684,149 631,149 577,149 523,149 470,149 416,149 362,149 309,149 255,149 201,149 148,149 94,149 40,149 5,149 5,149 5,149 5,149 5,149 5,149 5,149 5,149 1795,95 1795,95 1795,95 1795,95 1795,95 1795,95 1795,95 1795,95 1795,95 1758,95 1704,95 1650,95 1597,95 1543,95 1489,95 1436,95 1382,95 1328,95 1275,95 1221,95 1167,95 1114,95 1060,95 1006,95 953,95 899,95 845,95 792,95 738,95 684,95 631,95 577,95 523,95 470,95 416,95 362,95 309,95 255,95 201,95 148,95 94,95 40,95 5,95 5,95 5,95 5,95 5,95 5,95 5,95 5,95 1795,41 1795,41 1795,41 1795,41 1795,41 1795,41 1795,41 1795,41 1795,41 1758,41 1704,41 1650,41 1597,41 1543,41 1489,41 1436,41 1382,41 1328,41 1275,41 1221,41 1167,41 1114,41 1060,41 1006,41 953,41 899,41 845,41 792,41 738,41 684,41 631,41 577,41 523,41 470,41 416,41 362,41 309,41 255,41 201,41 148,41 94,41 40,41 5,41 5,41 5,41 5,41 5,41 5,41 5,41 5,41 1795,5 1795,5 1795,5 1795,5 1795,5 1795,5 1795,5 1795,5 1795,5 1758,5 1704,5 1650,5 1597,5 1543,5 1489,5 1436,5 1382,5 1328,5 1275,5 1221,5 1167,5 1114,5 1060,5 1006,5 953,5 899,5 845,5 792,5 738,5 684,5 631,5 577,5 523,5 470,5 416,5 362,5 309,5 255,5 201,5 148,5 94,5 40,5 5,5 5,5 5,5 5,5 5,5 5,5 5,5 5,5 1795,5 1795,5 1795,5 1795,5 1795,5 1795,5 1795,5 1795,5 1795,5 1758,5 1704,5 1650,5 1597,5 1543,5 1489,5 1436,5 1382,5 1328,5 1275,5 1221,5 1167,5 1114,5 1060,5 1006,5 953,5 899,5 845,5 792,5 738,5 684,5 631,5 577,5 523,5 470,5 416,5 362,5 309,5 255,5 201,5 148,5 94,5 40,5 5,5 5,5 5,5 5,5 5,5 5,5 5,5 5,5 1795,5 1795,5 1795,5 1795,5 1795,5 1795,5 1795,5 1795,5 1795,5 1758,5 1704,5 1650,5 1597,5 1543,5 1489,5 1436,5 1382,5 1328,5 1275,5 1221,5 1167,5 1114,5 1060,5 1006,5 953,5 899,5 845,5 792,5 738,5 684,5 631,5 577,5 523,5 470,5 416,5 362,5 309,5 255,5 201,5 148,5 94,5 40,5 5,5 5,5 5,5 5,5 5,5 5,5 5,5 5,5 1795,5 1795,5 1795,5 1795,5 1795,5 1795,5 1795,5 1795,5 1795,5 1758,5 1704,5 1650,5 1597,5 1543,5 1489,5 1436,5 1382,5 1328,5 1275,5 1221,5 1167,5 1114,5 1060,5 1006,5 953,5 899,5 845,5 792,5 738,5 684,5 631,5 577,5 523,5 470,5 416,5 362,5 309,5 255,5 201,5 148,5 94,5 40,5 5,5 5,5 5,5 5,5 5,5 5,5 5,5 5,5 1795,5 1795,5 1795,5 1795,5 1795,5 1795,5 1795,5 1795,5 1795,5 1758,5 1704,5 1650,5 1597,5 1543,5 1489,5 1436,5 1382,5 1328,5 1275,5 1221,5 1167,5 1114,5 1060,5 1006,5 953,5 899,5 845,5 792,5 738,5 684,5 631,5 577,5 523,5 470,5 416,5 362,5 309,5 255,5 201,5 148,5 94,5 40,5 5,5 5,5 5,5 5,5 5,5 5,5 5,5 5,5 1795,5 1795,5 1795,5 1795,5 1795,5 1795,5 1795,5 1795,5 1795,5 1758,5 1704,5 1650,5 1597,5 1543,5 1489,5 1436,5 1382,5 1328,5 1275,5 1221,5 1167,5 1114,5 1060,5 1006,5 953,5 899,5 845,5 792,5 738,5 684,5 631,5 577,5 523,5 470,5 416,5 362,5 309,5 255,5 201,5 148,5 94,5 40,5 5,5 5,5 5,5 5,5 5,5 5,5 5,5 5,5 1795,5 1795,5 1795,5 1795,5 1795,5 1795,5 1795,5 1795,5 1795,5 1758,5 1704,5 1650,5 1597,5 1543,5 1489,5 1436,5 1382,5 1328,5 1275,5 1221,5 1167,5 1114,5 1060,5 1006,5 953,5 899,5 845,5 792,5 738,5 684,5 631,5 577,5 523,5 470,5 416,5 362,5 309,5 255,5 201,5 148,5 94,5 40,5 5,5 5,5 5,5 5,5 5,5 5,5 5,5 5,5 1795,5 1795,5 1795,5 1795,5 1795,5 1795,5 1795,5 1795,5 1795,5 1758,5 1704,5 1650,5 1597,5 1543,5 1489,5 1436,5 1382,5 1328,5 1275,5 1221,5 1167,5 1114,5 1060,5 1006,5 953,5 899,5 845,5 792,5 738,5 684,5 631,5 577,5 523,5 470,5 416,5 362,5 309,5 255,5 201,5 148,5 94,5 40,5 5,5 5,5 5,5 5,5 5,5 5,5 5,5 5,5 "/>
</svg>
