<svg width="1800" height="1800" viewBox="0 0 1800 1800" xmlns="http://www.w3.org/2000/svg">
<polyline fill="none" opacity="1" stroke="#FF0000" stroke-width="1" points="845,925 861,934 876,938 890,937 901,933 910,927 916,919 919,911 919,903 1795,1795 1795,1795 1795,1795 1795,1795 675,1795 5,1795 5,1795 5,1795 833,945 855,952 876,954 893,951 908,945 919,935 926,924 929,912 928,900 1795,1792 1795,1795 1795,1795 1795,1795 1285,1795 121,1795 5,1795 5,1795 823,971 852,977 878,976 900,970 918,959 932,945 940,929 943,913 941,896 1795,1077 1795,1795 1795,1795 1795,1795 1549,1795 667,1795 24,1795 5,1795 814,1005 851,1008 883,1003 911,992 933,977 949,958 960,936 963,913 959,890 1795,775 1795,1795 1795,1795 1795,1795 1620,1795 968,1795 458,1795 111,1795 809,1049 855,1046 894,1036 927,1019 953,998 973,973 986,944 991,913 985,881 1795,689 1795,1428 1795,1795 1795,1795 1594,1795 1119,1795 726,1795 437,1795 811,1102 865,1092 911,1075 949,1051 980,1023 1004,991 1020,954 1028,914 1023,869 1795,708 1795,1225 1795,1641 1795,1795 1526,1795 1184,1795 886,1795 653,1795 821,1166 884,1146 936,1119 979,1088 1014,1053 1042,1013 1063,970 1077,918 1078,857 1795,772 1795,1129 1795,1429 1686,1645 1447,1769 1202,1795 978,1767 794,1675 844,1239 914,1206 970,1168 1016,1128 1054,1085 1086,1041 1113,992 1139,934 1157,855 1685,852 1718,1093 1660,1302 1536,1462 1373,1561 1198,1601 1030,1586 885,1529 882,1319 956,1271 1015,1220 1062,1170 1100,1120 1133,1072 1166,1022 1203,968 1262,893 1486,939 1531,1089 1503,1228 1423,1340 1311,1415 1184,1450 1058,1447 945,1413 939,1404 1014,1337 1072,1272 1116,1211 1152,1155 1183,1103 1214,1056 1252,1015 1311,989 1385,1017 1416,1095 1399,1182 1344,1257 1263,1311 1169,1339 1073,1340 984,1319 1019,1488 1090,1400 1141,1319 1179,1247 1208,1184 1232,1130 1255,1085 1281,1053 1313,1040 1341,1055 1350,1096 1332,1147 1289,1196 1228,1233 1156,1254 1081,1257 1009,1243 1124,1566 1184,1455 1225,1358 1252,1275 1269,1204 1282,1147 1293,1103 1304,1073 1314,1060 1320,1065 1313,1087 1291,1117 1254,1147 1204,1172 1146,1187 1085,1190 1026,1181 1255,1631 1298,1497 1322,1383 1333,1289 1336,1212 1334,1151 1331,1106 1326,1075 1320,1060 1310,1059 1293,1069 1267,1086 1231,1105 1187,1122 1138,1132 1087,1134 1038,1129 1413,1673 1430,1517 1431,1389 1422,1286 1406,1204 1388,1141 1369,1094 1350,1063 1330,1046 1308,1040 1282,1044 1252,1054 1216,1066 1175,1077 1132,1085 1088,1088 1045,1084 1595,1684 1579,1510 1551,1371 1516,1262 1479,1177 1443,1113 1407,1068 1374,1037 1342,1019 1310,1012 1277,1013 1242,1019 1205,1028 1167,1037 1127,1043 1088,1046 1050,1045 1795,1654 1739,1468 1676,1323 1613,1212 1552,1129 1496,1068 1444,1026 1396,998 1353,982 1312,976 1273,977 1235,983 1197,990 1159,998 1122,1005 1086,1009 1051,1011 1795,1574 1795,1385 1795,1242 1707,1136 1621,1059 1544,1005 1475,969 1415,947 1362,936 1313,933 1269,936 1228,943 1188,952 1151,961 1115,969 1082,975 1050,979 "/>
</svg>
