<svg width="1800" height="1800" viewBox="0 0 1800 1800" xmlns="http://www.w3.org/2000/svg">
<polyline fill="none" opacity="1" stroke="#00FF00" stroke-width="1" points="928,1455 936,1455 945,1455 954,1453 964,1451 973,1447 982,1442 991,1436 999,1428 1006,1420 1012,1410 1016,1400 1019,1390 1019,410 1016,400 1012,390 1006,380 999,372 991,364 982,358 973,353 964,349 954,347 945,345 936,345 928,345 926,1464 936,1465 946,1465 956,1463 967,1461 978,1457 988,1452 998,1445 1007,1436 1015,1427 1022,1416 1027,1405 1031,1393 1031,407 1027,395 1022,384 1015,373 1007,364 998,355 988,348 978,343 967,339 956,337 946,335 936,335 926,336 925,1473 935,1475 946,1475 958,1475 970,1472 983,1468 995,1463 1006,1455 1017,1446 1026,1435 1034,1422 1040,1409 1044,1395 1044,405 1040,391 1034,378 1026,365 1017,354 1006,345 995,337 983,332 970,328 958,325 946,325 935,325 925,327 922,1484 934,1486 946,1488 959,1487 973,1486 987,1482 1002,1476 1015,1467 1028,1457 1039,1444 1048,1430 1055,1414 1059,1398 1059,402 1055,386 1048,370 1039,356 1028,343 1015,333 1002,324 987,318 973,314 959,313 946,312 934,314 922,316 919,1495 931,1499 945,1501 960,1502 976,1501 992,1497 1009,1491 1025,1482 1040,1470 1054,1455 1064,1438 1072,1420 1076,1401 1076,399 1072,380 1064,362 1054,345 1040,330 1025,318 1009,309 992,303 976,299 960,298 945,299 931,301 919,305 914,1508 927,1513 943,1516 960,1518 978,1518 997,1515 1017,1509 1036,1499 1055,1486 1071,1468 1084,1448 1093,1426 1097,1403 1097,397 1093,374 1084,352 1071,332 1055,314 1036,301 1017,291 997,285 978,282 960,282 943,284 927,287 914,292 907,1521 922,1528 939,1533 958,1537 979,1539 1001,1537 1025,1531 1049,1520 1071,1505 1091,1485 1107,1460 1118,1433 1123,1405 1123,395 1118,367 1107,340 1091,315 1071,295 1049,280 1025,269 1001,263 979,261 958,263 939,267 922,272 907,279 899,1535 915,1544 933,1552 954,1558 978,1562 1004,1562 1033,1557 1062,1546 1091,1529 1116,1505 1136,1476 1149,1442 1154,1406 1154,394 1149,358 1136,324 1116,295 1091,271 1062,254 1033,243 1004,238 978,238 954,242 933,248 915,256 899,265 888,1550 905,1562 924,1573 948,1582 975,1589 1005,1592 1040,1589 1076,1579 1113,1561 1146,1532 1173,1495 1189,1451 1193,1406 1193,394 1189,349 1173,305 1146,268 1113,239 1076,221 1040,211 1005,208 975,211 948,218 924,227 905,238 888,250 874,1565 891,1580 912,1595 937,1609 967,1620 1003,1627 1044,1629 1090,1621 1137,1602 1183,1568 1220,1521 1242,1462 1244,1401 1244,399 1242,338 1220,279 1183,232 1137,198 1090,179 1044,171 1003,173 967,180 937,191 912,205 891,220 874,235 858,1580 874,1599 895,1618 922,1637 955,1655 995,1669 1044,1677 1101,1675 1164,1657 1228,1619 1283,1558 1315,1476 1314,1389 1314,411 1315,324 1283,242 1228,181 1164,143 1101,125 1044,123 995,131 955,145 922,163 895,182 874,201 858,220 837,1594 853,1617 873,1642 900,1667 934,1693 979,1716 1035,1735 1106,1744 1189,1734 1282,1695 1369,1617 1424,1498 1416,1360 1416,440 1424,302 1369,183 1282,105 1189,66 1106,56 1035,65 979,84 934,107 900,133 873,158 853,183 837,206 813,1607 827,1634 845,1664 870,1697 904,1732 950,1768 1012,1795 1096,1795 1204,1795 1338,1795 1484,1722 1601,1544 1598,1287 1598,513 1601,256 1484,78 1338,5 1204,5 1096,5 1012,5 950,32 904,68 870,103 845,136 827,166 813,193 786,1617 796,1648 810,1684 831,1724 862,1770 906,1795 969,1795 1060,1795 1192,1795 1378,1795 1622,1795 1795,1688 1795,1223 1795,577 1795,112 1622,5 1378,5 1192,5 1060,5 969,5 906,5 862,30 831,76 810,116 796,152 786,183 755,1623 760,1658 769,1699 784,1746 807,1795 842,1795 897,1795 984,1795 1124,1795 1354,1795 1726,1795 1795,1795 1795,1403 1795,397 1795,5 1726,5 1354,5 1124,5 984,5 897,5 842,5 807,5 784,53 769,101 760,142 755,177 721,1624 721,1662 723,1706 728,1760 739,1795 760,1795 795,1795 858,1795 971,1795 1187,1795 1632,1795 1795,1795 1795,1795 1795,5 1795,5 1632,5 1187,5 971,5 858,5 795,5 760,5 739,5 728,40 723,94 721,138 721,176 686,1620 679,1659 673,1705 667,1762 663,1795 663,1795 668,1795 685,1795 725,1795 819,1795 1066,1795 1795,1795 1795,1795 1795,5 1795,5 1066,5 819,5 725,5 685,5 668,5 663,5 663,5 667,38 673,95 679,141 686,180 651,1610 637,1648 622,1694 605,1750 584,1795 560,1795 531,1795 491,1795 432,1795 332,1795 114,1795 5,1795 5,1795 5,5 5,5 114,5 332,5 432,5 491,5 531,5 560,5 584,5 605,50 622,106 637,152 651,190 617,1594 597,1630 573,1673 545,1725 509,1789 464,1795 402,1795 313,1795 175,1795 5,1795 5,1795 5,1795 5,1795 5,5 5,5 5,5 5,5 175,5 313,5 402,5 464,5 509,11 545,75 573,127 597,170 617,206 585,1573 560,1605 529,1643 491,1688 444,1742 383,1795 299,1795 182,1795 8,1795 5,1795 5,1795 5,1795 5,1431 5,369 5,5 5,5 5,5 8,5 182,5 299,5 383,5 444,58 491,112 529,157 560,195 585,227 558,1548 528,1575 492,1606 447,1642 392,1683 322,1730 229,1782 105,1795 5,1795 5,1795 5,1795 5,1614 5,1176 5,624 5,186 5,5 5,5 5,5 105,5 229,18 322,70 392,117 447,158 492,194 528,225 558,252 535,1518 502,1540 462,1564 414,1591 356,1620 283,1649 191,1676 73,1696 5,1698 5,1663 5,1562 5,1366 5,1070 5,730 5,434 5,238 5,137 5,102 73,104 191,124 283,151 356,180 414,209 462,236 502,260 535,282 516,1487 482,1503 441,1520 392,1538 333,1555 263,1569 177,1577 73,1573 5,1549 5,1492 5,1388 5,1227 5,1016 5,784 5,573 5,412 5,308 5,251 73,227 177,223 263,231 333,245 392,262 441,280 482,297 516,313 503,1454 468,1465 427,1476 379,1485 323,1492 258,1494 181,1489 93,1470 5,1433 5,1370 5,1274 5,1143 5,985 5,815 5,657 5,526 5,430 5,367 93,330 181,311 258,306 323,308 379,315 427,324 468,335 503,346 494,1422 460,1428 420,1433 375,1435 323,1434 264,1428 197,1413 124,1386 46,1343 5,1280 5,1195 5,1088 5,965 5,835 5,712 5,605 5,520 46,457 124,414 197,387 264,372 323,366 375,365 420,367 460,372 494,378 490,1390 456,1392 419,1392 377,1389 330,1382 277,1369 220,1348 160,1317 98,1273 38,1214 5,1140 5,1051 5,951 5,849 5,749 5,660 38,586 98,527 160,483 220,452 277,431 330,418 377,411 419,408 456,408 490,410 "/>
</svg>
