<svg width="1800" height="1800" viewBox="0 0 1800 1800" xmlns="http://www.w3.org/2000/svg">
<rect x="0" y="0" width="1800" height="1800" opacity="1" fill="#FFFFFF" stroke="none"/>
<polyline fill="none" opacity="1" stroke="#000000" stroke-width="1" points="888,889 887,889 887,889 887,889 886,889 886,889 886,889 885,889 885,889 884,889 884,889 884,890 883,890 883,890 882,890 882,891 881,891 881,891 881,892 880,892 880,892 879,893 879,893 879,894 878,894 878,895 878,895 877,896 877,897 877,897 877,898 877,898 877,899 877,900 877,900 877,901 877,902 877,902 877,903 877,904 877,904 878,905 878,905 878,906 879,906 879,907 879,907 880,908 880,908 881,909 881,909 882,909 882,910 882,910 883,910 883,910 884,910 884,911 885,911 885,911 885,911 886,911 886,911 887,911 887,911 887,911 888,911 888,888 887,888 887,888 887,888 886,889 886,889 886,889 885,889 885,889 884,889 884,889 883,889 883,889 882,890 882,890 882,890 881,890 881,891 880,891 880,891 879,892 879,892 878,893 878,893 878,894 877,894 877,895 877,896 877,896 876,897 876,898 876,898 876,899 876,900 876,900 876,901 876,902 876,903 876,903 877,904 877,905 877,905 877,906 878,906 878,907 879,907 879,908 879,908 880,909 880,909 881,909 881,910 882,910 882,910 883,910 883,911 884,911 884,911 884,911 885,911 885,911 886,911 886,911 886,911 887,912 887,912 888,912 888,888 887,888 887,888 887,888 886,888 886,888 885,888 885,888 885,888 884,888 884,889 883,889 883,889 882,889 882,889 881,890 881,890 880,890 880,891 879,891 879,891 878,892 878,892 878,893 877,893 877,894 876,895 876,895 876,896 876,897 875,897 875,898 875,899 875,900 875,901 875,901 875,902 876,903 876,903 876,904 876,905 877,905 877,906 877,907 878,907 878,908 879,908 879,909 879,909 880,910 880,910 881,910 881,910 882,911 882,911 883,911 883,911 884,911 884,912 885,912 885,912 886,912 886,912 886,912 887,912 887,912 888,912 888,888 887,888 887,888 887,888 886,888 886,888 885,888 885,888 885,888 884,888 884,888 883,888 883,888 882,889 882,889 881,889 880,889 880,890 879,890 879,891 878,891 878,891 877,892 877,892 877,893 876,894 876,894 875,895 875,896 875,897 875,897 875,898 874,899 874,900 874,901 875,901 875,902 875,903 875,904 875,904 876,905 876,906 876,906 877,907 877,908 878,908 878,909 879,909 879,910 880,910 880,910 881,911 881,911 882,911 882,911 883,912 883,912 884,912 884,912 885,912 885,912 886,912 886,912 886,912 887,912 887,912 888,912 888,887 888,887 887,887 887,887 886,887 886,887 885,887 885,887 884,887 884,888 883,888 883,888 882,888 882,888 881,888 881,889 880,889 880,889 879,890 878,890 878,890 877,891 877,891 876,892 876,893 875,893 875,894 875,895 874,896 874,896 874,897 874,898 874,899 874,900 874,901 874,901 874,902 874,903 874,904 875,905 875,905 875,906 876,907 876,908 877,908 877,909 878,909 878,910 879,910 879,911 880,911 880,911 881,912 881,912 882,912 883,912 883,912 884,912 884,913 885,913 885,913 886,913 886,913 886,913 887,913 887,913 888,913 888,887 888,887 887,887 887,887 886,887 886,887 885,887 885,887 884,887 884,887 883,887 883,887 882,887 882,888 881,888 880,888 880,888 879,889 879,889 878,889 877,890 877,890 876,891 876,892 875,892 875,893 874,894 874,894 874,895 873,896 873,897 873,898 873,899 873,900 873,901 873,902 873,902 873,903 873,904 874,905 874,906 874,907 875,907 875,908 876,909 877,909 877,910 878,910 878,911 879,911 879,911 880,912 881,912 881,912 882,913 882,913 883,913 884,913 884,913 885,913 885,913 886,913 886,913 886,913 887,913 887,913 888,913 888,887 888,887 887,886 887,886 886,886 886,886 885,886 885,886 884,886 884,886 883,887 883,887 882,887 881,887 881,887 880,887 880,888 879,888 878,888 878,889 877,889 876,890 876,890 875,891 875,892 874,892 874,893 873,894 873,895 872,896 872,897 872,898 872,899 872,900 872,901 872,902 872,903 872,904 873,905 873,905 873,906 874,907 874,908 875,909 875,909 876,910 877,910 877,911 878,911 878,912 879,912 880,912 880,913 881,913 882,913 882,913 883,913 883,913 884,914 885,914 885,914 886,914 886,914 886,914 887,914 887,913 888,913 888,886 888,886 887,886 887,886 886,886 886,886 885,886 885,886 884,886 884,886 883,886 883,886 882,886 881,886 881,886 880,887 879,887 879,887 878,888 877,888 876,889 876,889 875,890 874,890 874,891 873,892 873,893 872,894 872,894 871,895 871,896 871,898 871,899 871,900 871,901 871,902 871,903 871,904 872,905 872,906 872,907 873,908 873,908 874,909 875,910 875,910 876,911 877,912 877,912 878,912 879,913 879,913 880,913 881,914 881,914 882,914 883,914 883,914 884,914 884,914 885,914 886,914 886,914 887,914 887,914 887,914 888,914 888,886 888,886 887,886 887,886 886,885 886,885 885,885 885,885 884,885 884,885 883,885 882,885 882,886 881,886 880,886 880,886 879,886 878,887 877,887 877,887 876,888 875,888 874,889 874,890 873,890 872,891 872,892 871,893 871,894 870,895 870,896 870,897 870,898 870,900 870,901 870,902 870,903 870,904 871,905 871,906 871,907 872,908 873,909 873,910 874,911 875,911 875,912 876,912 877,913 878,913 878,914 879,914 880,914 881,914 881,914 882,915 883,915 883,915 884,915 884,915 885,915 886,915 886,915 887,915 887,914 888,914 888,914 888,885 888,885 887,885 887,885 887,885 886,885 885,885 885,885 884,885 884,885 883,885 882,885 882,885 881,885 880,885 879,885 879,886 878,886 877,886 876,887 875,887 875,888 874,888 873,889 872,890 872,891 871,892 870,893 870,894 869,895 869,896 869,897 868,898 868,900 868,901 869,902 869,903 869,905 869,906 870,907 871,908 871,909 872,910 873,911 873,911 874,912 875,913 876,913 877,914 877,914 878,914 879,915 880,915 880,915 881,915 882,915 883,915 883,915 884,915 885,915 885,915 886,915 886,915 887,915 887,915 888,915 888,915 888,885 888,885 888,885 887,885 887,884 886,884 886,884 885,884 884,884 884,884 883,884 882,884 882,884 881,884 880,884 879,884 878,885 878,885 877,885 876,886 875,886 874,887 873,887 872,888 871,889 871,890 870,891 869,892 869,893 868,894 868,896 867,897 867,898 867,900 867,901 867,902 867,904 868,905 868,906 869,907 869,908 870,909 871,910 872,911 873,912 873,913 874,913 875,914 876,914 877,915 878,915 879,915 880,916 880,916 881,916 882,916 883,916 883,916 884,916 885,916 885,916 886,916 886,916 887,916 887,915 888,915 888,915 889,885 888,884 888,884 887,884 887,884 886,884 886,884 885,884 884,883 884,883 883,883 882,883 882,883 881,883 880,883 879,884 878,884 877,884 876,884 875,885 874,885 873,886 872,887 872,887 871,888 870,889 869,890 868,891 867,892 867,894 866,895 866,897 866,898 866,900 866,901 866,902 866,904 867,905 867,907 868,908 868,909 869,910 870,911 871,912 872,913 873,914 874,914 875,915 876,915 877,916 878,916 878,916 879,916 880,917 881,917 882,917 883,917 883,917 884,917 885,917 885,916 886,916 886,916 887,916 887,916 888,916 888,916 889,884 888,884 888,884 887,884 887,883 886,883 886,883 885,883 885,883 884,883 883,883 882,883 882,883 881,883 880,883 879,883 878,883 877,883 876,883 875,884 874,884 873,885 872,886 871,886 870,887 869,888 868,889 867,890 866,892 865,893 865,895 864,896 864,898 864,899 864,901 864,903 865,904 865,906 866,907 866,909 867,910 868,911 869,912 870,913 871,914 872,915 873,915 874,916 875,916 876,917 877,917 878,917 879,917 880,917 881,917 882,917 883,917 883,917 884,917 885,917 885,917 886,917 887,917 887,917 888,916 888,916 889,916 889,884 889,883 888,883 888,883 887,883 887,883 886,882 885,882 885,882 884,882 883,882 882,882 882,882 881,882 880,882 879,882 878,882 877,882 876,882 875,883 873,883 872,884 871,884 870,885 869,886 868,887 867,888 866,890 865,891 864,893 863,894 863,896 862,898 862,899 862,901 863,903 863,905 863,906 864,908 865,909 866,911 867,912 868,913 869,914 870,915 871,916 873,916 874,917 875,917 876,918 877,918 878,918 879,918 880,918 881,918 882,918 883,918 883,918 884,918 885,918 886,918 886,917 887,917 887,917 888,917 888,917 889,916 889,883 889,883 888,883 888,883 887,882 887,882 886,882 885,882 885,881 884,881 883,881 882,881 882,881 881,881 880,881 879,881 878,881 877,881 875,881 874,882 873,882 872,883 870,883 869,884 868,885 866,886 865,887 864,889 863,890 862,892 862,894 861,895 861,897 860,899 860,901 861,903 861,905 862,907 863,909 863,910 865,912 866,913 867,914 868,915 869,916 871,917 872,918 873,918 875,919 876,919 877,919 878,919 879,919 880,919 881,919 882,919 883,919 884,919 884,919 885,919 886,918 886,918 887,918 888,918 888,917 889,917 889,917 890,883 889,883 889,882 888,882 888,882 887,881 886,881 886,881 885,881 884,880 883,880 883,880 882,880 881,880 880,880 879,880 878,880 876,880 875,880 874,880 872,881 871,881 870,882 868,883 867,884 865,885 864,886 863,887 862,889 860,891 860,893 859,895 859,897 858,899 858,901 859,904 859,906 860,908 861,910 862,911 863,913 864,914 866,916 867,917 869,918 870,918 871,919 873,919 874,920 876,920 877,920 878,920 879,920 880,920 881,920 882,920 883,920 884,920 885,919 885,919 886,919 887,919 887,918 888,918 888,918 889,918 889,917 890,882 889,882 889,882 888,881 888,881 887,881 887,881 886,880 885,880 885,880 884,879 883,879 882,879 881,879 880,879 879,879 877,878 876,879 875,879 873,879 872,879 870,880 869,880 867,881 866,882 864,883 863,885 861,886 860,888 859,890 858,892 857,894 856,897 856,899 856,902 856,904 857,906 858,909 859,911 860,913 862,914 863,916 865,917 866,918 868,919 869,920 871,920 872,921 874,921 875,921 877,921 878,921 879,921 880,921 881,921 882,921 883,921 884,920 885,920 886,920 886,920 887,919 887,919 888,919 889,918 889,918 890,918 890,882 890,882 889,881 889,881 888,881 888,880 887,880 886,880 886,879 885,879 884,879 883,878 882,878 881,878 880,878 879,877 878,877 876,877 875,877 873,877 872,878 870,878 868,879 866,879 865,880 863,882 861,883 859,885 858,887 856,889 855,891 854,894 854,896 853,899 853,902 854,905 855,907 856,910 857,912 858,914 860,916 862,918 863,919 865,920 867,921 869,922 871,922 872,922 874,923 875,923 877,923 878,923 879,923 880,922 881,922 882,922 883,922 884,921 885,921 886,921 887,920 887,920 888,920 888,919 889,919 889,919 890,918 891,882 890,881 890,881 889,880 889,880 888,880 887,879 887,879 886,878 885,878 884,878 883,877 882,877 881,877 880,876 879,876 878,876 876,876 875,876 873,876 871,876 869,876 868,877 866,877 864,878 861,880 859,881 857,883 856,885 854,887 853,890 851,893 851,896 850,899 850,902 851,905 852,908 853,911 855,914 856,916 858,918 860,919 862,921 864,922 866,923 868,923 870,924 872,924 874,924 875,924 877,924 878,924 879,924 881,924 882,923 883,923 884,923 885,922 885,922 886,921 887,921 888,921 888,920 889,920 889,919 890,919 890,919 891,881 890,881 890,880 890,880 889,879 888,879 888,879 887,878 886,878 886,877 885,877 884,876 883,876 882,876 881,875 879,875 878,874 876,874 875,874 873,874 871,874 869,874 867,875 865,875 862,876 860,877 858,879 855,881 853,883 851,886 850,889 848,892 847,895 847,899 847,902 848,906 849,909 850,912 852,915 854,918 856,920 859,922 861,923 863,924 866,925 868,925 870,926 872,926 874,926 875,926 877,926 878,925 880,925 881,925 882,924 883,924 884,923 885,923 886,923 887,922 887,922 888,921 889,921 889,920 890,920 890,920 891,919 891,881 891,880 890,880 890,879 889,879 889,878 888,878 888,877 887,877 886,876 885,876 884,875 883,875 882,874 881,874 880,873 878,873 877,873 875,872 873,872 871,872 869,872 867,872 864,873 861,874 859,875 856,876 853,878 851,881 848,884 846,887 845,891 844,894 843,899 843,903 844,907 845,911 847,914 849,917 852,920 854,922 857,924 860,926 862,927 865,927 867,928 870,928 872,928 874,928 876,928 877,927 879,927 880,926 881,926 883,925 884,925 885,924 886,924 886,923 887,923 888,922 888,922 889,921 890,921 890,920 891,920 891,920 892,880 891,880 891,879 890,879 890,878 889,878 889,877 888,877 887,876 887,876 886,875 885,874 884,874 883,873 882,873 880,872 879,871 877,871 875,870 873,870 871,870 869,870 866,870 863,870 861,871 858,872 854,873 851,875 848,878 845,881 843,885 841,889 839,894 839,898 839,903 840,908 841,912 843,917 846,920 849,923 852,925 855,927 859,928 862,929 864,930 867,930 870,930 872,930 874,930 876,929 878,929 879,928 881,928 882,927 883,927 884,926 885,925 886,925 887,924 888,924 888,923 889,922 890,922 890,921 891,921 891,920 891,920 892,880 892,879 891,879 891,878 890,878 890,877 889,877 889,876 888,875 887,875 886,874 886,873 885,873 883,872 882,871 881,871 879,870 878,869 876,869 874,868 871,868 869,867 866,867 863,867 860,868 856,869 853,870 849,872 845,875 842,878 838,882 836,887 834,892 833,898 833,904 835,909 837,915 839,919 843,923 846,926 850,929 854,931 857,932 861,932 864,933 867,933 870,933 872,932 874,932 876,931 878,931 880,930 881,929 883,928 884,928 885,927 886,926 887,926 888,925 888,924 889,924 890,923 890,922 891,922 891,921 892,921 892,920 893,880 892,879 892,879 892,878 891,877 891,877 890,876 889,875 889,875 888,874 887,873 886,873 885,872 884,871 883,870 882,869 880,868 878,867 876,867 874,866 872,865 869,864 866,864 863,864 859,864 855,865 851,866 847,868 842,871 838,874 834,879 830,885 828,891 827,898 827,905 829,911 831,917 835,923 839,927 844,930 848,933 852,935 857,936 861,936 864,936 867,936 870,935 873,935 875,934 877,933 879,932 881,931 882,931 883,930 885,929 886,928 887,927 887,926 888,926 889,925 890,924 890,924 891,923 891,922 892,922 892,921 892,921 893,879 893,879 892,878 892,878 892,877 891,876 891,876 890,875 889,874 889,873 888,872 887,872 886,871 885,870 884,869 883,868 881,867 879,866 877,865 875,863 873,862 870,862 867,861 863,860 859,860 855,860 850,861 844,863 839,866 833,869 828,875 824,881 821,889 819,897 820,906 822,914 825,921 830,927 835,932 841,935 846,938 851,939 856,940 860,940 864,940 868,939 871,938 874,937 876,936 878,935 880,934 882,933 883,932 884,931 885,930 887,929 887,928 888,927 889,926 890,926 890,925 891,924 891,924 892,923 892,922 893,922 893,921 894,879 893,878 893,878 893,877 892,876 892,876 891,875 891,874 890,873 890,873 889,872 888,871 887,870 886,869 885,867 884,866 882,865 881,864 879,862 876,861 874,860 871,859 868,857 864,856 859,856 854,855 849,856 842,857 836,859 829,863 822,869 816,877 812,886 810,896 810,907 813,917 818,926 824,933 831,938 838,942 844,944 851,945 856,945 861,944 865,943 869,942 872,941 875,940 877,938 879,937 881,936 883,935 884,933 885,932 886,931 887,930 888,929 889,928 890,927 890,926 891,925 892,925 892,924 892,923 893,923 893,922 894,921 894,879 894,878 894,877 893,877 893,876 893,875 892,875 892,874 891,873 891,872 890,871 889,870 888,869 887,868 886,866 885,865 884,864 882,862 880,860 878,859 875,857 872,855 869,854 865,852 860,851 855,850 848,849 841,850 833,852 824,855 815,862 807,871 801,882 798,895 798,909 802,922 809,933 818,941 827,946 835,949 843,951 850,951 857,950 862,949 866,947 870,946 873,944 876,942 879,941 881,939 883,937 884,936 885,935 887,933 888,932 889,931 889,930 890,929 891,928 891,927 892,926 892,925 893,924 893,924 894,923 894,922 894,922 895,878 895,878 894,877 894,876 894,876 893,875 893,874 893,873 892,872 892,871 891,870 890,869 889,868 889,867 888,865 886,864 885,862 884,860 882,858 880,856 877,854 874,852 871,850 867,848 862,845 856,843 849,842 840,841 830,842 819,845 807,851 795,862 786,876 782,894 783,912 789,929 799,942 811,951 823,956 834,958 843,959 851,958 858,956 864,954 868,952 872,949 875,947 878,945 881,943 882,941 884,939 886,937 887,936 888,934 889,933 890,932 890,931 891,929 892,928 892,927 893,926 893,926 894,925 894,924 894,923 894,923 895,922 896,878 895,878 895,877 895,876 895,875 894,875 894,874 893,873 893,872 893,871 892,870 891,868 891,867 890,866 889,864 888,863 887,861 886,859 884,857 882,854 880,852 877,849 874,846 870,843 865,840 858,837 851,834 841,831 829,830 815,832 798,837 782,849 767,867 760,891 761,917 772,940 787,956 804,965 820,969 833,970 844,968 853,966 861,962 866,959 871,956 875,953 878,950 881,947 883,945 884,943 886,941 887,939 888,937 889,935 890,934 891,932 892,931 892,930 893,929 893,928 894,927 894,926 894,925 895,924 895,924 895,923 895,922 896,878 896,877 896,877 896,876 895,875 895,874 895,873 894,872 894,871 894,870 893,869 893,868 892,866 892,865 891,863 890,861 889,860 888,857 886,855 885,852 883,849 880,846 877,843 873,839 868,834 862,830 854,825 844,820 831,816 813,814 791,817 766,828 742,852 728,887 731,926 749,958 774,977 799,985 819,986 836,983 848,979 857,974 865,969 870,964 875,960 878,956 881,953 883,950 885,947 887,944 888,942 889,940 890,938 891,936 892,935 892,933 893,932 893,930 894,929 894,928 895,927 895,926 895,925 895,925 896,924 896,923 896,922 897,878 897,877 896,876 896,876 896,875 896,874 896,873 895,872 895,871 895,870 895,869 894,867 894,866 893,864 893,863 892,861 891,859 890,856 889,854 888,851 886,847 884,844 881,839 878,835 874,829 868,823 861,816 850,808 836,799 816,792 787,788 749,795 706,823 678,878 684,943 720,989 763,1009 798,1011 823,1006 842,998 854,989 863,982 870,975 875,969 879,964 882,959 885,955 886,951 888,948 889,946 890,943 891,941 892,939 893,937 893,935 894,934 894,932 895,931 895,930 895,929 896,928 896,927 896,926 896,925 896,924 897,923 897,923 897,878 897,877 897,876 897,876 897,875 897,874 897,873 897,872 896,871 896,870 896,868 896,867 895,865 895,864 894,862 894,860 893,858 893,855 892,852 891,849 890,846 888,842 886,837 884,831 880,825 876,817 870,808 861,796 848,783 827,767 794,750 739,740 658,762 586,855 604,984 687,1051 760,1058 807,1045 835,1028 853,1012 864,1000 872,989 877,980 881,973 884,967 887,961 889,957 890,953 891,950 892,947 893,944 894,941 894,939 895,937 895,936 895,934 896,933 896,931 896,930 896,929 897,928 897,927 897,926 897,925 897,924 897,923 897,923 898,878 898,877 898,876 898,875 898,875 898,874 898,873 898,872 897,871 897,869 897,868 897,867 897,865 897,863 896,862 896,860 896,857 895,855 895,852 894,848 893,845 893,840 891,835 890,829 888,822 885,813 881,802 875,787 866,768 851,743 822,707 761,659 619,620 373,768 452,1124 681,1173 787,1124 834,1080 857,1048 870,1025 877,1008 883,994 886,984 889,976 890,969 892,963 893,958 894,954 894,950 895,947 895,944 896,942 896,940 896,938 897,936 897,934 897,933 897,931 897,930 897,929 898,928 898,927 898,926 898,925 898,924 898,923 898,923 899,878 899,877 899,876 899,875 899,875 899,874 899,873 899,872 899,871 899,869 899,868 899,867 898,865 898,863 898,861 898,859 898,857 898,854 898,851 898,848 898,844 897,840 897,834 897,828 896,820 895,811 894,799 893,783 890,761 886,729 877,679 854,587 767,374 5,5 452,1794 813,1330 865,1175 881,1102 888,1059 891,1031 893,1012 895,997 896,986 896,977 897,970 897,964 897,959 898,955 898,951 898,948 898,945 898,942 898,940 898,938 898,936 898,934 899,933 899,931 899,930 899,929 899,928 899,927 899,926 899,925 899,924 899,924 899,923 899,878 899,877 900,876 900,875 900,875 900,874 900,873 900,872 900,871 900,869 900,868 900,867 900,865 900,863 900,861 900,859 901,857 901,854 901,851 901,848 902,844 902,840 903,834 904,828 905,821 906,811 908,799 911,784 916,762 925,732 942,685 983,605 1123,453 1794,453 1458,1459 1053,1286 965,1163 935,1097 921,1057 914,1030 910,1011 907,996 906,986 904,977 903,970 903,964 902,959 902,954 901,951 901,947 901,945 901,942 900,940 900,938 900,936 900,934 900,933 900,931 900,930 900,929 900,928 900,927 900,926 900,925 900,924 899,924 899,923 900,878 900,877 900,876 900,875 900,875 901,874 901,873 901,872 901,871 901,870 901,868 901,867 902,865 902,864 902,862 903,860 903,857 904,855 904,852 905,849 906,845 907,841 908,836 910,830 913,823 916,814 921,803 928,790 939,773 957,750 988,721 1050,688 1172,682 1329,814 1285,1054 1123,1124 1025,1101 976,1068 950,1042 935,1021 925,1005 919,993 915,983 912,975 910,968 908,963 907,958 906,954 905,950 904,947 903,944 903,942 903,940 902,938 902,936 902,934 901,933 901,931 901,930 901,929 901,928 901,927 901,926 900,925 900,924 900,923 900,923 901,878 901,877 901,876 901,876 901,875 901,874 902,873 902,872 902,871 902,870 903,868 903,867 903,866 904,864 904,862 905,860 905,858 906,856 907,853 908,850 910,846 911,842 914,838 916,832 920,826 925,819 932,810 941,800 955,788 976,775 1008,764 1057,761 1123,788 1174,866 1162,966 1100,1026 1039,1040 996,1033 968,1020 950,1008 938,996 929,987 923,979 919,972 915,966 913,961 911,956 909,953 908,949 907,946 906,944 905,941 905,939 904,937 904,935 903,934 903,932 903,931 902,930 902,929 902,928 902,927 901,926 901,925 901,924 901,923 901,923 901,878 902,877 902,877 902,876 902,875 902,874 903,873 903,872 903,871 904,870 904,869 904,867 905,866 905,864 906,863 907,861 908,859 909,857 910,854 911,851 913,848 916,844 918,840 922,836 926,831 932,825 940,819 950,812 964,805 984,800 1010,799 1044,808 1079,835 1101,882 1096,936 1067,977 1032,997 1001,1002 977,999 959,993 946,986 937,979 930,973 925,967 920,962 917,958 915,954 913,951 911,948 910,945 908,943 907,940 907,938 906,937 905,935 905,933 904,932 904,931 903,930 903,928 903,927 903,926 902,926 902,925 902,924 902,923 902,923 902,878 902,877 902,877 903,876 903,875 903,874 904,874 904,873 904,872 905,870 905,869 906,868 906,867 907,865 908,864 909,862 910,860 911,858 913,856 914,853 916,850 919,847 922,844 926,840 931,836 937,832 945,828 955,824 968,821 985,820 1005,824 1027,836 1047,858 1058,889 1056,922 1041,951 1019,969 998,978 979,980 964,978 952,975 942,971 935,967 929,963 925,959 921,955 918,952 916,949 914,946 912,944 911,941 909,939 908,938 908,936 907,934 906,933 905,932 905,930 905,929 904,928 904,927 903,926 903,925 903,925 903,924 902,923 902,922 903,878 903,878 903,877 903,876 904,876 904,875 904,874 905,873 905,872 906,871 906,870 907,869 908,867 908,866 909,864 910,863 912,861 913,859 915,857 917,855 919,853 922,850 925,847 929,845 934,842 941,839 948,836 957,835 969,834 982,837 997,843 1011,854 1024,871 1030,892 1029,915 1020,936 1007,951 992,960 977,965 965,966 954,965 945,963 938,960 933,957 928,955 924,952 921,949 918,947 916,944 914,942 913,940 911,938 910,937 909,935 908,934 907,932 907,931 906,930 906,929 905,928 905,927 904,926 904,925 904,924 903,924 903,923 903,922 903,878 904,878 904,877 904,877 904,876 905,875 905,874 906,873 906,872 907,872 907,870 908,869 909,868 910,867 911,866 912,864 913,863 915,861 917,859 919,857 921,855 924,853 928,851 932,849 937,847 943,845 950,844 958,844 967,845 978,849 988,855 999,865 1007,878 1011,894 1010,911 1004,926 995,939 985,947 974,953 964,955 955,956 947,955 941,954 935,952 930,950 927,948 923,946 920,944 918,942 916,940 914,939 913,937 912,935 911,934 910,933 909,931 908,930 907,929 907,928 906,927 906,926 905,925 905,925 904,924 904,923 904,923 903,922 904,879 904,878 904,878 905,877 905,876 906,875 906,875 907,874 907,873 908,872 908,871 909,870 910,869 911,868 912,867 913,865 915,864 917,863 918,861 921,860 923,858 926,856 930,855 934,853 938,852 944,852 950,851 957,852 965,854 973,858 981,864 988,873 993,884 996,896 995,908 992,920 986,930 978,938 970,943 962,946 954,948 948,949 942,948 937,947 932,946 928,945 925,943 922,941 920,940 918,938 916,937 914,936 913,934 912,933 911,932 910,931 909,930 908,929 908,928 907,927 906,926 906,925 905,924 905,924 905,923 904,922 904,922 904,879 905,878 905,878 905,877 906,877 906,876 907,875 907,874 908,874 909,873 909,872 910,871 911,870 912,869 913,868 915,867 916,866 918,864 920,863 922,862 925,861 927,860 931,858 935,858 939,857 944,857 949,858 955,859 961,862 968,866 974,871 979,878 983,887 985,897 985,907 982,916 978,924 972,931 966,936 959,939 953,942 947,943 942,943 937,943 933,942 930,941 926,940 924,939 921,938 919,936 917,935 916,934 914,933 913,932 912,931 911,930 910,929 909,928 908,927 908,926 907,925 907,925 906,924 906,923 905,923 905,922 905,921 905,879 905,879 906,878 906,878 907,877 907,876 908,876 908,875 909,874 910,874 910,873 911,872 912,871 913,870 914,869 916,868 917,867 919,866 921,865 923,864 926,863 928,863 931,862 935,862 939,861 943,862 948,863 953,865 958,867 963,871 968,876 972,882 975,890 976,897 976,905 974,913 971,920 966,926 962,930 956,934 951,936 946,938 942,938 938,939 934,938 930,938 927,937 925,936 922,935 920,934 918,933 917,932 915,931 914,931 913,930 912,929 911,928 910,927 909,926 909,925 908,925 907,924 907,923 906,923 906,922 906,922 905,921 905,880 906,879 906,879 907,878 907,878 908,877 908,876 909,876 910,875 910,874 911,874 912,873 913,872 914,871 915,870 917,870 918,869 920,868 922,867 924,867 926,866 929,865 932,865 935,865 939,865 942,866 946,867 951,869 955,872 959,876 963,880 966,885 968,891 969,898 969,904 967,911 965,916 961,921 958,926 954,929 949,931 945,933 941,934 937,935 934,935 931,935 928,934 925,934 923,933 921,933 919,932 918,931 916,930 915,929 914,928 913,928 912,927 911,926 910,925 909,925 909,924 908,923 907,923 907,922 907,922 906,921 906,921 906,880 906,880 907,879 907,879 908,878 908,878 909,877 909,876 910,876 911,875 912,874 913,874 914,873 915,872 916,872 917,871 919,870 921,870 922,869 924,869 927,868 929,868 932,868 935,868 938,869 941,870 945,871 948,873 952,876 955,879 958,883 960,888 962,893 963,898 963,904 962,909 960,914 957,918 954,922 951,925 947,928 944,929 940,931 937,931 934,932 931,932 928,932 926,932 924,931 922,931 920,930 918,929 917,929 916,928 914,927 913,927 912,926 911,925 911,925 910,924 909,923 909,923 908,922 908,922 907,921 907,921 906,920 906,880 907,880 907,880 908,879 908,879 909,878 909,878 910,877 911,876 912,876 912,875 913,875 914,874 915,874 917,873 918,872 919,872 921,872 923,871 925,871 927,871 929,871 932,871 934,871 937,872 940,873 943,874 946,876 949,879 952,882 954,886 956,890 957,894 958,898 958,903 957,908 955,912 953,916 951,919 948,922 945,924 942,926 939,927 936,928 933,929 931,929 928,929 926,929 924,929 922,929 921,928 919,928 918,927 916,927 915,926 914,926 913,925 912,924 911,924 911,923 910,923 909,922 909,922 908,921 908,921 907,920 907,920 907,881 907,880 908,880 908,880 909,879 909,879 910,878 911,878 911,877 912,877 913,876 914,876 915,875 916,875 917,874 918,874 920,873 921,873 923,873 925,873 927,873 929,873 931,873 934,874 936,875 939,876 941,877 944,879 946,882 949,884 950,887 952,891 953,895 954,899 953,903 953,907 952,910 950,914 948,917 946,919 943,921 940,923 938,925 935,926 933,926 931,927 928,927 926,927 924,927 923,927 921,927 919,926 918,926 917,926 916,925 915,925 914,924 913,924 912,923 911,923 910,922 910,922 909,921 909,921 908,920 908,920 907,919 907,881 908,881 908,880 909,880 909,880 910,879 910,879 911,878 912,878 913,878 913,877 914,877 915,876 916,876 918,876 919,875 920,875 922,875 923,875 925,875 927,875 929,875 931,875 933,876 935,877 937,878 940,880 942,882 944,884 946,886 947,889 949,892 949,895 950,899 950,902 949,906 948,909 947,912 945,915 943,917 941,919 939,921 937,922 934,923 932,924 930,925 928,925 926,925 924,925 923,925 921,925 920,925 918,925 917,924 916,924 915,924 914,923 913,923 912,922 912,922 911,921 910,921 910,921 909,920 908,920 908,919 908,919 908,882 908,881 909,881 909,881 910,880 910,880 911,879 911,879 912,879 913,878 914,878 915,878 916,877 917,877 918,877 919,877 920,876 922,876 923,876 925,876 927,877 928,877 930,877 932,878 934,879 936,880 938,882 940,883 942,885 943,888 945,890 946,893 946,896 947,899 946,902 946,905 945,908 944,911 943,913 941,915 939,917 937,919 935,920 933,921 932,922 930,923 928,923 926,924 924,924 923,924 921,924 920,924 919,923 917,923 916,923 915,923 914,922 913,922 913,922 912,921 911,921 911,920 910,920 909,920 909,919 908,919 908,919 908,882 908,882 909,881 909,881 910,881 910,880 911,880 912,880 913,879 913,879 914,879 915,879 916,878 917,878 918,878 919,878 920,878 922,878 923,878 925,878 926,878 928,879 930,879 931,880 933,881 935,882 936,884 938,885 940,887 941,889 942,891 943,894 943,896 944,899 944,902 943,904 943,907 942,909 940,912 939,914 938,915 936,917 934,918 932,919 931,920 929,921 927,922 926,922 924,922 923,922 921,922 920,922 919,922 918,922 917,922 916,922 915,921 914,921 913,921 912,920 912,920 911,920 910,919 910,919 909,919 909,918 908,918 908,883 909,882 909,882 910,882 910,881 911,881 911,881 912,880 913,880 914,880 914,880 915,879 916,879 917,879 918,879 919,879 920,879 922,879 923,879 924,879 926,880 927,880 929,881 930,882 932,883 934,884 935,885 936,887 938,888 939,890 940,892 940,895 941,897 941,899 941,902 941,904 940,906 939,908 938,910 937,912 936,914 935,915 933,917 931,918 930,919 928,919 927,920 925,920 924,921 923,921 921,921 920,921 919,921 918,921 917,921 916,921 915,920 914,920 913,920 913,920 912,919 911,919 911,919 910,919 910,918 909,918 909,918 909,883 909,883 909,882 910,882 911,882 911,882 912,881 912,881 913,881 914,881 915,881 915,880 916,880 917,880 918,880 919,880 920,880 922,880 923,880 924,881 925,881 927,882 928,882 930,883 931,884 932,885 934,886 935,888 936,889 937,891 938,893 938,895 939,897 939,899 939,901 939,904 938,906 937,908 937,909 936,911 934,913 933,914 932,915 930,916 929,917 928,918 926,919 925,919 924,919 922,920 921,920 920,920 919,920 918,920 917,920 916,920 915,920 914,919 914,919 913,919 912,919 911,919 911,918 910,918 910,918 909,917 909,917 909,883 909,883 910,883 910,883 911,882 911,882 912,882 913,882 913,882 914,881 915,881 916,881 916,881 917,881 918,881 919,881 920,881 921,881 923,882 924,882 925,882 926,883 927,884 929,884 930,885 931,886 932,888 933,889 934,890 935,892 936,894 936,896 937,897 937,899 937,901 937,903 936,905 936,907 935,909 934,910 933,912 932,913 931,914 930,915 928,916 927,917 926,917 925,918 923,918 922,918 921,919 920,919 919,919 918,919 917,919 916,919 915,919 914,919 914,918 913,918 912,918 912,918 911,918 911,917 910,917 910,917 909,917 909,884 909,884 910,883 910,883 911,883 912,883 912,883 913,882 913,882 914,882 915,882 916,882 916,882 917,882 918,882 919,882 920,882 921,882 922,883 923,883 924,884 926,884 927,885 928,886 929,886 930,887 931,889 932,890 933,891 934,893 934,894 935,896 935,898 935,899 935,901 935,903 934,905 934,906 933,908 933,909 932,911 931,912 930,913 929,914 927,915 926,915 925,916 924,917 923,917 922,917 921,918 920,918 919,918 918,918 917,918 916,918 915,918 915,918 914,918 913,918 913,917 912,917 911,917 911,917 910,917 910,917 909,916 909,884 910,884 910,884 911,884 911,884 912,883 912,883 913,883 914,883 914,883 915,883 916,883 916,883 917,883 918,883 919,883 920,883 921,883 922,884 923,884 924,885 925,885 926,886 927,887 928,887 929,888 930,890 931,891 931,892 932,893 933,895 933,896 933,898 933,899 933,901 933,903 933,904 932,906 932,907 931,908 930,910 930,911 929,912 928,913 927,914 926,914 925,915 924,916 923,916 922,916 921,917 920,917 919,917 918,917 917,917 916,917 915,917 915,917 914,917 913,917 913,917 912,917 912,917 911,916 910,916 910,916 910,916 909,885 910,885 910,884 911,884 911,884 912,884 912,884 913,884 914,884 914,884 915,884 916,884 916,884 917,884 918,884 919,884 920,884 921,884 922,885 922,885 923,886 924,886 925,887 926,888 927,888 928,889 929,890 930,891 930,893 931,894 931,895 932,897 932,898 932,900 932,901 932,902 931,904 931,905 931,906 930,908 929,909 929,910 928,911 927,912 926,913 925,913 924,914 923,915 922,915 921,915 920,916 919,916 919,916 918,916 917,916 916,916 915,916 915,916 914,916 913,916 913,916 912,916 912,916 911,916 911,916 910,916 910,915 910,885 910,885 910,885 911,885 911,885 912,885 912,884 913,884 914,884 914,884 915,884 916,884 916,884 917,884 918,885 919,885 920,885 920,885 921,886 922,886 923,887 924,887 925,888 925,888 926,889 927,890 928,891 928,892 929,893 929,894 930,896 930,897 930,898 930,900 930,901 930,902 930,904 930,905 929,906 929,907 928,908 928,909 927,910 926,911 925,912 924,912 923,913 923,914 922,914 921,914 920,915 919,915 918,915 918,915 917,916 916,916 915,916 915,916 914,916 913,916 913,916 912,916 912,915 911,915 911,915 910,915 910,915 910,886 910,885 911,885 911,885 912,885 912,885 913,885 913,885 914,885 914,885 915,885 916,885 916,885 917,885 918,885 918,886 919,886 920,886 921,886 922,887 922,887 923,888 924,889 925,889 925,890 926,891 927,892 927,893 928,894 928,895 929,896 929,897 929,898 929,900 929,901 929,902 929,903 929,904 928,906 928,907 927,908 927,909 926,909 925,910 924,911 924,912 923,912 922,913 921,913 921,914 920,914 919,914 918,915 917,915 917,915 916,915 915,915 915,915 914,915 914,915 913,915 912,915 912,915 911,915 911,915 910,915 910,915 910,886 910,886 911,886 911,886 912,886 912,886 913,886 913,885 914,885 914,885 915,886 916,886 916,886 917,886 918,886 918,886 919,887 920,887 920,887 921,888 922,888 923,889 923,889 924,890 925,891 925,891 926,892 926,893 927,894 927,895 928,896 928,897 928,898 928,900 928,901 928,902 928,903 927,904 927,905 927,906 926,907 926,908 925,909 924,910 924,910 923,911 922,912 922,912 921,913 920,913 919,913 919,914 918,914 917,914 917,914 916,914 915,914 915,914 914,915 914,915 913,915 912,914 912,914 911,914 911,914 911,914 910,914 910,886 910,886 911,886 911,886 912,886 912,886 913,886 913,886 914,886 914,886 915,886 915,886 916,886 917,887 917,887 918,887 919,887 919,888 920,888 921,888 921,889 922,889 923,890 923,891 924,891 924,892 925,893 925,894 926,895 926,896 927,897 927,898 927,899 927,900 927,901 927,902 927,903 926,904 926,905 926,906 925,907 925,907 924,908 924,909 923,910 922,910 922,911 921,911 920,912 920,912 919,913 918,913 918,913 917,913 916,914 916,914 915,914 915,914 914,914 914,914 913,914 912,914 912,914 911,914 911,914 911,914 910,914 910,887 910,887 911,887 911,887 912,887 912,887 913,887 913,887 914,887 914,887 915,887 915,887 916,887 916,887 917,887 918,888 918,888 919,888 920,889 920,889 921,889 921,890 922,891 923,891 923,892 924,893 924,893 925,894 925,895 925,896 926,897 926,898 926,899 926,900 926,901 926,902 926,903 925,904 925,904 925,905 924,906 924,907 924,908 923,908 922,909 922,910 921,910 921,911 920,911 919,912 919,912 918,912 918,912 917,913 916,913 916,913 915,913 915,913 914,913 913,913 913,913 912,913 912,913 912,913 911,913 911,913 910,913 910,887 910,887 911,887 911,887 912,887 912,887 913,887 913,887 914,887 914,887 915,887 915,887 916,888 916,888 917,888 917,888 918,888 919,889 919,889 920,890 920,890 921,891 921,891 922,892 923,892 923,893 923,894 924,895 924,895 924,896 925,897 925,898 925,899 925,900 925,901 925,902 925,902 925,903 924,904 924,905 924,906 923,906 923,907 922,908 922,908 921,909 921,910 920,910 920,911 919,911 918,911 918,912 917,912 917,912 916,912 916,913 915,913 914,913 914,913 913,913 913,913 912,913 912,913 912,913 911,913 911,913 910,913 910,888 910,887 911,887 911,887 912,887 912,887 913,887 913,888 914,888 914,888 915,888 915,888 916,888 916,888 917,889 917,889 918,889 918,889 919,890 919,890 920,891 920,891 921,892 921,892 922,893 922,893 923,894 923,895 923,896 924,896 924,897 924,898 924,899 924,900 924,901 924,901 924,902 924,903 924,904 923,905 923,905 923,906 922,907 922,907 921,908 921,909 920,909 920,910 919,910 919,910 918,911 918,911 917,911 916,912 916,912 915,912 915,912 914,912 914,912 913,912 913,912 912,913 912,913 912,913 911,913 911,913 910,913 910,888 911,888 911,888 911,888 912,888 912,888 913,888 913,888 913,888 914,888 914,888 915,888 915,889 916,889 916,889 917,889 917,890 918,890 918,890 919,891 919,891 920,892 920,892 921,893 921,893 922,894 922,895 922,895 923,896 923,897 923,897 923,898 923,899 923,900 923,901 923,901 923,902 923,903 923,904 923,904 922,905 922,906 922,906 921,907 921,908 920,908 920,909 919,909 919,909 918,910 918,910 917,911 917,911 916,911 916,911 915,911 915,912 914,912 914,912 913,912 913,912 912,912 912,912 912,912 911,912 911,912 910,912 910,888 911,888 911,888 911,888 912,888 912,888 912,888 913,888 913,889 914,889 914,889 915,889 915,889 916,889 916,890 917,890 917,890 918,890 918,891 919,891 919,892 919,892 920,893 920,893 921,894 921,894 921,895 922,895 922,896 922,897 922,898 922,898 922,899 923,900 923,900 922,901 922,902 922,903 922,903 922,904 922,905 921,905 921,906 921,907 920,907 920,908 919,908 919,909 918,909 918,909 917,910 917,910 916,910 916,911 916,911 915,911 915,911 914,911 914,911 913,912 913,912 912,912 912,912 912,912 911,912 911,912 910,912 910,889 911,889 911,889 911,889 912,889 912,889 912,889 913,889 913,889 914,889 914,889 915,889 915,890 915,890 916,890 916,890 917,891 917,891 918,891 918,892 919,892 919,892 919,893 920,893 920,894 920,895 921,895 921,896 921,896 921,897 922,898 922,898 922,899 922,900 922,900 922,901 922,902 922,903 921,903 921,904 921,904 921,905 920,906 920,906 920,907 919,907 919,908 918,908 918,909 918,909 917,909 917,910 916,910 916,910 915,910 915,911 914,911 914,911 914,911 913,911 913,911 912,911 912,911 912,911 911,911 911,911 910,911 "/>
</svg>
