<svg width="1800" height="1800" viewBox="0 0 1800 1800" xmlns="http://www.w3.org/2000/svg">
<polyline fill="none" opacity="1" stroke="#FF0000" stroke-width="1" points="1008,850 1004,852 1000,854 996,856 992,859 988,863 984,867 981,872 978,877 976,882 974,888 973,894 973,900 973,906 974,912 976,918 978,923 981,928 984,933 988,937 992,941 996,944 1000,946 1004,948 1006,846 1002,848 997,850 993,852 988,855 984,859 980,863 976,868 973,874 970,880 968,886 967,893 966,900 967,907 968,914 970,920 973,926 976,932 980,937 984,941 988,945 993,948 997,950 1002,952 1005,842 1000,843 995,845 990,847 985,850 980,854 975,859 971,864 967,870 963,877 961,884 959,892 959,900 959,908 961,916 963,923 967,930 971,936 975,941 980,946 985,950 990,953 995,955 1000,957 1004,837 999,838 993,840 987,842 982,845 976,849 970,854 965,860 960,866 956,874 953,882 951,891 950,900 951,909 953,918 956,926 960,934 965,940 970,946 976,951 982,955 987,958 993,960 999,962 1004,831 998,832 991,833 985,836 978,839 971,843 964,848 958,854 952,861 947,870 943,879 941,889 940,900 941,911 943,921 947,930 952,939 958,946 964,952 971,957 978,961 985,964 991,967 998,968 1003,825 997,826 990,827 982,828 975,831 967,835 959,840 951,847 944,855 938,865 933,876 930,888 929,900 930,912 933,924 938,935 944,945 951,953 959,960 967,965 975,969 982,972 990,973 997,974 1004,819 997,819 989,819 980,820 972,823 962,826 953,832 943,839 934,848 927,859 920,871 917,885 915,900 917,915 920,929 927,941 934,952 943,961 953,968 962,974 972,977 980,980 989,981 997,981 1005,812 997,811 988,811 979,811 969,813 958,816 946,821 935,828 924,838 914,851 906,866 901,882 899,900 901,918 906,934 914,949 924,962 935,972 946,979 958,984 969,987 979,989 988,989 997,989 1006,805 998,803 989,801 979,801 967,801 954,804 940,808 926,816 912,826 899,840 888,858 882,878 879,900 882,922 888,942 899,960 912,974 926,984 940,992 954,996 967,999 979,999 989,999 998,997 1009,797 1001,794 991,791 979,789 966,788 951,789 935,793 917,799 899,811 882,826 867,847 858,872 854,900 858,928 867,953 882,974 899,989 917,1001 935,1007 951,1011 966,1012 979,1011 991,1009 1001,1006 1013,789 1004,784 994,780 982,776 967,773 950,772 931,774 909,779 885,790 862,807 842,832 827,864 822,900 827,936 842,968 862,993 885,1010 909,1021 931,1026 950,1028 967,1027 982,1024 994,1020 1004,1016 1018,781 1010,775 999,768 986,762 971,757 952,753 929,751 902,753 871,762 839,781 810,811 788,852 780,900 788,948 810,989 839,1019 871,1038 902,1047 929,1049 952,1047 971,1043 986,1038 999,1032 1010,1025 1025,773 1017,765 1006,757 994,748 977,739 957,731 931,724 899,721 860,725 815,742 769,777 734,831 720,900 734,969 769,1023 815,1058 860,1075 899,1079 931,1076 957,1069 977,1061 994,1052 1006,1043 1017,1035 1033,766 1026,756 1016,746 1004,734 988,721 968,707 940,694 903,682 854,676 792,685 720,721 657,795 631,900 657,1005 720,1079 792,1115 854,1124 903,1118 940,1106 968,1093 988,1079 1004,1066 1016,1054 1026,1044 1043,760 1037,749 1029,736 1018,721 1004,704 985,684 959,661 920,637 863,614 780,602 665,625 541,721 482,900 541,1079 665,1175 780,1198 863,1186 920,1163 959,1139 985,1116 1004,1096 1018,1079 1029,1064 1037,1051 1054,755 1049,743 1043,728 1036,711 1025,690 1010,664 988,632 955,592 899,542 803,487 631,453 362,542 183,900 362,1258 631,1347 803,1313 899,1258 955,1208 988,1168 1010,1136 1025,1110 1036,1089 1043,1072 1049,1057 1066,752 1063,739 1060,723 1056,704 1050,680 1042,650 1030,610 1009,556 973,479 899,363 720,184 183,5 5,900 183,1794 720,1616 899,1437 973,1321 1009,1244 1030,1190 1042,1150 1050,1120 1056,1096 1060,1077 1063,1061 1078,751 1078,737 1078,721 1078,701 1078,676 1078,644 1078,602 1078,542 1078,453 1078,304 1078,5 1078,5 1078,5 1078,1795 1078,1794 1078,1496 1078,1347 1078,1258 1078,1198 1078,1156 1078,1124 1078,1099 1078,1079 1078,1063 1090,752 1093,739 1096,723 1100,704 1105,680 1114,650 1126,610 1147,556 1183,479 1257,363 1436,184 1795,5 1795,900 1795,1794 1436,1616 1257,1437 1183,1321 1147,1244 1126,1190 1114,1150 1105,1120 1100,1096 1096,1077 1093,1061 1102,755 1107,743 1112,728 1120,711 1131,690 1145,664 1167,632 1201,592 1257,542 1353,487 1525,453 1794,542 1795,900 1794,1258 1525,1347 1353,1313 1257,1258 1201,1208 1167,1168 1145,1136 1131,1110 1120,1089 1112,1072 1107,1057 1113,760 1119,749 1127,736 1138,721 1151,704 1170,684 1197,661 1236,637 1293,614 1376,602 1491,625 1615,721 1674,900 1615,1079 1491,1175 1376,1198 1293,1186 1236,1163 1197,1139 1170,1116 1151,1096 1138,1079 1127,1064 1119,1051 1123,766 1130,756 1140,746 1152,734 1167,721 1188,707 1216,694 1252,682 1302,676 1364,685 1436,721 1499,795 1525,900 1499,1005 1436,1079 1364,1115 1302,1124 1252,1118 1216,1106 1188,1093 1167,1079 1152,1066 1140,1054 1130,1044 1131,773 1139,765 1149,757 1162,748 1178,739 1199,731 1225,724 1257,721 1296,725 1341,742 1386,777 1422,831 1436,900 1422,969 1386,1023 1341,1058 1296,1075 1257,1079 1225,1076 1199,1069 1178,1061 1162,1052 1149,1043 1139,1035 1138,781 1146,775 1157,768 1170,762 1185,757 1204,753 1227,751 1254,753 1284,762 1316,781 1346,811 1368,852 1376,900 1368,948 1346,989 1316,1019 1284,1038 1254,1047 1227,1049 1204,1047 1185,1043 1170,1038 1157,1032 1146,1025 "/>
</svg>
