<svg width="1800" height="1800" viewBox="0 0 1800 1800" xmlns="http://www.w3.org/2000/svg">
<polyline fill="none" opacity="1" stroke="#00FF00" stroke-width="1" points="5,595 5,577 6,559 7,541 8,523 9,504 10,486 11,468 12,451 13,433 13,415 14,398 15,381 16,364 17,347 18,330 19,314 20,299 21,283 21,269 22,254 23,240 24,227 25,214 26,201 27,189 28,178 29,167 30,157 30,147 31,139 32,130 33,123 34,116 35,110 36,104 37,100 38,96 38,92 39,90 40,88 41,87 42,87 43,87 44,89 45,91 46,93 47,97 47,101 48,106 49,112 50,118 51,125 52,133 53,141 54,150 55,160 55,171 56,182 57,193 58,206 59,218 60,232 61,245 62,260 63,275 64,290 64,305 65,321 66,338 67,355 68,372 69,389 70,407 71,425 72,443 72,461 73,479 74,498 75,516 76,535 77,553 78,572 79,591 80,609 81,627 81,646 82,664 83,682 84,699 85,717 86,734 87,750 88,767 89,783 89,799 90,814 91,829 92,843 93,857 94,870 95,883 96,895 97,893 98,882 98,872 99,862 100,853 101,844 102,836 103,829 104,823 105,817 106,812 106,808 107,804 108,802 109,800 110,798 111,798 112,798 113,799 114,801 115,803 115,806 116,810 117,815 118,820 119,826 120,833 121,841 122,849 123,858 123,867 124,877 125,888 126,899 127,889 128,876 129,863 130,850 131,836 132,822 132,807 133,792 134,776 135,760 136,744 137,727 138,710 139,693 140,676 140,658 141,640 142,622 143,605 144,587 145,569 146,550 147,532 148,515 149,497 149,479 150,461 151,444 152,427 153,410 154,393 155,377 156,361 157,345 157,329 158,315 159,300 160,286 161,272 162,259 163,247 164,235 165,223 166,212 166,202 167,193 168,184 169,175 170,168 171,161 172,154 173,149 174,144 174,140 175,137 176,134 177,132 178,131 179,130 180,131 181,132 182,134 183,136 183,140 184,144 185,149 186,154 187,160 188,167 189,175 190,183 191,192 191,202 192,212 193,223 194,235 195,247 196,260 197,273 198,287 199,301 200,316 200,331 201,346 202,362 203,379 204,395 205,413 206,430 207,447 208,465 208,483 209,502 210,520 211,539 212,557 213,576 214,594 215,613 216,632 216,650 217,669 218,687 219,705 220,723 221,741 222,758 223,776 224,792 225,809 225,825 226,841 227,856 228,871 229,886 230,900 231,887 232,874 233,861 233,849 234,838 235,827 236,817 237,808 238,799 239,791 240,784 241,777 242,771 242,766 243,762 244,758 245,755 246,753 247,751 248,750 249,750 250,751 250,753 251,755 252,758 253,761 254,766 255,771 256,777 257,784 258,791 259,799 259,807 260,817 261,827 262,837 263,848 264,860 265,872 266,885 267,898 267,888 268,874 269,859 270,844 271,829 272,813 273,797 274,780 275,763 276,746 276,729 277,711 278,694 279,676 280,658 281,640 282,622 283,604 284,586 284,568 285,551 286,533 287,515 288,498 289,481 290,464 291,447 292,431 293,414 293,399 294,383 295,368 296,354 297,340 298,326 299,313 300,300 301,288 301,276 302,266 303,255 304,245 305,236 306,228 307,220 308,213 309,207 310,201 310,196 311,192 312,188 313,185 314,183 315,182 316,182 317,182 318,183 318,184 319,187 320,190 321,194 322,199 323,204 324,210 325,217 326,225 327,233 327,242 328,251 329,261 330,272 331,284 332,296 333,308 334,321 335,335 335,349 336,364 337,379 338,395 339,411 340,427 341,444 342,461 343,478 344,496 344,513 345,531 346,550 347,568 348,587 349,605 350,624 351,643 352,661 352,680 353,699 354,717 355,735 356,754 357,772 358,790 359,807 360,825 361,842 361,858 362,875 363,891 364,894 365,879 366,864 367,850 368,836 369,823 369,810 370,798 371,787 372,776 373,766 374,756 375,747 376,739 377,732 378,725 378,719 379,713 380,708 381,704 382,701 383,699 384,697 385,696 386,696 386,696 387,698 388,700 389,702 390,706 391,710 392,715 393,721 394,727 395,734 395,742 396,750 397,759 398,769 399,779 400,790 401,802 402,814 403,826 403,839 404,853 405,867 406,882 407,897 408,888 409,872 410,856 411,840 411,823 412,806 413,789 414,772 415,754 416,736 417,719 418,701 419,683 420,665 420,647 421,629 422,611 423,593 424,576 425,558 426,541 427,524 428,507 428,491 429,475 430,459 431,444 432,428 433,414 434,400 435,386 436,373 437,360 437,348 438,336 439,325 440,315 441,305 442,296 443,287 444,279 445,272 445,265 446,259 447,254 448,250 449,246 450,243 451,241 452,240 453,239 454,239 454,240 455,241 456,244 457,247 458,251 459,255 460,260 461,266 462,273 462,281 463,289 464,297 465,307 466,317 467,328 468,339 469,351 470,363 471,376 471,390 472,404 473,419 474,434 475,449 476,465 477,481 478,498 479,515 479,532 480,550 481,568 482,586 483,604 484,622 485,641 486,659 487,678 488,697 488,716 489,734 490,753 491,771 492,790 493,808 494,826 495,844 496,862 496,879 497,897 498,887 499,870 500,854 501,838 502,823 503,808 504,794 505,780 505,767 506,754 507,742 508,730 509,719 510,709 511,699 512,690 513,681 513,674 514,667 515,660 516,654 517,650 518,645 519,642 520,639 521,637 522,636 522,636 523,636 524,637 525,639 526,641 527,645 528,649 529,653 530,659 530,665 531,672 532,679 533,687 534,696 535,706 536,716 537,727 538,738 539,750 539,762 540,775 541,789 542,803 543,817 544,832 545,847 546,863 547,879 547,895 548,888 549,872 550,854 551,837 552,820 553,802 554,784 555,766 556,749 556,731 557,713 558,695 559,677 560,659 561,642 562,624 563,607 564,590 564,573 565,557 566,540 567,525 568,509 569,494 570,479 571,465 572,451 573,438 573,425 574,413 575,401 576,390 577,379 578,369 579,360 580,351 581,343 581,336 582,329 583,323 584,318 585,313 586,309 587,306 588,304 589,302 590,302 590,302 591,302 592,304 593,306 594,309 595,312 596,317 597,322 598,328 598,334 599,341 600,349 601,358 602,367 603,377 604,388 605,399 606,411 606,423 607,436 608,450 609,464 610,478 611,493 612,508 613,524 614,540 615,557 615,574 616,591 617,609 618,626 619,644 620,663 621,681 622,700 623,718 623,737 624,756 625,774 626,793 627,812 628,830 629,849 630,867 631,886 632,896 632,879 633,861 634,844 635,827 636,810 637,794 638,778 639,763 640,748 640,733 641,719 642,706 643,693 644,681 645,669 646,658 647,647 648,637 649,628 649,619 650,611 651,604 652,597 653,592 654,586 655,582 656,578 657,575 657,573 658,572 659,571 660,571 661,572 662,574 663,576 664,579 665,583 666,587 666,593 667,599 668,605 669,613 670,621 671,629 672,639 673,649 674,659 674,670 675,682 676,694 677,707 678,720 679,734 680,749 681,763 682,778 683,794 683,810 684,826 685,842 686,859 687,876 688,893 689,889 690,872 691,854 691,836 692,818 693,800 694,782 695,765 696,747 697,729 698,711 699,694 700,677 700,660 701,643 702,626 703,610 704,594 705,578 706,563 707,548 708,534 708,520 709,507 710,494 711,481 712,469 713,458 714,447 715,437 716,428 717,419 717,411 718,403 719,397 720,390 721,385 722,380 723,376 724,373 725,371 725,369 726,368 727,367 728,368 729,369 730,371 731,374 732,377 733,382 734,387 734,392 735,399 736,406 737,414 738,422 739,431 740,441 741,451 742,462 742,474 743,486 744,499 745,512 746,526 747,541 748,556 749,571 750,587 751,603 751,619 752,636 753,653 754,671 755,689 756,707 757,725 758,743 759,762 759,780 760,799 761,818 762,836 763,855 764,874 765,893 766,889 767,870 768,852 768,834 769,816 770,799 771,781 772,764 773,748 774,731 775,715 776,700 776,685 777,670 778,656 779,642 780,629 781,617 782,605 783,593 784,583 785,572 785,563 786,554 787,546 788,539 789,532 790,526 791,520 792,516 793,512 793,509 794,507 795,505 796,504 797,504 798,505 799,506 800,508 801,511 802,515 802,519 803,524 804,530 805,536 806,543 807,551 808,560 809,569 810,579 810,589 811,600 812,612 813,624 814,636 815,650 816,663 817,677 818,692 818,707 819,722 820,738 821,754 822,771 823,787 824,804 825,821 826,839 827,856 827,874 828,892 829,890 830,872 831,855 832,837 833,819 834,801 835,784 835,766 836,749 837,732 838,715 839,698 840,682 841,666 842,650 843,635 844,620 844,605 845,591 846,578 847,565 848,552 849,540 850,529 851,518 852,508 852,498 853,489 854,481 855,473 856,466 857,460 858,454 859,449 860,445 861,442 861,439 862,437 863,436 864,435 865,436 866,437 867,439 868,441 869,445 869,449 870,453 871,459 872,465 873,472 874,480 875,488 876,497 877,507 878,517 878,528 879,539 880,551 881,564 882,577 883,591 884,605 885,620 886,635 886,651 887,667 888,683 889,700 890,717 891,735 892,752 893,770 894,788 895,807 895,825 896,844 897,862 898,881 899,900 900,881 901,862 902,844 903,825 903,807 904,788 905,770 906,752 907,735 908,717 909,700 910,683 911,667 912,651 912,635 913,620 914,605 915,591 916,577 917,564 918,551 919,539 920,528 920,517 921,507 922,497 923,488 924,480 925,472 926,465 927,459 928,453 929,449 929,445 930,441 931,439 932,437 933,436 934,435 935,436 936,437 937,439 937,442 938,445 939,449 940,454 941,460 942,466 943,473 944,481 945,489 946,498 946,508 947,518 948,529 949,540 950,552 951,565 952,578 953,591 954,605 954,620 955,635 956,650 957,666 958,682 959,698 960,715 961,732 962,749 963,766 963,784 964,801 965,819 966,837 967,855 968,872 969,890 970,892 971,874 971,856 972,839 973,821 974,804 975,787 976,771 977,754 978,738 979,722 980,707 980,692 981,677 982,663 983,650 984,636 985,624 986,612 987,600 988,589 988,579 989,569 990,560 991,551 992,543 993,536 994,530 995,524 996,519 997,515 997,511 998,508 999,506 1000,505 1001,504 1002,504 1003,505 1004,507 1005,509 1005,512 1006,516 1007,520 1008,526 1009,532 1010,539 1011,546 1012,554 1013,563 1013,572 1014,583 1015,593 1016,605 1017,617 1018,629 1019,642 1020,656 1021,670 1022,685 1022,700 1023,715 1024,731 1025,748 1026,764 1027,781 1028,799 1029,816 1030,834 1030,852 1031,870 1032,889 1033,893 1034,874 1035,855 1036,836 1037,818 1038,799 1039,780 1039,762 1040,743 1041,725 1042,707 1043,689 1044,671 1045,653 1046,636 1047,619 1047,603 1048,587 1049,571 1050,556 1051,541 1052,526 1053,512 1054,499 1055,486 1056,474 1056,462 1057,451 1058,441 1059,431 1060,422 1061,414 1062,406 1063,399 1064,392 1064,387 1065,382 1066,377 1067,374 1068,371 1069,369 1070,368 1071,367 1072,368 1073,369 1073,371 1074,373 1075,376 1076,380 1077,385 1078,390 1079,397 1080,403 1081,411 1081,419 1082,428 1083,437 1084,447 1085,458 1086,469 1087,481 1088,494 1089,507 1090,520 1090,534 1091,548 1092,563 1093,578 1094,594 1095,610 1096,626 1097,643 1098,660 1098,677 1099,694 1100,711 1101,729 1102,747 1103,765 1104,782 1105,800 1106,818 1107,836 1107,854 1108,872 1109,889 1110,893 1111,876 1112,859 1113,842 1114,826 1115,810 1115,794 1116,778 1117,763 1118,749 1119,734 1120,720 1121,707 1122,694 1123,682 1124,670 1124,659 1125,649 1126,639 1127,629 1128,621 1129,613 1130,605 1131,599 1132,593 1132,587 1133,583 1134,579 1135,576 1136,574 1137,572 1138,571 1139,571 1140,572 1141,573 1141,575 1142,578 1143,582 1144,586 1145,592 1146,597 1147,604 1148,611 1149,619 1149,628 1150,637 1151,647 1152,658 1153,669 1154,681 1155,693 1156,706 1157,719 1158,733 1158,748 1159,763 1160,778 1161,794 1162,810 1163,827 1164,844 1165,861 1166,879 1166,896 1167,886 1168,867 1169,849 1170,830 1171,812 1172,793 1173,774 1174,756 1175,737 1175,718 1176,700 1177,681 1178,663 1179,644 1180,626 1181,609 1182,591 1183,574 1183,557 1184,540 1185,524 1186,508 1187,493 1188,478 1189,464 1190,450 1191,436 1192,423 1192,411 1193,399 1194,388 1195,377 1196,367 1197,358 1198,349 1199,341 1200,334 1200,328 1201,322 1202,317 1203,312 1204,309 1205,306 1206,304 1207,302 1208,302 1208,302 1209,302 1210,304 1211,306 1212,309 1213,313 1214,318 1215,323 1216,329 1217,336 1217,343 1218,351 1219,360 1220,369 1221,379 1222,390 1223,401 1224,413 1225,425 1225,438 1226,451 1227,465 1228,479 1229,494 1230,509 1231,525 1232,540 1233,557 1234,573 1234,590 1235,607 1236,624 1237,642 1238,659 1239,677 1240,695 1241,713 1242,731 1242,749 1243,766 1244,784 1245,802 1246,820 1247,837 1248,854 1249,872 1250,888 1251,895 1251,879 1252,863 1253,847 1254,832 1255,817 1256,803 1257,789 1258,775 1259,762 1259,750 1260,738 1261,727 1262,716 1263,706 1264,696 1265,687 1266,679 1267,672 1268,665 1268,659 1269,653 1270,649 1271,645 1272,641 1273,639 1274,637 1275,636 1276,636 1276,636 1277,637 1278,639 1279,642 1280,645 1281,650 1282,654 1283,660 1284,667 1285,674 1285,681 1286,690 1287,699 1288,709 1289,719 1290,730 1291,742 1292,754 1293,767 1293,780 1294,794 1295,808 1296,823 1297,838 1298,854 1299,870 1300,887 1301,897 1302,879 1302,862 1303,844 1304,826 1305,808 1306,790 1307,771 1308,753 1309,734 1310,716 1310,697 1311,678 1312,659 1313,641 1314,622 1315,604 1316,586 1317,568 1318,550 1319,532 1319,515 1320,498 1321,481 1322,465 1323,449 1324,434 1325,419 1326,404 1327,390 1327,376 1328,363 1329,351 1330,339 1331,328 1332,317 1333,307 1334,297 1335,289 1336,281 1336,273 1337,266 1338,260 1339,255 1340,251 1341,247 1342,244 1343,241 1344,240 1344,239 1345,239 1346,240 1347,241 1348,243 1349,246 1350,250 1351,254 1352,259 1353,265 1353,272 1354,279 1355,287 1356,296 1357,305 1358,315 1359,325 1360,336 1361,348 1361,360 1362,373 1363,386 1364,400 1365,414 1366,428 1367,444 1368,459 1369,475 1370,491 1370,507 1371,524 1372,541 1373,558 1374,576 1375,593 1376,611 1377,629 1378,647 1378,665 1379,683 1380,701 1381,719 1382,736 1383,754 1384,772 1385,789 1386,806 1387,823 1387,840 1388,856 1389,872 1390,888 1391,897 1392,882 1393,867 1394,853 1395,839 1395,826 1396,814 1397,802 1398,790 1399,779 1400,769 1401,759 1402,750 1403,742 1403,734 1404,727 1405,721 1406,715 1407,710 1408,706 1409,702 1410,700 1411,698 1412,696 1412,696 1413,696 1414,697 1415,699 1416,701 1417,704 1418,708 1419,713 1420,719 1420,725 1421,732 1422,739 1423,747 1424,756 1425,766 1426,776 1427,787 1428,798 1429,810 1429,823 1430,836 1431,850 1432,864 1433,879 1434,894 1435,891 1436,875 1437,858 1437,842 1438,825 1439,807 1440,790 1441,772 1442,754 1443,735 1444,717 1445,699 1446,680 1446,661 1447,643 1448,624 1449,605 1450,587 1451,568 1452,550 1453,531 1454,513 1454,496 1455,478 1456,461 1457,444 1458,427 1459,411 1460,395 1461,379 1462,364 1463,349 1463,335 1464,321 1465,308 1466,296 1467,284 1468,272 1469,261 1470,251 1471,242 1471,233 1472,225 1473,217 1474,210 1475,204 1476,199 1477,194 1478,190 1479,187 1480,184 1480,183 1481,182 1482,182 1483,182 1484,183 1485,185 1486,188 1487,192 1488,196 1488,201 1489,207 1490,213 1491,220 1492,228 1493,236 1494,245 1495,255 1496,266 1497,276 1497,288 1498,300 1499,313 1500,326 1501,340 1502,354 1503,368 1504,383 1505,399 1505,414 1506,431 1507,447 1508,464 1509,481 1510,498 1511,515 1512,533 1513,551 1514,568 1514,586 1515,604 1516,622 1517,640 1518,658 1519,676 1520,694 1521,711 1522,729 1522,746 1523,763 1524,780 1525,797 1526,813 1527,829 1528,844 1529,859 1530,874 1531,888 1531,898 1532,885 1533,872 1534,860 1535,848 1536,837 1537,827 1538,817 1539,807 1539,799 1540,791 1541,784 1542,777 1543,771 1544,766 1545,761 1546,758 1547,755 1548,753 1548,751 1549,750 1550,750 1551,751 1552,753 1553,755 1554,758 1555,762 1556,766 1556,771 1557,777 1558,784 1559,791 1560,799 1561,808 1562,817 1563,827 1564,838 1565,849 1565,861 1566,874 1567,887 1568,900 1569,886 1570,871 1571,856 1572,841 1573,825 1573,809 1574,792 1575,776 1576,758 1577,741 1578,723 1579,705 1580,687 1581,669 1582,650 1582,632 1583,613 1584,594 1585,576 1586,557 1587,539 1588,520 1589,502 1590,483 1590,465 1591,447 1592,430 1593,413 1594,395 1595,379 1596,362 1597,346 1598,331 1599,316 1599,301 1600,287 1601,273 1602,260 1603,247 1604,235 1605,223 1606,212 1607,202 1607,192 1608,183 1609,175 1610,167 1611,160 1612,154 1613,149 1614,144 1615,140 1615,136 1616,134 1617,132 1618,131 1619,130 1620,131 1621,132 1622,134 1623,137 1624,140 1624,144 1625,149 1626,154 1627,161 1628,168 1629,175 1630,184 1631,193 1632,202 1632,212 1633,223 1634,235 1635,247 1636,259 1637,272 1638,286 1639,300 1640,315 1641,329 1641,345 1642,361 1643,377 1644,393 1645,410 1646,427 1647,444 1648,461 1649,479 1649,497 1650,515 1651,532 1652,550 1653,569 1654,587 1655,605 1656,622 1657,640 1658,658 1658,676 1659,693 1660,710 1661,727 1662,744 1663,760 1664,776 1665,792 1666,807 1666,822 1667,836 1668,850 1669,863 1670,876 1671,889 1672,899 1673,888 1674,877 1675,867 1675,858 1676,849 1677,841 1678,833 1679,826 1680,820 1681,815 1682,810 1683,806 1683,803 1684,801 1685,799 1686,798 1687,798 1688,798 1689,800 1690,802 1691,804 1692,808 1692,812 1693,817 1694,823 1695,829 1696,836 1697,844 1698,853 1699,862 1700,872 1700,882 1701,893 1702,895 1703,883 1704,870 1705,857 1706,843 1707,829 1708,814 1709,799 1709,783 1710,767 1711,750 1712,734 1713,717 1714,699 1715,682 1716,664 1717,646 1717,627 1718,609 1719,591 1720,572 1721,553 1722,535 1723,516 1724,498 1725,479 1726,461 1726,443 1727,425 1728,407 1729,389 1730,372 1731,355 1732,338 1733,321 1734,305 1734,290 1735,275 1736,260 1737,245 1738,232 1739,218 1740,206 1741,193 1742,182 1743,171 1743,160 1744,150 1745,141 1746,133 1747,125 1748,118 1749,112 1750,106 1751,101 1751,97 1752,93 1753,91 1754,89 1755,87 1756,87 1757,87 1758,88 1759,90 1760,92 1760,96 1761,100 1762,104 1763,110 1764,116 1765,123 1766,130 1767,139 1768,147 1768,157 1769,167 1770,178 1771,189 1772,201 1773,214 1774,227 1775,240 1776,254 1777,269 1777,283 1778,299 1779,314 1780,330 1781,347 1782,364 1783,381 1784,398 1785,415 1785,433 1786,451 1787,468 1788,486 1789,504 1790,523 1791,541 1792,559 1793,577 1794,595 "/>
</svg>
