<svg width="1800" height="1800" viewBox="0 0 1800 1800" xmlns="http://www.w3.org/2000/svg">
<polyline fill="none" opacity="1" stroke="#FF0000" stroke-width="1" points="1795,5 1795,5 1795,5 1795,5 1795,5 1795,5 1795,5 1795,5 1795,5 1795,5 1795,69 1795,682 1795,1222 1795,1692 1795,1795 1795,1795 1795,1795 1795,1795 1795,1795 1795,1795 1795,1795 1795,1795 1795,1795 1781,1795 1553,1795 1351,1795 1175,1795 1026,1795 904,1795 807,1795 735,1795 686,1795 658,1795 650,1795 659,1795 684,1795 720,1761 767,1691 821,1635 880,1594 942,1569 1004,1559 1064,1564 1119,1582 1169,1612 1210,1654 1242,1705 1264,1764 1274,1795 1272,1795 1257,1795 1229,1795 1188,1795 1136,1795 1071,1795 996,1795 912,1795 820,1795 721,1795 619,1795 514,1795 410,1795 308,1795 211,1795 121,1795 42,1795 5,1795 5,1795 5,1767 5,1639 5,1507 5,1372 5,1239 42,1110 148,989 281,881 441,790 626,720 835,677 1067,664 1319,688 1588,752 1795,862 1795,1022 1795,1237 1795,1510 1795,1795 1795,1795 1795,1795 1795,1795 1795,1795 1795,1795 1795,1795 1795,1795 1795,1795 1795,1795 1795,1795 1795,1795 1772,1795 895,1795 924,5 1795,5 1795,5 1795,5 1795,5 1795,5 1795,5 1795,5 1795,5 1795,5 1795,5 1795,502 1795,1000 1795,1437 1795,1795 1795,1795 1795,1795 1795,1795 1795,1795 1795,1795 1795,1795 1795,1795 1795,1795 1795,1795 1622,1795 1439,1795 1278,1795 1139,1795 1024,1795 930,1795 858,1795 806,1795 773,1795 757,1795 756,1795 769,1795 793,1795 827,1734 867,1685 912,1648 959,1624 1008,1614 1054,1615 1098,1629 1136,1653 1168,1687 1192,1729 1207,1777 1212,1795 1207,1795 1191,1795 1164,1795 1127,1795 1079,1795 1021,1795 954,1795 879,1795 798,1795 712,1795 622,1795 532,1795 441,1795 353,1795 270,1795 194,1795 127,1795 72,1795 29,1795 5,1745 5,1637 5,1525 31,1413 82,1303 155,1198 251,1102 369,1019 510,952 672,905 853,883 1053,889 1268,929 1496,1006 1731,1124 1795,1287 1795,1499 1795,1763 1795,1795 1795,1795 1795,1795 1795,1795 1795,1795 1795,1795 1795,1795 1795,1795 1795,1795 1795,1795 1795,1795 1471,1795 741,1795 5,1795 69,5 1078,5 1795,5 1795,5 1795,5 1795,5 1795,5 1795,5 1795,5 1795,5 1795,5 1795,385 1795,839 1795,1241 1795,1592 1795,1795 1795,1795 1795,1795 1795,1795 1795,1795 1795,1795 1795,1795 1795,1795 1795,1795 1670,1795 1504,1795 1357,1795 1230,1795 1121,1795 1031,1795 960,1795 907,1795 870,1795 848,1795 840,1795 843,1795 857,1795 879,1766 908,1722 941,1689 976,1667 1013,1656 1048,1655 1081,1665 1110,1684 1134,1711 1151,1745 1160,1785 1161,1795 1154,1795 1137,1795 1111,1795 1076,1795 1032,1795 979,1795 920,1795 853,1795 782,1795 706,1795 628,1795 548,1795 470,1795 394,1795 323,1795 258,1795 201,1795 155,1795 120,1795 100,1729 94,1638 104,1545 133,1452 180,1362 245,1278 330,1203 435,1140 557,1093 697,1065 854,1060 1024,1081 1206,1133 1395,1218 1590,1340 1785,1503 1795,1709 1795,1795 1795,1795 1795,1795 1795,1795 1795,1795 1795,1795 1795,1795 1795,1795 1795,1795 1795,1795 1701,1795 1220,1795 614,1795 5,1795 5,1795 5,5 370,5 1205,5 1795,5 1795,5 1795,5 1795,5 1795,5 1795,5 1795,5 1795,5 1795,319 1795,730 1795,1097 1795,1420 1795,1700 1795,1795 1795,1795 1795,1795 1795,1795 1795,1795 1795,1795 1795,1795 1795,1795 1700,1795 1551,1795 1418,1795 1301,1795 1199,1795 1114,1795 1045,1795 991,1795 952,1795 925,1795 911,1795 907,1795 913,1795 925,1786 944,1747 967,1718 992,1698 1019,1687 1045,1685 1069,1692 1089,1706 1106,1728 1117,1756 1121,1789 1119,1795 1109,1795 1092,1795 1066,1795 1033,1795 993,1795 945,1795 892,1795 833,1795 769,1795 702,1795 634,1795 564,1795 496,1795 431,1795 369,1795 314,1795 265,1795 226,1795 198,1791 182,1717 178,1641 189,1564 216,1488 258,1415 316,1349 391,1292 481,1246 587,1215 707,1203 840,1211 983,1243 1134,1303 1291,1393 1448,1516 1604,1676 1752,1795 1795,1795 1795,1795 1795,1795 1795,1795 1795,1795 1795,1795 1795,1795 1795,1795 1711,1795 1408,1795 1011,1795 510,1795 5,1795 5,1795 5,1795 5,5 5,5 621,5 1310,5 1795,5 1795,5 1795,5 1795,5 1795,5 1795,5 1795,5 1795,296 1795,665 1795,997 1795,1292 1795,1550 1795,1772 1795,1795 1795,1795 1795,1795 1795,1795 1795,1795 1795,1795 1795,1795 1716,1795 1583,1795 1462,1795 1355,1795 1261,1795 1181,1795 1115,1795 1062,1795 1021,1795 991,1795 972,1795 962,1795 961,1795 966,1795 976,1764 991,1738 1007,1719 1025,1709 1043,1706 1059,1710 1073,1721 1083,1739 1089,1761 1089,1788 1084,1795 1073,1795 1054,1795 1030,1795 999,1795 961,1795 918,1795 869,1795 816,1795 760,1795 701,1795 640,1795 579,1795 520,1795 463,1795 410,1795 362,1795 320,1795 287,1795 264,1770 250,1708 248,1645 259,1582 283,1520 320,1463 371,1411 435,1369 513,1337 603,1320 704,1319 815,1337 934,1378 1058,1443 1184,1535 1309,1656 1430,1795 1541,1795 1638,1795 1716,1795 1769,1795 1789,1795 1772,1795 1709,1795 1592,1795 1414,1795 1166,1795 839,1795 425,1795 5,1795 5,1795 5,1795 5,1795 5,5 5,5 161,5 830,5 1394,5 1795,5 1795,5 1795,5 1795,5 1795,5 1795,5 1795,309 1795,636 1795,934 1795,1200 1795,1436 1795,1641 1795,1795 1795,1795 1795,1795 1795,1795 1795,1795 1795,1795 1795,1795 1720,1795 1602,1795 1494,1795 1396,1795 1310,1795 1235,1795 1172,1795 1119,1795 1078,1795 1046,1795 1024,1795 1009,1795 1002,1795 1001,1795 1005,1773 1012,1750 1021,1733 1032,1723 1043,1720 1053,1722 1060,1731 1065,1744 1067,1762 1064,1784 1056,1795 1042,1795 1024,1795 1000,1795 970,1795 935,1795 895,1795 851,1795 804,1795 753,1795 700,1795 647,1795 593,1795 541,1795 491,1795 445,1795 403,1795 367,1795 339,1795 319,1753 307,1702 306,1649 316,1598 336,1549 368,1504 412,1465 467,1434 532,1415 607,1408 692,1416 783,1442 879,1487 979,1555 1078,1647 1175,1765 1265,1795 1344,1795 1408,1795 1452,1795 1471,1795 1458,1795 1408,1795 1314,1795 1170,1795 967,1795 699,1795 358,1795 5,1795 5,1795 5,1795 5,1795 5,1795 5,5 5,5 5,5 454,5 1001,5 1461,5 1795,5 1795,5 1795,5 1795,5 1795,41 1795,350 1795,637 1795,901 1795,1140 1795,1353 1795,1540 1795,1701 1795,1795 1795,1795 1795,1795 1795,1795 1795,1795 1795,1795 1716,1795 1611,1795 1514,1795 1426,1795 1347,1795 1277,1795 1217,1795 1166,1795 1125,1795 1092,1795 1067,1795 1049,1795 1037,1795 1031,1795 1029,1776 1030,1755 1034,1741 1039,1731 1044,1727 1048,1729 1051,1735 1051,1745 1049,1760 1042,1777 1032,1795 1018,1795 999,1795 975,1795 947,1795 914,1795 877,1795 837,1795 794,1795 748,1795 701,1795 654,1795 606,1795 560,1795 516,1795 475,1795 438,1795 407,1795 382,1779 364,1738 355,1696 353,1653 361,1612 378,1573 405,1538 442,1510 487,1489 541,1479 603,1480 672,1495 745,1526 822,1575 899,1643 975,1733 1047,1795 1110,1795 1162,1795 1198,1795 1214,1795 1204,1795 1164,1795 1088,1795 971,1795 805,1795 586,1795 305,1795 5,1795 5,1795 5,1795 5,1795 5,1795 5,1795 5,5 5,5 5,5 172,5 696,5 1142,5 1514,5 1795,5 1795,5 1795,5 1795,147 1795,413 1795,663 1795,894 1795,1105 1795,1296 1795,1464 1795,1612 1795,1738 1795,1795 1795,1795 1795,1795 1795,1795 1795,1795 1705,1795 1613,1795 1526,1795 1446,1795 1374,1795 1309,1795 1253,1795 1204,1795 1163,1795 1130,1795 1103,1795 1083,1795 1068,1795 1057,1795 1051,1773 1047,1755 1045,1742 1045,1734 1045,1730 1045,1730 1043,1734 1040,1743 1034,1754 1025,1768 1013,1784 998,1795 978,1795 955,1795 928,1795 897,1795 863,1795 826,1795 787,1795 745,1795 703,1795 660,1795 618,1795 576,1795 537,1795 501,1795 468,1795 441,1790 418,1758 402,1725 393,1690 391,1656 397,1623 411,1593 432,1567 462,1547 499,1535 543,1531 592,1539 647,1559 704,1593 763,1643 822,1711 877,1795 927,1795 967,1795 996,1795 1008,1795 1000,1795 968,1795 906,1795 810,1795 675,1795 495,1795 265,1795 5,1795 5,1795 5,1795 5,1795 5,1795 5,1795 5,1795 5,5 5,5 5,5 5,5 470,5 895,5 1255,5 1554,5 1795,5 1795,34 1795,267 1795,492 1795,706 1795,906 1795,1091 1795,1260 1795,1411 1795,1544 1795,1659 1795,1757 1795,1795 1795,1795 1795,1795 1774,1795 1689,1795 1608,1795 1531,1795 1459,1795 1393,1795 1334,1795 1281,1795 1234,1795 1195,1795 1161,1795 1133,1795 1111,1795 1093,1795 1079,1785 1069,1766 1061,1751 1056,1739 1051,1732 1047,1727 1043,1727 1038,1730 1031,1736 1023,1745 1012,1757 998,1770 981,1784 962,1795 939,1795 912,1795 883,1795 852,1795 817,1795 781,1795 743,1795 705,1795 666,1795 628,1795 591,1795 555,1795 523,1795 494,1791 469,1766 448,1740 433,1712 424,1684 421,1657 425,1631 435,1608 452,1590 475,1577 504,1571 538,1573 577,1585 618,1608 662,1644 705,1694 747,1759 785,1795 816,1795 837,1795 846,1795 838,1795 811,1795 761,1795 682,1795 572,1795 424,1795 235,1795 5,1795 5,1795 5,1795 5,1795 5,1795 5,1795 5,1795 5,1795 5,5 5,5 5,5 5,5 313,5 714,5 1057,5 1346,5 1584,12 1776,204 1795,395 1795,582 1795,763 1795,934 1795,1094 1795,1242 1795,1375 1795,1494 1795,1598 1795,1688 1795,1763 1795,1795 1795,1795 1744,1795 1670,1795 1599,1795 1531,1795 1466,1795 1406,1795 1352,1795 1302,1795 1258,1795 1220,1795 1186,1795 1158,1795 1134,1795 1114,1790 1098,1772 1085,1756 1074,1743 1065,1733 1057,1726 1050,1722 1042,1721 1034,1723 1025,1728 1014,1735 1001,1744 986,1754 968,1765 948,1777 925,1789 900,1795 872,1795 842,1795 811,1795 777,1795 742,1795 707,1795 672,1795 637,1795 603,1795 571,1795 542,1783 515,1765 492,1744 473,1723 459,1700 449,1678 445,1656 446,1636 453,1620 465,1607 482,1599 504,1598 529,1605 558,1620 588,1645 619,1681 649,1730 676,1791 699,1795 714,1795 719,1795 712,1795 688,1795 646,1795 581,1795 490,1795 370,1795 215,1795 22,1795 5,1795 5,1795 5,1795 5,1795 5,1795 5,1795 5,1795 5,1795 5,5 5,5 5,5 5,5 218,5 591,5 913,5 1187,83 1417,224 1605,373 1755,526 1795,680 1795,830 1795,974 1795,1110 1795,1237 1795,1354 1795,1459 1795,1552 1795,1633 1795,1702 1795,1759 1776,1795 1713,1795 1650,1795 1587,1795 1527,1795 1469,1795 1415,1795 1364,1795 1318,1795 1276,1795 1239,1795 1206,1795 1178,1795 1153,1788 1132,1771 1114,1756 1098,1743 1085,1731 1073,1723 1062,1717 1052,1713 1042,1712 1031,1713 1019,1717 1007,1722 992,1729 976,1737 958,1746 937,1756 915,1765 890,1775 864,1783 835,1790 805,1795 774,1795 742,1795 709,1795 677,1795 645,1789 614,1780 585,1769 557,1756 533,1741 511,1724 493,1706 479,1688 469,1670 463,1654 462,1639 465,1627 473,1619 485,1616 499,1618 517,1628 537,1645 557,1671 578,1707 596,1753 611,1795 620,1795 622,1795 614,1795 593,1795 557,1795 503,1795 428,1795 329,1795 201,1795 43,1795 5,1795 5,1795 5,1795 5,1795 5,1795 5,1795 5,1795 5,1795 5,1795 5,446 5,288 5,192 5,148 176,147 518,181 817,243 1073,327 1291,428 1471,540 1618,658 1733,780 1795,902 1795,1021 1795,1136 1795,1244 1795,1344 1795,1435 1795,1517 1795,1590 1795,1652 1787,1705 1736,1748 1683,1782 1628,1795 1573,1795 1520,1795 1468,1795 1419,1795 1372,1795 1329,1795 1290,1795 1254,1795 1222,1793 1194,1779 1169,1765 1146,1751 1127,1738 1109,1727 1094,1718 1080,1710 1067,1705 1054,1702 1042,1700 1029,1701 1015,1704 1001,1708 985,1713 968,1720 949,1727 929,1734 907,1742 883,1749 857,1756 830,1761 801,1765 772,1768 742,1769 712,1767 682,1764 652,1759 623,1751 596,1742 570,1731 547,1718 527,1704 509,1690 495,1676 484,1662 477,1649 474,1639 474,1631 477,1626 484,1626 492,1631 503,1643 515,1661 527,1687 538,1721 546,1764 550,1795 549,1795 540,1795 521,1795 490,1795 444,1795 382,1795 299,1795 195,1795 65,1795 5,1795 5,1795 5,1795 5,1795 5,1795 5,1795 5,1795 5,1795 5,1795 5,1795 5,965 5,765 5,625 5,537 180,494 490,486 762,509 999,556 1201,620 1372,699 1512,787 1625,881 1712,977 1776,1073 1795,1168 1795,1258 1795,1343 1795,1422 1795,1493 1795,1557 1780,1612 1741,1660 1699,1700 1653,1732 1606,1757 1558,1775 1511,1788 1464,1795 1420,1795 1377,1795 1337,1791 1300,1783 1266,1774 1235,1763 1207,1752 1181,1741 1158,1730 1138,1719 1119,1710 1102,1702 1086,1696 1071,1691 1056,1688 1042,1687 1028,1687 1012,1689 997,1692 980,1696 962,1701 943,1707 922,1713 900,1719 876,1725 852,1730 826,1734 799,1737 771,1739 742,1739 714,1738 686,1735 658,1730 631,1724 605,1716 581,1707 559,1697 539,1686 522,1674 508,1663 496,1652 487,1643 481,1636 478,1631 478,1629 480,1631 484,1639 488,1651 493,1669 498,1694 501,1727 500,1766 496,1795 485,1795 467,1795 440,1795 401,1795 348,1795 280,1795 193,1795 86,1795 5,1795 5,1795 5,1795 5,1795 5,1795 5,1795 5,1795 5,1795 5,1795 5,1795 5,1795 5,1414 5,1180 5,1006 5,883 222,804 498,762 744,751 959,765 1144,799 1302,849 1434,910 1541,978 1626,1052 1691,1128 1737,1204 1766,1278 1781,1349 1783,1415 1774,1476 1756,1531 1731,1580 1700,1623 1664,1659 1626,1689 1585,1712 1543,1730 1501,1743 1459,1751 1418,1755 1379,1756 1342,1753 1307,1748 1275,1742 1245,1734 1217,1725 1191,1716 1168,1707 1147,1699 1127,1692 1108,1685 1091,1680 1074,1676 1058,1673 1043,1672 1027,1672 1010,1673 993,1675 976,1679 957,1683 937,1687 917,1692 895,1696 872,1701 847,1705 822,1708 796,1710 770,1712 743,1712 716,1710 689,1708 663,1704 638,1698 613,1692 590,1684 569,1676 549,1667 532,1658 517,1650 504,1642 494,1635 486,1630 481,1628 477,1628 475,1632 474,1640 473,1653 472,1671 470,1695 466,1725 459,1761 447,1795 430,1795 405,1795 371,1795 326,1795 268,1795 196,1795 107,1795 5,1795 5,1795 5,1795 5,1795 5,1795 5,1795 5,1795 5,1795 5,1795 5,1795 5,1795 5,1795 5,1794 5,1536 5,1335 28,1185 296,1078 538,1008 756,969 948,955 1115,963 1259,987 1380,1025 1481,1072 1561,1125 1623,1182 1669,1242 1700,1301 1718,1359 1724,1414 1720,1465 1708,1513 1688,1555 1663,1592 1633,1624 1600,1651 1565,1673 1528,1691 1490,1703 1452,1712 1415,1717 1380,1719 1345,1718 1312,1716 1281,1711 1252,1705 1225,1699 1199,1692 1176,1685 1154,1678 1133,1672 1114,1667 1095,1662 1078,1659 1060,1656 1043,1655 1026,1655 1009,1656 991,1658 973,1660 953,1663 933,1667 912,1670 891,1674 868,1677 844,1681 820,1683 795,1685 769,1686 744,1685 718,1684 692,1682 667,1678 643,1674 620,1669 597,1662 577,1656 557,1649 540,1642 524,1635 511,1630 499,1625 489,1622 481,1621 474,1623 468,1629 463,1637 458,1650 452,1667 445,1689 435,1716 422,1748 404,1786 381,1795 351,1795 312,1795 263,1795 202,1795 129,1795 40,1795 5,1795 5,1795 5,1795 5,1795 5,1795 5,1795 5,1795 5,1795 5,1795 5,1795 5,1795 5,1795 5,1795 5,1795 5,1615 167,1443 395,1315 604,1222 793,1160 961,1124 1109,1110 1238,1113 1348,1130 1439,1158 1514,1194 1573,1235 1617,1280 1648,1325 1667,1371 1676,1416 1675,1459 1666,1499 1651,1535 1630,1567 1605,1595 1577,1619 1546,1639 1513,1655 1479,1668 1445,1676 1412,1682 1378,1685 1346,1686 1315,1684 1285,1682 1257,1678 1231,1673 1205,1667 1182,1662 1160,1657 1138,1652 1118,1647 1099,1644 1080,1641 1062,1639 1044,1638 1026,1637 1008,1638 989,1639 970,1641 950,1643 930,1646 909,1649 887,1652 865,1654 842,1657 818,1659 794,1660 769,1660 744,1660 720,1659 695,1657 671,1654 648,1650 625,1646 603,1641 583,1636 564,1630 546,1625 530,1620 515,1616 502,1613 490,1612 480,1613 470,1616 461,1621 452,1630 443,1643 433,1659 421,1679 407,1703 389,1731 367,1763 340,1795 306,1795 263,1795 212,1795 150,1795 76,1795 5,1795 5,1795 5,1795 5,1795 5,1795 5,1795 5,1795 5,1795 5,1795 5,1795 5,1795 5,1683 5,1464 5,1795 5,1795 122,1795 324,1660 514,1515 689,1405 850,1326 995,1272 1124,1240 1236,1225 1333,1225 1415,1237 1483,1258 1537,1284 1578,1316 1607,1350 1627,1385 1636,1421 1638,1455 1632,1488 1620,1518 1602,1546 1581,1570 1556,1591 1529,1609 1499,1624 1469,1635 1438,1644 1407,1650 1376,1653 1346,1655 1317,1655 1288,1653 1261,1651 1235,1647 1210,1643 1187,1639 1164,1635 1143,1631 1122,1627 1102,1624 1083,1622 1064,1620 1045,1619 1026,1619 1007,1619 988,1620 968,1621 948,1623 928,1625 907,1628 885,1630 863,1632 840,1634 817,1635 793,1636 769,1636 745,1636 721,1635 697,1633 674,1631 651,1628 629,1624 608,1620 587,1616 568,1612 550,1608 533,1604 518,1602 503,1600 490,1600 478,1602 466,1605 454,1611 442,1620 430,1631 416,1646 401,1664 383,1685 361,1709 336,1737 305,1767 268,1795 224,1795 171,1795 110,1795 37,1795 5,1795 5,1795 5,1795 5,1795 5,1795 5,1795 5,1795 5,1795 5,1795 5,1740 5,1595 5,1410 5,1178 5,1795 170,1795 334,1795 494,1795 646,1681 790,1559 923,1466 1045,1398 1154,1351 1250,1323 1334,1309 1406,1307 1465,1315 1513,1329 1550,1350 1577,1373 1595,1399 1605,1427 1607,1454 1603,1480 1593,1505 1578,1528 1560,1548 1538,1567 1513,1582 1487,1595 1459,1606 1431,1614 1402,1620 1373,1624 1345,1626 1317,1627 1290,1626 1264,1624 1238,1622 1214,1619 1190,1616 1168,1613 1146,1610 1125,1607 1104,1604 1084,1602 1065,1601 1045,1600 1026,1600 1006,1600 987,1600 967,1602 946,1603 926,1604 905,1606 883,1608 861,1609 838,1611 816,1612 792,1612 769,1613 746,1612 722,1611 699,1610 676,1608 654,1605 632,1603 611,1599 591,1596 572,1593 553,1590 536,1588 520,1586 504,1586 489,1586 475,1588 461,1592 447,1598 432,1606 417,1617 401,1630 382,1646 362,1664 337,1685 309,1707 276,1732 238,1759 193,1786 140,1795 80,1795 10,1795 5,1795 5,1795 5,1795 5,1795 5,1795 5,1795 5,1795 5,1746 5,1654 5,1532 5,1376 5,1182 5,945 314,1795 430,1795 550,1795 671,1795 788,1795 901,1683 1008,1581 1107,1503 1196,1445 1277,1406 1347,1381 1408,1368 1459,1365 1500,1369 1533,1380 1557,1395 1573,1413 1581,1432 1584,1453 1580,1473 1572,1493 1559,1512 1542,1529 1522,1544 1500,1558 1476,1569 1451,1579 1424,1586 1397,1592 1370,1596 1343,1598 1317,1600 1291,1600 1265,1599 1240,1597 1216,1595 1193,1593 1170,1591 1149,1588 1127,1586 1106,1584 1086,1582 1066,1581 1046,1580 1026,1580 1006,1580 986,1580 966,1581 945,1582 924,1583 903,1585 882,1586 860,1587 837,1588 815,1589 792,1589 769,1589 746,1589 724,1588 701,1587 678,1585 657,1583 635,1581 614,1579 594,1576 574,1574 556,1572 538,1571 520,1570 504,1570 488,1571 472,1573 456,1577 440,1583 423,1591 406,1600 387,1611 367,1625 344,1640 317,1658 288,1676 254,1696 214,1717 169,1737 118,1757 59,1775 5,1790 5,1795 5,1795 5,1795 5,1789 5,1764 5,1724 5,1667 5,1589 5,1487 5,1357 5,1195 5,998 5,760 617,1795 687,1795 766,1795 850,1795 935,1795 1019,1779 1101,1672 1178,1587 1249,1522 1313,1474 1370,1440 1420,1419 1462,1407 1497,1403 1524,1406 1544,1413 1557,1424 1564,1437 1566,1452 1562,1467 1554,1483 1542,1498 1527,1512 1509,1524 1488,1536 1466,1546 1443,1554 1418,1561 1393,1566 1367,1570 1342,1572 1316,1574 1291,1574 1266,1574 1242,1573 1218,1572 1195,1570 1173,1568 1151,1566 1129,1565 1108,1563 1087,1562 1067,1561 1046,1560 1026,1560 1006,1560 986,1560 965,1561 944,1561 923,1562 902,1563 880,1564 859,1565 837,1566 814,1566 792,1567 769,1567 747,1566 724,1566 702,1565 680,1563 658,1562 637,1560 616,1558 596,1557 576,1555 557,1554 539,1553 521,1552 503,1553 486,1554 468,1557 451,1561 434,1566 415,1573 396,1581 376,1591 353,1602 329,1615 301,1629 270,1644 236,1659 196,1675 152,1690 102,1703 46,1714 5,1721 5,1724 5,1720 5,1708 5,1686 5,1653 5,1605 5,1540 5,1455 5,1347 5,1214 5,1051 5,854 5,621 907,1795 936,1795 978,1795 1028,1795 1083,1795 1140,1795 1198,1740 1254,1651 1308,1582 1357,1528 1401,1488 1440,1460 1473,1441 1501,1431 1522,1427 1538,1428 1548,1433 1553,1441 1553,1450 1549,1461 1541,1473 1529,1484 1515,1495 1498,1506 1479,1515 1458,1523 1435,1530 1412,1536 1388,1541 1364,1545 1339,1547 1315,1549 1291,1550 1266,1550 1243,1549 1219,1548 1197,1547 1174,1546 1152,1545 1131,1543 1109,1542 1088,1541 1068,1540 1047,1540 1026,1539 1006,1539 985,1540 964,1540 944,1541 922,1541 901,1542 880,1543 858,1543 836,1544 814,1544 792,1544 770,1544 747,1544 725,1543 703,1543 681,1542 660,1540 639,1539 618,1538 597,1536 578,1535 558,1534 539,1534 520,1534 502,1535 484,1537 465,1539 447,1543 428,1547 408,1553 388,1561 366,1569 342,1578 317,1589 288,1600 257,1611 222,1623 184,1634 141,1643 93,1651 40,1656 5,1657 5,1653 5,1643 5,1624 5,1596 5,1556 5,1502 5,1432 5,1344 5,1234 5,1100 5,939 5,748 5,522 1180,1795 1173,1795 1181,1795 1200,1795 1228,1795 1261,1795 1297,1787 1334,1697 1371,1625 1405,1568 1437,1524 1466,1491 1490,1467 1510,1452 1526,1443 1537,1439 1544,1439 1546,1442 1545,1448 1540,1455 1531,1463 1520,1471 1505,1480 1489,1488 1471,1495 1451,1502 1429,1508 1407,1513 1384,1517 1361,1521 1337,1523 1314,1525 1290,1526 1267,1526 1243,1526 1220,1526 1198,1525 1175,1524 1153,1523 1132,1522 1110,1521 1089,1520 1068,1520 1047,1519 1027,1519 1006,1519 985,1519 964,1519 943,1520 922,1520 901,1521 879,1521 857,1522 836,1522 814,1522 792,1522 770,1522 748,1522 726,1521 704,1521 682,1520 661,1519 640,1518 619,1517 599,1516 578,1515 559,1515 539,1515 520,1515 501,1516 482,1518 462,1520 443,1524 423,1528 402,1533 381,1539 358,1546 333,1553 307,1561 278,1570 247,1578 213,1586 175,1593 134,1599 89,1602 39,1602 5,1599 5,1589 5,1574 5,1550 5,1517 5,1473 5,1416 5,1344 5,1254 5,1145 5,1014 5,858 5,675 5,461 1434,1795 1394,1795 1372,1795 1365,1795 1368,1795 1379,1795 1395,1795 1415,1726 1436,1653 1457,1595 1477,1549 1495,1513 1511,1486 1524,1466 1534,1453 1541,1445 1544,1442 1543,1441 1540,1443 1533,1447 1524,1452 1512,1458 1498,1464 1482,1471 1464,1476 1445,1482 1424,1487 1403,1491 1381,1495 1358,1498 1335,1500 1312,1501 1289,1502 1266,1503 1243,1503 1221,1503 1198,1502 1176,1502 1154,1501 1133,1500 1111,1500 1090,1499 1069,1499 1048,1498 1027,1498 1006,1498 985,1498 964,1498 943,1498 921,1499 900,1499 879,1500 857,1500 835,1500 814,1500 792,1500 770,1500 748,1500 726,1500 705,1499 683,1499 662,1498 641,1497 620,1496 599,1496 579,1495 559,1495 539,1495 519,1496 499,1497 480,1498 460,1501 439,1504 419,1507 397,1511 375,1516 351,1522 327,1528 300,1534 271,1540 240,1546 207,1551 171,1555 131,1557 89,1556 43,1553 5,1545 5,1532 5,1513 5,1486 5,1450 5,1403 5,1345 5,1272 5,1184 5,1078 5,952 5,804 5,632 5,433 1664,1795 1597,1795 1550,1795 1519,1795 1500,1795 1492,1795 1490,1795 1494,1739 1501,1668 1509,1610 1519,1563 1528,1525 1536,1496 1542,1475 1546,1459 1548,1448 1547,1442 1544,1438 1538,1437 1530,1439 1520,1441 1507,1445 1493,1449 1477,1454 1459,1458 1440,1462 1420,1466 1399,1470 1378,1473 1356,1475 1334,1477 1311,1479 1289,1480 1266,1480 1243,1480 1221,1480 1199,1480 1177,1480 1155,1479 1133,1479 1112,1478 1090,1478 1069,1477 1048,1477 1027,1477 1006,1477 985,1477 964,1477 942,1477 921,1477 900,1478 878,1478 857,1478 835,1478 813,1479 792,1479 770,1479 748,1478 727,1478 705,1478 684,1477 662,1477 641,1476 620,1476 600,1475 579,1475 559,1475 538,1475 518,1476 498,1477 478,1478 457,1480 436,1483 415,1486 393,1489 370,1493 346,1497 321,1502 295,1506 266,1510 236,1514 204,1517 169,1518 132,1517 92,1514 50,1507 5,1497 5,1481 5,1459 5,1430 5,1393 5,1346 5,1287 5,1217 5,1132 5,1031 5,912 5,775 5,616 5,434 1795,1795 1781,1795 1712,1795 1660,1795 1623,1795 1597,1795 1580,1795 1569,1738 1564,1670 1561,1614 1561,1567 1561,1530 1561,1500 1561,1477 1560,1459 1557,1447 1553,1438 1547,1432 1539,1430 1529,1429 1518,1429 1504,1431 1489,1434 1473,1437 1455,1440 1437,1443 1417,1446 1396,1449 1375,1451 1354,1453 1332,1455 1310,1456 1288,1457 1265,1458 1243,1458 1221,1458 1199,1458 1177,1458 1155,1458 1134,1457 1112,1457 1091,1456 1069,1456 1048,1456 1027,1456 1006,1456 985,1456 963,1456 942,1456 921,1456 900,1456 878,1457 857,1457 835,1457 813,1457 792,1457 770,1457 749,1457 727,1456 706,1456 684,1456 663,1455 642,1455 621,1455 600,1455 579,1454 559,1455 538,1455 517,1455 497,1456 476,1458 455,1459 434,1462 412,1464 390,1467 367,1470 343,1473 318,1476 291,1479 263,1481 234,1483 203,1484 170,1483 135,1480 98,1475 60,1466 19,1453 5,1436 5,1413 5,1383 5,1345 5,1299 5,1243 5,1175 5,1095 5,1001 5,892 5,766 5,622 5,460 1795,1795 1795,1795 1795,1795 1787,1795 1734,1795 1694,1795 1663,1795 1640,1724 1624,1661 1611,1608 1602,1563 1594,1527 1588,1497 1582,1474 1576,1455 1569,1441 1561,1431 1552,1424 1542,1420 1530,1417 1517,1416 1503,1417 1487,1418 1470,1419 1453,1422 1434,1424 1414,1426 1394,1428 1373,1430 1352,1432 1331,1433 1309,1434 1287,1435 1265,1436 1243,1436 1221,1436 1199,1436 1177,1436 1156,1436 1134,1436 1112,1435 1091,1435 1070,1435 1048,1435 1027,1435 1006,1435 985,1435 963,1435 942,1435 921,1435 899,1435 878,1435 856,1435 835,1435 813,1435 792,1435 770,1435 749,1435 727,1435 706,1435 684,1434 663,1434 642,1434 621,1434 600,1434 579,1434 558,1434 537,1434 517,1435 496,1436 475,1437 454,1438 432,1440 410,1442 387,1444 364,1446 340,1448 315,1450 289,1452 262,1453 233,1454 203,1453 172,1450 140,1446 106,1439 71,1429 35,1415 5,1396 5,1373 5,1343 5,1307 5,1262 5,1209 5,1146 5,1072 5,987 5,888 5,776 5,648 5,505 1795,1795 1795,1795 1795,1795 1795,1795 1795,1795 1781,1795 1739,1766 1706,1699 1679,1642 1658,1593 1641,1551 1626,1517 1614,1488 1603,1465 1592,1447 1581,1432 1570,1421 1558,1413 1546,1408 1532,1404 1518,1402 1503,1401 1486,1401 1469,1402 1451,1403 1432,1405 1413,1406 1392,1408 1372,1409 1351,1410 1330,1412 1308,1412 1286,1413 1265,1414 1243,1414 1221,1414 1199,1414 1177,1414 1156,1414 1134,1414 1113,1414 1091,1414 1070,1414 1048,1413 1027,1413 1006,1413 985,1413 963,1413 942,1413 921,1413 899,1414 878,1414 856,1414 835,1414 813,1414 792,1414 770,1414 749,1414 727,1414 706,1413 685,1413 663,1413 642,1413 621,1413 600,1413 579,1413 558,1413 537,1413 516,1414 495,1415 474,1416 452,1417 430,1418 408,1419 385,1421 362,1422 338,1424 314,1425 288,1426 262,1426 234,1425 206,1423 176,1419 146,1414 115,1406 83,1395 51,1380 19,1362 5,1339 5,1310 5,1276 5,1234 5,1185 5,1128 5,1061 5,985 5,898 5,800 5,690 5,567 1795,1795 1795,1795 1795,1795 1795,1795 1795,1795 1795,1790 1795,1724 1764,1665 1730,1614 1701,1570 1677,1532 1657,1500 1639,1474 1623,1452 1608,1434 1594,1420 1580,1409 1565,1400 1551,1394 1536,1389 1520,1387 1503,1385 1486,1384 1468,1384 1450,1385 1431,1385 1411,1386 1391,1387 1371,1388 1350,1389 1329,1390 1307,1391 1286,1392 1264,1392 1242,1392 1221,1393 1199,1393 1177,1393 1156,1393 1134,1393 1113,1392 1091,1392 1070,1392 1049,1392 1027,1392 1006,1392 985,1392 963,1392 942,1392 921,1392 899,1392 878,1392 856,1392 835,1392 813,1392 792,1392 770,1392 749,1392 728,1392 706,1392 685,1392 664,1392 642,1392 621,1392 600,1392 579,1392 558,1392 537,1392 515,1393 494,1393 473,1394 451,1395 429,1396 407,1397 384,1398 361,1399 337,1400 313,1400 288,1400 262,1399 236,1398 209,1395 181,1390 153,1384 125,1376 96,1365 67,1350 40,1333 13,1311 5,1284 5,1252 5,1214 5,1170 5,1119 5,1060 5,994 5,919 5,836 33,743 102,642 1795,1795 1795,1795 1795,1795 1795,1795 1795,1792 1795,1730 1795,1674 1795,1624 1774,1580 1740,1541 1710,1508 1685,1479 1662,1455 1642,1434 1624,1418 1606,1404 1589,1393 1573,1385 1556,1378 1539,1373 1522,1370 1505,1368 1487,1366 1469,1366 1450,1366 1430,1366 1410,1366 1390,1367 1370,1368 1349,1368 1328,1369 1307,1370 1285,1370 1264,1370 1242,1371 1221,1371 1199,1371 1177,1371 1156,1371 1134,1371 1113,1371 1091,1371 1070,1371 1049,1371 1027,1371 1006,1371 985,1371 963,1371 942,1371 920,1371 899,1371 878,1371 856,1371 835,1371 813,1371 792,1371 770,1371 749,1371 728,1371 706,1371 685,1371 664,1370 642,1370 621,1370 600,1370 579,1371 557,1371 536,1371 515,1371 494,1372 472,1372 450,1373 428,1374 406,1375 383,1375 360,1376 337,1376 313,1376 289,1375 264,1374 238,1372 213,1368 187,1363 160,1357 134,1348 108,1338 83,1324 59,1307 36,1287 16,1263 5,1234 5,1200 5,1162 5,1118 5,1068 5,1011 23,949 64,881 121,806 197,725 1795,1795 1795,1795 1795,1795 1795,1767 1795,1713 1795,1664 1795,1618 1795,1577 1795,1540 1773,1507 1739,1478 1710,1453 1683,1432 1660,1413 1638,1398 1618,1386 1599,1375 1580,1367 1562,1361 1544,1356 1525,1352 1507,1350 1488,1348 1469,1347 1450,1346 1430,1346 1410,1346 1390,1347 1369,1347 1348,1347 1327,1348 1306,1348 1285,1349 1263,1349 1242,1349 1220,1349 1199,1349 1177,1350 1156,1350 1134,1350 1113,1350 1091,1349 1070,1349 1049,1349 1027,1349 1006,1349 985,1349 963,1349 942,1349 920,1349 899,1349 878,1349 856,1349 835,1349 813,1349 792,1349 771,1349 749,1349 728,1349 706,1349 685,1349 664,1349 642,1349 621,1349 600,1349 579,1349 557,1349 536,1350 515,1350 493,1350 471,1351 450,1351 428,1352 405,1352 383,1352 360,1353 337,1352 314,1352 290,1351 266,1349 241,1347 217,1343 192,1338 168,1332 144,1323 120,1313 98,1301 76,1285 57,1267 41,1246 27,1221 18,1192 15,1159 18,1122 29,1081 49,1035 82,985 127,932 189,874 269,814 1795,1791 1795,1751 1795,1710 1795,1670 1795,1630 1795,1593 1795,1558 1795,1525 1795,1496 1795,1469 1764,1445 1731,1424 1702,1405 1675,1390 1651,1376 1629,1365 1608,1355 1587,1348 1567,1342 1548,1337 1528,1333 1509,1331 1490,1329 1470,1327 1450,1327 1430,1326 1410,1326 1390,1326 1369,1326 1348,1326 1327,1327 1306,1327 1285,1327 1263,1328 1242,1328 1220,1328 1199,1328 1177,1328 1156,1328 1134,1328 1113,1328 1092,1328 1070,1328 1049,1328 1027,1328 1006,1328 985,1328 963,1328 942,1328 920,1328 899,1328 878,1328 856,1328 835,1328 813,1328 792,1328 771,1328 749,1328 728,1328 706,1328 685,1328 664,1328 642,1328 621,1328 600,1328 578,1328 557,1328 536,1328 514,1329 493,1329 471,1329 449,1329 427,1330 405,1330 383,1330 360,1330 338,1329 315,1329 291,1327 268,1325 245,1323 221,1319 198,1314 175,1308 152,1300 131,1291 111,1280 92,1266 76,1251 62,1232 52,1211 46,1187 46,1160 53,1131 67,1098 91,1063 127,1025 175,986 239,946 320,905 1795,1637 1795,1618 1795,1596 1795,1571 1795,1546 1795,1520 1795,1495 1795,1471 1795,1449 1795,1428 1784,1409 1749,1392 1717,1377 1689,1363 1663,1352 1638,1342 1615,1334 1594,1327 1572,1321 1552,1317 1532,1313 1511,1311 1491,1309 1471,1307 1451,1306 1431,1306 1410,1305 1389,1305 1369,1305 1348,1305 1327,1306 1306,1306 1284,1306 1263,1306 1242,1306 1220,1306 1199,1307 1177,1307 1156,1307 1134,1307 1113,1307 1092,1307 1070,1307 1049,1307 1027,1307 1006,1307 985,1307 963,1307 942,1307 920,1307 899,1307 878,1307 856,1307 835,1307 813,1307 792,1307 771,1307 749,1307 728,1307 706,1306 685,1306 664,1306 642,1306 621,1307 600,1307 578,1307 557,1307 535,1307 514,1307 492,1307 471,1307 449,1308 427,1308 405,1308 383,1308 361,1307 338,1307 316,1306 293,1304 270,1302 248,1300 225,1296 203,1292 181,1286 160,1279 141,1271 122,1261 106,1250 91,1237 80,1221 72,1204 69,1185 71,1165 80,1142 97,1118 122,1093 159,1067 207,1042 271,1017 350,995 1795,1488 1795,1489 1795,1483 1795,1474 1795,1461 1795,1447 1795,1431 1795,1415 1795,1400 1795,1385 1795,1371 1763,1358 1730,1346 1700,1335 1672,1326 1647,1318 1622,1311 1599,1305 1577,1300 1556,1296 1534,1293 1514,1290 1493,1288 1472,1287 1452,1286 1431,1285 1410,1285 1390,1285 1369,1284 1348,1284 1327,1285 1305,1285 1284,1285 1263,1285 1241,1285 1220,1285 1199,1285 1177,1285 1156,1285 1134,1285 1113,1285 1092,1285 1070,1285 1049,1285 1027,1285 1006,1285 985,1285 963,1285 942,1285 920,1285 899,1285 878,1285 856,1285 835,1285 813,1285 792,1285 771,1285 749,1285 728,1285 706,1285 685,1285 664,1285 642,1285 621,1285 600,1285 578,1285 557,1285 535,1285 514,1286 492,1286 471,1286 449,1286 427,1286 405,1286 383,1285 361,1285 339,1284 317,1283 295,1282 273,1280 251,1277 229,1274 208,1270 187,1265 167,1259 149,1252 132,1244 117,1235 104,1224 94,1213 88,1200 86,1186 90,1171 100,1155 117,1139 143,1124 178,1109 226,1097 286,1087 362,1082 1795,1347 1795,1365 1795,1375 1795,1379 1795,1378 1795,1374 1795,1367 1795,1359 1795,1350 1795,1341 1795,1332 1774,1322 1740,1314 1709,1306 1680,1299 1653,1292 1628,1287 1604,1282 1581,1278 1559,1274 1537,1272 1516,1269 1495,1268 1474,1266 1453,1265 1432,1264 1411,1264 1390,1264 1369,1263 1348,1263 1327,1263 1305,1263 1284,1263 1263,1264 1241,1264 1220,1264 1199,1264 1177,1264 1156,1264 1134,1264 1113,1264 1092,1264 1070,1264 1049,1264 1027,1264 1006,1264 985,1264 963,1264 942,1264 920,1264 899,1264 878,1264 856,1264 835,1264 813,1264 792,1264 771,1264 749,1264 728,1264 706,1264 685,1264 664,1264 642,1264 621,1264 600,1264 578,1264 557,1264 535,1264 514,1264 492,1264 471,1264 449,1264 427,1264 406,1264 384,1264 362,1263 340,1262 318,1261 296,1260 275,1258 253,1256 232,1253 212,1250 192,1246 173,1241 156,1235 140,1229 125,1222 114,1214 105,1205 99,1196 98,1187 102,1177 112,1168 128,1160 153,1154 186,1149 231,1149 287,1152 357,1162 1795,1216 1795,1249 1795,1273 1795,1289 1795,1299 1795,1304 1795,1305 1795,1304 1795,1301 1795,1297 1795,1292 1781,1287 1747,1281 1715,1276 1686,1271 1659,1266 1633,1262 1608,1258 1585,1255 1562,1252 1540,1250 1518,1248 1496,1246 1475,1245 1453,1244 1432,1243 1411,1243 1390,1243 1369,1242 1348,1242 1327,1242 1305,1242 1284,1242 1263,1242 1241,1242 1220,1242 1199,1242 1177,1242 1156,1242 1134,1242 1113,1242 1092,1242 1070,1242 1049,1242 1027,1242 1006,1242 985,1242 963,1242 942,1242 920,1242 899,1242 878,1242 856,1242 835,1242 813,1242 792,1242 771,1242 749,1242 728,1242 706,1242 685,1242 664,1242 642,1242 621,1242 599,1242 578,1242 557,1242 535,1243 514,1243 492,1243 471,1243 449,1242 427,1242 406,1242 384,1242 362,1241 341,1241 319,1240 298,1238 277,1237 256,1235 235,1233 215,1230 196,1227 178,1223 161,1219 145,1214 132,1209 120,1203 112,1198 107,1193 105,1188 109,1183 117,1181 132,1179 154,1181 184,1186 224,1196 274,1212 336,1235 1795,1097 1795,1143 1795,1178 1795,1205 1795,1224 1795,1237 1795,1246 1795,1251 1795,1253 1795,1254 1795,1253 1785,1251 1751,1248 1719,1246 1690,1242 1662,1239 1636,1237 1611,1234 1587,1231 1564,1229 1541,1228 1519,1226 1497,1225 1476,1224 1454,1223 1433,1222 1412,1222 1390,1221 1369,1221 1348,1221 1327,1221 1305,1221 1284,1221 1263,1221 1241,1221 1220,1221 1199,1221 1177,1221 1156,1221 1134,1221 1113,1221 1092,1221 1070,1221 1049,1221 1027,1221 1006,1221 985,1221 963,1221 942,1221 920,1221 899,1221 878,1221 856,1221 835,1221 813,1221 792,1221 771,1221 749,1221 728,1221 706,1221 685,1221 664,1221 642,1221 621,1221 599,1221 578,1221 557,1221 535,1221 514,1221 492,1221 471,1221 449,1221 428,1221 406,1221 385,1220 363,1220 342,1219 320,1218 299,1217 278,1216 258,1214 237,1213 218,1210 199,1208 181,1205 165,1202 149,1199 136,1196 125,1193 116,1191 110,1189 108,1188 110,1188 116,1191 128,1196 147,1205 172,1218 206,1237 249,1264 301,1299 1795,991 1795,1048 1795,1093 1795,1128 1795,1155 1795,1175 1795,1190 1795,1200 1795,1208 1795,1212 1795,1215 1786,1216 1752,1216 1721,1215 1692,1214 1665,1213 1638,1211 1613,1209 1589,1208 1566,1206 1543,1205 1520,1204 1498,1203 1477,1202 1455,1201 1433,1201 1412,1200 1391,1200 1369,1200 1348,1200 1327,1200 1305,1200 1284,1200 1263,1200 1241,1200 1220,1200 1199,1200 1177,1200 1156,1200 1134,1200 1113,1200 1092,1200 1070,1200 1049,1200 1027,1200 1006,1200 985,1200 963,1200 942,1200 920,1200 899,1200 878,1200 856,1200 835,1200 813,1200 792,1200 771,1200 749,1200 728,1200 706,1200 685,1200 664,1200 642,1200 621,1200 599,1200 578,1200 557,1200 535,1200 514,1200 492,1200 471,1200 449,1199 428,1199 406,1199 385,1199 364,1198 342,1198 321,1197 300,1196 279,1195 259,1194 239,1193 220,1191 201,1190 183,1188 167,1186 152,1185 138,1184 126,1183 117,1183 110,1184 106,1187 106,1192 110,1199 119,1209 133,1224 153,1245 179,1272 213,1307 256,1351 1795,899 1795,964 1795,1017 1795,1059 1795,1092 1795,1118 1795,1138 1795,1153 1795,1164 1795,1173 1795,1178 1784,1182 1752,1184 1721,1186 1693,1186 1666,1186 1640,1185 1615,1185 1590,1184 1567,1183 1544,1182 1521,1182 1499,1181 1477,1180 1455,1180 1434,1179 1412,1179 1391,1179 1369,1179 1348,1178 1327,1178 1305,1178 1284,1178 1263,1178 1241,1178 1220,1178 1199,1178 1177,1178 1156,1178 1134,1178 1113,1178 1092,1178 1070,1178 1049,1178 1027,1178 1006,1178 985,1178 963,1178 942,1178 920,1178 899,1178 878,1178 856,1178 835,1178 813,1178 792,1178 771,1178 749,1178 728,1178 706,1178 685,1178 664,1178 642,1178 621,1178 599,1178 578,1178 557,1178 535,1178 514,1178 492,1178 471,1178 449,1178 428,1178 407,1178 385,1177 364,1177 343,1177 322,1176 301,1175 280,1175 260,1174 240,1173 221,1172 202,1172 185,1171 168,1170 152,1170 138,1171 125,1172 115,1174 107,1178 101,1184 98,1192 99,1203 104,1218 112,1238 126,1264 145,1298 170,1340 201,1392 1795,822 1795,893 1795,951 1795,999 1795,1037 1795,1067 1795,1091 1795,1110 1795,1124 1795,1135 1795,1143 1780,1149 1749,1154 1720,1157 1692,1158 1665,1160 1640,1160 1615,1160 1591,1160 1567,1160 1544,1160 1522,1159 1500,1159 1478,1158 1456,1158 1434,1158 1413,1157 1391,1157 1370,1157 1348,1157 1327,1157 1305,1157 1284,1157 1263,1157 1241,1157 1220,1157 1199,1157 1177,1157 1156,1157 1134,1157 1113,1157 1092,1157 1070,1157 1049,1157 1027,1157 1006,1157 985,1157 963,1157 942,1157 920,1157 899,1157 878,1157 856,1157 835,1157 813,1157 792,1157 771,1157 749,1157 728,1157 706,1157 685,1157 664,1157 642,1157 621,1157 599,1157 578,1157 557,1157 535,1157 514,1157 492,1157 471,1157 450,1157 428,1156 407,1156 386,1156 364,1156 343,1156 322,1155 301,1155 281,1154 261,1154 241,1154 221,1153 203,1153 185,1153 167,1154 151,1155 136,1157 123,1160 111,1164 101,1170 93,1178 87,1189 84,1204 84,1223 87,1247 94,1277 105,1315 120,1362 139,1421 1795,760 1795,835 1795,897 1795,948 1795,989 1795,1022 1795,1049 1795,1071 1795,1088 1795,1101 1795,1111 1774,1119 1745,1124 1717,1129 1690,1132 1664,1134 1639,1135 1615,1136 1591,1137 1568,1137 1545,1137 1522,1137 1500,1137 1478,1136 1456,1136 1434,1136 1413,1136 1391,1136 1370,1136 1348,1136 1327,1136 1305,1135 1284,1135 1263,1135 1241,1135 1220,1135 1199,1135 1177,1135 1156,1135 1134,1135 1113,1135 1092,1135 1070,1135 1049,1135 1027,1135 1006,1135 985,1135 963,1135 942,1135 920,1135 899,1135 878,1135 856,1135 835,1135 813,1135 792,1135 771,1135 749,1135 728,1135 706,1135 685,1135 664,1135 642,1135 621,1135 599,1135 578,1135 557,1135 535,1135 514,1135 492,1135 471,1135 450,1135 428,1135 407,1135 386,1135 365,1135 343,1134 322,1134 302,1134 281,1134 261,1134 241,1134 221,1134 202,1135 184,1136 166,1137 149,1139 133,1142 119,1146 105,1152 93,1160 82,1170 73,1183 66,1200 61,1221 59,1248 59,1282 61,1323 66,1374 73,1436 1795,714 1795,790 1795,853 1795,906 1795,949 1795,984 1795,1013 1795,1036 1795,1055 1795,1069 1795,1081 1767,1090 1739,1097 1713,1102 1687,1106 1662,1109 1638,1111 1614,1112 1590,1113 1567,1114 1545,1114 1522,1114 1500,1115 1478,1115 1456,1114 1435,1114 1413,1114 1391,1114 1370,1114 1348,1114 1327,1114 1306,1114 1284,1114 1263,1114 1241,1114 1220,1114 1199,1114 1177,1114 1156,1114 1134,1114 1113,1114 1092,1114 1070,1114 1049,1114 1027,1114 1006,1114 985,1114 963,1114 942,1114 920,1114 899,1114 878,1114 856,1114 835,1114 813,1114 792,1114 771,1114 749,1114 728,1114 706,1114 685,1114 664,1114 642,1114 621,1114 599,1114 578,1114 557,1114 535,1114 514,1114 492,1114 471,1114 450,1114 428,1114 407,1114 386,1114 365,1114 344,1113 323,1113 302,1113 281,1113 261,1114 241,1114 221,1115 201,1116 182,1117 164,1119 146,1122 129,1126 113,1131 98,1138 83,1147 70,1159 58,1173 46,1192 37,1215 28,1244 20,1279 14,1322 9,1374 5,1438 1795,682 1795,758 1795,821 1795,874 1795,917 1795,953 1795,982 1795,1006 1795,1025 1795,1041 1784,1053 1758,1063 1733,1071 1708,1076 1683,1081 1659,1084 1636,1087 1612,1089 1589,1090 1567,1091 1544,1092 1522,1092 1500,1093 1478,1093 1456,1093 1435,1093 1413,1093 1391,1093 1370,1093 1348,1093 1327,1093 1306,1093 1284,1093 1263,1093 1241,1093 1220,1093 1199,1093 1177,1093 1156,1093 1134,1093 1113,1093 1092,1093 1070,1093 1049,1093 1027,1093 1006,1093 985,1093 963,1093 942,1093 920,1093 899,1093 878,1093 856,1093 835,1093 813,1093 792,1093 771,1093 749,1093 728,1093 706,1093 685,1093 664,1093 642,1093 621,1093 599,1093 578,1093 557,1093 535,1093 514,1093 492,1093 471,1092 450,1092 428,1092 407,1092 386,1092 365,1092 344,1092 323,1092 302,1093 281,1093 260,1093 240,1094 220,1095 200,1096 181,1098 161,1101 143,1104 124,1109 107,1115 89,1122 73,1132 56,1144 41,1160 25,1179 10,1203 5,1232 5,1268 5,1312 5,1364 5,1427 1795,665 1795,738 1795,799 1795,850 1795,893 1795,928 1795,957 1795,981 1795,1000 1795,1016 1773,1028 1750,1038 1726,1046 1702,1052 1679,1057 1656,1061 1633,1064 1611,1066 1588,1068 1566,1069 1544,1070 1522,1070 1500,1071 1478,1071 1456,1071 1435,1071 1413,1071 1391,1071 1370,1071 1348,1071 1327,1071 1306,1071 1284,1071 1263,1071 1241,1071 1220,1071 1199,1071 1177,1071 1156,1071 1134,1071 1113,1071 1092,1071 1070,1071 1049,1071 1027,1071 1006,1071 985,1071 963,1071 942,1071 920,1071 899,1071 878,1071 856,1071 835,1071 813,1071 792,1071 771,1071 749,1071 728,1071 706,1071 685,1071 664,1071 642,1071 621,1071 599,1071 578,1071 557,1071 535,1071 514,1071 492,1071 471,1071 450,1071 428,1071 407,1071 386,1071 365,1071 343,1071 322,1071 301,1072 280,1072 260,1073 239,1074 219,1075 198,1076 178,1078 158,1081 139,1085 119,1090 100,1096 81,1104 61,1114 42,1127 23,1142 5,1162 5,1185 5,1214 5,1250 5,1292 5,1343 5,1404 1795,662 1795,730 1795,787 1795,836 1795,876 1795,909 1795,937 1795,960 1795,978 1783,993 1762,1006 1741,1016 1719,1023 1697,1030 1675,1035 1653,1038 1631,1041 1609,1044 1587,1045 1565,1047 1543,1048 1521,1048 1499,1049 1478,1049 1456,1049 1434,1050 1413,1050 1391,1050 1370,1050 1348,1050 1327,1050 1306,1050 1284,1050 1263,1050 1241,1050 1220,1050 1199,1050 1177,1050 1156,1050 1134,1050 1113,1050 1092,1050 1070,1050 1049,1050 1027,1050 1006,1050 985,1050 963,1050 942,1050 920,1050 899,1050 878,1050 856,1050 835,1050 813,1050 792,1050 771,1050 749,1050 728,1050 706,1050 685,1050 664,1050 642,1050 621,1050 599,1050 578,1050 557,1050 535,1050 514,1050 492,1050 471,1050 450,1050 428,1050 407,1050 386,1050 365,1050 343,1050 322,1050 301,1051 280,1051 259,1052 238,1053 217,1054 196,1056 176,1058 155,1061 134,1065 113,1070 93,1076 72,1084 50,1094 29,1106 6,1121 5,1140 5,1163 5,1190 5,1224 5,1264 5,1312 5,1369 1795,671 1795,733 1795,785 1795,829 1795,866 1795,896 1795,922 1795,943 1787,960 1770,974 1751,986 1732,995 1712,1002 1691,1008 1671,1013 1649,1017 1628,1020 1607,1022 1585,1024 1564,1025 1542,1026 1520,1027 1499,1027 1477,1028 1456,1028 1434,1028 1413,1028 1391,1028 1370,1028 1348,1028 1327,1028 1306,1028 1284,1028 1263,1028 1241,1028 1220,1028 1199,1028 1177,1028 1156,1028 1134,1028 1113,1028 1092,1028 1070,1028 1049,1028 1027,1028 1006,1028 985,1028 963,1028 942,1028 920,1028 899,1028 878,1028 856,1028 835,1028 813,1028 792,1028 771,1028 749,1028 728,1028 706,1028 685,1028 664,1028 642,1028 621,1028 599,1028 578,1028 557,1028 535,1028 514,1028 492,1028 471,1028 450,1028 428,1028 407,1028 386,1029 364,1029 343,1029 322,1029 301,1030 279,1030 258,1031 237,1032 216,1033 194,1035 173,1037 152,1040 130,1044 108,1048 86,1054 63,1062 40,1071 15,1083 5,1097 5,1114 5,1135 5,1161 5,1191 5,1228 5,1272 5,1324 1765,691 1786,745 1795,791 1795,829 1795,861 1795,888 1795,911 1785,929 1772,945 1758,957 1742,968 1724,976 1706,983 1686,988 1667,993 1646,996 1626,999 1605,1001 1584,1002 1562,1004 1541,1005 1520,1005 1498,1006 1477,1006 1456,1006 1434,1007 1413,1007 1391,1007 1370,1007 1348,1007 1327,1007 1306,1007 1284,1007 1263,1007 1241,1007 1220,1007 1199,1007 1177,1007 1156,1007 1134,1007 1113,1007 1092,1007 1070,1007 1049,1007 1027,1007 1006,1007 985,1007 963,1007 942,1007 920,1007 899,1007 878,1007 856,1007 835,1007 813,1007 792,1007 771,1007 749,1007 728,1007 706,1007 685,1007 664,1007 642,1007 621,1007 599,1007 578,1007 557,1007 535,1007 514,1007 492,1007 471,1007 450,1007 428,1007 407,1007 386,1007 364,1007 343,1008 322,1008 300,1008 279,1009 257,1009 236,1010 214,1012 192,1013 171,1015 148,1018 126,1021 103,1026 79,1031 55,1038 30,1046 5,1057 5,1069 5,1085 5,1103 5,1126 5,1153 5,1185 5,1223 5,1269 1711,721 1740,766 1760,804 1773,836 1779,863 1780,885 1776,904 1769,919 1760,932 1747,943 1733,952 1717,959 1700,965 1682,969 1663,973 1643,976 1623,978 1603,980 1582,981 1561,982 1540,983 1519,984 1498,984 1477,985 1455,985 1434,985 1413,985 1391,985 1370,985 1348,986 1327,986 1306,986 1284,986 1263,986 1241,986 1220,986 1199,986 1177,986 1156,986 1134,986 1113,986 1092,986 1070,986 1049,986 1027,986 1006,986 985,986 963,986 942,986 920,986 899,986 878,986 856,986 835,986 813,986 792,986 771,986 749,986 728,986 706,986 685,986 664,986 642,986 621,986 599,986 578,986 557,986 535,986 514,986 492,986 471,986 450,986 428,986 407,986 385,986 364,986 343,986 321,986 300,987 278,987 257,988 235,989 213,990 191,991 168,993 146,995 122,998 98,1002 74,1007 48,1012 21,1019 5,1028 5,1039 5,1052 5,1067 5,1086 5,1109 5,1136 5,1168 5,1205 1668,759 1704,793 1729,822 1747,847 1757,868 1762,885 1761,900 1757,912 1749,922 1739,930 1726,937 1711,943 1695,947 1678,951 1660,954 1641,956 1621,958 1602,960 1581,961 1561,962 1540,962 1519,963 1498,963 1476,963 1455,964 1434,964 1412,964 1391,964 1370,964 1348,964 1327,964 1306,964 1284,964 1263,964 1241,964 1220,964 1199,964 1177,964 1156,964 1134,964 1113,964 1092,964 1070,964 1049,964 1027,964 1006,964 985,964 963,964 942,964 920,964 899,964 878,964 856,964 835,964 813,964 792,964 771,964 749,964 728,964 706,964 685,964 664,964 642,964 621,964 599,964 578,964 557,964 535,964 514,964 492,964 471,964 450,964 428,964 407,964 385,964 364,965 342,965 321,965 299,965 278,966 256,966 234,967 212,968 189,969 166,970 143,972 119,974 95,977 69,981 42,986 14,991 5,998 5,1006 5,1016 5,1028 5,1043 5,1060 5,1081 5,1106 5,1135 1637,802 1677,826 1707,846 1728,863 1741,877 1748,889 1750,899 1748,907 1741,914 1732,919 1721,924 1707,928 1692,931 1675,934 1658,936 1639,937 1620,939 1600,940 1580,940 1560,941 1539,941 1518,942 1497,942 1476,942 1455,942 1434,943 1412,943 1391,943 1370,943 1348,943 1327,943 1306,943 1284,943 1263,943 1241,943 1220,943 1199,943 1177,943 1156,943 1134,943 1113,943 1092,943 1070,943 1049,943 1027,943 1006,943 985,943 963,943 942,943 920,943 899,943 878,943 856,943 835,943 813,943 792,943 771,943 749,943 728,943 706,943 685,943 664,943 642,943 621,943 599,943 578,943 557,943 535,943 514,943 492,943 471,943 450,943 428,943 407,943 385,943 364,943 342,943 321,943 299,944 277,944 255,944 233,945 211,945 188,946 165,947 141,948 117,950 92,952 66,954 38,958 9,961 5,966 5,972 5,979 5,987 5,997 5,1009 5,1023 5,1040 5,1060 1617,850 1661,862 1693,872 1716,881 1731,888 1740,894 1743,899 1742,903 1737,907 1728,909 1718,912 1705,914 1690,915 1674,917 1656,918 1638,919 1619,919 1600,920 1580,920 1559,920 1539,921 1518,921 1497,921 1476,921 1455,921 1434,921 1412,921 1391,921 1370,921 1348,921 1327,921 1306,921 1284,921 1263,921 1241,921 1220,921 1199,921 1177,921 1156,921 1134,921 1113,921 1092,921 1070,921 1049,921 1027,921 1006,921 985,921 963,921 942,921 920,921 899,921 878,921 856,921 835,921 813,921 792,921 771,921 749,921 728,921 706,921 685,921 664,921 642,921 621,921 599,921 578,921 557,921 535,921 514,921 492,921 471,921 450,921 428,921 407,921 385,921 364,922 342,922 321,922 299,922 277,922 255,922 233,922 210,923 188,923 164,924 140,924 116,925 90,926 64,927 36,929 6,931 5,933 5,936 5,940 5,944 5,949 5,955 5,962 5,971 5,981 1611,900 1655,900 1688,900 1712,900 1728,900 1737,900 1741,900 1740,900 1735,900 1727,900 1716,900 1704,900 1689,900 1673,900 1656,900 1638,900 1619,900 1599,900 1580,900 1559,900 1539,900 1518,900 1497,900 1476,900 1455,900 1434,900 1412,900 1391,900 1370,900 1348,900 1327,900 1306,900 1284,900 1263,900 1241,900 1220,900 1199,900 1177,900 1156,900 1134,900 1113,900 1092,900 1070,900 1049,900 1027,900 1006,900 985,900 963,900 942,900 920,900 899,900 878,900 856,900 835,900 813,900 792,900 771,900 749,900 728,900 706,900 685,900 664,900 642,900 621,900 599,900 578,900 557,900 535,900 514,900 492,900 471,900 450,900 428,900 407,900 385,900 364,900 342,900 321,900 299,900 277,900 255,900 233,900 210,900 187,900 164,900 140,900 115,900 90,900 63,900 35,900 5,900 5,900 5,900 5,900 5,900 5,900 5,900 5,900 5,900 5,900 1617,950 1661,938 1693,928 1716,919 1731,912 1740,906 1743,901 1742,897 1737,893 1728,891 1718,888 1705,886 1690,885 1674,883 1656,882 1638,881 1619,881 1600,880 1580,880 1559,880 1539,879 1518,879 1497,879 1476,879 1455,879 1434,879 1412,879 1391,879 1370,879 1348,879 1327,879 1306,879 1284,879 1263,879 1241,879 1220,879 1199,879 1177,879 1156,879 1134,879 1113,879 1092,879 1070,879 1049,879 1027,879 1006,879 985,879 963,879 942,879 920,879 899,879 878,879 856,879 835,879 813,879 792,879 771,879 749,879 728,879 706,879 685,879 664,879 642,879 621,879 599,879 578,879 557,879 535,879 514,879 492,879 471,879 450,879 428,879 407,879 385,879 364,878 342,878 321,878 299,878 277,878 255,878 233,878 210,877 188,877 164,876 140,876 116,875 90,874 64,873 36,871 6,869 5,867 5,864 5,860 5,856 5,851 5,845 5,838 5,829 5,819 1637,998 1677,974 1707,954 1728,937 1741,923 1748,911 1750,901 1748,893 1741,886 1732,881 1721,876 1707,872 1692,869 1675,866 1658,864 1639,863 1620,861 1600,860 1580,860 1560,859 1539,859 1518,858 1497,858 1476,858 1455,858 1434,857 1412,857 1391,857 1370,857 1348,857 1327,857 1306,857 1284,857 1263,857 1241,857 1220,857 1199,857 1177,857 1156,857 1134,857 1113,857 1092,857 1070,857 1049,857 1027,857 1006,857 985,857 963,857 942,857 920,857 899,857 878,857 856,857 835,857 813,857 792,857 771,857 749,857 728,857 706,857 685,857 664,857 642,857 621,857 599,857 578,857 557,857 535,857 514,857 492,857 471,857 450,857 428,857 407,857 385,857 364,857 342,857 321,857 299,856 277,856 255,856 233,855 211,855 188,854 165,853 141,852 117,850 92,848 66,845 38,842 9,839 5,834 5,828 5,821 5,813 5,803 5,791 5,777 5,760 5,740 1668,1041 1704,1007 1729,978 1747,953 1757,932 1762,915 1761,900 1757,888 1749,878 1739,870 1726,863 1711,857 1695,853 1678,849 1660,846 1641,844 1621,842 1602,840 1581,839 1561,838 1540,838 1519,837 1498,837 1476,837 1455,836 1434,836 1412,836 1391,836 1370,836 1348,836 1327,836 1306,836 1284,836 1263,836 1241,836 1220,836 1199,836 1177,836 1156,836 1134,836 1113,836 1092,836 1070,836 1049,836 1027,836 1006,836 985,836 963,836 942,836 920,836 899,836 878,836 856,836 835,836 813,836 792,836 771,836 749,836 728,836 706,836 685,836 664,836 642,836 621,836 599,836 578,836 557,836 535,836 514,836 492,836 471,836 450,836 428,836 407,836 385,836 364,835 342,835 321,835 299,835 278,834 256,834 234,833 212,832 189,831 166,830 143,828 119,826 95,823 69,819 42,814 14,809 5,802 5,794 5,784 5,772 5,757 5,740 5,719 5,694 5,665 1711,1079 1740,1034 1760,996 1773,964 1779,937 1780,915 1776,896 1769,881 1760,868 1747,857 1733,848 1717,841 1700,835 1682,831 1663,827 1643,824 1623,822 1603,820 1582,819 1561,818 1540,817 1519,816 1498,816 1477,815 1455,815 1434,815 1413,815 1391,815 1370,815 1348,814 1327,814 1306,814 1284,814 1263,814 1241,814 1220,814 1199,814 1177,814 1156,814 1134,814 1113,814 1092,814 1070,814 1049,814 1027,814 1006,814 985,814 963,814 942,814 920,814 899,814 878,814 856,814 835,814 813,814 792,814 771,814 749,814 728,814 706,814 685,814 664,814 642,814 621,814 599,814 578,814 557,814 535,814 514,814 492,814 471,814 450,814 428,814 407,814 385,814 364,814 343,814 321,814 300,813 278,813 257,812 235,811 213,810 191,809 168,807 146,805 122,802 98,798 74,793 48,788 21,781 5,772 5,761 5,748 5,733 5,714 5,691 5,664 5,632 5,595 1765,1109 1786,1055 1795,1009 1795,971 1795,939 1795,912 1795,889 1785,871 1772,855 1758,843 1742,832 1724,824 1706,817 1686,812 1667,807 1646,804 1626,801 1605,799 1584,798 1562,796 1541,795 1520,795 1498,794 1477,794 1456,794 1434,793 1413,793 1391,793 1370,793 1348,793 1327,793 1306,793 1284,793 1263,793 1241,793 1220,793 1199,793 1177,793 1156,793 1134,793 1113,793 1092,793 1070,793 1049,793 1027,793 1006,793 985,793 963,793 942,793 920,793 899,793 878,793 856,793 835,793 813,793 792,793 771,793 749,793 728,793 706,793 685,793 664,793 642,793 621,793 599,793 578,793 557,793 535,793 514,793 492,793 471,793 450,793 428,793 407,793 386,793 364,793 343,792 322,792 300,792 279,791 257,791 236,790 214,788 192,787 171,785 148,782 126,779 103,774 79,769 55,762 30,754 5,743 5,731 5,715 5,697 5,674 5,647 5,615 5,577 5,531 1795,1129 1795,1067 1795,1015 1795,971 1795,934 1795,904 1795,878 1795,857 1787,840 1770,826 1751,814 1732,805 1712,798 1691,792 1671,787 1649,783 1628,780 1607,778 1585,776 1564,775 1542,774 1520,773 1499,773 1477,772 1456,772 1434,772 1413,772 1391,772 1370,772 1348,772 1327,772 1306,772 1284,772 1263,772 1241,772 1220,772 1199,772 1177,772 1156,772 1134,772 1113,772 1092,772 1070,772 1049,772 1027,772 1006,772 985,772 963,772 942,772 920,772 899,772 878,772 856,772 835,772 813,772 792,772 771,772 749,772 728,772 706,772 685,772 664,772 642,772 621,772 599,772 578,772 557,772 535,772 514,772 492,772 471,772 450,772 428,772 407,771 386,771 364,771 343,771 322,771 301,770 279,770 258,769 237,768 216,767 194,765 173,763 152,760 130,756 108,752 86,746 63,738 40,729 15,717 5,703 5,686 5,665 5,639 5,609 5,572 5,528 5,476 1795,1138 1795,1070 1795,1013 1795,964 1795,924 1795,891 1795,863 1795,840 1795,822 1783,807 1762,794 1741,784 1719,777 1697,770 1675,765 1653,762 1631,759 1609,756 1587,755 1565,753 1543,752 1521,752 1499,751 1478,751 1456,751 1434,750 1413,750 1391,750 1370,750 1348,750 1327,750 1306,750 1284,750 1263,750 1241,750 1220,750 1199,750 1177,750 1156,750 1134,750 1113,750 1092,750 1070,750 1049,750 1027,750 1006,750 985,750 963,750 942,750 920,750 899,750 878,750 856,750 835,750 813,750 792,750 771,750 749,750 728,750 706,750 685,750 664,750 642,750 621,750 599,750 578,750 557,750 535,750 514,750 492,750 471,750 450,750 428,750 407,750 386,750 365,750 343,750 322,750 301,749 280,749 259,748 238,747 217,746 196,744 176,742 155,739 134,735 113,730 93,724 72,716 50,706 29,694 6,679 5,660 5,637 5,610 5,576 5,536 5,488 5,431 1795,1135 1795,1062 1795,1001 1795,950 1795,907 1795,872 1795,843 1795,819 1795,800 1795,784 1773,772 1750,762 1726,754 1702,748 1679,743 1656,739 1633,736 1611,734 1588,732 1566,731 1544,730 1522,730 1500,729 1478,729 1456,729 1435,729 1413,729 1391,729 1370,729 1348,729 1327,729 1306,729 1284,729 1263,729 1241,729 1220,729 1199,729 1177,729 1156,729 1134,729 1113,729 1092,729 1070,729 1049,729 1027,729 1006,729 985,729 963,729 942,729 920,729 899,729 878,729 856,729 835,729 813,729 792,729 771,729 749,729 728,729 706,729 685,729 664,729 642,729 621,729 599,729 578,729 557,729 535,729 514,729 492,729 471,729 450,729 428,729 407,729 386,729 365,729 343,729 322,729 301,728 280,728 260,727 239,726 219,725 198,724 178,722 158,719 139,715 119,710 100,704 81,696 61,686 42,673 23,658 5,638 5,615 5,586 5,550 5,508 5,457 5,396 1795,1118 1795,1042 1795,979 1795,926 1795,883 1795,847 1795,818 1795,794 1795,775 1795,759 1784,747 1758,737 1733,729 1708,724 1683,719 1659,716 1636,713 1612,711 1589,710 1567,709 1544,708 1522,708 1500,707 1478,707 1456,707 1435,707 1413,707 1391,707 1370,707 1348,707 1327,707 1306,707 1284,707 1263,707 1241,707 1220,707 1199,707 1177,707 1156,707 1134,707 1113,707 1092,707 1070,707 1049,707 1027,707 1006,707 985,707 963,707 942,707 920,707 899,707 878,707 856,707 835,707 813,707 792,707 771,707 749,707 728,707 706,707 685,707 664,707 642,707 621,707 599,707 578,707 557,707 535,707 514,707 492,707 471,708 450,708 428,708 407,708 386,708 365,708 344,708 323,708 302,707 281,707 260,707 240,706 220,705 200,704 181,702 161,699 143,696 124,691 107,685 89,678 73,668 56,656 41,640 25,621 10,597 5,568 5,532 5,488 5,436 5,373 1795,1086 1795,1010 1795,947 1795,894 1795,851 1795,816 1795,787 1795,764 1795,745 1795,731 1795,719 1767,710 1739,703 1713,698 1687,694 1662,691 1638,689 1614,688 1590,687 1567,686 1545,686 1522,686 1500,685 1478,685 1456,686 1435,686 1413,686 1391,686 1370,686 1348,686 1327,686 1306,686 1284,686 1263,686 1241,686 1220,686 1199,686 1177,686 1156,686 1134,686 1113,686 1092,686 1070,686 1049,686 1027,686 1006,686 985,686 963,686 942,686 920,686 899,686 878,686 856,686 835,686 813,686 792,686 771,686 749,686 728,686 706,686 685,686 664,686 642,686 621,686 599,686 578,686 557,686 535,686 514,686 492,686 471,686 450,686 428,686 407,686 386,686 365,686 344,687 323,687 302,687 281,687 261,686 241,686 221,685 201,684 182,683 164,681 146,678 129,674 113,669 98,662 83,653 70,641 58,627 46,608 37,585 28,556 20,521 14,478 9,426 5,362 1795,1040 1795,965 1795,903 1795,852 1795,811 1795,778 1795,751 1795,729 1795,712 1795,699 1795,689 1774,681 1745,676 1717,671 1690,668 1664,666 1639,665 1615,664 1591,663 1568,663 1545,663 1522,663 1500,663 1478,664 1456,664 1434,664 1413,664 1391,664 1370,664 1348,664 1327,664 1305,665 1284,665 1263,665 1241,665 1220,665 1199,665 1177,665 1156,665 1134,665 1113,665 1092,665 1070,665 1049,665 1027,665 1006,665 985,665 963,665 942,665 920,665 899,665 878,665 856,665 835,665 813,665 792,665 771,665 749,665 728,665 706,665 685,665 664,665 642,665 621,665 599,665 578,665 557,665 535,665 514,665 492,665 471,665 450,665 428,665 407,665 386,665 365,665 343,666 322,666 302,666 281,666 261,666 241,666 221,666 202,665 184,664 166,663 149,661 133,658 119,654 105,648 93,640 82,630 73,617 66,600 61,579 59,552 59,518 61,477 66,426 73,364 1795,978 1795,907 1795,849 1795,801 1795,763 1795,733 1795,709 1795,690 1795,676 1795,665 1795,657 1780,651 1749,646 1720,643 1692,642 1665,640 1640,640 1615,640 1591,640 1567,640 1544,640 1522,641 1500,641 1478,642 1456,642 1434,642 1413,643 1391,643 1370,643 1348,643 1327,643 1305,643 1284,643 1263,643 1241,643 1220,643 1199,643 1177,643 1156,643 1134,643 1113,643 1092,643 1070,643 1049,643 1027,643 1006,643 985,643 963,643 942,643 920,643 899,643 878,643 856,643 835,643 813,643 792,643 771,643 749,643 728,643 706,643 685,643 664,643 642,643 621,643 599,643 578,643 557,643 535,643 514,643 492,643 471,643 450,643 428,644 407,644 386,644 364,644 343,644 322,645 301,645 281,646 261,646 241,646 221,647 203,647 185,647 167,646 151,645 136,643 123,640 111,636 101,630 93,622 87,611 84,596 84,577 87,553 94,523 105,485 120,438 139,379 1795,901 1795,836 1795,783 1795,741 1795,708 1795,682 1795,662 1795,647 1795,636 1795,627 1795,622 1784,618 1752,616 1721,614 1693,614 1666,614 1640,615 1615,615 1590,616 1567,617 1544,618 1521,618 1499,619 1477,620 1455,620 1434,621 1412,621 1391,621 1369,621 1348,622 1327,622 1305,622 1284,622 1263,622 1241,622 1220,622 1199,622 1177,622 1156,622 1134,622 1113,622 1092,622 1070,622 1049,622 1027,622 1006,622 985,622 963,622 942,622 920,622 899,622 878,622 856,622 835,622 813,622 792,622 771,622 749,622 728,622 706,622 685,622 664,622 642,622 621,622 599,622 578,622 557,622 535,622 514,622 492,622 471,622 449,622 428,622 407,622 385,623 364,623 343,623 322,624 301,625 280,625 260,626 240,627 221,628 202,628 185,629 168,630 152,630 138,629 125,628 115,626 107,622 101,616 98,608 99,597 104,582 112,562 126,536 145,502 170,460 201,408 1795,809 1795,752 1795,707 1795,672 1795,645 1795,625 1795,610 1795,600 1795,592 1795,588 1795,585 1786,584 1752,584 1721,585 1692,586 1665,587 1638,589 1613,591 1589,592 1566,594 1543,595 1520,596 1498,597 1477,598 1455,599 1433,599 1412,600 1391,600 1369,600 1348,600 1327,600 1305,600 1284,600 1263,600 1241,600 1220,600 1199,600 1177,600 1156,600 1134,600 1113,600 1092,600 1070,600 1049,600 1027,600 1006,600 985,600 963,600 942,600 920,600 899,600 878,600 856,600 835,600 813,600 792,600 771,600 749,600 728,600 706,600 685,600 664,600 642,600 621,600 599,600 578,600 557,600 535,600 514,600 492,600 471,600 449,601 428,601 406,601 385,601 364,602 342,602 321,603 300,604 279,605 259,606 239,607 220,609 201,610 183,612 167,614 152,615 138,616 126,617 117,617 110,616 106,613 106,608 110,601 119,591 133,576 153,555 179,528 213,493 256,449 1795,703 1795,657 1795,622 1795,595 1795,576 1795,563 1795,554 1795,549 1795,547 1795,546 1795,547 1785,549 1751,552 1719,554 1690,558 1662,561 1636,563 1611,566 1587,569 1564,571 1541,572 1519,574 1497,575 1476,576 1454,577 1433,578 1412,578 1390,579 1369,579 1348,579 1327,579 1305,579 1284,579 1263,579 1241,579 1220,579 1199,579 1177,579 1156,579 1134,579 1113,579 1092,579 1070,579 1049,579 1027,579 1006,579 985,579 963,579 942,579 920,579 899,579 878,579 856,579 835,579 813,579 792,579 771,579 749,579 728,579 706,579 685,579 664,579 642,579 621,579 599,579 578,579 557,579 535,579 514,579 492,579 471,579 449,579 428,579 406,579 385,580 363,580 342,581 320,582 299,583 278,584 258,586 237,587 218,590 199,592 181,595 165,598 149,601 136,604 125,607 116,609 110,611 108,612 110,612 116,609 128,604 147,595 172,582 206,563 249,536 301,501 1795,584 1795,551 1795,527 1795,511 1795,501 1795,496 1795,495 1795,496 1795,499 1795,503 1795,508 1781,513 1747,519 1715,524 1686,529 1659,534 1633,538 1608,542 1585,545 1562,548 1540,550 1518,552 1496,554 1475,555 1453,556 1432,557 1411,557 1390,557 1369,558 1348,558 1327,558 1305,558 1284,558 1263,558 1241,558 1220,558 1199,558 1177,558 1156,558 1134,558 1113,558 1092,558 1070,558 1049,558 1027,558 1006,558 985,558 963,558 942,558 920,558 899,558 878,558 856,558 835,558 813,558 792,558 771,558 749,558 728,558 706,558 685,558 664,558 642,558 621,558 599,558 578,558 557,558 535,557 514,557 492,557 471,557 449,558 427,558 406,558 384,558 362,559 341,559 319,560 298,562 277,563 256,565 235,567 215,570 196,573 178,577 161,581 145,586 132,591 120,597 112,602 107,607 105,612 109,617 117,619 132,621 154,619 184,614 224,604 274,588 336,565 1795,453 1795,435 1795,425 1795,421 1795,422 1795,426 1795,433 1795,441 1795,450 1795,459 1795,468 1774,478 1740,486 1709,494 1680,501 1653,508 1628,513 1604,518 1581,522 1559,526 1537,528 1516,531 1495,532 1474,534 1453,535 1432,536 1411,536 1390,536 1369,537 1348,537 1327,537 1305,537 1284,537 1263,536 1241,536 1220,536 1199,536 1177,536 1156,536 1134,536 1113,536 1092,536 1070,536 1049,536 1027,536 1006,536 985,536 963,536 942,536 920,536 899,536 878,536 856,536 835,536 813,536 792,536 771,536 749,536 728,536 706,536 685,536 664,536 642,536 621,536 600,536 578,536 557,536 535,536 514,536 492,536 471,536 449,536 427,536 406,536 384,536 362,537 340,538 318,539 296,540 275,542 253,544 232,547 212,550 192,554 173,559 156,565 140,571 125,578 114,586 105,595 99,604 98,613 102,623 112,632 128,640 153,646 186,651 231,651 287,648 357,638 1795,312 1795,311 1795,317 1795,326 1795,339 1795,353 1795,369 1795,385 1795,400 1795,415 1795,429 1763,442 1730,454 1700,465 1672,474 1647,482 1622,489 1599,495 1577,500 1556,504 1534,507 1514,510 1493,512 1472,513 1452,514 1431,515 1410,515 1390,515 1369,516 1348,516 1327,515 1305,515 1284,515 1263,515 1241,515 1220,515 1199,515 1177,515 1156,515 1134,515 1113,515 1092,515 1070,515 1049,515 1027,515 1006,515 985,515 963,515 942,515 920,515 899,515 878,515 856,515 835,515 813,515 792,515 771,515 749,515 728,515 706,515 685,515 664,515 642,515 621,515 600,515 578,515 557,515 535,515 514,514 492,514 471,514 449,514 427,514 405,514 383,515 361,515 339,516 317,517 295,518 273,520 251,523 229,526 208,530 187,535 167,541 149,547 132,556 117,565 104,576 94,587 88,600 86,614 90,629 100,645 117,661 143,676 178,691 226,703 286,713 362,718 1795,163 1795,182 1795,204 1795,229 1795,254 1795,280 1795,305 1795,329 1795,351 1795,372 1784,391 1749,408 1717,423 1689,437 1663,448 1638,458 1615,466 1594,473 1572,479 1552,483 1532,486 1511,489 1491,491 1471,493 1451,494 1431,494 1410,495 1389,495 1369,495 1348,495 1327,494 1306,494 1284,494 1263,494 1242,494 1220,494 1199,493 1177,493 1156,493 1134,493 1113,493 1092,493 1070,493 1049,493 1027,493 1006,493 985,493 963,493 942,493 920,493 899,493 878,493 856,493 835,493 813,493 792,493 771,493 749,493 728,493 706,494 685,494 664,494 642,494 621,493 600,493 578,493 557,493 535,493 514,493 492,493 471,493 449,492 427,492 405,492 383,492 361,493 338,493 316,494 293,496 270,498 248,500 225,504 203,508 181,514 160,521 141,529 122,539 106,550 91,563 80,579 72,596 69,615 71,635 80,658 97,682 122,707 159,733 207,758 271,783 350,805 1795,9 1795,49 1795,90 1795,130 1795,170 1795,207 1795,242 1795,275 1795,304 1795,331 1764,355 1731,376 1702,395 1675,410 1651,424 1629,435 1608,445 1587,452 1567,458 1548,463 1528,467 1509,469 1490,471 1470,473 1450,473 1430,474 1410,474 1390,474 1369,474 1348,474 1327,473 1306,473 1285,473 1263,472 1242,472 1220,472 1199,472 1177,472 1156,472 1134,472 1113,472 1092,472 1070,472 1049,472 1027,472 1006,472 985,472 963,472 942,472 920,472 899,472 878,472 856,472 835,472 813,472 792,472 771,472 749,472 728,472 706,472 685,472 664,472 642,472 621,472 600,472 578,472 557,472 536,472 514,471 493,471 471,471 449,471 427,470 405,470 383,470 360,470 338,471 315,471 291,473 268,475 245,477 221,481 198,486 175,492 152,500 131,509 111,520 92,534 76,549 62,568 52,589 46,613 46,640 53,669 67,702 91,737 127,775 175,814 239,854 320,895 1795,5 1795,5 1795,5 1795,33 1795,87 1795,136 1795,182 1795,223 1795,260 1773,293 1739,322 1710,347 1683,368 1660,387 1638,402 1618,414 1599,425 1580,433 1562,439 1544,444 1525,448 1507,450 1488,452 1469,453 1450,454 1430,454 1410,454 1390,453 1369,453 1348,453 1327,452 1306,452 1285,451 1263,451 1242,451 1220,451 1199,451 1177,450 1156,450 1134,450 1113,450 1091,451 1070,451 1049,451 1027,451 1006,451 985,451 963,451 942,451 920,451 899,451 878,451 856,451 835,451 813,451 792,451 771,451 749,451 728,451 706,451 685,451 664,451 642,451 621,451 600,451 579,451 557,451 536,450 515,450 493,450 471,449 450,449 428,448 405,448 383,448 360,447 337,448 314,448 290,449 266,451 241,453 217,457 192,462 168,468 144,477 120,487 98,499 76,515 57,533 41,554 27,579 18,608 15,641 18,678 29,719 49,765 82,815 127,868 189,926 269,986 1795,5 1795,5 1795,5 1795,5 1795,8 1795,70 1795,126 1795,176 1774,220 1740,259 1710,292 1685,321 1662,345 1642,366 1624,382 1606,396 1589,407 1573,415 1556,422 1539,427 1522,430 1505,432 1487,434 1469,434 1450,434 1430,434 1410,434 1390,433 1370,432 1349,432 1328,431 1307,430 1285,430 1264,430 1242,429 1221,429 1199,429 1177,429 1156,429 1134,429 1113,429 1091,429 1070,429 1049,429 1027,429 1006,429 985,429 963,429 942,429 920,429 899,429 878,429 856,429 835,429 813,429 792,429 770,429 749,429 728,429 706,429 685,429 664,430 642,430 621,430 600,430 579,429 557,429 536,429 515,429 494,428 472,428 450,427 428,426 406,425 383,425 360,424 337,424 313,424 289,425 264,426 238,428 213,432 187,437 160,443 134,452 108,462 83,476 59,493 36,513 16,537 5,566 5,600 5,638 5,682 5,732 5,789 23,851 64,919 121,994 197,1075 1795,5 1795,5 1795,5 1795,5 1795,5 1795,10 1795,76 1764,135 1730,186 1701,230 1677,268 1657,300 1639,326 1623,348 1608,366 1594,380 1580,391 1565,400 1551,406 1536,411 1520,413 1503,415 1486,416 1468,416 1450,415 1431,415 1411,414 1391,413 1371,412 1350,411 1329,410 1307,409 1286,408 1264,408 1242,408 1221,407 1199,407 1177,407 1156,407 1134,407 1113,408 1091,408 1070,408 1049,408 1027,408 1006,408 985,408 963,408 942,408 921,408 899,408 878,408 856,408 835,408 813,408 792,408 770,408 749,408 728,408 706,408 685,408 664,408 642,408 621,408 600,408 579,408 558,408 537,408 515,407 494,407 473,406 451,405 429,404 407,403 384,402 361,401 337,400 313,400 288,400 262,401 236,402 209,405 181,410 153,416 125,424 96,435 67,450 40,467 13,489 5,516 5,548 5,586 5,630 5,681 5,739 5,806 5,881 5,964 33,1057 102,1158 1795,5 1795,5 1795,5 1795,5 1795,5 1781,5 1739,34 1706,101 1679,158 1658,207 1641,249 1626,283 1614,312 1603,335 1592,353 1581,368 1570,379 1558,387 1546,392 1532,396 1518,398 1503,399 1486,399 1469,398 1451,397 1432,395 1413,394 1392,392 1372,391 1351,390 1330,388 1308,388 1286,387 1265,386 1243,386 1221,386 1199,386 1177,386 1156,386 1134,386 1113,386 1091,386 1070,386 1048,387 1027,387 1006,387 985,387 963,387 942,387 921,387 899,386 878,386 856,386 835,386 813,386 792,386 770,386 749,386 727,386 706,387 685,387 663,387 642,387 621,387 600,387 579,387 558,387 537,387 516,386 495,385 474,384 452,383 430,382 408,381 385,379 362,378 338,376 314,375 288,374 262,374 234,375 206,377 176,381 146,386 115,394 83,405 51,420 19,438 5,461 5,490 5,524 5,566 5,615 5,672 5,739 5,815 5,902 5,1000 5,1110 5,1233 1795,5 1795,5 1795,5 1787,5 1734,5 1694,5 1663,5 1640,76 1624,139 1611,192 1602,237 1594,273 1588,303 1582,326 1576,345 1569,359 1561,369 1552,376 1542,380 1530,383 1517,384 1503,383 1487,382 1470,381 1453,378 1434,376 1414,374 1394,372 1373,370 1352,368 1331,367 1309,366 1287,365 1265,364 1243,364 1221,364 1199,364 1177,364 1156,364 1134,364 1112,365 1091,365 1070,365 1048,365 1027,365 1006,365 985,365 963,365 942,365 921,365 899,365 878,365 856,365 835,365 813,365 792,365 770,365 749,365 727,365 706,365 684,366 663,366 642,366 621,366 600,366 579,366 558,366 537,366 517,365 496,364 475,363 454,362 432,360 410,358 387,356 364,354 340,352 315,350 289,348 262,347 233,346 203,347 172,350 140,354 106,361 71,371 35,385 5,404 5,427 5,457 5,493 5,538 5,591 5,654 5,728 5,813 5,912 5,1024 5,1152 5,1295 1795,5 1781,5 1712,5 1660,5 1623,5 1597,5 1580,5 1569,62 1564,130 1561,186 1561,233 1561,270 1561,300 1561,323 1560,341 1557,353 1553,362 1547,368 1539,370 1529,371 1518,371 1504,369 1489,366 1473,363 1455,360 1437,357 1417,354 1396,351 1375,349 1354,347 1332,345 1310,344 1288,343 1265,342 1243,342 1221,342 1199,342 1177,342 1155,342 1134,343 1112,343 1091,343 1069,344 1048,344 1027,344 1006,344 985,344 963,344 942,344 921,344 900,344 878,343 857,343 835,343 813,343 792,343 770,343 749,343 727,344 706,344 684,344 663,345 642,345 621,345 600,345 579,346 559,345 538,345 517,344 497,344 476,342 455,341 434,338 412,336 390,333 367,330 343,327 318,324 291,321 263,318 234,317 203,316 170,317 135,320 98,325 60,334 19,347 5,364 5,387 5,417 5,455 5,501 5,557 5,625 5,705 5,799 5,908 5,1034 5,1178 5,1340 1664,5 1597,5 1550,5 1519,5 1500,5 1492,5 1490,5 1494,61 1501,132 1509,190 1519,237 1528,275 1536,304 1542,325 1546,341 1548,352 1547,358 1544,362 1538,363 1530,361 1520,359 1507,355 1493,351 1477,346 1459,342 1440,338 1420,334 1399,330 1378,327 1356,325 1334,323 1311,321 1289,320 1266,320 1243,320 1221,320 1199,320 1177,320 1155,321 1133,321 1112,322 1090,322 1069,323 1048,323 1027,323 1006,323 985,323 964,323 942,323 921,323 900,322 878,322 857,322 835,322 813,321 792,321 770,321 748,322 727,322 705,322 684,323 662,323 641,324 620,324 600,325 579,325 559,325 538,325 518,324 498,323 478,322 457,320 436,317 415,314 393,311 370,307 346,303 321,298 295,294 266,290 236,286 204,283 169,282 132,283 92,286 50,293 5,303 5,319 5,341 5,370 5,407 5,454 5,513 5,583 5,668 5,769 5,888 5,1025 5,1184 5,1366 1434,5 1394,5 1372,5 1365,5 1368,5 1379,5 1395,5 1415,74 1436,146 1457,205 1477,251 1495,287 1511,314 1524,334 1534,347 1541,355 1544,358 1543,359 1540,357 1533,353 1524,348 1512,342 1498,336 1482,329 1464,324 1445,318 1424,313 1403,309 1381,305 1358,302 1335,300 1312,299 1289,298 1266,297 1243,297 1221,297 1198,298 1176,298 1154,299 1133,300 1111,300 1090,301 1069,301 1048,302 1027,302 1006,302 985,302 964,302 943,302 921,301 900,301 879,300 857,300 835,300 814,300 792,300 770,300 748,300 726,300 705,301 683,301 662,302 641,303 620,304 599,304 579,305 559,305 539,305 519,304 499,303 480,302 460,299 439,296 419,293 397,289 375,284 351,278 327,272 300,266 271,260 240,254 207,249 171,245 131,243 89,244 43,247 5,255 5,268 5,287 5,314 5,350 5,397 5,455 5,528 5,616 5,722 5,848 5,996 5,1168 5,1367 1180,5 1173,5 1181,5 1200,5 1228,5 1261,5 1297,13 1334,103 1371,175 1405,232 1437,276 1466,309 1490,333 1510,348 1526,357 1537,361 1544,361 1546,358 1545,352 1540,345 1531,337 1520,329 1505,320 1489,312 1471,305 1451,298 1429,292 1407,287 1384,283 1361,279 1337,277 1314,275 1290,274 1267,274 1243,274 1220,274 1198,275 1175,276 1153,277 1132,278 1110,279 1089,280 1068,280 1047,281 1027,281 1006,281 985,281 964,281 943,280 922,280 901,279 879,279 857,278 836,278 814,278 792,278 770,278 748,278 726,279 704,279 682,280 661,281 640,282 619,283 599,284 578,285 559,285 539,285 520,285 501,284 482,282 462,280 443,276 423,272 402,267 381,261 358,254 333,247 307,239 278,230 247,222 213,214 175,207 134,201 89,198 39,198 5,201 5,211 5,226 5,250 5,283 5,327 5,384 5,456 5,546 5,655 5,786 5,942 5,1125 5,1339 907,5 936,5 978,5 1028,5 1083,5 1140,5 1198,60 1254,149 1308,218 1357,272 1401,312 1440,340 1473,359 1501,369 1522,373 1538,372 1548,367 1553,359 1553,350 1549,339 1541,327 1529,316 1515,305 1498,294 1479,285 1458,277 1435,270 1412,264 1388,259 1364,255 1339,253 1315,251 1291,250 1266,250 1243,251 1219,251 1197,253 1174,254 1152,255 1131,257 1109,258 1088,259 1068,260 1047,260 1026,261 1006,261 985,260 964,260 944,259 922,259 901,258 880,257 858,257 836,256 814,256 792,256 770,256 747,256 725,257 703,257 681,258 660,260 639,261 618,262 597,264 578,265 558,266 539,266 520,266 502,265 484,263 465,261 447,257 428,253 408,247 388,239 366,231 342,222 317,211 288,200 257,189 222,177 184,166 141,157 93,149 40,144 5,143 5,147 5,157 5,176 5,204 5,244 5,298 5,368 5,456 5,566 5,700 5,861 5,1052 5,1278 617,5 687,5 766,5 850,5 935,5 1019,21 1101,128 1178,213 1249,278 1313,326 1370,360 1420,381 1462,393 1497,397 1524,394 1544,387 1557,376 1564,363 1566,348 1562,333 1554,317 1542,302 1527,288 1509,276 1488,264 1466,254 1443,246 1418,239 1393,234 1367,230 1342,228 1316,226 1291,226 1266,226 1242,227 1218,228 1195,230 1173,232 1151,234 1129,235 1108,237 1087,238 1067,239 1046,240 1026,240 1006,240 986,240 965,239 944,239 923,238 902,237 880,236 859,235 837,234 814,234 792,233 769,233 747,234 724,234 702,235 680,237 658,238 637,240 616,242 596,243 576,245 557,246 539,247 521,248 503,247 486,246 468,243 451,239 434,234 415,227 396,219 376,209 353,198 329,185 301,171 270,156 236,141 196,125 152,110 102,97 46,86 5,79 5,76 5,80 5,92 5,114 5,147 5,195 5,260 5,345 5,453 5,586 5,749 5,946 5,1179 314,5 430,5 550,5 671,5 788,5 901,117 1008,219 1107,297 1196,355 1277,394 1347,419 1408,432 1459,435 1500,431 1533,420 1557,405 1573,387 1581,368 1584,347 1580,327 1572,307 1559,288 1542,271 1522,256 1500,242 1476,231 1451,221 1424,214 1397,208 1370,204 1343,202 1317,200 1291,200 1265,201 1240,203 1216,205 1193,207 1170,209 1149,212 1127,214 1106,216 1086,218 1066,219 1046,220 1026,220 1006,220 986,220 966,219 945,218 924,217 903,215 882,214 860,213 837,212 815,211 792,211 769,211 746,211 724,212 701,213 678,215 657,217 635,219 614,221 594,224 574,226 556,228 538,229 520,230 504,230 488,229 472,227 456,223 440,217 423,209 406,200 387,189 367,175 344,160 317,142 288,124 254,104 214,83 169,63 118,43 59,25 5,10 5,5 5,5 5,5 5,11 5,36 5,76 5,133 5,211 5,313 5,443 5,605 5,802 5,1040 5,5 170,5 334,5 494,5 646,119 790,241 923,334 1045,402 1154,449 1250,477 1334,491 1406,493 1465,485 1513,471 1550,450 1577,427 1595,401 1605,373 1607,346 1603,320 1593,295 1578,272 1560,252 1538,233 1513,218 1487,205 1459,194 1431,186 1402,180 1373,176 1345,174 1317,173 1290,174 1264,176 1238,178 1214,181 1190,184 1168,187 1146,190 1125,193 1104,196 1084,198 1065,199 1045,200 1026,200 1006,200 987,200 967,198 946,197 926,196 905,194 883,192 861,191 838,189 816,188 792,188 769,187 746,188 722,189 699,190 676,192 654,195 632,197 611,201 591,204 572,207 553,210 536,212 520,214 504,214 489,214 475,212 461,208 447,202 432,194 417,183 401,170 382,154 362,136 337,115 309,93 276,68 238,41 193,14 140,5 80,5 10,5 5,5 5,5 5,5 5,5 5,5 5,5 5,5 5,54 5,146 5,268 5,424 5,618 5,855 5,5 5,5 122,5 324,140 514,285 689,395 850,474 995,528 1124,560 1236,575 1333,575 1415,563 1483,542 1537,516 1578,484 1607,450 1627,415 1636,379 1638,345 1632,312 1620,282 1602,254 1581,230 1556,209 1529,191 1499,176 1469,165 1438,156 1407,150 1376,147 1346,145 1317,145 1288,147 1261,149 1235,153 1210,157 1187,161 1164,165 1143,169 1122,173 1102,176 1083,178 1064,180 1045,181 1026,181 1007,181 988,180 968,179 948,177 928,175 907,172 885,170 863,168 840,166 817,165 793,164 769,164 745,164 721,165 697,167 674,169 651,172 629,176 608,180 587,184 568,188 550,192 533,196 518,198 503,200 490,200 478,198 466,195 454,189 442,180 430,169 416,154 401,136 383,115 361,91 336,63 305,33 268,5 224,5 171,5 110,5 37,5 5,5 5,5 5,5 5,5 5,5 5,5 5,5 5,5 5,5 5,60 5,205 5,390 5,622 5,5 5,5 5,185 167,357 395,485 604,578 793,640 961,676 1109,690 1238,687 1348,670 1439,642 1514,606 1573,565 1617,520 1648,475 1667,429 1676,384 1675,341 1666,301 1651,265 1630,233 1605,205 1577,181 1546,161 1513,145 1479,132 1445,124 1412,118 1378,115 1346,114 1315,116 1285,118 1257,122 1231,127 1205,133 1182,138 1160,143 1138,148 1118,153 1099,156 1080,159 1062,161 1044,162 1026,163 1008,162 989,161 970,159 950,157 930,154 909,151 887,148 865,146 842,143 818,141 794,140 769,140 744,140 720,141 695,143 671,146 648,150 625,154 603,159 583,164 564,170 546,175 530,180 515,184 502,187 490,188 480,187 470,184 461,179 452,170 443,157 433,141 421,121 407,97 389,69 367,37 340,5 306,5 263,5 212,5 150,5 76,5 5,5 5,5 5,5 5,5 5,5 5,5 5,5 5,5 5,5 5,5 5,5 5,117 5,336 5,6 5,264 5,465 28,615 296,722 538,792 756,831 948,845 1115,837 1259,813 1380,775 1481,728 1561,675 1623,618 1669,558 1700,499 1718,441 1724,386 1720,335 1708,287 1688,245 1663,208 1633,176 1600,149 1565,127 1528,109 1490,97 1452,88 1415,83 1380,81 1345,82 1312,84 1281,89 1252,95 1225,101 1199,108 1176,115 1154,122 1133,128 1114,133 1095,138 1078,141 1060,144 1043,145 1026,145 1009,144 991,142 973,140 953,137 933,133 912,130 891,126 868,123 844,119 820,117 795,115 769,114 744,115 718,116 692,118 667,122 643,126 620,131 597,138 577,144 557,151 540,158 524,165 511,170 499,175 489,178 481,179 474,177 468,171 463,163 458,150 452,133 445,111 435,84 422,52 404,14 381,5 351,5 312,5 263,5 202,5 129,5 40,5 5,5 5,5 5,5 5,5 5,5 5,5 5,5 5,5 5,5 5,5 5,5 5,5 5,386 5,620 5,794 5,917 222,996 498,1038 744,1049 959,1035 1144,1001 1302,951 1434,890 1541,822 1626,748 1691,672 1737,596 1766,522 1781,451 1783,385 1774,324 1756,269 1731,220 1700,177 1664,141 1626,111 1585,88 1543,70 1501,57 1459,49 1418,45 1379,44 1342,47 1307,52 1275,58 1245,66 1217,75 1191,84 1168,93 1147,101 1127,108 1108,115 1091,120 1074,124 1058,127 1043,128 1027,128 1010,127 993,125 976,121 957,117 937,113 917,108 895,104 872,99 847,95 822,92 796,90 770,88 743,88 716,90 689,92 663,96 638,102 613,108 590,116 569,124 549,133 532,142 517,150 504,158 494,165 486,170 481,172 477,172 475,168 474,160 473,147 472,129 470,105 466,75 459,39 447,5 430,5 405,5 371,5 326,5 268,5 196,5 107,5 5,5 5,5 5,5 5,5 5,5 5,5 5,5 5,5 5,5 5,5 5,5 5,5 5,835 5,1035 5,1175 5,1263 180,1306 490,1314 762,1291 999,1244 1201,1180 1372,1101 1512,1013 1625,919 1712,823 1776,727 1795,632 1795,542 1795,457 1795,378 1795,307 1795,243 1780,188 1741,140 1699,100 1653,68 1606,43 1558,25 1511,12 1464,5 1420,5 1377,5 1337,9 1300,17 1266,26 1235,37 1207,48 1181,59 1158,70 1138,81 1119,90 1102,98 1086,104 1071,109 1056,112 1042,113 1028,113 1012,111 997,108 980,104 962,99 943,93 922,87 900,81 876,75 852,70 826,66 799,63 771,61 742,61 714,62 686,65 658,70 631,76 605,84 581,93 559,103 539,114 522,126 508,137 496,148 487,157 481,164 478,169 478,171 480,169 484,161 488,149 493,131 498,106 501,73 500,34 496,5 485,5 467,5 440,5 401,5 348,5 280,5 193,5 86,5 5,5 5,5 5,5 5,5 5,5 5,5 5,5 5,5 5,5 5,5 5,5 5,1354 5,1512 5,1608 5,1652 176,1653 518,1619 817,1557 1073,1473 1291,1372 1471,1260 1618,1142 1733,1020 1795,898 1795,779 1795,664 1795,556 1795,456 1795,365 1795,283 1795,210 1795,148 1787,95 1736,52 1683,18 1628,5 1573,5 1520,5 1468,5 1419,5 1372,5 1329,5 1290,5 1254,5 1222,7 1194,21 1169,35 1146,49 1127,62 1109,73 1094,82 1080,90 1067,95 1054,98 1042,100 1029,99 1015,96 1001,92 985,87 968,80 949,73 929,66 907,58 883,51 857,44 830,39 801,35 772,32 742,31 712,33 682,36 652,41 623,49 596,58 570,69 547,82 527,96 509,110 495,124 484,138 477,151 474,161 474,169 477,174 484,174 492,169 503,157 515,139 527,113 538,79 546,36 550,5 549,5 540,5 521,5 490,5 444,5 382,5 299,5 195,5 65,5 5,5 5,5 5,5 5,5 5,5 5,5 5,5 5,5 5,5 5,5 5,1795 5,1795 5,1795 5,1795 218,1795 591,1795 913,1795 1187,1717 1417,1576 1605,1427 1755,1274 1795,1120 1795,970 1795,826 1795,690 1795,563 1795,446 1795,341 1795,248 1795,167 1795,98 1795,41 1776,5 1713,5 1650,5 1587,5 1527,5 1469,5 1415,5 1364,5 1318,5 1276,5 1239,5 1206,5 1178,5 1153,12 1132,29 1114,44 1098,57 1085,69 1073,77 1062,83 1052,87 1042,88 1031,87 1019,83 1007,78 992,71 976,63 958,54 937,44 915,35 890,25 864,17 835,10 805,5 774,5 742,5 709,5 677,5 645,11 614,20 585,31 557,44 533,59 511,76 493,94 479,112 469,130 463,146 462,161 465,173 473,181 485,184 499,182 517,172 537,155 557,129 578,93 596,47 611,5 620,5 622,5 614,5 593,5 557,5 503,5 428,5 329,5 201,5 43,5 5,5 5,5 5,5 5,5 5,5 5,5 5,5 5,5 5,5 5,1795 5,1795 5,1795 5,1795 313,1795 714,1795 1057,1795 1346,1795 1584,1788 1776,1596 1795,1405 1795,1218 1795,1037 1795,866 1795,706 1795,558 1795,425 1795,306 1795,202 1795,112 1795,37 1795,5 1795,5 1744,5 1670,5 1599,5 1531,5 1466,5 1406,5 1352,5 1302,5 1258,5 1220,5 1186,5 1158,5 1134,5 1114,10 1098,28 1085,44 1074,57 1065,67 1057,74 1050,78 1042,79 1034,77 1025,72 1014,65 1001,56 986,46 968,35 948,23 925,11 900,5 872,5 842,5 811,5 777,5 742,5 707,5 672,5 637,5 603,5 571,5 542,17 515,35 492,56 473,77 459,100 449,122 445,144 446,164 453,180 465,193 482,201 504,202 529,195 558,180 588,155 619,119 649,70 676,9 699,5 714,5 719,5 712,5 688,5 646,5 581,5 490,5 370,5 215,5 22,5 5,5 5,5 5,5 5,5 5,5 5,5 5,5 5,5 5,1795 5,1795 5,1795 5,1795 470,1795 895,1795 1255,1795 1554,1795 1795,1795 1795,1766 1795,1533 1795,1308 1795,1094 1795,894 1795,709 1795,540 1795,389 1795,256 1795,141 1795,43 1795,5 1795,5 1795,5 1774,5 1689,5 1608,5 1531,5 1459,5 1393,5 1334,5 1281,5 1234,5 1195,5 1161,5 1133,5 1111,5 1093,5 1079,15 1069,34 1061,49 1056,61 1051,68 1047,73 1043,73 1038,70 1031,64 1023,55 1012,43 998,30 981,16 962,5 939,5 912,5 883,5 852,5 817,5 781,5 743,5 705,5 666,5 628,5 591,5 555,5 523,5 494,9 469,34 448,60 433,88 424,116 421,143 425,169 435,192 452,210 475,223 504,229 538,227 577,215 618,192 662,156 705,106 747,41 785,5 816,5 837,5 846,5 838,5 811,5 761,5 682,5 572,5 424,5 235,5 5,5 5,5 5,5 5,5 5,5 5,5 5,5 5,5 5,1795 5,1795 5,1795 172,1795 696,1795 1142,1795 1514,1795 1795,1795 1795,1795 1795,1795 1795,1653 1795,1387 1795,1137 1795,906 1795,695 1795,504 1795,336 1795,188 1795,62 1795,5 1795,5 1795,5 1795,5 1795,5 1705,5 1613,5 1526,5 1446,5 1374,5 1309,5 1253,5 1204,5 1163,5 1130,5 1103,5 1083,5 1068,5 1057,5 1051,27 1047,45 1045,58 1045,66 1045,70 1045,70 1043,66 1040,57 1034,46 1025,32 1013,16 998,5 978,5 955,5 928,5 897,5 863,5 826,5 787,5 745,5 703,5 660,5 618,5 576,5 537,5 501,5 468,5 441,10 418,42 402,75 393,110 391,144 397,177 411,207 432,233 462,253 499,265 543,269 592,261 647,241 704,207 763,157 822,89 877,5 927,5 967,5 996,5 1008,5 1000,5 968,5 906,5 810,5 675,5 495,5 265,5 5,5 5,5 5,5 5,5 5,5 5,5 5,5 5,1795 5,1795 5,1795 454,1795 1001,1795 1461,1795 1795,1795 1795,1795 1795,1795 1795,1795 1795,1759 1795,1450 1795,1163 1795,899 1795,660 1795,447 1795,260 1795,99 1795,5 1795,5 1795,5 1795,5 1795,5 1795,5 1716,5 1611,5 1514,5 1426,5 1347,5 1277,5 1217,5 1166,5 1125,5 1092,5 1067,5 1049,5 1037,5 1031,5 1029,24 1030,45 1034,59 1039,69 1044,73 1048,71 1051,65 1051,55 1049,40 1042,23 1032,5 1018,5 999,5 975,5 947,5 914,5 877,5 837,5 794,5 748,5 701,5 654,5 606,5 560,5 516,5 475,5 438,5 407,5 382,21 364,62 355,104 353,147 361,188 378,227 405,262 442,290 487,311 541,321 603,320 672,305 745,274 822,225 899,157 975,67 1047,5 1110,5 1162,5 1198,5 1214,5 1204,5 1164,5 1088,5 971,5 805,5 586,5 305,5 5,5 5,5 5,5 5,5 5,5 5,5 5,1795 5,1795 161,1795 830,1795 1394,1795 1795,1795 1795,1795 1795,1795 1795,1795 1795,1795 1795,1795 1795,1491 1795,1164 1795,866 1795,600 1795,364 1795,159 1795,5 1795,5 1795,5 1795,5 1795,5 1795,5 1795,5 1720,5 1602,5 1494,5 1396,5 1310,5 1235,5 1172,5 1119,5 1078,5 1046,5 1024,5 1009,5 1002,5 1001,5 1005,27 1012,50 1021,67 1032,77 1043,80 1053,78 1060,69 1065,56 1067,38 1064,16 1056,5 1042,5 1024,5 1000,5 970,5 935,5 895,5 851,5 804,5 753,5 700,5 647,5 593,5 541,5 491,5 445,5 403,5 367,5 339,5 319,47 307,98 306,151 316,202 336,251 368,296 412,335 467,366 532,385 607,392 692,384 783,358 879,313 979,245 1078,153 1175,35 1265,5 1344,5 1408,5 1452,5 1471,5 1458,5 1408,5 1314,5 1170,5 967,5 699,5 358,5 5,5 5,5 5,5 5,5 5,5 5,1795 5,1795 621,1795 1310,1795 1795,1795 1795,1795 1795,1795 1795,1795 1795,1795 1795,1795 1795,1795 1795,1504 1795,1135 1795,803 1795,508 1795,250 1795,28 1795,5 1795,5 1795,5 1795,5 1795,5 1795,5 1795,5 1716,5 1583,5 1462,5 1355,5 1261,5 1181,5 1115,5 1062,5 1021,5 991,5 972,5 962,5 961,5 966,5 976,36 991,62 1007,81 1025,91 1043,94 1059,90 1073,79 1083,61 1089,39 1089,12 1084,5 1073,5 1054,5 1030,5 999,5 961,5 918,5 869,5 816,5 760,5 701,5 640,5 579,5 520,5 463,5 410,5 362,5 320,5 287,5 264,30 250,92 248,155 259,218 283,280 320,337 371,389 435,431 513,463 603,480 704,481 815,463 934,422 1058,357 1184,265 1309,144 1430,5 1541,5 1638,5 1716,5 1769,5 1789,5 1772,5 1709,5 1592,5 1414,5 1166,5 839,5 425,5 5,5 5,5 5,5 5,5 5,1795 370,1795 1205,1795 1795,1795 1795,1795 1795,1795 1795,1795 1795,1795 1795,1795 1795,1795 1795,1795 1795,1481 1795,1070 1795,703 1795,380 1795,100 1795,5 1795,5 1795,5 1795,5 1795,5 1795,5 1795,5 1795,5 1700,5 1551,5 1418,5 1301,5 1199,5 1114,5 1045,5 991,5 952,5 925,5 911,5 907,5 913,5 925,14 944,53 967,82 992,102 1019,113 1045,115 1069,108 1089,94 1106,72 1117,44 1121,11 1119,5 1109,5 1092,5 1066,5 1033,5 993,5 945,5 892,5 833,5 769,5 702,5 634,5 564,5 496,5 431,5 369,5 314,5 265,5 226,5 198,9 182,83 178,159 189,236 216,312 258,385 316,451 391,508 481,554 587,585 707,597 840,589 983,557 1134,497 1291,407 1448,284 1604,124 1752,5 1795,5 1795,5 1795,5 1795,5 1795,5 1795,5 1795,5 1795,5 1711,5 1408,5 1011,5 510,5 5,5 5,5 5,5 69,1795 1078,1795 1795,1795 1795,1795 1795,1795 1795,1795 1795,1795 1795,1795 1795,1795 1795,1795 1795,1795 1795,1415 1795,961 1795,559 1795,208 1795,5 1795,5 1795,5 1795,5 1795,5 1795,5 1795,5 1795,5 1795,5 1670,5 1504,5 1357,5 1230,5 1121,5 1031,5 960,5 907,5 870,5 848,5 840,5 843,5 857,5 879,34 908,78 941,111 976,133 1013,144 1048,145 1081,135 1110,116 1134,89 1151,55 1160,15 1161,5 1154,5 1137,5 1111,5 1076,5 1032,5 979,5 920,5 853,5 782,5 706,5 628,5 548,5 470,5 394,5 323,5 258,5 201,5 155,5 120,5 100,71 94,162 104,255 133,348 180,438 245,522 330,597 435,660 557,707 697,735 854,740 1024,719 1206,667 1395,582 1590,460 1785,297 1795,91 1795,5 1795,5 1795,5 1795,5 1795,5 1795,5 1795,5 1795,5 1795,5 1795,5 1701,5 1220,5 614,5 5,5 5,5 924,1795 1795,1795 1795,1795 1795,1795 1795,1795 1795,1795 1795,1795 1795,1795 1795,1795 1795,1795 1795,1795 1795,1298 1795,800 1795,363 1795,5 1795,5 1795,5 1795,5 1795,5 1795,5 1795,5 1795,5 1795,5 1795,5 1622,5 1439,5 1278,5 1139,5 1024,5 930,5 858,5 806,5 773,5 757,5 756,5 769,5 793,5 827,66 867,115 912,152 959,176 1008,186 1054,185 1098,171 1136,147 1168,113 1192,71 1207,23 1212,5 1207,5 1191,5 1164,5 1127,5 1079,5 1021,5 954,5 879,5 798,5 712,5 622,5 532,5 441,5 353,5 270,5 194,5 127,5 72,5 29,5 5,55 5,163 5,275 31,387 82,497 155,602 251,698 369,781 510,848 672,895 853,917 1053,911 1268,871 1496,794 1731,676 1795,513 1795,301 1795,37 1795,5 1795,5 1795,5 1795,5 1795,5 1795,5 1795,5 1795,5 1795,5 1795,5 1795,5 1471,5 741,5 5,5 "/>
</svg>
