<svg width="1800" height="1800" viewBox="0 0 1800 1800" xmlns="http://www.w3.org/2000/svg">
<polyline fill="none" opacity="1" stroke="#FFCDD2" stroke-width="1" points="1795,18 1795,24 1795,30 1795,36 1795,42 1795,49 1795,55 1795,62 1795,69 1795,75 1789,82 1751,89 1713,96 1677,103 1642,110 1608,117 1575,124 1543,131 1512,138 1481,145 1452,152 1424,159 1396,166 1370,173 1344,179 1319,186 1295,192 1272,199 1249,205 1227,211 1206,217 1185,223 1165,228 1146,234 1127,239 1109,244 1092,248 1075,253 1058,257 1042,261 1026,265 1011,268 996,271 982,274 968,277 954,279 941,281 928,282 915,283 902,284 890,285 878,285 866,284 854,283 842,282 830,280 819,278 807,276 795,272 784,269 772,265 761,260 749,255 737,249 725,243 713,236 701,229 689,221 676,213 663,203 650,194 637,183 623,172 609,161 595,148 580,135 565,122 549,107 533,92 517,76 499,60 482,43 464,25 445,6 426,5 406,5 385,5 364,5 342,5 320,5 296,5 272,5 248,5 222,5 195,5 168,5 140,5 111,5 80,5 49,5 1795,50 1795,56 1795,62 1795,68 1795,74 1795,80 1795,86 1795,93 1795,99 1795,106 1761,113 1723,119 1686,126 1651,133 1616,140 1583,147 1550,154 1518,161 1488,168 1458,175 1430,182 1402,189 1375,195 1349,202 1324,209 1299,215 1276,222 1253,228 1230,234 1209,240 1188,246 1168,252 1149,258 1130,263 1112,268 1094,273 1077,278 1060,283 1044,287 1028,291 1013,295 998,298 984,302 970,305 956,307 943,310 930,312 917,313 905,315 893,316 881,316 869,316 857,316 846,316 834,314 823,313 812,311 801,309 789,306 778,302 767,299 756,294 744,289 733,284 721,278 710,272 698,265 686,257 674,249 661,240 648,231 635,221 622,210 608,199 594,187 579,174 565,161 549,147 533,132 517,117 500,101 483,84 465,66 447,48 428,29 408,9 388,5 367,5 346,5 323,5 300,5 276,5 252,5 226,5 200,5 173,5 145,5 116,5 86,5 55,5 1795,81 1795,87 1795,92 1795,98 1795,104 1795,110 1795,116 1795,122 1795,129 1773,135 1734,142 1697,149 1661,155 1625,162 1591,169 1558,176 1526,183 1495,189 1465,196 1436,203 1408,210 1381,217 1354,224 1329,230 1304,237 1280,243 1257,250 1234,256 1213,262 1192,269 1171,275 1152,280 1133,286 1114,291 1096,297 1079,302 1063,307 1046,311 1031,316 1015,320 1001,324 986,328 972,331 959,334 946,337 933,339 920,341 908,343 896,345 884,346 872,347 861,347 850,347 838,346 827,346 816,344 806,343 795,340 784,338 773,335 762,331 751,327 740,323 729,317 718,312 707,306 695,299 683,292 671,284 659,275 647,266 634,257 621,246 607,235 594,224 579,212 565,199 550,185 534,171 518,156 502,140 485,124 467,107 449,89 430,70 411,51 391,31 370,10 349,5 327,5 304,5 280,5 256,5 231,5 205,5 178,5 150,5 121,5 91,5 61,5 1795,112 1795,117 1795,122 1795,128 1795,133 1795,139 1795,145 1795,151 1785,157 1746,164 1708,170 1671,177 1635,183 1601,190 1567,197 1535,203 1503,210 1473,217 1443,224 1415,231 1387,237 1360,244 1334,251 1309,258 1285,264 1261,271 1239,277 1217,283 1195,290 1175,296 1155,302 1136,308 1117,313 1099,319 1082,324 1065,329 1049,334 1033,339 1018,343 1003,348 989,352 975,355 961,359 948,362 935,365 923,368 911,370 899,372 887,374 876,375 864,376 853,376 842,377 832,376 821,376 810,375 800,373 789,371 779,369 768,366 758,363 747,359 737,355 726,350 715,344 704,338 693,332 681,325 669,318 658,309 645,301 633,291 620,281 607,271 593,260 580,248 565,235 551,222 535,208 520,194 503,179 487,163 469,146 451,128 433,110 414,91 394,72 374,51 352,30 331,8 308,5 285,5 260,5 235,5 209,5 183,5 155,5 127,5 97,5 67,5 1795,141 1795,146 1795,151 1795,156 1795,162 1795,167 1795,173 1795,179 1759,185 1720,191 1683,198 1646,204 1611,210 1577,217 1544,224 1512,230 1481,237 1451,244 1422,250 1394,257 1367,264 1340,270 1315,277 1290,284 1266,290 1243,297 1221,303 1200,310 1179,316 1159,322 1139,328 1121,334 1103,339 1085,345 1068,350 1052,356 1036,361 1021,365 1006,370 991,374 977,378 964,382 951,386 938,389 926,392 913,395 902,397 890,400 879,401 868,403 857,404 846,405 836,405 825,405 815,405 805,404 794,402 784,401 774,399 764,396 754,393 744,389 733,385 723,381 712,376 701,370 691,364 679,357 668,350 656,342 645,334 632,325 620,315 607,305 594,294 580,283 566,271 552,258 537,245 521,230 505,216 489,200 472,184 454,167 436,149 417,131 397,111 377,91 356,70 335,49 312,26 289,5 265,5 240,5 215,5 188,5 161,5 132,5 103,5 73,5 1795,169 1795,174 1795,179 1795,184 1795,189 1795,194 1795,200 1773,206 1733,212 1695,218 1658,224 1623,230 1588,237 1554,243 1522,249 1490,256 1460,263 1430,269 1402,276 1374,283 1347,289 1321,296 1296,302 1272,309 1249,316 1226,322 1204,328 1183,335 1163,341 1143,347 1125,353 1106,359 1089,365 1071,370 1055,376 1039,381 1024,386 1009,391 994,395 980,400 967,404 954,408 941,412 928,415 916,418 905,421 893,424 882,426 871,428 860,430 850,431 840,432 829,432 819,433 809,432 799,432 790,431 780,429 770,427 760,425 750,422 740,419 730,415 720,411 710,406 700,401 689,395 678,389 667,382 656,374 644,366 632,357 620,348 607,338 594,328 581,317 567,305 553,293 538,280 523,266 508,251 491,236 474,220 457,204 439,187 420,169 401,150 381,130 360,110 339,89 317,67 294,44 270,20 245,5 220,5 193,5 166,5 138,5 109,5 79,5 1795,196 1795,201 1795,206 1795,210 1795,216 1795,221 1787,226 1747,232 1709,238 1671,243 1635,249 1599,256 1565,262 1532,268 1500,274 1469,281 1439,287 1410,294 1382,300 1355,307 1328,314 1303,320 1279,327 1255,333 1232,340 1210,346 1188,353 1168,359 1148,365 1129,371 1110,377 1092,383 1075,389 1059,394 1042,400 1027,405 1012,410 997,415 983,420 970,424 957,429 944,433 932,437 920,440 908,444 896,447 885,449 875,452 864,454 854,456 844,457 834,458 824,459 814,459 804,459 795,459 785,458 776,457 766,455 757,453 747,450 738,447 728,444 718,440 708,435 698,430 688,425 677,419 666,412 655,405 644,397 632,389 620,380 608,370 595,360 582,349 569,338 555,326 540,313 525,300 510,286 494,271 477,256 460,240 442,223 424,205 405,187 385,168 365,148 343,127 321,106 299,83 275,60 251,36 225,12 199,5 172,5 144,5 115,5 85,5 1795,223 1795,227 1795,232 1795,236 1795,241 1795,246 1763,252 1723,257 1685,263 1648,268 1612,274 1577,280 1544,286 1511,292 1479,299 1449,305 1419,311 1391,318 1363,324 1336,331 1310,337 1286,344 1261,350 1238,357 1216,363 1194,369 1173,376 1153,382 1134,388 1115,394 1097,400 1079,406 1062,412 1046,418 1031,423 1015,429 1001,434 987,439 973,443 960,448 947,452 935,457 923,460 911,464 900,468 889,471 878,474 868,476 857,478 847,480 838,482 828,483 819,484 809,485 800,485 791,484 781,484 772,483 763,481 754,479 745,477 735,474 726,471 716,467 707,463 697,458 687,453 677,447 666,441 655,434 644,427 633,419 621,410 609,401 597,391 584,381 571,370 557,358 543,346 528,333 513,320 497,305 481,290 464,274 446,258 428,241 409,223 389,204 369,185 348,165 326,144 304,122 280,99 256,76 231,52 205,26 178,5 150,5 121,5 92,5 1795,249 1795,253 1795,257 1795,261 1795,266 1779,271 1739,276 1700,281 1662,287 1625,292 1590,298 1556,304 1523,310 1490,316 1459,322 1429,328 1400,334 1372,340 1345,347 1319,353 1293,360 1269,366 1245,373 1222,379 1200,385 1179,392 1159,398 1139,404 1120,410 1102,417 1084,423 1067,428 1050,434 1035,440 1019,445 1005,451 990,456 977,461 963,466 951,471 938,475 926,479 915,483 903,487 892,491 882,494 871,497 861,500 851,502 842,504 832,506 823,507 814,508 805,509 796,509 787,509 778,509 769,508 760,507 751,505 742,503 733,501 724,498 715,494 706,490 696,486 686,481 676,475 666,469 656,463 645,456 634,448 622,440 611,431 598,421 586,411 573,401 559,390 545,378 531,365 516,352 500,338 484,323 467,308 450,292 432,275 413,258 394,240 374,221 353,201 331,180 309,159 286,137 262,114 237,90 211,66 184,40 156,14 128,5 98,5 1795,273 1795,277 1795,281 1795,286 1795,290 1755,295 1716,300 1677,305 1640,310 1604,315 1569,321 1535,326 1502,332 1471,338 1440,344 1410,350 1382,356 1354,362 1327,369 1302,375 1277,381 1253,388 1229,394 1207,400 1186,407 1165,413 1145,419 1125,426 1107,432 1089,438 1072,444 1055,450 1039,456 1023,461 1009,467 994,472 980,478 967,483 954,488 942,492 930,497 918,501 907,505 896,509 885,513 875,516 865,519 855,522 846,524 836,527 827,529 818,530 810,531 801,532 792,533 784,533 775,533 766,532 758,531 749,530 741,528 732,526 723,523 714,520 705,516 696,512 686,507 677,502 667,496 656,490 646,483 635,476 624,468 612,460 600,450 588,441 575,431 562,420 548,408 534,396 519,383 504,370 488,355 471,340 454,325 436,309 418,292 398,274 379,255 358,236 336,216 314,195 291,174 267,151 242,128 217,104 190,79 163,53 134,26 105,5 1795,297 1795,301 1795,305 1795,309 1773,313 1732,318 1693,322 1655,327 1619,332 1583,337 1549,343 1515,348 1483,354 1452,360 1422,366 1392,371 1364,377 1337,384 1311,390 1285,396 1261,402 1237,408 1215,415 1193,421 1171,427 1151,434 1131,440 1113,446 1094,452 1077,458 1060,464 1044,470 1028,476 1013,482 999,487 985,493 971,498 958,503 946,508 934,513 922,518 911,522 900,526 889,530 879,534 869,537 859,541 850,543 841,546 832,548 823,551 814,552 806,554 797,555 789,555 781,556 772,556 764,555 756,555 748,553 739,552 731,550 722,547 714,544 705,541 696,537 686,533 677,528 667,522 657,516 647,510 636,503 625,495 614,487 602,478 590,469 578,459 565,449 551,437 537,426 522,413 507,400 492,386 475,372 458,357 441,341 422,324 403,307 384,289 363,270 342,250 320,230 297,209 273,187 248,164 223,141 197,116 169,91 141,65 112,38 1795,321 1795,324 1795,328 1791,332 1750,336 1710,340 1672,344 1634,349 1598,354 1563,359 1529,364 1496,369 1464,375 1434,380 1404,386 1375,392 1347,398 1321,404 1295,410 1270,416 1246,422 1223,428 1200,435 1179,441 1158,447 1138,453 1119,460 1100,466 1083,472 1065,478 1049,484 1033,490 1018,496 1003,501 989,507 975,512 962,518 950,523 938,528 926,533 915,537 904,542 893,546 883,550 873,554 863,558 854,561 845,564 836,567 827,569 819,571 811,573 802,575 794,576 786,577 778,578 770,578 762,578 754,577 746,576 738,575 730,573 722,571 713,568 705,565 696,561 687,557 678,552 668,547 659,542 649,535 638,529 627,521 616,514 605,505 593,496 581,487 568,477 554,466 541,454 526,442 511,430 496,416 480,402 463,387 445,372 427,356 408,339 389,321 368,303 347,284 325,264 303,243 279,222 255,200 229,176 203,153 176,128 148,102 118,76 1795,343 1795,347 1795,350 1769,353 1729,357 1689,361 1651,366 1614,370 1578,375 1544,380 1510,385 1478,390 1446,395 1416,400 1387,406 1359,412 1331,418 1305,423 1280,429 1255,435 1231,441 1209,448 1187,454 1166,460 1145,466 1126,472 1107,478 1089,484 1071,490 1055,497 1039,503 1023,508 1008,514 994,520 980,526 967,531 954,536 942,542 930,547 919,552 908,556 897,561 887,565 877,569 868,573 858,577 849,580 840,584 832,587 824,589 815,592 807,594 799,595 792,597 784,598 776,599 768,599 761,599 753,599 745,598 738,597 730,595 722,593 713,590 705,588 697,584 688,580 679,576 670,571 660,566 650,560 640,554 630,547 619,539 608,531 596,522 584,513 571,503 558,493 544,482 530,470 515,458 500,445 484,431 467,417 450,402 432,386 413,370 394,353 374,335 353,316 331,297 309,276 285,255 261,234 236,211 209,188 182,164 154,138 125,113 1795,365 1795,368 1789,371 1748,375 1708,378 1669,382 1631,386 1595,390 1559,395 1525,399 1492,404 1460,409 1429,414 1399,420 1371,425 1343,431 1316,436 1290,442 1265,448 1241,454 1218,460 1195,466 1174,472 1153,478 1133,484 1114,490 1096,496 1078,502 1061,508 1044,514 1029,520 1014,526 999,532 985,538 972,543 959,549 947,554 935,560 923,565 912,570 902,574 891,579 881,583 872,588 863,592 854,596 845,599 836,602 828,605 820,608 812,611 805,613 797,615 789,616 782,618 774,618 767,619 760,619 752,619 745,618 737,618 730,616 722,614 714,612 706,609 697,606 689,603 680,599 671,594 662,589 652,584 642,577 632,571 622,564 610,556 599,548 587,539 575,529 562,519 548,509 534,497 520,485 504,473 489,459 472,446 455,431 437,416 419,400 399,383 379,365 359,347 337,328 315,309 291,288 267,267 242,245 216,222 189,198 161,174 132,148 1795,386 1795,389 1768,392 1727,395 1688,398 1649,402 1612,406 1576,410 1541,414 1507,419 1475,423 1443,428 1413,433 1383,438 1355,444 1328,449 1301,454 1276,460 1251,466 1227,472 1205,477 1183,483 1161,489 1141,495 1122,501 1103,507 1085,513 1067,519 1051,525 1035,531 1019,537 1005,543 991,549 977,555 964,560 951,566 939,571 928,577 917,582 906,587 896,592 886,596 876,601 867,605 858,609 849,613 841,617 833,620 825,623 817,626 810,629 802,631 795,633 788,635 780,636 773,638 766,638 759,639 752,639 745,638 737,638 730,636 722,635 715,633 707,630 699,628 690,624 682,620 673,616 664,611 655,606 645,600 635,594 625,587 614,580 602,572 591,563 578,554 566,545 552,534 538,523 524,512 509,499 493,487 477,473 460,459 443,444 424,428 405,412 385,395 365,377 343,359 321,340 298,320 273,299 248,277 223,255 196,232 168,208 139,183 1795,407 1790,409 1748,412 1708,415 1668,418 1630,421 1594,425 1558,429 1524,433 1490,437 1458,442 1427,446 1397,451 1368,456 1340,461 1313,466 1287,472 1262,477 1238,483 1215,489 1192,494 1171,500 1150,506 1130,512 1111,518 1092,524 1075,530 1058,536 1041,542 1026,548 1011,554 996,560 983,565 969,571 957,577 945,582 933,588 922,593 911,598 900,603 890,608 881,613 872,617 863,622 854,626 846,630 838,634 830,637 822,641 815,644 807,646 800,649 793,651 786,653 779,654 772,656 765,657 759,657 752,657 745,657 738,657 730,656 723,654 716,653 708,650 700,648 692,645 684,641 675,637 667,633 657,628 648,622 638,616 628,610 617,603 606,595 594,587 582,578 570,569 557,559 543,548 529,537 514,525 498,513 482,500 465,486 448,471 430,456 411,440 391,424 370,407 349,389 327,370 304,350 280,330 255,309 229,287 202,264 175,241 146,216 1795,427 1770,429 1729,431 1689,434 1650,437 1612,440 1576,443 1541,447 1507,451 1474,455 1442,459 1412,464 1382,468 1353,473 1326,478 1299,483 1274,488 1249,494 1225,499 1202,505 1180,511 1159,516 1139,522 1119,528 1100,534 1082,540 1065,546 1049,551 1033,557 1017,563 1003,569 989,575 975,581 962,586 950,592 938,598 927,603 916,608 905,614 895,619 886,624 876,629 867,633 859,638 851,642 842,646 835,650 827,653 820,657 813,660 805,663 799,665 792,668 785,670 778,672 772,673 765,674 758,675 752,675 745,675 738,675 731,674 724,673 717,672 710,670 702,667 694,665 686,661 678,658 669,653 660,649 651,643 641,638 631,632 621,625 610,617 598,610 586,601 574,592 561,583 548,572 533,562 519,550 503,538 487,525 471,512 453,498 435,483 417,468 397,452 376,435 355,417 333,399 310,380 286,360 262,339 236,318 209,296 182,273 153,249 1793,446 1751,448 1710,450 1671,452 1632,455 1595,458 1559,461 1525,465 1491,468 1459,472 1427,476 1397,481 1368,485 1340,490 1312,494 1286,499 1261,504 1237,510 1213,515 1191,520 1169,526 1148,532 1128,537 1109,543 1091,549 1073,555 1056,561 1040,566 1024,572 1009,578 995,584 981,590 968,596 956,601 944,607 932,612 921,618 911,623 900,629 891,634 881,639 872,643 864,648 855,653 847,657 840,661 832,665 825,669 818,672 811,676 804,679 797,681 791,684 784,686 778,688 772,689 765,691 759,692 752,692 746,693 739,692 733,692 726,691 719,690 712,688 704,686 697,683 689,680 681,677 672,673 663,669 654,664 645,658 635,652 624,646 614,639 602,631 591,623 578,615 566,605 552,596 538,585 524,574 509,562 493,550 476,537 459,523 441,509 422,494 403,478 383,462 361,445 339,427 317,408 293,389 268,369 243,348 216,326 188,304 160,281 1774,465 1733,466 1692,468 1653,470 1615,473 1579,475 1543,478 1509,482 1476,485 1444,489 1413,493 1383,497 1354,501 1326,505 1300,510 1274,515 1249,520 1225,525 1202,530 1180,535 1159,541 1138,546 1119,552 1100,558 1082,563 1064,569 1048,575 1032,581 1017,586 1002,592 988,598 975,604 962,610 950,615 938,621 927,626 916,632 906,637 896,643 887,648 878,653 869,658 860,662 852,667 845,671 837,676 830,680 823,683 816,687 809,690 803,694 797,696 790,699 784,701 778,703 772,705 766,707 759,708 753,708 747,709 741,709 734,709 727,708 721,707 714,705 707,704 699,701 691,699 683,695 675,692 667,688 658,683 648,678 639,672 628,666 618,659 607,652 595,644 583,636 570,627 557,618 543,608 529,597 514,586 498,574 482,561 465,548 447,534 428,519 409,504 389,488 368,472 346,454 323,436 299,417 275,397 249,377 223,356 195,334 167,311 1756,483 1715,484 1675,486 1636,488 1599,490 1563,492 1528,495 1494,498 1461,501 1429,505 1399,508 1369,512 1341,516 1314,521 1287,525 1262,530 1237,534 1214,539 1191,544 1170,550 1149,555 1129,560 1109,566 1091,571 1073,577 1056,583 1040,588 1024,594 1010,600 995,606 982,611 969,617 956,623 944,629 933,634 922,640 911,645 902,651 892,656 883,661 874,666 866,671 858,676 850,681 842,685 835,689 828,693 821,697 815,701 808,705 802,708 796,711 790,714 784,716 778,718 772,720 766,722 760,723 754,724 748,725 742,725 736,725 729,724 723,723 716,722 709,720 702,718 694,716 687,713 679,710 670,706 661,701 652,697 643,691 633,685 622,679 611,672 600,665 588,657 575,648 562,639 549,629 534,619 519,608 504,597 488,584 471,572 453,558 434,544 415,529 395,514 374,497 352,480 330,463 306,444 282,425 256,405 230,384 202,363 174,341 1739,500 1698,501 1659,503 1620,504 1583,506 1548,509 1513,511 1479,514 1447,517 1416,520 1386,523 1357,527 1329,531 1302,535 1276,539 1251,544 1227,549 1203,553 1181,558 1160,563 1139,568 1120,574 1101,579 1083,585 1065,590 1049,596 1033,601 1017,607 1003,613 989,618 976,624 963,630 951,635 939,641 928,647 917,652 907,658 898,663 888,669 880,674 871,679 863,684 855,689 848,693 840,698 834,702 827,706 820,710 814,714 808,718 802,721 796,724 790,727 784,730 779,732 773,734 767,736 762,737 756,739 750,739 744,740 738,740 732,740 725,739 719,738 712,737 705,735 698,733 690,730 682,727 674,723 665,719 656,715 647,710 637,704 627,698 616,691 605,684 593,677 580,668 567,660 554,650 540,640 525,630 510,619 493,607 476,594 459,581 440,568 421,553 401,538 380,522 359,506 336,489 313,471 288,452 263,432 236,412 209,391 181,369 1723,518 1682,518 1643,519 1605,521 1569,522 1533,524 1499,526 1466,529 1434,532 1403,535 1373,538 1345,542 1317,545 1290,549 1265,553 1240,558 1216,562 1194,567 1172,571 1151,576 1131,581 1111,587 1093,592 1075,597 1058,603 1042,608 1026,614 1011,619 997,625 983,631 970,636 958,642 946,647 935,653 924,659 914,664 904,670 894,675 885,680 877,686 869,691 861,696 853,701 846,706 839,710 832,715 826,719 820,723 813,727 808,731 802,734 796,737 791,740 785,743 780,745 774,748 769,750 763,751 757,752 752,753 746,754 740,754 734,754 728,754 722,753 715,752 708,750 701,748 694,746 686,743 678,740 669,736 660,732 651,727 641,722 631,716 621,710 609,703 598,696 586,688 573,679 559,670 545,661 531,651 515,640 499,628 482,616 465,604 447,590 427,576 408,562 387,546 365,530 343,513 319,496 295,478 269,459 243,439 216,418 188,397 1707,534 1667,534 1628,535 1591,536 1554,538 1519,539 1486,541 1453,544 1421,546 1391,549 1362,552 1333,555 1306,559 1280,563 1254,567 1230,571 1207,575 1184,579 1163,584 1142,589 1122,594 1103,599 1085,604 1068,609 1051,615 1035,620 1020,625 1005,631 991,636 978,642 965,648 953,653 942,659 931,664 920,670 910,676 900,681 891,686 883,692 874,697 866,702 859,707 852,712 845,717 838,722 831,726 825,731 819,735 813,739 808,742 802,746 797,749 791,752 786,755 781,758 775,760 770,762 765,764 759,766 754,767 748,768 743,768 737,768 731,768 725,767 718,767 712,765 705,763 697,761 690,759 682,756 673,752 665,748 656,744 646,739 636,733 626,727 615,721 603,714 591,706 578,698 565,690 551,680 536,671 521,660 505,649 488,638 471,625 453,612 434,599 414,584 393,570 372,554 349,538 326,520 301,503 276,484 250,465 223,445 194,424 1692,550 1652,550 1614,551 1577,552 1541,553 1506,554 1473,556 1441,558 1409,560 1379,563 1350,566 1322,569 1296,572 1270,576 1245,579 1221,583 1198,587 1176,592 1155,596 1134,601 1115,606 1096,610 1078,616 1061,621 1045,626 1029,631 1014,637 1000,642 986,647 973,653 961,659 949,664 938,670 927,675 917,681 907,686 898,692 889,697 880,702 872,708 865,713 857,718 850,723 844,728 837,733 831,737 825,742 819,746 814,750 808,754 803,757 797,761 792,764 787,767 782,770 777,772 772,775 767,776 762,778 756,779 751,780 746,781 740,781 734,781 728,781 722,780 715,779 708,778 701,776 694,773 686,771 678,767 669,764 660,760 651,755 641,750 631,744 620,738 608,731 596,724 584,716 570,708 557,699 542,690 527,680 511,669 494,658 477,646 459,633 440,620 420,606 399,592 378,577 356,561 332,544 308,527 283,509 257,490 229,470 201,450 1677,566 1638,566 1600,566 1564,566 1528,567 1494,568 1461,570 1429,572 1398,574 1368,576 1340,579 1312,582 1286,585 1260,588 1236,592 1212,595 1189,599 1168,603 1147,608 1127,612 1108,617 1089,622 1072,627 1055,632 1039,637 1023,642 1009,647 995,652 981,658 969,663 957,669 945,674 934,680 924,685 914,691 904,696 895,702 887,707 878,713 871,718 863,723 856,728 849,733 843,738 837,743 831,747 825,752 819,756 814,760 809,764 804,768 799,772 794,775 789,778 784,781 779,784 774,786 769,788 764,790 759,791 754,793 749,793 743,794 737,794 732,794 725,794 719,793 712,791 705,790 698,788 690,785 682,782 674,779 665,775 656,770 646,766 636,760 625,754 614,748 602,741 589,734 576,726 562,717 548,708 533,699 517,688 500,677 483,666 465,654 446,641 426,628 406,613 384,599 362,583 339,567 315,550 289,533 263,514 236,495 208,475 1664,581 1625,580 1587,580 1551,581 1516,581 1482,582 1450,583 1418,585 1388,587 1358,589 1330,591 1303,594 1277,597 1251,600 1227,603 1204,607 1182,611 1160,615 1140,619 1120,623 1101,628 1083,632 1066,637 1049,642 1033,647 1018,652 1004,657 990,662 977,668 965,673 953,679 942,684 931,690 921,695 911,700 902,706 893,711 885,717 877,722 869,727 862,733 855,738 849,743 843,748 837,753 831,757 825,762 820,766 815,770 810,774 805,778 800,782 795,785 791,789 786,792 781,794 777,797 772,799 767,801 762,803 757,804 752,805 746,806 741,806 735,806 729,806 723,805 716,804 710,803 702,801 695,799 687,796 679,793 670,789 661,785 651,781 641,776 630,770 619,764 607,757 595,750 582,743 568,735 554,726 539,717 523,707 506,696 489,685 471,673 452,661 433,648 412,634 391,620 368,605 345,589 321,573 296,556 270,538 242,519 214,500 1651,596 1612,595 1575,595 1539,594 1505,595 1471,595 1439,596 1408,598 1378,599 1349,601 1321,603 1294,606 1268,609 1243,611 1219,615 1196,618 1174,622 1153,625 1133,629 1114,634 1095,638 1077,642 1060,647 1044,652 1029,657 1014,662 1000,667 986,672 974,677 962,682 950,688 939,693 929,699 919,704 909,710 900,715 892,720 884,726 876,731 869,736 862,742 855,747 849,752 843,757 837,762 831,766 826,771 821,775 816,780 811,784 806,788 802,792 797,795 793,798 788,802 784,805 779,807 775,810 770,812 765,813 760,815 755,816 750,817 745,818 739,818 733,818 727,817 721,817 714,815 707,814 700,812 692,809 684,806 675,803 666,799 656,795 646,790 636,785 624,779 613,773 600,766 587,759 574,751 560,743 545,734 529,724 512,714 495,703 477,692 459,680 439,668 418,654 397,640 375,626 352,611 327,595 302,578 276,560 249,542 221,523 1638,610 1600,609 1564,608 1528,608 1494,608 1461,608 1429,609 1398,610 1368,612 1339,613 1312,615 1285,617 1260,620 1235,623 1212,626 1189,629 1167,632 1147,636 1127,640 1108,644 1089,648 1072,652 1055,657 1039,661 1024,666 1010,671 996,676 983,681 970,686 959,691 947,697 937,702 926,707 917,713 907,718 899,723 891,729 883,734 875,740 868,745 861,750 855,755 849,760 843,765 838,770 832,775 827,780 822,784 817,789 813,793 808,797 804,801 799,804 795,808 791,811 786,814 782,817 778,819 773,822 768,824 764,825 759,827 754,828 749,829 743,829 737,829 731,829 725,828 719,827 712,826 704,824 697,822 688,819 680,816 671,813 661,809 651,804 641,799 630,794 618,788 606,782 593,775 580,767 565,759 550,750 535,741 518,732 501,721 483,710 465,699 445,686 425,674 403,660 381,646 358,631 334,616 309,599 282,582 255,565 227,546 1627,624 1589,623 1553,622 1518,621 1484,621 1451,621 1419,621 1389,622 1359,623 1331,625 1304,626 1278,628 1252,631 1228,633 1205,636 1183,639 1161,642 1141,646 1121,649 1102,653 1084,657 1067,661 1051,666 1035,670 1020,675 1006,680 993,685 980,689 968,695 956,700 945,705 934,710 925,715 915,721 906,726 898,731 890,737 882,742 875,748 868,753 861,758 855,763 849,768 844,773 838,778 833,783 828,788 824,792 819,797 815,801 810,805 806,809 802,813 798,816 793,820 789,823 785,826 781,829 776,831 772,833 767,835 763,836 758,838 753,839 747,839 742,840 736,840 730,839 723,838 716,837 709,836 702,834 694,831 685,829 676,825 667,822 657,818 646,813 635,808 624,802 612,796 599,789 585,782 571,775 556,766 541,758 524,748 507,738 489,728 471,716 451,705 431,692 409,679 387,665 364,651 340,636 315,620 289,604 261,586 233,569 1616,638 1578,636 1542,635 1508,634 1474,633 1442,633 1410,633 1380,634 1351,635 1323,636 1296,637 1270,639 1245,641 1222,643 1199,646 1177,649 1156,652 1135,655 1116,659 1098,662 1080,666 1063,670 1047,674 1032,679 1017,683 1003,688 990,693 977,698 965,703 954,708 943,713 933,718 923,723 914,728 905,734 897,739 889,744 882,750 875,755 868,760 862,766 856,771 850,776 845,781 840,786 835,791 830,795 825,800 821,805 817,809 813,813 808,817 804,821 800,825 796,828 792,831 788,834 784,837 780,840 776,842 771,844 767,846 762,847 757,848 752,849 746,850 740,850 734,850 728,849 721,848 714,847 707,845 699,843 690,840 681,837 672,834 662,830 652,826 641,821 630,816 617,810 605,804 591,797 577,790 562,782 547,773 530,764 513,755 496,744 477,734 457,722 437,710 416,697 393,684 370,670 346,656 321,640 295,624 268,607 239,590 1605,651 1568,649 1533,648 1498,646 1465,646 1433,645 1402,645 1372,645 1343,646 1316,647 1289,648 1264,650 1239,651 1215,653 1193,656 1171,658 1150,661 1130,664 1111,668 1093,671 1076,675 1059,679 1043,683 1028,687 1014,691 1000,696 987,701 975,705 963,710 952,715 942,720 932,725 922,730 913,736 905,741 897,746 889,751 882,757 875,762 869,767 863,773 857,778 851,783 846,788 841,793 836,798 832,803 827,807 823,812 819,816 815,820 811,825 807,829 803,832 800,836 796,839 792,842 788,845 784,848 780,850 775,853 771,854 766,856 761,857 756,858 751,859 745,859 739,859 733,859 726,858 719,857 712,856 704,854 696,852 687,849 678,846 668,842 658,838 647,834 635,829 623,823 610,817 597,811 583,804 568,796 553,788 536,780 519,770 502,760 483,750 463,739 443,727 422,715 399,702 376,689 352,674 327,660 301,644 274,628 245,611 1596,664 1559,662 1524,660 1490,659 1457,657 1425,657 1394,656 1365,656 1336,657 1309,657 1283,658 1257,660 1233,661 1210,663 1188,665 1166,668 1146,670 1126,673 1107,676 1089,680 1072,683 1056,687 1040,691 1026,695 1011,699 998,703 985,708 973,713 962,717 951,722 941,727 931,732 922,737 913,742 905,748 897,753 889,758 882,763 876,769 870,774 864,779 858,784 853,789 848,794 843,799 838,804 834,809 830,814 826,819 822,823 818,827 814,832 810,836 807,839 803,843 799,847 795,850 792,853 788,856 784,858 779,861 775,863 770,864 766,866 761,867 755,868 750,869 744,869 738,869 731,868 724,867 717,866 709,865 701,862 692,860 683,857 673,854 663,850 652,846 641,841 629,836 616,830 603,824 589,818 574,810 559,803 542,794 525,785 507,776 489,766 469,755 449,744 427,732 405,720 382,707 358,693 333,678 307,663 279,647 251,631 1586,677 1550,675 1515,672 1481,670 1449,669 1417,668 1387,667 1358,667 1330,667 1303,668 1277,668 1252,669 1228,671 1205,672 1183,674 1162,676 1141,679 1122,682 1104,684 1086,688 1069,691 1053,695 1038,698 1023,702 1009,706 996,711 984,715 972,720 961,724 950,729 940,734 930,739 921,744 913,749 905,754 897,759 890,764 883,770 877,775 871,780 865,785 860,790 854,796 850,801 845,806 841,811 836,815 832,820 828,825 825,829 821,834 817,838 814,842 810,846 806,850 803,854 799,857 795,860 792,863 788,866 784,868 779,870 775,872 770,874 765,875 760,876 755,877 749,878 743,878 736,877 729,877 722,876 714,874 706,873 698,870 689,868 679,865 669,861 658,857 646,853 634,848 622,843 609,837 595,831 580,824 564,816 548,808 531,800 513,791 495,781 475,771 455,760 433,749 411,737 388,724 364,710 338,696 312,682 285,666 257,650 1578,690 1542,687 1507,684 1474,682 1442,680 1410,679 1380,678 1352,678 1324,677 1297,678 1271,678 1247,679 1223,680 1200,681 1179,683 1158,685 1138,687 1119,690 1100,692 1083,695 1066,699 1051,702 1036,706 1021,709 1008,713 995,717 982,722 971,726 960,731 949,735 940,740 930,745 921,750 913,755 905,760 898,765 891,770 884,775 878,781 872,786 867,791 861,796 856,801 852,806 847,811 843,816 839,821 835,826 831,831 828,835 824,840 821,844 817,848 814,852 810,856 807,860 803,864 800,867 796,870 792,873 788,875 784,878 779,880 775,882 770,883 765,884 760,885 754,886 748,886 741,886 735,886 727,885 720,884 712,882 703,880 694,878 684,875 674,872 663,868 652,864 640,860 628,855 614,849 600,843 585,837 570,830 554,822 537,814 519,805 500,796 481,786 460,776 439,764 417,753 393,740 369,728 344,714 318,700 290,685 262,669 1570,702 1534,699 1500,696 1467,694 1435,692 1404,690 1374,689 1346,688 1318,687 1292,687 1266,687 1242,688 1219,689 1196,690 1175,691 1154,693 1134,695 1116,698 1098,700 1081,703 1064,706 1049,709 1034,713 1020,716 1006,720 994,724 982,728 970,732 959,737 949,741 940,746 930,751 922,756 914,761 906,766 899,771 892,776 886,781 880,786 874,791 869,796 863,802 859,807 854,812 850,817 846,822 842,827 838,832 834,836 831,841 827,846 824,850 821,854 817,858 814,862 811,866 807,870 804,873 800,876 796,879 793,882 788,884 784,887 780,889 775,890 770,892 765,893 759,894 753,894 747,894 740,894 733,894 725,893 717,892 709,890 699,888 690,885 680,882 669,879 658,875 646,871 633,866 620,861 606,855 591,849 576,842 559,835 542,827 525,819 506,810 486,800 466,790 444,780 422,768 399,757 375,744 349,731 323,717 296,703 267,687 1563,714 1527,711 1493,708 1461,705 1429,702 1398,701 1369,699 1341,698 1313,697 1287,697 1262,697 1238,697 1215,698 1193,698 1171,700 1151,701 1132,703 1113,705 1095,708 1079,710 1062,713 1047,716 1032,719 1019,723 1005,726 993,730 981,734 970,738 959,743 949,747 940,752 931,756 923,761 915,766 907,771 900,776 893,781 887,786 881,791 876,796 871,801 866,807 861,812 857,817 853,822 849,827 845,832 841,837 838,842 834,846 831,851 828,855 825,860 821,864 818,868 815,872 812,875 808,879 805,882 801,885 797,888 793,891 789,893 785,895 780,897 775,899 770,900 764,901 758,902 752,902 745,902 738,902 730,901 722,900 714,899 705,897 695,895 685,892 675,889 663,885 651,882 639,877 625,872 611,867 597,861 581,854 565,848 548,840 530,832 511,824 492,814 471,805 450,794 428,784 404,772 380,760 355,747 328,734 301,720 272,705 1556,726 1521,722 1487,719 1455,716 1423,713 1393,711 1364,709 1336,708 1309,707 1283,706 1258,706 1234,706 1211,706 1190,707 1169,708 1149,709 1129,711 1111,713 1094,715 1077,717 1061,720 1046,723 1032,726 1018,729 1005,732 993,736 981,740 970,744 960,748 950,753 941,757 932,762 924,766 916,771 909,776 902,781 895,786 889,791 884,796 878,801 873,806 868,811 864,816 860,822 856,827 852,832 848,837 845,841 841,846 838,851 835,856 832,860 829,865 825,869 822,873 819,877 816,881 813,884 809,888 806,891 802,894 798,897 794,899 789,902 785,904 780,906 775,907 769,908 763,909 757,910 750,910 743,910 736,909 728,908 719,907 710,906 701,904 691,901 680,899 669,895 657,892 644,888 631,883 617,878 602,872 587,866 570,860 553,852 535,845 517,837 497,828 477,819 455,809 433,798 409,787 385,775 360,763 333,750 306,736 277,722 1550,738 1515,734 1482,730 1449,727 1418,724 1388,721 1359,719 1332,717 1305,716 1279,715 1255,715 1231,714 1209,714 1187,715 1166,716 1146,717 1127,718 1109,720 1092,722 1076,724 1060,726 1045,729 1031,732 1018,735 1005,738 993,742 981,746 970,750 960,754 951,758 942,762 933,767 925,771 917,776 910,781 904,786 897,790 891,795 886,800 881,806 876,811 871,816 867,821 863,826 859,831 855,836 852,841 848,846 845,851 842,856 839,860 836,865 833,869 830,874 827,878 824,882 820,886 817,890 814,893 810,896 807,900 803,902 799,905 794,908 790,910 785,912 780,913 774,915 769,916 762,917 756,917 749,917 741,917 733,916 725,915 716,914 706,912 696,910 685,908 674,905 662,901 650,897 636,893 622,888 607,883 592,877 576,871 559,864 541,857 522,849 502,841 482,832 460,822 438,812 414,802 390,790 364,778 338,766 310,753 282,739 1544,750 1510,745 1476,741 1444,738 1414,734 1384,731 1355,729 1328,727 1301,725 1276,724 1252,723 1228,723 1206,723 1185,723 1164,723 1145,724 1126,725 1108,727 1091,728 1075,730 1059,733 1045,735 1031,738 1018,741 1005,744 993,747 982,751 971,755 961,759 952,763 943,767 935,771 927,776 919,780 912,785 906,790 900,795 894,800 888,805 883,810 879,815 874,820 870,825 866,830 862,835 859,840 855,845 852,850 849,855 846,860 843,864 840,869 837,874 834,878 831,882 828,886 825,890 822,894 819,898 815,901 812,905 808,908 804,911 799,913 795,915 790,918 785,919 780,921 774,922 768,923 761,924 754,924 747,924 739,924 730,923 721,922 712,921 701,919 691,916 679,914 668,911 655,907 642,903 628,899 613,894 597,888 581,882 564,876 546,869 527,861 507,853 487,845 465,836 442,826 419,816 394,805 369,793 342,781 315,768 286,755 1539,762 1505,757 1472,752 1440,748 1410,745 1380,741 1352,739 1325,736 1298,734 1273,733 1249,732 1226,731 1204,731 1183,731 1163,731 1143,731 1125,732 1107,734 1090,735 1074,737 1059,739 1045,741 1031,744 1018,747 1006,750 994,753 983,756 972,760 963,764 953,768 945,772 936,776 929,780 921,785 915,789 908,794 902,799 897,804 891,809 886,814 882,819 877,824 873,829 869,834 866,839 862,844 859,849 856,854 853,859 850,864 847,868 844,873 841,878 838,882 836,887 833,891 830,895 827,899 823,903 820,906 816,909 813,913 809,916 805,918 800,921 795,923 790,925 785,927 779,928 773,929 766,930 759,931 752,931 744,931 735,930 726,930 717,928 707,927 696,925 685,922 673,919 660,916 647,912 633,908 618,904 602,899 586,893 569,887 551,880 532,873 512,865 491,857 470,848 447,839 423,829 399,819 373,808 347,796 319,784 290,771 1534,773 1500,768 1468,763 1436,759 1406,755 1377,751 1349,748 1322,746 1296,743 1271,742 1247,740 1224,739 1202,738 1181,738 1161,738 1142,739 1124,739 1107,740 1090,742 1074,743 1059,745 1045,747 1031,749 1019,752 1006,755 995,758 984,761 974,765 964,768 955,772 946,776 938,780 931,785 924,789 917,794 911,798 905,803 899,808 894,813 890,817 885,822 881,827 877,832 873,837 870,843 866,848 863,853 860,858 857,862 854,867 851,872 849,877 846,882 843,886 840,890 837,895 834,899 831,903 828,907 825,910 821,914 818,917 814,920 810,923 805,926 800,928 795,930 790,932 784,934 778,935 772,936 765,937 757,938 749,938 741,937 732,937 722,936 712,934 701,933 690,930 678,928 665,925 652,921 638,918 623,913 607,909 591,903 573,897 555,891 536,884 517,877 496,869 474,861 451,852 428,842 403,832 377,822 351,810 323,798 294,786 1530,785 1497,779 1464,774 1433,769 1403,765 1374,761 1346,758 1320,755 1294,752 1269,750 1246,749 1223,747 1201,746 1181,746 1161,746 1142,746 1124,746 1106,747 1090,748 1074,749 1060,751 1046,753 1032,755 1020,757 1008,760 996,763 986,766 975,769 966,773 957,777 949,781 941,785 933,789 926,793 920,797 914,802 908,807 903,811 898,816 893,821 889,826 884,831 881,836 877,841 873,846 870,851 867,856 864,861 861,866 858,871 856,876 853,880 850,885 848,890 845,894 842,899 839,903 836,907 833,911 830,915 826,918 823,922 819,925 815,928 810,931 806,933 801,936 795,938 789,939 783,941 777,942 770,943 762,944 754,944 746,944 737,944 727,943 717,942 706,940 695,938 683,936 670,933 657,930 642,927 628,923 612,918 595,913 578,908 560,902 541,895 521,888 500,881 478,873 456,864 432,855 407,845 381,835 354,824 327,813 297,801 1527,796 1493,790 1461,785 1430,780 1400,775 1372,771 1344,767 1318,764 1292,761 1268,759 1244,757 1222,755 1200,754 1180,753 1160,753 1142,753 1124,753 1107,753 1091,754 1075,755 1060,757 1047,758 1033,760 1021,763 1009,765 998,768 987,771 977,774 968,777 959,781 951,785 943,789 936,793 929,797 923,801 917,806 911,810 906,815 901,820 896,824 892,829 888,834 884,839 881,844 878,849 874,854 871,859 868,864 866,869 863,874 860,879 858,884 855,888 852,893 850,898 847,902 844,906 841,911 838,915 835,918 831,922 828,926 824,929 820,932 815,935 811,938 806,940 800,943 795,945 788,946 782,948 775,949 767,950 759,950 751,950 742,950 732,950 722,949 711,947 700,946 688,944 675,941 661,939 647,935 632,932 616,927 600,923 582,918 564,912 545,906 525,899 504,892 482,884 459,876 436,867 411,858 385,848 358,838 330,827 301,815 1523,808 1490,802 1459,796 1428,790 1398,785 1370,781 1342,777 1316,773 1291,770 1267,767 1244,765 1221,763 1200,762 1180,761 1160,760 1142,760 1124,759 1107,760 1091,760 1076,761 1062,763 1048,764 1035,766 1023,768 1011,770 1000,773 989,776 980,779 970,782 962,785 954,789 946,793 939,796 932,801 926,805 920,809 915,814 909,818 905,823 900,828 896,832 892,837 888,842 885,847 882,852 879,857 876,862 873,867 870,872 868,877 865,882 862,887 860,892 857,896 855,901 852,905 849,910 846,914 843,918 840,922 836,926 833,930 829,933 825,936 821,939 816,942 811,945 805,947 800,949 793,951 787,953 780,954 772,955 764,956 756,956 747,956 737,956 727,955 716,954 705,953 692,951 680,949 666,947 652,944 637,940 621,936 604,932 587,927 568,922 549,916 529,910 508,903 486,896 463,888 439,879 414,871 388,861 361,851 333,840 304,829 1521,820 1488,813 1456,807 1426,801 1397,795 1368,791 1341,786 1315,782 1290,779 1266,776 1243,773 1221,771 1200,769 1180,768 1161,767 1142,766 1125,766 1108,766 1092,767 1077,767 1063,768 1049,770 1037,771 1024,773 1013,775 1002,778 992,780 982,783 973,786 965,789 957,793 949,796 942,800 935,804 929,808 924,813 918,817 913,821 909,826 904,831 900,835 896,840 893,845 889,850 886,855 883,860 880,865 877,870 875,875 872,880 870,885 867,890 865,894 862,899 859,904 857,908 854,913 851,917 848,921 845,926 842,929 838,933 834,937 830,940 826,943 821,946 816,949 810,952 805,954 798,956 792,958 785,959 777,961 769,961 761,962 752,962 742,962 732,962 721,961 709,960 697,959 684,957 670,954 656,952 641,948 625,945 608,941 591,936 572,931 553,926 533,920 512,914 490,907 467,899 443,891 417,883 391,873 364,864 336,853 306,843 1519,831 1486,824 1455,817 1424,811 1395,806 1367,800 1340,796 1315,792 1290,788 1266,785 1243,782 1221,779 1200,777 1181,775 1161,774 1143,773 1126,773 1110,773 1094,773 1079,773 1065,774 1051,775 1039,776 1027,778 1015,780 1005,782 994,785 985,787 976,790 968,793 960,797 952,800 945,804 939,808 933,812 927,816 922,820 917,825 913,829 908,834 904,838 900,843 897,848 894,853 891,858 888,863 885,868 882,873 879,878 877,883 874,888 872,892 869,897 867,902 864,907 862,911 859,916 856,920 853,925 850,929 847,933 843,937 839,940 835,944 831,947 826,950 821,953 815,956 810,958 803,961 797,963 790,964 782,966 774,967 765,968 756,968 746,968 736,968 725,968 714,967 701,965 688,964 675,962 660,959 645,957 629,953 612,950 595,945 576,941 557,936 536,930 515,924 493,917 470,910 446,903 420,894 394,886 367,876 338,866 309,856 1517,843 1485,835 1453,828 1423,822 1394,816 1367,810 1340,805 1314,801 1290,797 1266,793 1244,790 1222,787 1201,785 1181,783 1163,781 1145,780 1127,779 1111,779 1096,779 1081,779 1067,780 1054,781 1041,782 1029,783 1018,785 1007,787 997,789 988,792 979,794 971,797 963,801 956,804 949,807 943,811 937,815 931,819 926,823 921,828 917,832 912,837 909,841 905,846 901,851 898,856 895,860 892,865 889,870 887,875 884,880 882,885 879,890 877,895 874,900 872,905 869,910 867,914 864,919 861,923 858,928 855,932 852,936 848,940 844,944 840,947 836,951 831,954 826,957 820,960 814,963 808,965 802,967 794,969 787,971 779,972 770,973 761,974 751,974 741,974 730,974 718,973 705,972 692,971 679,969 664,967 649,964 633,961 616,958 598,954 579,950 560,945 540,940 518,934 496,928 473,921 448,914 423,906 396,897 369,888 340,879 311,869 1516,855 1483,847 1453,839 1423,833 1394,826 1366,820 1340,815 1314,810 1290,806 1267,802 1244,798 1223,795 1202,793 1183,790 1164,789 1146,787 1129,786 1113,785 1098,785 1083,785 1069,785 1056,786 1044,787 1032,788 1021,790 1010,792 1001,794 991,796 983,799 974,801 967,804 960,808 953,811 947,815 941,818 935,822 930,826 925,831 921,835 917,839 913,844 909,849 906,853 903,858 900,863 897,868 894,873 892,878 889,883 887,888 884,893 882,898 879,903 877,907 874,912 872,917 869,922 866,926 863,931 860,935 857,939 853,943 849,947 845,951 840,954 836,958 831,961 825,964 819,967 813,969 806,972 799,974 791,975 783,977 774,978 765,979 755,980 745,980 734,980 722,979 709,979 696,978 682,976 668,974 652,972 636,969 619,966 601,963 583,959 563,954 542,949 521,944 499,938 475,931 451,924 425,917 399,909 371,900 342,891 312,882 1515,867 1483,858 1452,851 1422,843 1394,837 1367,830 1340,825 1315,820 1291,815 1268,811 1245,807 1224,803 1204,800 1184,798 1166,796 1148,794 1131,793 1115,792 1100,791 1085,791 1072,791 1059,792 1047,792 1035,793 1024,795 1014,796 1004,798 995,800 986,803 978,805 970,808 963,811 957,815 951,818 945,822 939,826 934,830 930,834 925,838 921,842 917,847 914,851 911,856 907,861 905,866 902,870 899,875 896,880 894,885 892,890 889,895 887,900 884,905 882,910 879,915 877,920 874,924 871,929 868,933 865,938 861,942 858,946 854,950 850,954 845,958 841,961 835,965 830,968 824,971 818,973 811,976 804,978 796,980 788,982 779,983 769,984 759,985 749,985 738,986 726,986 713,985 700,984 686,983 671,981 656,979 640,977 622,974 604,971 586,967 566,963 545,958 523,953 501,948 477,942 453,935 427,928 400,920 373,912 344,903 314,894 1514,879 1483,870 1452,862 1423,854 1394,847 1367,841 1341,835 1316,829 1292,824 1269,819 1247,815 1226,812 1205,808 1186,806 1168,803 1150,801 1134,800 1118,798 1103,798 1088,797 1075,797 1062,797 1050,798 1038,798 1027,800 1017,801 1007,803 998,805 990,807 982,809 974,812 967,815 961,818 955,822 949,825 944,829 939,833 934,837 930,841 926,845 922,850 919,854 915,859 912,863 909,868 907,873 904,878 901,883 899,888 896,893 894,898 892,903 889,907 887,912 884,917 882,922 879,927 876,931 873,936 870,941 866,945 863,949 859,953 855,957 850,961 845,965 840,968 834,971 828,974 822,977 815,980 808,982 800,984 792,986 783,988 773,989 763,990 753,991 741,991 730,991 717,991 704,991 689,990 675,988 659,986 643,984 625,982 607,979 588,975 568,972 547,967 526,963 503,957 479,952 455,945 429,939 402,931 374,923 345,915 315,906 1514,891 1483,882 1452,873 1423,865 1395,858 1368,851 1342,845 1317,839 1293,833 1270,828 1248,824 1228,820 1207,816 1188,813 1170,811 1153,808 1136,806 1120,805 1105,804 1091,803 1078,803 1065,803 1053,803 1042,804 1031,805 1021,806 1011,807 1002,809 994,811 986,814 979,816 972,819 965,822 959,825 953,828 948,832 943,836 939,840 935,844 931,848 927,852 923,857 920,861 917,866 914,871 911,875 909,880 906,885 904,890 901,895 899,900 897,905 894,910 892,915 889,920 887,925 884,929 881,934 878,939 875,943 871,948 867,952 863,956 859,960 855,964 850,968 845,972 839,975 833,978 826,981 819,984 812,986 804,989 796,991 787,993 777,994 767,995 756,996 745,997 733,997 720,997 707,997 693,996 678,995 662,994 645,992 628,989 610,987 591,984 571,980 550,976 528,972 505,967 481,961 456,955 430,949 403,942 375,935 346,927 315,918 1515,903 1483,894 1453,885 1424,877 1396,869 1369,861 1343,855 1319,848 1295,843 1272,837 1251,833 1230,828 1210,825 1191,821 1173,818 1155,816 1139,814 1123,812 1109,810 1094,809 1081,809 1068,809 1057,809 1045,809 1035,810 1025,811 1015,812 1006,814 998,816 990,818 983,820 976,823 970,826 964,829 958,832 953,835 948,839 943,843 939,847 935,851 932,855 928,859 925,864 922,869 919,873 916,878 914,883 911,888 909,893 906,897 904,902 902,907 899,912 897,917 894,922 891,927 889,932 886,937 883,941 879,946 876,950 872,955 868,959 864,963 859,967 854,971 849,975 843,978 837,982 831,985 824,988 816,991 808,993 800,995 791,997 781,999 771,1000 760,1002 748,1002 736,1003 723,1003 710,1003 695,1002 680,1002 664,1000 648,999 630,997 612,994 593,992 572,988 551,985 529,981 506,976 482,971 457,965 431,959 404,953 375,946 346,938 315,930 1516,916 1484,906 1454,897 1425,888 1398,880 1371,872 1345,865 1321,858 1297,852 1275,847 1253,842 1232,837 1212,833 1194,829 1176,826 1158,823 1142,821 1127,819 1112,817 1098,816 1085,815 1072,814 1060,814 1049,815 1039,815 1029,816 1019,817 1010,818 1002,820 994,822 987,824 980,827 974,829 968,832 963,835 957,839 953,842 948,846 944,850 940,854 937,858 933,862 930,867 927,871 924,876 921,880 919,885 916,890 914,895 911,900 909,905 906,910 904,915 902,920 899,925 896,930 893,934 891,939 887,944 884,949 881,953 877,958 873,962 868,966 864,970 859,974 853,978 847,982 841,985 835,989 828,992 820,995 812,997 803,1000 794,1002 784,1004 774,1005 763,1007 751,1008 739,1008 726,1009 713,1009 698,1009 683,1008 667,1007 650,1006 632,1004 614,1002 594,1000 574,997 553,993 530,989 507,985 483,980 458,975 431,970 404,963 376,957 346,949 315,942 1517,929 1486,918 1456,909 1427,900 1399,891 1373,883 1347,876 1323,869 1299,862 1277,856 1256,851 1235,846 1215,841 1197,837 1179,834 1162,831 1146,828 1130,826 1116,824 1102,822 1089,821 1076,821 1064,820 1053,820 1043,820 1033,821 1024,822 1015,823 1007,825 999,826 992,828 985,831 979,833 973,836 967,839 962,842 958,846 953,849 949,853 945,857 941,861 938,865 935,869 932,874 929,878 926,883 924,888 921,893 919,897 916,902 914,907 911,912 909,917 906,922 904,927 901,932 898,937 895,942 892,947 889,951 885,956 881,961 877,965 873,969 868,974 863,978 857,982 851,985 845,989 838,992 831,996 824,999 815,1001 807,1004 798,1006 788,1008 777,1010 766,1012 754,1013 742,1014 729,1015 715,1015 700,1015 685,1015 669,1014 652,1013 634,1011 615,1010 596,1007 575,1005 554,1002 531,998 508,994 484,990 458,985 432,980 404,974 375,967 345,961 315,953 1518,942 1487,931 1458,921 1429,912 1402,903 1375,894 1350,886 1325,879 1302,872 1280,866 1258,860 1238,855 1219,850 1200,846 1182,842 1165,839 1149,836 1134,833 1119,831 1106,829 1093,828 1080,827 1068,826 1057,826 1047,826 1037,826 1028,827 1019,828 1011,829 1004,831 996,833 990,835 984,837 978,840 972,843 967,846 962,849 958,853 954,856 950,860 946,864 943,868 940,872 937,877 934,881 931,886 929,890 926,895 924,900 921,905 919,910 916,915 914,920 911,925 909,930 906,935 903,940 900,944 897,949 893,954 889,959 886,963 881,968 877,972 872,977 867,981 861,985 855,989 849,993 842,996 835,999 827,1003 819,1006 810,1008 801,1011 791,1013 780,1015 769,1017 757,1018 744,1019 731,1020 717,1021 702,1021 687,1021 671,1021 653,1020 635,1019 617,1017 597,1015 576,1013 554,1010 532,1007 508,1003 484,999 458,995 431,990 404,984 375,978 345,972 313,965 1520,955 1489,944 1460,934 1431,924 1404,914 1378,906 1352,897 1328,890 1305,883 1283,876 1262,870 1241,864 1222,859 1203,855 1186,850 1169,847 1153,843 1138,841 1123,838 1110,836 1097,835 1084,833 1073,832 1062,832 1052,832 1042,832 1033,832 1024,833 1016,834 1008,836 1001,837 995,839 988,842 983,844 977,847 972,850 967,853 963,856 959,860 955,863 951,867 948,871 945,875 942,880 939,884 936,889 934,893 931,898 929,903 926,908 924,912 921,917 919,922 916,927 913,932 910,937 907,942 904,947 901,952 898,957 894,962 890,966 885,971 881,975 876,980 871,984 865,988 859,992 853,996 846,1000 838,1003 830,1007 822,1010 813,1013 804,1015 793,1018 783,1020 771,1022 759,1024 747,1025 733,1026 719,1027 704,1027 688,1027 672,1027 655,1027 637,1026 617,1025 598,1023 577,1021 555,1018 532,1015 508,1012 483,1008 458,1004 431,1000 403,994 374,989 343,983 312,976 1522,969 1492,957 1462,947 1434,936 1407,927 1381,917 1355,909 1331,901 1308,893 1286,886 1265,880 1245,874 1226,869 1207,864 1190,859 1173,855 1157,852 1142,848 1128,846 1114,843 1101,841 1089,840 1077,839 1066,838 1056,838 1046,838 1037,838 1029,839 1021,839 1013,841 1006,842 1000,844 993,846 988,848 982,851 977,854 972,857 968,860 964,863 960,867 956,871 953,874 950,879 947,883 944,887 941,892 939,896 936,901 933,906 931,910 928,915 926,920 923,925 921,930 918,935 915,940 912,945 909,950 905,955 902,960 898,965 894,969 889,974 885,979 880,983 874,987 869,992 863,996 856,1000 849,1004 841,1007 833,1011 825,1014 816,1017 806,1020 796,1022 785,1025 774,1027 761,1029 749,1030 735,1032 721,1033 706,1033 690,1034 673,1034 656,1034 637,1033 618,1032 598,1031 577,1029 555,1027 532,1024 508,1021 483,1018 457,1014 430,1009 401,1005 372,999 342,993 310,987 1525,983 1494,971 1465,960 1437,949 1410,939 1384,929 1359,921 1335,912 1312,904 1290,897 1269,890 1249,884 1230,878 1211,873 1194,868 1177,864 1161,860 1146,856 1132,853 1118,851 1106,849 1093,847 1082,846 1071,845 1061,844 1051,844 1042,844 1034,844 1026,845 1018,846 1011,847 1005,849 998,851 993,853 987,855 982,858 977,861 973,864 969,867 965,870 962,874 958,878 955,882 952,886 949,890 946,895 943,899 941,904 938,908 936,913 933,918 930,923 928,928 925,933 922,938 919,943 916,948 913,953 910,958 906,963 902,968 898,972 893,977 889,982 883,986 878,991 872,995 866,999 859,1004 852,1007 844,1011 836,1015 828,1018 818,1021 809,1024 798,1027 787,1030 775,1032 763,1034 750,1036 736,1037 722,1039 707,1040 691,1040 674,1041 656,1040 638,1040 618,1039 598,1038 577,1037 554,1035 531,1033 507,1030 482,1027 456,1023 428,1019 400,1015 370,1010 339,1004 308,998 1528,997 1497,985 1468,973 1440,962 1413,952 1387,942 1362,933 1339,924 1316,916 1294,908 1273,901 1253,894 1234,888 1216,882 1198,877 1182,873 1166,868 1151,865 1137,861 1123,859 1110,856 1098,854 1087,853 1076,851 1066,850 1056,850 1047,850 1039,850 1031,850 1023,851 1016,852 1010,854 1003,855 998,857 992,860 987,862 983,865 978,868 974,871 970,874 967,878 963,882 960,885 957,889 954,894 951,898 948,902 946,907 943,912 940,916 938,921 935,926 932,931 930,936 927,941 924,946 920,951 917,956 914,961 910,966 906,971 902,976 897,980 892,985 887,990 881,994 875,999 869,1003 862,1007 855,1011 847,1015 839,1019 830,1023 821,1026 811,1029 800,1032 789,1035 777,1037 765,1040 751,1042 738,1043 723,1045 707,1046 691,1047 674,1047 656,1047 638,1047 618,1047 598,1046 576,1045 554,1043 530,1041 506,1039 480,1036 454,1033 426,1029 398,1025 368,1020 337,1015 305,1010 1531,1012 1501,999 1471,987 1444,976 1417,965 1391,955 1366,945 1342,936 1320,927 1298,919 1277,912 1257,905 1238,898 1220,892 1203,887 1186,882 1170,877 1156,873 1141,870 1128,867 1115,864 1103,862 1092,860 1081,858 1071,857 1061,856 1052,856 1044,856 1036,856 1028,857 1021,858 1015,859 1009,861 1003,862 997,864 992,867 988,869 983,872 979,875 975,878 972,882 968,885 965,889 962,893 959,897 956,901 953,906 950,910 948,915 945,920 942,924 940,929 937,934 934,939 931,944 928,949 925,954 921,959 917,964 914,969 909,974 905,979 900,984 895,989 890,993 884,998 878,1003 872,1007 865,1011 857,1015 849,1019 841,1023 832,1027 823,1031 812,1034 802,1037 790,1040 778,1043 766,1045 752,1047 738,1049 724,1051 708,1052 692,1053 674,1054 656,1054 637,1054 617,1054 597,1054 575,1053 552,1051 529,1050 504,1048 478,1045 452,1042 424,1039 395,1035 365,1031 334,1026 301,1021 1534,1027 1504,1014 1475,1002 1447,990 1421,978 1395,968 1370,958 1347,948 1324,939 1302,931 1281,923 1262,916 1243,909 1225,903 1207,897 1191,891 1175,887 1160,882 1146,878 1133,875 1120,872 1108,870 1097,867 1086,866 1076,864 1066,863 1057,863 1049,862 1041,862 1033,863 1026,864 1020,865 1014,866 1008,868 1003,870 998,872 993,874 988,877 984,880 980,883 977,886 973,890 970,893 967,897 964,901 961,905 958,910 955,914 952,918 949,923 947,928 944,933 941,938 938,942 935,947 932,952 928,957 925,963 921,968 917,973 913,978 908,983 904,987 899,992 893,997 887,1002 881,1006 874,1011 867,1015 860,1020 852,1024 843,1028 834,1032 824,1035 814,1039 803,1042 792,1045 779,1048 767,1051 753,1053 739,1055 724,1057 708,1058 691,1060 674,1061 656,1061 637,1062 617,1062 596,1061 574,1061 551,1060 527,1058 502,1057 476,1054 449,1052 421,1049 392,1045 362,1041 330,1037 298,1032 1538,1043 1508,1029 1479,1016 1451,1004 1425,992 1399,981 1375,971 1351,961 1328,952 1307,943 1286,935 1266,927 1247,920 1229,913 1212,907 1196,901 1180,896 1165,892 1151,888 1138,884 1125,881 1113,878 1102,875 1091,873 1081,872 1072,870 1063,870 1054,869 1046,869 1039,869 1032,870 1025,871 1019,872 1013,873 1008,875 1003,877 998,879 993,882 989,884 985,887 982,891 978,894 975,897 971,901 968,905 965,909 962,913 960,918 957,922 954,927 951,932 948,936 945,941 942,946 939,951 936,956 932,961 929,966 925,971 921,976 916,981 912,986 907,991 901,996 896,1001 890,1006 883,1011 877,1015 869,1020 862,1024 853,1028 845,1032 835,1036 826,1040 815,1044 804,1047 792,1050 780,1053 767,1056 753,1059 739,1061 724,1063 708,1065 691,1066 673,1068 655,1069 635,1069 615,1069 594,1069 572,1069 549,1068 525,1067 500,1066 473,1064 446,1061 418,1059 388,1055 358,1052 326,1048 293,1043 1542,1059 1512,1045 1483,1032 1456,1019 1429,1007 1404,995 1379,984 1356,974 1333,964 1311,955 1291,947 1271,939 1252,931 1234,924 1217,918 1201,912 1185,906 1170,901 1156,897 1143,893 1130,889 1119,886 1107,884 1097,881 1086,879 1077,878 1068,877 1059,876 1051,876 1044,876 1037,876 1030,877 1024,878 1018,879 1013,881 1008,882 1003,885 999,887 994,889 990,892 986,895 983,899 979,902 976,906 973,910 970,914 967,918 964,922 961,926 958,931 955,936 952,940 949,945 946,950 943,955 939,960 936,965 932,970 928,975 924,980 919,985 915,990 910,995 904,1000 898,1005 892,1010 886,1015 879,1020 871,1024 863,1029 855,1033 846,1037 837,1041 827,1045 816,1049 805,1053 793,1056 780,1059 767,1062 753,1065 739,1067 723,1070 707,1072 690,1073 672,1075 653,1076 634,1077 613,1077 592,1077 570,1077 546,1077 522,1076 497,1075 470,1073 443,1071 414,1069 384,1066 354,1062 322,1059 288,1055 1546,1076 1516,1061 1488,1047 1460,1034 1434,1022 1408,1010 1384,998 1360,988 1338,978 1316,968 1296,959 1276,951 1257,943 1239,936 1222,929 1206,923 1191,917 1176,912 1162,907 1148,903 1136,899 1124,895 1113,892 1102,890 1092,888 1082,886 1073,885 1065,884 1057,883 1049,883 1042,883 1036,883 1029,884 1024,885 1018,887 1013,888 1008,890 1004,892 999,895 995,898 991,900 988,904 984,907 981,910 978,914 974,918 971,922 968,926 965,931 962,935 959,940 956,944 953,949 950,954 946,959 943,964 939,969 935,974 931,979 927,984 922,989 917,994 912,1000 907,1005 901,1010 894,1014 888,1019 881,1024 873,1029 865,1033 856,1038 847,1042 838,1046 828,1050 817,1054 805,1058 793,1062 780,1065 767,1068 753,1071 738,1074 722,1076 706,1078 689,1080 671,1082 652,1083 632,1084 611,1085 589,1086 567,1086 543,1085 519,1085 493,1084 466,1083 439,1081 410,1079 380,1076 349,1073 316,1070 283,1066 1551,1093 1521,1078 1492,1064 1465,1050 1438,1037 1413,1025 1389,1013 1365,1002 1343,991 1321,981 1301,972 1281,963 1263,955 1245,948 1228,940 1211,934 1196,928 1181,922 1167,917 1154,912 1141,908 1129,905 1118,901 1107,899 1097,896 1088,894 1079,893 1070,891 1062,891 1055,890 1048,890 1041,890 1035,891 1029,892 1023,893 1018,894 1013,896 1009,898 1004,901 1000,903 996,906 992,909 989,912 985,916 982,919 979,923 976,927 973,931 969,935 966,940 963,944 960,949 957,954 953,959 950,963 946,968 942,973 938,978 934,984 930,989 925,994 920,999 914,1004 909,1009 903,1014 896,1019 889,1024 882,1029 874,1034 866,1038 857,1043 848,1047 838,1052 828,1056 817,1060 805,1064 793,1067 780,1071 766,1074 752,1077 737,1080 721,1083 704,1085 687,1087 669,1089 650,1091 629,1092 608,1093 587,1094 564,1094 540,1094 515,1094 489,1093 462,1092 434,1091 405,1089 375,1087 343,1084 311,1081 277,1078 1555,1110 1526,1095 1497,1080 1470,1066 1443,1053 1418,1040 1394,1028 1370,1016 1348,1006 1327,995 1306,986 1287,976 1268,968 1250,960 1233,952 1217,946 1201,939 1187,933 1173,928 1159,923 1147,918 1135,915 1123,911 1113,908 1103,905 1093,903 1084,901 1076,900 1068,899 1060,898 1053,898 1046,898 1040,898 1034,899 1028,900 1023,901 1018,903 1013,905 1009,907 1005,909 1001,912 997,915 993,918 990,921 986,925 983,928 980,932 977,936 973,940 970,945 967,949 964,954 960,958 957,963 953,968 949,973 945,978 941,983 937,988 932,993 927,999 922,1004 917,1009 911,1014 905,1019 898,1024 891,1029 883,1034 875,1039 867,1044 858,1048 849,1053 839,1057 828,1062 817,1066 805,1070 793,1074 779,1077 766,1081 751,1084 736,1087 719,1090 703,1092 685,1095 666,1097 647,1099 627,1100 605,1102 583,1102 560,1103 536,1103 511,1103 485,1103 457,1102 429,1101 400,1099 369,1098 337,1095 305,1092 271,1089 1560,1128 1531,1113 1502,1097 1475,1083 1449,1069 1423,1056 1399,1043 1376,1032 1354,1020 1332,1010 1312,1000 1292,990 1273,981 1256,973 1239,965 1222,958 1207,951 1192,945 1178,939 1165,934 1152,929 1140,925 1129,921 1118,918 1108,915 1099,912 1089,910 1081,908 1073,907 1065,906 1058,906 1051,906 1045,906 1039,906 1033,907 1028,908 1023,910 1018,911 1014,913 1010,916 1005,918 1002,921 998,924 994,927 991,930 987,934 984,938 981,942 977,946 974,950 971,954 967,959 964,964 960,968 956,973 952,978 948,983 944,988 939,993 935,998 929,1004 924,1009 918,1014 912,1019 906,1024 899,1029 892,1034 884,1039 876,1044 868,1049 858,1054 849,1059 839,1063 828,1068 816,1072 804,1076 792,1080 778,1084 764,1087 749,1091 734,1094 717,1097 700,1100 682,1102 664,1105 644,1107 623,1109 602,1110 579,1111 556,1112 532,1113 506,1113 480,1113 452,1112 424,1111 394,1110 363,1108 331,1106 298,1104 264,1101 1565,1147 1536,1131 1508,1115 1480,1100 1454,1086 1429,1072 1405,1060 1381,1047 1359,1036 1338,1024 1317,1014 1298,1004 1279,995 1261,986 1244,978 1228,970 1213,963 1198,957 1184,951 1170,945 1158,940 1146,936 1135,932 1124,928 1114,925 1104,922 1095,920 1086,918 1078,916 1071,915 1063,914 1057,914 1050,914 1044,914 1038,915 1033,916 1028,917 1023,918 1019,920 1014,922 1010,925 1006,927 1002,930 998,933 995,936 991,940 988,944 984,948 981,952 977,956 974,960 970,965 967,969 963,974 959,979 955,984 951,989 946,994 942,999 937,1004 931,1009 926,1014 920,1019 914,1025 907,1030 900,1035 893,1040 885,1045 877,1050 868,1055 858,1060 849,1065 838,1069 827,1074 816,1078 803,1083 790,1087 777,1091 762,1094 747,1098 732,1101 715,1105 698,1108 679,1110 660,1113 640,1115 619,1117 598,1119 575,1120 551,1121 527,1122 501,1122 474,1123 446,1122 418,1122 388,1121 356,1120 324,1118 291,1116 256,1113 1571,1166 1541,1150 1513,1134 1486,1118 1460,1104 1434,1090 1410,1076 1387,1063 1365,1051 1343,1040 1323,1029 1303,1019 1285,1009 1267,1000 1250,992 1234,984 1218,976 1203,969 1189,963 1176,957 1164,952 1152,947 1140,943 1129,939 1119,935 1109,932 1100,930 1092,927 1084,926 1076,924 1069,923 1062,923 1055,922 1049,922 1043,923 1038,924 1033,925 1028,926 1023,928 1019,930 1014,932 1010,934 1006,937 1003,940 999,943 995,946 992,950 988,954 984,958 981,962 977,966 973,971 970,975 966,980 962,985 957,989 953,994 948,999 944,1004 938,1010 933,1015 927,1020 921,1025 915,1030 908,1036 901,1041 893,1046 885,1051 877,1056 868,1061 858,1066 848,1071 837,1076 826,1080 814,1085 802,1089 789,1094 775,1098 760,1102 745,1105 729,1109 712,1112 694,1116 676,1118 657,1121 636,1124 615,1126 593,1128 570,1129 546,1131 521,1132 495,1132 468,1133 440,1133 411,1133 381,1132 349,1131 317,1130 283,1128 248,1125 1576,1186 1547,1169 1519,1153 1491,1137 1465,1122 1440,1107 1416,1093 1393,1080 1371,1068 1349,1056 1329,1045 1309,1034 1291,1024 1273,1015 1256,1006 1239,997 1224,990 1209,982 1195,976 1182,970 1169,964 1157,959 1146,954 1135,950 1125,946 1115,943 1106,940 1097,938 1089,935 1081,934 1074,933 1067,932 1060,931 1054,931 1048,931 1043,932 1037,933 1032,934 1028,936 1023,937 1019,939 1014,942 1010,944 1006,947 1003,950 999,953 995,957 991,961 988,964 984,968 980,973 976,977 972,981 968,986 964,991 960,996 955,1001 950,1006 945,1011 940,1016 934,1021 928,1026 922,1031 916,1037 909,1042 901,1047 893,1052 885,1058 876,1063 867,1068 857,1073 847,1078 836,1083 825,1087 813,1092 800,1097 787,1101 772,1105 758,1109 742,1113 726,1117 709,1120 691,1124 672,1127 652,1130 632,1132 610,1135 588,1137 565,1139 541,1140 515,1142 489,1143 462,1143 433,1144 404,1144 373,1143 341,1143 308,1141 274,1140 239,1138 1582,1207 1553,1189 1524,1172 1497,1156 1471,1140 1446,1126 1422,1111 1399,1098 1376,1085 1355,1073 1335,1061 1315,1050 1296,1040 1279,1030 1262,1020 1245,1012 1230,1004 1215,996 1201,989 1188,983 1175,977 1163,971 1151,966 1140,962 1130,958 1120,954 1111,951 1102,948 1094,946 1086,944 1079,943 1072,942 1065,941 1059,941 1053,941 1047,941 1042,942 1037,943 1032,944 1027,946 1023,947 1018,950 1014,952 1010,955 1006,958 1002,961 998,964 995,968 991,971 987,975 983,980 979,984 975,988 971,993 966,997 962,1002 957,1007 952,1012 947,1017 941,1022 935,1027 929,1033 923,1038 916,1043 909,1049 901,1054 893,1059 885,1064 876,1070 866,1075 856,1080 846,1085 835,1090 823,1095 811,1099 798,1104 784,1109 770,1113 755,1117 739,1121 722,1125 705,1129 687,1132 668,1136 648,1139 627,1142 605,1144 583,1147 559,1149 534,1150 509,1152 482,1153 455,1154 426,1155 396,1155 365,1155 333,1154 300,1154 265,1152 230,1151 1588,1228 1559,1210 1530,1193 1503,1176 1477,1160 1452,1144 1428,1130 1405,1116 1382,1103 1361,1090 1341,1078 1321,1066 1302,1056 1285,1045 1268,1036 1251,1027 1236,1018 1221,1010 1207,1003 1193,996 1181,990 1168,984 1157,979 1146,974 1136,970 1126,966 1117,962 1108,960 1099,957 1091,955 1084,953 1077,952 1070,951 1064,950 1058,950 1052,950 1046,951 1041,952 1036,953 1031,954 1027,956 1022,958 1018,960 1014,963 1010,966 1006,969 1002,972 998,975 994,979 990,983 985,987 981,991 977,995 973,1000 968,1005 963,1009 958,1014 953,1019 948,1024 942,1029 936,1034 930,1040 923,1045 916,1050 909,1056 901,1061 893,1066 884,1072 875,1077 865,1082 855,1087 844,1092 833,1097 821,1102 808,1107 795,1112 781,1117 766,1121 751,1126 735,1130 718,1134 700,1138 682,1141 663,1145 642,1148 621,1151 599,1154 576,1157 553,1159 528,1161 502,1163 475,1164 447,1165 418,1166 388,1167 356,1167 324,1167 290,1166 256,1165 220,1164 1594,1250 1565,1231 1537,1214 1509,1196 1483,1180 1458,1164 1434,1149 1411,1135 1389,1121 1367,1108 1347,1095 1327,1084 1309,1072 1291,1062 1274,1052 1257,1042 1242,1034 1227,1025 1213,1018 1199,1011 1186,1004 1174,998 1163,992 1152,987 1141,982 1131,978 1122,975 1113,971 1104,969 1096,966 1089,964 1082,963 1075,962 1068,961 1062,960 1056,960 1051,961 1045,961 1040,962 1035,964 1031,965 1026,967 1022,969 1017,971 1013,974 1009,977 1005,980 1000,984 996,987 992,991 988,995 983,999 979,1003 974,1008 970,1012 965,1017 960,1022 954,1027 949,1032 943,1037 937,1042 930,1047 923,1052 916,1058 908,1063 900,1069 892,1074 883,1079 873,1085 864,1090 853,1095 842,1100 830,1105 818,1111 805,1115 792,1120 778,1125 763,1130 747,1134 731,1139 714,1143 696,1147 677,1151 657,1154 637,1158 615,1161 593,1164 570,1167 546,1169 520,1172 494,1174 467,1175 439,1177 409,1178 379,1179 347,1179 314,1179 280,1179 245,1178 209,1177 1600,1273 1571,1254 1543,1235 1516,1218 1489,1201 1464,1184 1440,1169 1417,1154 1395,1140 1373,1126 1353,1114 1333,1101 1315,1090 1297,1079 1280,1068 1263,1059 1248,1050 1233,1041 1218,1033 1205,1025 1192,1018 1180,1012 1168,1006 1157,1001 1147,996 1137,991 1127,987 1118,984 1110,981 1101,978 1094,976 1086,974 1079,973 1073,972 1067,971 1061,971 1055,971 1049,971 1044,972 1039,973 1034,975 1030,976 1025,978 1020,981 1016,983 1012,986 1007,989 1003,992 999,996 994,999 990,1003 985,1007 981,1011 976,1016 971,1020 966,1025 960,1030 955,1035 949,1040 943,1045 937,1050 930,1055 923,1060 915,1066 908,1071 899,1077 891,1082 881,1087 872,1093 861,1098 851,1103 839,1109 828,1114 815,1119 802,1124 788,1129 774,1134 759,1139 743,1143 726,1148 709,1152 690,1156 671,1160 651,1164 631,1168 609,1171 586,1174 563,1177 538,1180 513,1183 486,1185 459,1187 430,1188 400,1190 369,1191 337,1192 304,1192 270,1192 234,1192 198,1191 1607,1296 1577,1276 1549,1258 1522,1240 1496,1222 1471,1205 1446,1189 1423,1174 1401,1160 1380,1146 1359,1132 1339,1120 1321,1108 1303,1097 1286,1086 1269,1076 1253,1066 1238,1057 1224,1049 1211,1041 1198,1034 1185,1027 1174,1021 1162,1015 1152,1010 1142,1005 1132,1001 1123,997 1114,994 1106,991 1098,988 1091,986 1084,985 1077,983 1071,983 1065,982 1059,982 1053,982 1048,983 1043,984 1038,985 1033,987 1028,988 1023,990 1019,993 1014,995 1010,998 1005,1001 1001,1005 996,1008 992,1012 987,1016 982,1020 977,1025 972,1029 967,1034 961,1038 955,1043 949,1048 943,1053 936,1058 929,1064 922,1069 914,1074 906,1080 898,1085 889,1090 879,1096 869,1101 859,1107 848,1112 837,1118 824,1123 812,1128 798,1133 784,1138 769,1143 754,1148 738,1153 721,1158 703,1162 684,1166 665,1171 645,1175 624,1178 602,1182 579,1185 555,1189 530,1191 504,1194 477,1197 449,1199 420,1201 390,1202 359,1204 327,1205 293,1205 259,1206 223,1205 186,1205 1613,1320 1584,1300 1556,1281 1528,1262 1502,1244 1477,1227 1453,1211 1430,1195 1407,1180 1386,1166 1365,1152 1346,1139 1327,1127 1309,1115 1292,1104 1275,1093 1259,1083 1244,1074 1230,1065 1216,1057 1203,1050 1191,1043 1179,1036 1168,1030 1157,1024 1147,1019 1137,1015 1128,1011 1119,1007 1111,1004 1103,1001 1096,999 1088,997 1082,996 1075,995 1069,994 1063,994 1057,994 1052,994 1046,995 1041,996 1036,997 1031,999 1026,1001 1021,1003 1017,1006 1012,1008 1007,1011 1003,1015 998,1018 993,1022 988,1026 983,1030 978,1034 973,1038 967,1043 961,1047 955,1052 949,1057 943,1062 936,1067 929,1073 921,1078 913,1083 905,1089 896,1094 887,1100 877,1105 867,1110 856,1116 845,1121 833,1127 821,1132 808,1138 794,1143 780,1148 765,1153 749,1158 732,1163 715,1168 697,1172 678,1177 658,1181 638,1185 616,1189 594,1193 571,1197 547,1200 521,1203 495,1206 468,1209 440,1211 410,1213 380,1215 348,1217 316,1218 282,1219 247,1219 211,1220 173,1220 1620,1345 1590,1325 1562,1305 1535,1286 1509,1267 1483,1250 1459,1233 1436,1217 1414,1201 1392,1187 1372,1172 1352,1159 1333,1146 1315,1134 1298,1123 1281,1112 1265,1101 1250,1092 1236,1083 1222,1074 1209,1066 1196,1059 1184,1052 1173,1046 1162,1040 1152,1034 1142,1030 1133,1025 1124,1021 1116,1018 1108,1015 1100,1012 1093,1010 1086,1009 1079,1007 1073,1006 1067,1006 1061,1006 1055,1006 1049,1007 1044,1007 1039,1009 1034,1010 1029,1012 1024,1014 1019,1016 1014,1019 1009,1022 1004,1025 999,1028 994,1032 989,1036 984,1040 979,1044 973,1048 967,1053 961,1057 955,1062 949,1067 942,1072 935,1077 927,1082 920,1087 911,1093 903,1098 894,1104 884,1109 874,1115 864,1120 853,1126 841,1131 829,1137 817,1142 803,1148 789,1153 775,1158 759,1163 743,1168 726,1173 709,1178 690,1183 671,1188 651,1192 630,1197 609,1201 586,1205 562,1208 538,1212 512,1215 486,1218 458,1221 430,1224 400,1226 369,1228 337,1230 304,1232 270,1233 234,1234 198,1234 160,1234 1626,1371 1597,1350 1569,1330 1541,1310 1515,1291 1490,1273 1466,1256 1442,1239 1420,1223 1399,1208 1378,1194 1358,1180 1339,1167 1321,1154 1304,1142 1287,1131 1271,1120 1256,1110 1241,1101 1228,1092 1214,1084 1202,1076 1190,1069 1178,1062 1167,1056 1157,1050 1147,1045 1138,1040 1129,1036 1120,1033 1112,1029 1104,1027 1097,1024 1090,1022 1083,1021 1076,1020 1070,1019 1064,1019 1058,1019 1052,1019 1047,1020 1042,1021 1036,1022 1031,1024 1026,1025 1021,1028 1016,1030 1011,1033 1006,1036 1001,1039 995,1043 990,1046 984,1050 979,1054 973,1058 967,1063 961,1067 954,1072 948,1077 941,1082 933,1087 926,1092 918,1098 909,1103 900,1108 891,1114 881,1119 871,1125 860,1130 849,1136 837,1141 825,1147 812,1153 798,1158 784,1163 769,1169 753,1174 737,1179 720,1184 702,1190 683,1194 664,1199 643,1204 622,1208 600,1213 577,1217 553,1221 528,1224 502,1228 476,1231 448,1234 419,1237 389,1240 357,1242 325,1244 292,1246 257,1247 221,1248 184,1249 146,1250 1633,1397 1604,1376 1575,1355 1548,1335 1522,1316 1497,1297 1472,1279 1449,1262 1426,1246 1405,1230 1384,1216 1364,1201 1345,1188 1327,1175 1310,1162 1293,1151 1277,1140 1262,1129 1247,1120 1233,1110 1220,1102 1207,1094 1195,1086 1183,1079 1172,1073 1162,1067 1152,1061 1142,1056 1133,1052 1125,1048 1116,1044 1108,1041 1101,1039 1093,1037 1086,1035 1080,1033 1073,1033 1067,1032 1061,1032 1055,1032 1050,1032 1044,1033 1039,1034 1033,1036 1028,1038 1023,1040 1017,1042 1012,1045 1007,1048 1001,1051 996,1054 990,1058 985,1061 979,1065 973,1069 967,1074 960,1078 953,1083 946,1088 939,1093 932,1098 924,1103 915,1108 907,1114 898,1119 888,1124 878,1130 867,1136 856,1141 845,1147 833,1152 820,1158 807,1164 793,1169 778,1175 763,1180 747,1185 730,1191 713,1196 695,1201 676,1206 656,1211 635,1216 614,1221 591,1225 568,1229 544,1233 518,1237 492,1241 465,1245 436,1248 407,1251 377,1254 345,1256 312,1259 279,1261 244,1262 207,1264 170,1265 131,1266 1640,1425 1610,1403 1582,1382 1555,1361 1529,1341 1503,1322 1479,1304 1455,1287 1433,1270 1411,1254 1391,1238 1371,1224 1351,1210 1333,1196 1316,1184 1299,1172 1283,1160 1267,1149 1253,1139 1239,1130 1225,1121 1212,1112 1200,1104 1189,1097 1177,1090 1167,1084 1157,1078 1147,1073 1138,1068 1129,1064 1120,1060 1112,1057 1104,1054 1097,1052 1090,1050 1083,1048 1076,1047 1070,1046 1064,1046 1058,1046 1052,1046 1046,1047 1041,1048 1035,1049 1029,1050 1024,1052 1018,1055 1013,1057 1007,1060 1002,1063 996,1066 990,1069 985,1073 978,1077 972,1081 966,1085 959,1090 952,1094 945,1099 937,1104 929,1109 921,1114 913,1120 904,1125 894,1130 884,1136 874,1141 863,1147 852,1153 840,1158 828,1164 815,1169 801,1175 787,1181 772,1186 756,1192 740,1197 723,1203 705,1208 687,1213 667,1219 647,1224 626,1229 604,1233 582,1238 558,1242 533,1247 508,1251 481,1255 453,1258 425,1262 395,1265 364,1268 332,1271 299,1274 265,1276 229,1278 193,1279 155,1281 116,1282 1647,1453 1617,1431 1589,1409 1562,1388 1535,1368 1510,1348 1485,1329 1462,1311 1439,1294 1418,1278 1397,1262 1377,1247 1358,1232 1339,1219 1322,1206 1305,1193 1288,1181 1273,1170 1258,1160 1244,1150 1231,1140 1218,1132 1205,1123 1193,1116 1182,1109 1171,1102 1161,1096 1151,1090 1142,1085 1133,1081 1124,1077 1116,1073 1108,1070 1100,1067 1093,1065 1086,1063 1079,1062 1073,1061 1066,1060 1060,1060 1054,1060 1048,1061 1042,1061 1036,1063 1031,1064 1025,1066 1019,1068 1014,1070 1008,1073 1002,1076 996,1079 990,1082 984,1086 978,1090 971,1094 964,1098 958,1102 950,1107 943,1111 935,1116 927,1121 918,1126 910,1131 900,1137 891,1142 881,1148 870,1153 859,1159 847,1165 835,1170 822,1176 809,1182 795,1187 781,1193 765,1199 749,1204 733,1210 715,1215 697,1221 678,1226 659,1232 638,1237 617,1242 595,1247 571,1251 547,1256 522,1261 496,1265 469,1269 441,1273 412,1277 382,1280 351,1283 319,1286 285,1289 250,1291 215,1294 178,1296 139,1297 100,1299 1654,1482 1624,1459 1596,1437 1568,1416 1542,1395 1516,1375 1492,1356 1468,1337 1446,1320 1424,1303 1403,1286 1383,1271 1364,1256 1345,1242 1327,1228 1310,1216 1294,1203 1279,1192 1264,1181 1249,1171 1236,1161 1223,1152 1210,1143 1198,1135 1187,1128 1176,1121 1165,1115 1155,1109 1146,1103 1137,1099 1128,1094 1119,1090 1111,1087 1104,1084 1096,1082 1089,1080 1082,1078 1075,1077 1069,1076 1062,1075 1056,1075 1050,1075 1044,1076 1038,1077 1032,1078 1026,1080 1020,1082 1014,1084 1008,1086 1002,1089 996,1092 990,1095 983,1099 977,1103 970,1107 963,1111 956,1115 948,1119 940,1124 932,1129 924,1134 915,1139 906,1144 896,1149 887,1155 876,1160 865,1166 854,1171 842,1177 829,1183 816,1189 803,1194 788,1200 774,1206 758,1212 742,1217 725,1223 707,1229 689,1234 669,1240 649,1245 628,1250 607,1256 584,1261 561,1266 536,1270 511,1275 484,1279 457,1284 429,1288 399,1292 369,1295 337,1299 304,1302 270,1305 235,1308 199,1310 162,1312 123,1314 83,1316 1661,1513 1631,1489 1603,1466 1575,1444 1549,1423 1523,1403 1499,1383 1475,1364 1452,1346 1430,1328 1409,1312 1389,1296 1370,1281 1351,1266 1333,1252 1316,1239 1300,1226 1284,1214 1269,1203 1255,1192 1241,1182 1228,1173 1215,1164 1203,1156 1191,1148 1180,1141 1170,1134 1159,1128 1150,1122 1140,1117 1131,1112 1123,1108 1115,1105 1107,1101 1099,1099 1091,1096 1084,1095 1077,1093 1071,1092 1064,1091 1057,1091 1051,1091 1045,1092 1039,1092 1032,1093 1026,1095 1020,1097 1014,1099 1008,1101 1001,1104 995,1106 989,1110 982,1113 975,1117 968,1120 961,1124 953,1129 946,1133 938,1138 929,1142 921,1147 911,1152 902,1157 892,1163 882,1168 871,1174 860,1179 848,1185 836,1190 823,1196 810,1202 796,1208 781,1214 766,1219 750,1225 734,1231 716,1237 698,1242 679,1248 660,1254 639,1259 618,1265 596,1270 573,1275 549,1280 524,1285 499,1290 472,1295 444,1299 415,1303 385,1307 354,1311 322,1315 289,1318 255,1322 219,1325 183,1327 145,1330 106,1332 65,1334 1668,1544 1638,1519 1610,1496 1582,1474 1555,1452 1530,1431 1505,1411 1481,1392 1459,1373 1437,1355 1415,1338 1395,1322 1376,1306 1357,1291 1339,1277 1322,1263 1305,1250 1289,1238 1274,1226 1260,1215 1246,1204 1232,1195 1220,1185 1207,1177 1196,1169 1184,1161 1174,1154 1163,1148 1153,1142 1144,1136 1135,1131 1126,1127 1117,1123 1109,1120 1101,1117 1094,1114 1086,1112 1079,1110 1072,1109 1065,1108 1059,1108 1052,1107 1046,1108 1039,1108 1033,1109 1026,1111 1020,1112 1014,1114 1007,1116 1001,1119 994,1121 987,1124 980,1128 973,1131 966,1135 958,1139 951,1143 943,1147 934,1152 926,1157 917,1161 907,1166 898,1171 887,1177 877,1182 866,1188 854,1193 842,1199 830,1204 817,1210 803,1216 789,1222 774,1228 758,1234 742,1239 725,1245 707,1251 689,1257 670,1263 650,1268 629,1274 607,1280 585,1285 561,1290 537,1296 512,1301 486,1306 458,1310 430,1315 401,1319 371,1324 339,1328 307,1332 273,1335 239,1339 203,1342 166,1345 127,1348 88,1350 47,1352 1675,1576 1645,1551 1616,1527 1589,1504 1562,1482 1536,1461 1512,1440 1488,1420 1465,1401 1443,1383 1422,1365 1401,1348 1381,1332 1363,1317 1345,1302 1327,1288 1311,1275 1295,1262 1279,1250 1265,1238 1250,1228 1237,1217 1224,1208 1212,1199 1200,1190 1188,1183 1177,1175 1167,1168 1157,1162 1147,1157 1138,1151 1129,1147 1120,1142 1112,1139 1104,1135 1096,1133 1088,1130 1081,1128 1074,1127 1067,1126 1060,1125 1053,1125 1046,1125 1040,1125 1033,1126 1026,1127 1020,1128 1013,1130 1006,1132 999,1135 993,1137 985,1140 978,1143 971,1147 963,1150 956,1154 947,1158 939,1162 931,1167 922,1171 912,1176 903,1181 893,1186 882,1192 871,1197 860,1202 848,1208 836,1214 823,1219 809,1225 795,1231 781,1237 765,1243 749,1249 733,1254 716,1260 698,1266 679,1272 659,1278 639,1284 618,1289 596,1295 573,1301 549,1306 524,1312 499,1317 472,1322 445,1327 416,1332 386,1336 356,1341 324,1345 291,1349 257,1353 222,1357 186,1360 148,1363 109,1366 69,1369 28,1371 1682,1609 1652,1584 1623,1559 1596,1536 1569,1513 1543,1491 1518,1470 1494,1450 1471,1430 1449,1411 1428,1393 1407,1376 1387,1360 1368,1344 1350,1329 1333,1314 1316,1300 1300,1287 1284,1275 1269,1263 1255,1252 1241,1241 1228,1231 1216,1222 1204,1213 1192,1205 1181,1197 1170,1190 1160,1184 1150,1178 1141,1172 1131,1167 1123,1163 1114,1159 1106,1155 1098,1152 1090,1149 1082,1147 1075,1146 1068,1144 1060,1143 1053,1143 1046,1143 1039,1143 1033,1143 1026,1144 1019,1146 1012,1147 1005,1149 998,1151 991,1154 983,1156 976,1159 968,1163 960,1166 952,1170 944,1174 935,1178 926,1183 917,1187 908,1192 898,1197 887,1202 876,1207 865,1212 853,1218 841,1223 829,1229 815,1235 802,1240 787,1246 772,1252 757,1258 740,1264 723,1270 706,1276 687,1282 668,1288 648,1294 627,1300 606,1306 583,1311 560,1317 536,1323 511,1328 485,1334 458,1339 430,1344 401,1349 371,1354 340,1358 308,1363 274,1367 240,1371 204,1375 168,1379 130,1382 90,1385 50,1388 8,1391 1689,1643 1659,1617 1630,1592 1602,1568 1575,1545 1550,1523 1525,1501 1500,1480 1477,1460 1455,1441 1433,1423 1413,1405 1393,1388 1374,1372 1355,1356 1338,1341 1321,1327 1305,1313 1289,1300 1274,1288 1260,1277 1246,1266 1232,1255 1220,1246 1207,1237 1196,1228 1184,1220 1173,1213 1163,1206 1153,1200 1143,1194 1134,1189 1125,1184 1116,1180 1108,1176 1099,1172 1091,1170 1083,1167 1076,1165 1068,1164 1061,1162 1053,1162 1046,1161 1039,1161 1032,1162 1025,1162 1018,1164 1010,1165 1003,1167 996,1169 988,1171 981,1174 973,1177 965,1180 957,1183 949,1187 940,1191 931,1195 922,1199 912,1204 902,1208 892,1213 881,1218 870,1223 859,1229 847,1234 834,1240 821,1245 807,1251 793,1257 779,1263 763,1269 747,1275 731,1281 713,1287 695,1293 676,1299 657,1305 637,1311 615,1317 593,1323 571,1328 547,1334 522,1340 497,1346 470,1351 443,1356 415,1362 385,1367 355,1372 323,1377 291,1381 257,1386 222,1390 186,1394 149,1398 110,1402 71,1405 30,1408 5,1411 1696,1678 1666,1652 1637,1626 1609,1602 1582,1578 1556,1555 1531,1533 1507,1512 1483,1491 1461,1472 1439,1453 1419,1435 1399,1417 1379,1400 1361,1384 1343,1369 1326,1354 1309,1341 1294,1327 1278,1315 1264,1303 1250,1291 1236,1281 1223,1271 1211,1261 1199,1252 1188,1244 1176,1236 1166,1229 1156,1223 1146,1216 1136,1211 1127,1206 1118,1201 1109,1197 1101,1194 1092,1191 1084,1188 1076,1186 1068,1184 1061,1182 1053,1182 1046,1181 1038,1181 1031,1181 1024,1182 1016,1182 1009,1184 1001,1185 993,1187 986,1189 978,1192 970,1195 962,1198 953,1201 944,1204 935,1208 926,1212 917,1217 907,1221 896,1226 886,1230 875,1235 863,1240 851,1246 839,1251 826,1257 813,1262 799,1268 784,1274 769,1280 754,1286 737,1292 720,1298 702,1304 684,1310 665,1316 645,1322 624,1328 603,1334 580,1340 557,1346 533,1352 508,1358 482,1364 455,1369 427,1375 399,1380 369,1386 338,1391 306,1396 273,1401 239,1405 203,1410 167,1414 129,1418 90,1422 50,1425 9,1429 5,1432 1703,1714 1673,1687 1644,1662 1616,1636 1589,1612 1562,1589 1537,1566 1513,1545 1489,1524 1467,1503 1445,1484 1424,1465 1404,1447 1385,1430 1366,1414 1348,1398 1331,1383 1314,1369 1298,1355 1283,1342 1268,1330 1254,1318 1240,1307 1227,1297 1214,1287 1202,1278 1190,1269 1179,1261 1168,1253 1158,1246 1148,1240 1138,1234 1128,1229 1119,1224 1110,1220 1101,1216 1093,1212 1085,1210 1076,1207 1068,1205 1061,1203 1053,1202 1045,1201 1037,1201 1030,1201 1022,1201 1014,1202 1006,1203 999,1205 991,1206 983,1208 974,1211 966,1213 958,1216 949,1220 940,1223 930,1227 921,1231 911,1235 901,1239 890,1244 879,1248 868,1253 856,1258 844,1264 831,1269 818,1274 804,1280 790,1286 775,1292 759,1297 743,1303 727,1310 709,1316 691,1322 672,1328 653,1334 632,1340 611,1346 589,1352 567,1359 543,1365 518,1371 493,1377 467,1382 439,1388 411,1394 382,1400 352,1405 320,1410 288,1415 254,1420 220,1425 184,1430 147,1434 109,1439 69,1443 29,1447 5,1450 5,1453 1710,1752 1680,1724 1650,1698 1622,1672 1595,1647 1569,1624 1543,1600 1519,1578 1495,1557 1473,1536 1451,1516 1430,1497 1409,1479 1390,1461 1371,1444 1353,1428 1335,1413 1318,1398 1302,1384 1287,1370 1272,1358 1257,1346 1244,1334 1230,1323 1217,1313 1205,1304 1193,1295 1182,1286 1171,1279 1160,1271 1149,1265 1139,1258 1130,1253 1120,1248 1111,1243 1102,1239 1093,1235 1085,1232 1076,1229 1068,1227 1060,1225 1052,1224 1044,1223 1036,1222 1028,1222 1020,1222 1012,1223 1004,1224 996,1225 987,1227 979,1228 971,1231 962,1233 953,1236 944,1239 935,1242 925,1246 915,1250 905,1254 894,1258 883,1263 872,1267 860,1272 848,1277 836,1282 823,1288 809,1293 795,1299 780,1304 765,1310 749,1316 733,1322 715,1328 698,1334 679,1340 660,1347 640,1353 619,1359 598,1365 575,1372 552,1378 528,1384 503,1390 477,1396 451,1402 423,1408 394,1414 364,1420 334,1425 302,1431 269,1436 235,1441 200,1446 164,1451 126,1456 88,1460 48,1464 7,1468 5,1472 5,1476 1717,1790 1686,1762 1657,1735 1629,1709 1601,1684 1575,1659 1550,1636 1525,1613 1501,1591 1478,1570 1456,1550 1435,1530 1414,1511 1395,1493 1376,1476 1357,1459 1340,1443 1323,1428 1306,1414 1291,1400 1276,1387 1261,1374 1247,1363 1233,1351 1220,1341 1208,1331 1196,1322 1184,1313 1173,1305 1162,1297 1151,1290 1141,1284 1131,1278 1121,1272 1112,1267 1102,1263 1093,1259 1084,1256 1076,1253 1067,1250 1059,1248 1050,1247 1042,1245 1034,1245 1026,1244 1017,1244 1009,1245 1001,1245 992,1246 984,1248 975,1249 966,1252 957,1254 948,1257 939,1259 929,1263 919,1266 909,1270 898,1274 887,1278 876,1282 864,1287 852,1292 840,1297 827,1302 813,1307 799,1313 785,1318 770,1324 754,1330 738,1336 721,1342 704,1348 685,1354 667,1360 647,1366 627,1373 605,1379 583,1385 561,1391 537,1398 513,1404 487,1410 461,1416 434,1423 406,1429 376,1434 346,1440 315,1446 283,1452 249,1457 215,1463 179,1468 143,1473 105,1478 66,1482 25,1487 5,1491 5,1495 5,1499 1724,1795 1693,1795 1664,1774 1635,1747 1608,1721 1581,1696 1556,1672 1531,1649 1507,1626 1484,1605 1462,1584 1440,1564 1419,1545 1400,1526 1380,1508 1362,1491 1344,1475 1327,1460 1310,1445 1294,1430 1279,1417 1264,1404 1250,1392 1236,1380 1223,1369 1210,1359 1198,1350 1186,1340 1174,1332 1163,1324 1152,1317 1142,1310 1131,1304 1121,1298 1112,1293 1102,1288 1093,1284 1084,1280 1075,1277 1066,1274 1057,1272 1049,1270 1040,1269 1032,1268 1023,1267 1014,1267 1006,1267 997,1268 988,1269 980,1270 971,1271 962,1273 952,1276 943,1278 933,1281 923,1284 913,1287 902,1291 891,1295 880,1299 868,1303 856,1308 844,1312 831,1317 818,1322 804,1328 789,1333 775,1339 759,1344 743,1350 726,1356 709,1362 691,1368 673,1374 653,1381 633,1387 612,1393 591,1400 569,1406 545,1412 521,1419 496,1425 471,1431 444,1438 416,1444 388,1450 358,1456 327,1462 296,1468 263,1474 229,1479 194,1485 158,1490 121,1495 82,1500 43,1505 5,1510 5,1514 5,1519 5,1523 1730,1795 1700,1795 1670,1795 1642,1786 1614,1760 1587,1734 1561,1710 1536,1686 1512,1663 1489,1641 1467,1620 1445,1599 1424,1579 1404,1560 1385,1542 1366,1525 1348,1508 1331,1492 1314,1477 1298,1462 1282,1448 1267,1435 1253,1422 1239,1410 1225,1399 1212,1389 1200,1379 1187,1369 1176,1360 1164,1352 1153,1344 1142,1337 1132,1331 1122,1325 1112,1319 1102,1314 1092,1310 1083,1306 1074,1302 1065,1299 1056,1297 1047,1295 1038,1293 1029,1292 1020,1291 1011,1291 1002,1291 993,1291 984,1292 975,1293 966,1294 956,1296 947,1298 937,1300 927,1303 916,1306 906,1309 895,1313 883,1317 872,1321 860,1325 847,1329 835,1334 821,1339 808,1344 793,1349 779,1355 763,1360 748,1366 731,1372 714,1377 696,1383 678,1390 659,1396 639,1402 619,1408 598,1415 576,1421 553,1427 529,1434 505,1440 479,1447 453,1453 426,1460 398,1466 369,1472 339,1478 308,1484 275,1490 242,1496 208,1502 173,1508 136,1513 98,1519 59,1524 19,1529 5,1534 5,1539 5,1543 5,1547 1737,1795 1706,1795 1677,1795 1648,1795 1620,1795 1593,1774 1567,1748 1542,1724 1518,1701 1494,1678 1472,1656 1450,1635 1429,1615 1409,1596 1389,1577 1370,1559 1352,1542 1334,1526 1317,1510 1301,1495 1285,1480 1270,1467 1255,1454 1241,1442 1227,1430 1214,1419 1201,1409 1189,1399 1177,1390 1165,1381 1154,1373 1143,1366 1132,1359 1121,1353 1111,1347 1101,1342 1091,1337 1082,1333 1072,1329 1063,1326 1053,1323 1044,1321 1035,1319 1026,1317 1017,1316 1007,1316 998,1315 989,1315 979,1316 970,1317 960,1318 951,1320 941,1322 930,1324 920,1326 909,1329 898,1332 887,1336 875,1340 863,1343 851,1348 838,1352 825,1357 811,1361 797,1366 783,1371 767,1377 752,1382 736,1388 719,1394 701,1400 683,1406 664,1412 645,1418 625,1424 604,1431 582,1437 560,1443 537,1450 512,1456 488,1463 462,1469 435,1476 407,1482 379,1489 349,1495 319,1501 287,1508 254,1514 221,1520 186,1526 150,1532 113,1537 75,1543 35,1548 5,1554 5,1559 5,1564 5,1568 5,1573 1744,1795 1713,1795 1683,1795 1654,1795 1626,1795 1599,1795 1573,1788 1547,1764 1523,1740 1499,1717 1477,1694 1455,1673 1433,1652 1413,1632 1393,1613 1374,1595 1356,1577 1338,1560 1321,1544 1304,1529 1288,1514 1273,1500 1258,1487 1243,1474 1229,1462 1216,1451 1203,1440 1190,1430 1178,1420 1166,1411 1154,1403 1143,1395 1132,1388 1121,1381 1110,1375 1100,1370 1090,1365 1080,1360 1070,1356 1060,1353 1051,1350 1041,1347 1032,1345 1022,1343 1013,1342 1003,1341 994,1341 984,1341 974,1341 964,1342 954,1343 944,1344 934,1346 923,1348 913,1351 902,1353 890,1356 878,1360 866,1363 854,1367 841,1371 828,1376 815,1380 801,1385 786,1390 771,1395 756,1400 739,1406 723,1411 706,1417 688,1423 669,1429 650,1435 630,1441 610,1447 588,1454 566,1460 543,1467 520,1473 495,1480 470,1486 443,1493 416,1500 388,1506 359,1513 329,1519 298,1526 266,1532 233,1538 199,1544 163,1551 127,1557 89,1562 51,1568 11,1574 5,1579 5,1584 5,1590 5,1594 5,1599 1750,1795 1719,1795 1689,1795 1660,1795 1632,1795 1605,1795 1578,1795 1553,1795 1528,1780 1504,1756 1481,1733 1459,1711 1438,1690 1417,1670 1397,1650 1378,1631 1359,1613 1341,1596 1324,1580 1307,1564 1290,1549 1275,1534 1260,1520 1245,1507 1231,1495 1217,1483 1204,1472 1191,1462 1178,1452 1166,1443 1154,1434 1142,1426 1131,1418 1120,1411 1109,1405 1098,1399 1088,1394 1078,1389 1068,1385 1058,1381 1048,1378 1038,1375 1028,1373 1018,1371 1008,1369 999,1368 989,1368 979,1367 969,1368 958,1368 948,1369 938,1370 927,1372 916,1374 905,1376 893,1379 882,1382 870,1385 857,1388 844,1392 831,1396 818,1400 804,1405 789,1409 774,1414 759,1419 743,1424 727,1430 709,1435 692,1441 673,1447 655,1453 635,1459 615,1465 594,1472 572,1478 549,1484 526,1491 502,1498 477,1504 451,1511 424,1517 396,1524 368,1531 338,1537 308,1544 276,1551 244,1557 210,1563 175,1570 140,1576 103,1582 65,1588 25,1594 5,1600 5,1606 5,1611 5,1616 5,1621 5,1626 1757,1795 1725,1795 1695,1795 1666,1795 1637,1795 1610,1795 1583,1795 1558,1795 1533,1795 1509,1795 1486,1774 1463,1751 1442,1730 1421,1709 1401,1689 1381,1669 1362,1651 1344,1633 1326,1616 1309,1600 1293,1584 1277,1570 1261,1555 1246,1542 1232,1529 1218,1517 1204,1506 1191,1495 1178,1485 1166,1475 1153,1466 1142,1458 1130,1450 1119,1443 1107,1436 1097,1430 1086,1424 1075,1419 1065,1415 1054,1411 1044,1407 1034,1404 1024,1401 1014,1399 1004,1398 993,1396 983,1395 973,1395 962,1395 952,1395 941,1396 930,1397 919,1399 908,1400 896,1403 885,1405 872,1408 860,1411 847,1414 834,1418 821,1422 807,1426 792,1430 777,1435 762,1439 746,1444 730,1450 713,1455 695,1461 677,1466 659,1472 639,1478 619,1484 598,1490 577,1497 555,1503 532,1510 508,1516 483,1523 458,1530 431,1536 404,1543 376,1550 347,1556 317,1563 286,1570 254,1576 221,1583 187,1590 152,1596 115,1602 78,1609 39,1615 5,1621 5,1627 5,1633 5,1638 5,1644 5,1649 5,1654 1763,1795 1731,1795 1701,1795 1671,1795 1643,1795 1615,1795 1589,1795 1563,1795 1538,1795 1513,1795 1490,1795 1467,1792 1446,1770 1424,1749 1404,1728 1384,1709 1365,1690 1347,1672 1329,1654 1311,1637 1295,1621 1278,1606 1263,1592 1247,1578 1233,1565 1218,1552 1205,1540 1191,1529 1178,1519 1165,1509 1153,1499 1140,1491 1129,1482 1117,1475 1105,1468 1094,1462 1083,1456 1072,1450 1061,1445 1051,1441 1040,1437 1030,1434 1019,1431 1009,1429 998,1427 988,1425 977,1424 966,1424 956,1423 945,1424 934,1424 922,1425 911,1426 899,1428 887,1430 875,1432 863,1435 850,1438 837,1441 823,1445 809,1448 795,1452 780,1457 765,1461 749,1466 733,1471 716,1476 699,1481 681,1487 662,1492 643,1498 623,1504 603,1510 581,1517 559,1523 537,1529 513,1536 489,1542 464,1549 438,1556 411,1563 383,1569 355,1576 325,1583 295,1590 263,1597 231,1603 197,1610 163,1617 127,1623 90,1630 52,1636 13,1643 5,1649 5,1655 5,1661 5,1667 5,1672 5,1678 5,1683 1769,1795 1737,1795 1707,1795 1677,1795 1648,1795 1620,1795 1593,1795 1567,1795 1542,1795 1518,1795 1494,1795 1471,1795 1449,1795 1428,1790 1407,1769 1387,1749 1368,1730 1349,1711 1331,1693 1313,1676 1296,1660 1280,1644 1264,1629 1248,1615 1233,1601 1219,1588 1204,1576 1191,1565 1177,1554 1164,1543 1151,1534 1139,1525 1127,1516 1115,1508 1103,1501 1091,1494 1080,1488 1069,1483 1058,1477 1047,1473 1036,1469 1025,1465 1014,1462 1003,1460 992,1457 982,1456 971,1454 960,1454 948,1453 937,1453 926,1453 914,1454 902,1455 890,1457 878,1459 865,1461 852,1463 839,1466 826,1469 812,1472 797,1476 783,1480 767,1484 752,1489 735,1493 719,1498 702,1503 684,1509 665,1514 646,1520 627,1525 606,1531 585,1538 564,1544 541,1550 518,1557 494,1563 469,1570 444,1576 417,1583 390,1590 362,1597 333,1604 303,1611 272,1617 240,1624 207,1631 173,1638 137,1645 101,1651 64,1658 25,1665 5,1671 5,1678 5,1684 5,1690 5,1696 5,1702 5,1708 5,1713 1775,1795 1743,1795 1712,1795 1682,1795 1653,1795 1625,1795 1598,1795 1572,1795 1546,1795 1522,1795 1498,1795 1475,1795 1452,1795 1431,1795 1410,1795 1390,1791 1370,1771 1351,1752 1333,1734 1315,1716 1298,1699 1281,1683 1265,1668 1249,1653 1233,1639 1219,1626 1204,1613 1190,1601 1176,1590 1163,1579 1150,1569 1137,1560 1124,1551 1112,1543 1100,1535 1088,1528 1077,1522 1065,1516 1054,1511 1042,1506 1031,1501 1020,1498 1009,1494 997,1491 986,1489 975,1487 964,1486 952,1484 941,1484 929,1484 917,1484 905,1484 893,1485 881,1487 868,1488 855,1490 842,1493 828,1495 814,1498 800,1502 785,1505 770,1509 754,1513 738,1517 721,1522 704,1527 686,1532 668,1537 649,1542 630,1548 610,1554 589,1560 568,1566 545,1572 523,1578 499,1585 474,1591 449,1598 423,1605 396,1611 368,1618 340,1625 310,1632 280,1639 248,1646 215,1653 182,1660 147,1667 112,1674 75,1681 37,1687 5,1694 5,1701 5,1707 5,1714 5,1720 5,1726 5,1732 5,1738 5,1744 "/>
</svg>
