<svg width="640" height="480" viewBox="0 0 640 480" xmlns="http://www.w3.org/2000/svg">
<polyline fill="none" opacity="1" stroke="#00FF00" stroke-width="1" points="5,5 11,22 17,39 23,55 30,71 36,87 42,102 49,117 55,131 61,145 67,159 74,172 80,186 86,198 93,211 99,223 105,235 111,246 118,257 124,268 130,278 137,288 143,298 149,308 155,317 162,325 168,334 174,342 181,349 187,357 193,364 199,370 206,377 212,383 218,388 225,393 231,398 237,403 244,407 250,411 256,415 262,418 269,421 275,424 281,426 288,428 294,429 300,430 306,431 313,432 319,432 325,432 332,431 338,430 344,429 350,428 357,426 363,424 369,421 376,418 382,415 388,411 394,407 401,403 407,398 413,393 420,388 426,383 432,377 439,370 445,364 451,357 457,349 464,342 470,334 476,325 483,317 489,308 495,298 501,288 508,278 514,268 520,257 527,246 533,235 539,223 545,211 552,198 558,186 564,172 571,159 577,145 583,131 589,117 596,102 602,87 608,71 615,55 621,39 627,22 634,5 "/>
</svg>
