<svg width="1800" height="1800" viewBox="0 0 1800 1800" xmlns="http://www.w3.org/2000/svg">
<polyline fill="none" opacity="1" stroke="#FFCDD2" stroke-width="1" points="554,269 580,279 606,289 632,300 657,310 681,321 705,331 728,342 750,353 772,364 793,375 814,386 835,398 854,409 873,421 892,432 910,444 927,455 944,467 960,479 976,491 991,503 1006,515 1020,527 1033,539 1046,551 1059,563 1071,575 1082,587 1093,600 1103,612 1112,624 1121,636 1130,648 1138,660 1145,672 1152,684 1159,696 1164,708 1169,720 1174,732 1178,743 1182,755 1185,766 1187,778 1189,789 1190,801 1191,812 1191,823 1190,834 1189,845 1188,856 1186,866 1183,877 1179,887 1175,898 1171,908 1166,918 544,296 570,305 596,315 622,325 646,335 671,345 694,355 717,365 739,375 761,386 783,396 803,407 823,418 843,428 862,439 880,450 898,461 916,473 932,484 949,495 964,506 979,518 994,529 1008,541 1022,552 1034,564 1047,575 1059,587 1070,598 1081,610 1091,622 1101,633 1110,645 1118,656 1126,668 1134,679 1141,691 1147,702 1153,713 1158,725 1163,736 1167,747 1170,758 1173,769 1176,780 1178,791 1179,802 1180,812 1180,823 1180,833 1179,844 1177,854 1175,864 1173,874 1169,884 1165,894 1161,903 1156,913 535,323 561,332 587,341 612,350 637,359 661,368 684,378 707,387 729,397 751,407 772,417 793,427 813,437 832,448 851,458 870,468 888,479 905,490 921,500 938,511 953,522 968,533 983,543 997,554 1010,565 1023,576 1036,587 1047,598 1059,609 1069,620 1080,631 1089,643 1098,654 1107,665 1115,675 1122,686 1129,697 1136,708 1142,719 1147,730 1152,740 1156,751 1160,762 1163,772 1165,782 1167,793 1169,803 1170,813 1170,823 1170,833 1169,843 1167,852 1165,862 1163,871 1160,880 1156,890 1152,899 1147,907 526,349 553,358 578,366 603,375 628,383 652,392 675,401 698,410 720,419 741,429 763,438 783,447 803,457 822,467 841,477 859,486 877,496 894,507 911,517 927,527 943,537 958,547 972,558 986,568 1000,579 1012,589 1025,599 1037,610 1048,620 1059,631 1069,641 1078,652 1088,662 1096,673 1104,683 1112,694 1119,704 1125,714 1131,725 1137,735 1141,745 1146,755 1149,765 1153,775 1155,785 1157,794 1159,804 1160,814 1160,823 1160,832 1159,842 1158,851 1156,860 1154,868 1151,877 1147,886 1143,894 1139,902 519,376 545,383 570,391 595,399 619,407 643,416 666,424 689,432 711,441 732,450 753,459 774,468 794,477 813,486 832,495 850,504 867,514 885,523 901,533 917,543 933,552 948,562 962,572 976,582 989,592 1002,602 1015,612 1026,621 1038,631 1048,641 1059,651 1068,661 1077,671 1086,681 1094,691 1102,701 1109,711 1115,721 1121,730 1127,740 1132,749 1136,759 1140,768 1143,778 1146,787 1148,796 1150,805 1151,814 1151,823 1151,832 1151,841 1149,849 1148,858 1145,866 1143,874 1139,882 1135,890 1131,897 511,402 537,409 562,416 587,424 611,431 635,439 658,447 681,455 702,463 724,471 745,479 765,488 785,496 804,505 823,514 841,522 858,531 875,540 892,549 908,558 923,568 938,577 953,586 966,595 980,605 993,614 1005,624 1017,633 1028,642 1039,652 1049,661 1059,671 1068,680 1076,690 1085,699 1092,708 1099,718 1106,727 1112,736 1117,745 1122,754 1127,763 1131,772 1134,781 1137,790 1139,798 1141,807 1142,815 1143,824 1143,832 1142,840 1141,848 1140,856 1138,863 1135,871 1132,878 1128,886 1123,893 505,428 530,435 555,441 580,448 604,455 628,462 650,469 673,477 695,484 716,492 737,500 757,508 776,516 796,524 814,532 832,540 850,549 867,557 883,565 899,574 914,583 929,591 944,600 957,609 971,618 983,627 996,636 1008,644 1019,653 1029,662 1040,671 1049,680 1059,689 1067,698 1075,707 1083,716 1090,724 1097,733 1103,742 1108,750 1113,759 1118,767 1122,776 1125,784 1128,792 1131,800 1133,808 1134,816 1135,824 1135,832 1134,839 1134,847 1132,854 1130,861 1128,868 1124,875 1121,881 1117,888 498,454 524,460 549,466 573,472 597,479 621,485 643,492 666,499 687,506 708,513 729,520 749,527 769,535 788,542 806,550 824,558 841,566 858,574 875,582 891,590 906,598 921,606 935,614 949,623 962,631 975,639 987,648 999,656 1010,664 1021,673 1031,681 1041,690 1050,698 1059,706 1067,715 1075,723 1082,731 1088,739 1095,748 1100,756 1105,764 1110,772 1114,779 1117,787 1120,795 1123,802 1125,810 1126,817 1127,824 1128,832 1127,839 1127,845 1125,852 1123,859 1121,865 1118,871 1114,878 1110,884 493,480 518,485 543,491 567,496 591,502 614,508 637,514 659,521 681,527 702,534 722,540 742,547 761,554 780,561 799,568 817,575 834,583 851,590 867,598 883,605 898,613 913,621 927,628 941,636 954,644 967,652 979,660 991,667 1002,675 1013,683 1023,691 1033,699 1042,707 1051,715 1059,723 1067,730 1074,738 1080,746 1087,754 1092,761 1098,769 1102,776 1106,783 1110,791 1113,798 1116,805 1118,812 1119,818 1120,825 1121,832 1121,838 1120,844 1119,851 1117,857 1115,863 1112,868 1109,874 1105,879 488,505 513,510 538,515 562,520 585,526 608,531 631,537 653,543 674,548 695,554 716,561 735,567 755,573 774,580 792,586 810,593 827,600 843,607 860,614 875,621 891,628 905,635 919,642 933,650 946,657 959,664 971,672 983,679 994,686 1005,694 1015,701 1025,709 1034,716 1043,723 1051,731 1059,738 1066,745 1073,752 1079,759 1085,767 1090,774 1095,780 1099,787 1103,794 1106,801 1109,807 1111,813 1113,820 1114,826 1114,832 1115,838 1114,844 1113,849 1111,855 1109,860 1107,865 1103,870 1100,875 483,531 508,535 533,540 557,544 580,549 603,554 626,559 647,564 669,570 689,575 710,581 729,586 749,592 767,598 785,604 803,610 820,617 837,623 853,630 869,636 884,643 898,649 912,656 926,663 939,670 952,677 964,684 976,690 987,697 998,704 1008,711 1018,718 1027,725 1036,732 1044,739 1052,746 1059,752 1066,759 1072,766 1078,772 1084,779 1089,785 1093,791 1097,797 1100,804 1103,810 1105,815 1107,821 1108,827 1109,832 1109,838 1109,843 1108,848 1106,853 1104,858 1102,862 1099,867 1095,871 479,556 504,560 529,564 552,568 576,572 599,576 621,581 642,586 664,590 684,595 704,601 724,606 743,611 761,617 780,622 797,628 814,634 831,639 847,645 862,651 877,658 892,664 906,670 920,676 933,683 945,689 958,695 969,702 980,708 991,715 1001,721 1011,728 1020,734 1029,740 1038,747 1045,753 1053,759 1060,766 1066,772 1072,778 1077,784 1082,790 1087,795 1091,801 1094,807 1097,812 1100,818 1101,823 1103,828 1104,833 1104,838 1104,842 1103,847 1102,851 1100,856 1098,860 1095,864 1091,867 476,581 501,584 525,588 549,591 572,595 594,599 616,603 638,607 659,611 679,616 699,620 719,625 738,630 756,635 774,640 792,645 809,650 825,656 841,661 856,667 871,672 886,678 900,684 913,690 927,696 939,701 951,707 963,713 974,719 985,725 995,731 1005,737 1014,743 1023,749 1032,755 1039,761 1047,767 1054,772 1060,778 1066,783 1072,789 1077,794 1081,800 1085,805 1089,810 1092,815 1094,820 1096,824 1098,829 1099,834 1099,838 1099,842 1099,846 1098,850 1096,854 1094,857 1091,861 1088,864 473,606 498,609 522,612 545,615 568,618 591,621 613,625 634,628 655,632 675,636 695,640 714,644 733,648 751,653 769,657 787,662 803,667 820,672 836,677 851,682 866,687 880,692 894,698 908,703 921,708 933,714 946,719 957,725 968,730 979,736 989,741 999,747 1009,752 1018,758 1026,763 1034,768 1041,774 1048,779 1055,784 1061,789 1067,794 1072,799 1076,804 1080,809 1084,813 1087,818 1090,822 1092,826 1094,830 1095,834 1095,838 1096,842 1095,845 1094,849 1093,852 1091,855 1088,858 1085,860 471,631 495,633 519,635 542,638 565,640 588,643 609,646 630,649 651,652 671,656 691,659 710,663 729,667 747,671 765,675 782,679 799,684 815,688 831,692 846,697 861,702 875,706 889,711 903,716 916,721 928,726 940,731 952,736 963,741 974,746 984,751 994,756 1003,761 1012,766 1021,771 1029,776 1036,781 1043,786 1050,790 1056,795 1062,800 1067,804 1072,808 1076,813 1080,817 1083,821 1086,825 1088,828 1090,832 1091,835 1092,839 1092,842 1092,845 1091,847 1090,850 1088,853 1086,855 1083,857 469,656 493,657 517,659 540,661 563,663 585,665 606,667 628,670 648,673 668,676 688,679 707,682 725,685 743,689 761,692 778,696 795,700 811,704 827,708 842,712 857,716 871,721 885,725 898,729 911,734 923,738 936,743 947,748 958,752 969,757 979,761 989,766 999,771 1008,775 1016,780 1024,784 1032,788 1039,793 1046,797 1052,801 1058,805 1063,809 1068,813 1072,817 1076,820 1079,824 1082,827 1085,830 1087,833 1088,836 1089,839 1089,842 1089,844 1089,847 1088,849 1086,851 1084,852 1081,854 468,680 492,681 516,682 538,683 561,685 583,687 604,689 625,691 646,693 665,695 685,698 704,701 722,704 740,707 758,710 775,713 791,716 807,720 823,723 838,727 852,731 867,735 880,739 894,743 907,747 919,751 931,755 943,759 954,763 965,767 975,771 985,776 994,780 1003,784 1012,788 1020,792 1028,796 1035,800 1042,803 1048,807 1054,811 1059,814 1064,818 1069,821 1073,824 1076,827 1079,830 1082,833 1084,835 1086,838 1087,840 1087,842 1087,844 1087,846 1086,847 1084,849 1082,850 1080,851 467,704 491,705 514,705 537,706 560,707 581,708 602,710 623,711 643,713 663,715 682,717 701,719 719,722 737,724 755,727 771,730 788,733 804,736 819,739 834,742 849,745 863,749 877,752 890,756 903,759 915,763 927,767 939,770 950,774 961,778 971,782 981,785 990,789 999,793 1008,796 1016,800 1024,803 1031,807 1038,810 1045,813 1051,816 1056,819 1061,822 1066,825 1070,828 1074,830 1077,833 1079,835 1082,837 1083,839 1085,841 1085,842 1086,844 1085,845 1085,846 1083,847 1081,848 1079,848 467,728 491,728 514,728 537,729 559,729 580,730 601,731 622,732 642,733 661,734 681,736 699,738 717,740 735,742 752,744 769,746 785,749 801,751 816,754 831,757 846,760 860,763 873,766 887,769 899,772 912,775 924,778 935,782 946,785 957,788 968,792 977,795 987,798 996,801 1005,805 1013,808 1021,811 1028,814 1035,817 1042,820 1048,822 1053,825 1059,827 1063,830 1068,832 1071,834 1075,836 1078,838 1080,839 1082,841 1083,842 1084,843 1085,844 1084,845 1084,845 1083,846 1081,846 1079,846 468,752 491,751 514,751 536,751 558,751 580,751 600,751 621,752 641,753 660,754 679,755 698,756 716,757 733,759 750,761 767,763 783,765 799,767 814,769 829,771 843,774 857,776 871,779 884,782 896,784 909,787 921,790 932,793 943,796 954,799 964,802 974,805 984,808 993,810 1002,813 1010,816 1018,819 1025,821 1032,824 1039,826 1045,828 1051,830 1056,832 1061,834 1066,836 1070,838 1073,839 1076,840 1079,841 1081,842 1082,843 1083,844 1084,844 1084,844 1084,844 1083,844 1081,844 1079,843 469,775 492,774 514,773 537,773 558,772 580,772 600,772 620,772 640,772 659,773 678,773 696,774 714,775 732,776 749,778 765,779 781,780 797,782 812,784 826,786 841,788 855,790 868,792 881,795 894,797 906,799 918,802 929,804 941,807 951,809 962,812 972,814 981,817 990,819 999,822 1008,824 1016,826 1023,828 1030,830 1037,832 1043,834 1049,836 1055,837 1060,839 1064,840 1068,841 1072,842 1075,843 1078,844 1080,844 1082,845 1083,845 1084,845 1084,844 1084,844 1083,843 1082,842 1080,841 470,799 493,797 516,796 538,795 559,794 580,793 600,792 620,792 640,792 659,792 678,792 696,792 713,793 731,793 747,794 764,795 780,796 795,797 810,799 825,800 839,802 853,804 866,805 879,807 892,809 904,811 916,813 927,816 938,818 949,820 959,822 969,824 979,826 988,828 997,830 1005,832 1014,834 1021,836 1028,837 1035,839 1042,840 1048,842 1053,843 1058,844 1063,845 1067,845 1071,846 1075,846 1077,846 1080,846 1082,846 1083,846 1084,845 1085,844 1085,844 1084,842 1083,841 1082,839 472,822 495,820 517,818 539,816 560,815 581,814 601,812 621,812 640,811 659,810 678,810 696,810 713,810 730,810 747,811 763,811 779,812 794,813 809,814 823,815 837,816 851,817 864,819 877,820 890,822 902,823 914,825 925,827 936,829 947,830 957,832 967,834 977,836 986,837 995,839 1004,841 1012,842 1020,843 1027,845 1034,846 1041,847 1047,847 1053,848 1058,849 1063,849 1067,849 1071,849 1075,849 1078,849 1080,849 1082,848 1084,847 1085,846 1086,845 1086,843 1086,842 1085,840 1084,838 474,845 497,842 519,840 541,838 562,836 582,834 602,832 622,831 641,830 660,829 678,828 696,828 713,827 730,827 746,827 763,827 778,827 793,828 808,828 822,829 836,830 850,831 863,832 876,833 888,834 900,835 912,837 924,838 935,840 945,841 956,842 966,844 976,845 985,847 994,848 1003,849 1011,850 1019,851 1026,852 1033,852 1040,853 1046,853 1052,854 1058,854 1063,854 1067,854 1071,853 1075,853 1078,852 1081,851 1083,850 1085,849 1087,847 1087,845 1088,843 1088,841 1087,839 1086,836 477,868 500,864 522,862 543,859 564,856 584,854 604,852 624,850 642,849 661,847 679,846 697,845 714,844 730,844 747,843 763,843 778,843 793,843 808,843 822,843 836,843 849,844 862,845 875,845 887,846 899,847 911,848 922,849 933,850 944,852 955,853 965,854 974,855 984,856 993,857 1002,857 1010,858 1018,859 1026,859 1033,859 1040,860 1046,860 1052,860 1058,859 1063,859 1068,858 1072,857 1076,856 1079,855 1082,854 1085,852 1087,850 1088,848 1089,846 1090,844 1090,841 1090,838 1089,835 481,890 503,886 525,883 546,880 566,877 587,874 606,872 625,869 644,867 663,865 680,864 698,862 715,861 731,860 747,859 763,858 778,858 793,857 808,857 822,857 835,857 849,857 862,857 874,858 887,858 898,859 910,860 921,861 932,861 943,862 954,863 964,864 974,864 983,865 992,866 1001,866 1009,866 1018,867 1025,867 1033,867 1040,866 1046,866 1053,865 1058,865 1064,864 1069,863 1073,861 1077,860 1081,858 1084,857 1087,854 1089,852 1091,850 1092,847 1093,844 1093,841 1093,838 1092,834 485,912 507,908 528,904 549,901 569,897 589,894 609,891 628,888 646,886 665,883 682,881 699,879 716,878 732,876 748,875 764,874 779,873 794,872 808,871 822,871 835,870 849,870 861,870 874,870 886,871 898,871 910,871 921,872 932,872 942,873 953,873 963,874 973,874 983,874 992,875 1001,875 1009,875 1018,875 1026,874 1033,874 1040,873 1047,872 1053,871 1059,870 1065,869 1070,868 1075,866 1079,864 1083,862 1086,860 1089,857 1092,854 1094,851 1095,848 1096,845 1097,841 1097,837 1096,833 489,934 511,930 532,925 553,921 573,917 593,914 612,910 631,907 649,904 667,901 684,899 701,896 718,894 734,892 750,890 765,889 780,887 795,886 809,885 822,884 836,884 849,883 862,883 874,883 886,882 898,882 909,883 920,883 931,883 942,883 953,884 963,884 973,884 982,884 992,884 1001,884 1010,883 1018,883 1026,882 1034,881 1041,880 1048,879 1055,878 1061,876 1066,874 1072,873 1077,870 1081,868 1085,866 1089,863 1092,860 1095,857 1097,853 1099,850 1100,846 1101,842 1101,837 1101,833 494,956 516,951 537,946 557,941 577,937 597,933 616,929 634,925 652,922 670,919 687,916 704,913 720,910 736,908 752,906 767,904 782,902 796,901 810,899 823,898 837,897 849,896 862,895 874,895 886,894 898,894 909,894 920,894 931,894 942,894 952,894 963,894 973,894 983,894 992,893 1001,893 1010,892 1019,891 1027,890 1035,889 1042,887 1050,886 1056,884 1063,882 1069,880 1074,878 1079,875 1084,872 1088,869 1092,866 1095,863 1098,859 1101,855 1103,851 1104,847 1105,842 1106,838 1106,832 500,978 521,972 542,967 562,962 582,957 601,952 620,948 638,944 656,940 673,936 690,933 707,929 723,926 739,924 754,921 769,919 783,917 798,915 811,913 825,911 838,910 850,909 863,908 875,907 887,906 898,905 909,905 920,905 931,905 942,905 953,904 963,904 973,904 983,903 993,903 1002,902 1011,901 1020,900 1028,898 1036,897 1044,895 1051,893 1058,891 1065,888 1071,886 1077,883 1082,880 1087,877 1091,874 1095,870 1099,866 1102,862 1105,858 1107,853 1109,848 1110,843 1111,838 1111,832 506,999 527,993 547,987 567,981 587,976 606,971 624,966 642,962 660,957 677,953 694,949 710,946 726,942 741,939 757,936 771,933 786,931 800,928 813,926 826,924 839,923 852,921 864,920 876,919 887,918 899,917 910,916 921,916 931,915 942,915 953,915 963,915 974,914 984,913 994,912 1003,911 1012,910 1021,908 1030,906 1038,905 1046,902 1054,900 1061,898 1067,895 1074,892 1080,889 1085,885 1090,882 1095,878 1099,874 1103,870 1107,865 1109,860 1112,855 1114,850 1115,844 1117,839 1117,833 512,1020 533,1013 553,1007 573,1001 592,995 611,990 629,984 647,979 664,975 681,970 698,966 714,962 730,958 745,954 760,951 774,948 788,945 802,942 815,940 828,937 841,935 853,933 865,932 877,930 888,929 900,928 911,927 921,926 932,926 942,926 953,926 964,925 975,924 985,923 995,922 1005,921 1014,919 1023,917 1032,915 1040,913 1048,910 1056,908 1064,905 1070,902 1077,898 1083,895 1089,891 1094,887 1099,883 1104,878 1108,873 1111,868 1115,863 1117,858 1120,852 1121,846 1123,840 1124,833 519,1041 540,1034 559,1027 579,1020 598,1014 616,1008 634,1002 652,997 669,992 686,987 702,982 718,977 733,973 748,969 763,965 777,962 791,959 805,955 818,953 831,950 843,948 855,945 867,943 879,942 890,940 901,939 911,938 922,937 932,936 943,937 954,937 965,936 976,935 986,933 996,932 1006,930 1016,928 1025,926 1034,924 1043,921 1051,918 1059,915 1067,912 1074,908 1081,905 1087,901 1093,897 1099,892 1104,887 1109,882 1113,877 1117,872 1120,866 1123,860 1126,854 1128,848 1129,841 1130,834 527,1061 547,1054 566,1046 585,1039 604,1033 622,1026 640,1020 658,1014 674,1008 691,1003 707,998 723,993 738,988 753,984 767,980 781,976 795,972 808,969 821,965 833,963 846,960 858,957 869,955 880,953 891,951 902,950 913,948 923,947 933,946 943,949 955,948 966,947 977,945 988,944 998,942 1008,940 1018,938 1028,935 1037,933 1046,930 1054,927 1062,923 1070,919 1078,916 1085,911 1091,907 1098,902 1104,898 1109,893 1114,887 1118,882 1123,876 1126,869 1130,863 1132,856 1135,849 1136,842 1138,835 534,1081 554,1073 574,1066 593,1058 611,1051 629,1044 646,1037 664,1031 680,1025 696,1019 712,1014 728,1008 742,1003 757,998 771,994 785,990 798,985 811,982 824,978 836,975 848,972 860,969 871,966 882,964 893,962 904,960 914,958 924,957 934,956 944,960 956,959 967,958 979,956 990,955 1000,953 1011,950 1021,948 1030,945 1040,942 1049,939 1058,935 1066,931 1074,927 1082,923 1089,918 1096,914 1103,909 1109,903 1114,898 1120,892 1124,886 1129,880 1133,873 1136,866 1139,859 1142,852 1144,844 1146,836 543,1101 562,1093 581,1085 600,1077 618,1069 636,1062 653,1055 670,1048 686,1041 702,1035 718,1029 733,1023 748,1018 762,1013 776,1008 789,1003 802,999 815,994 828,990 840,987 851,983 863,980 874,977 885,975 895,972 906,970 916,968 925,967 935,965 945,972 957,971 969,969 980,968 992,965 1003,963 1013,961 1023,958 1033,955 1043,951 1053,948 1062,944 1070,940 1079,935 1086,931 1094,926 1101,921 1108,915 1114,909 1120,903 1126,897 1131,891 1136,884 1140,877 1144,870 1147,862 1150,854 1152,846 1154,838 552,1121 571,1112 590,1103 608,1095 626,1087 643,1079 660,1071 677,1064 693,1057 709,1051 724,1044 739,1038 753,1032 767,1027 781,1021 794,1016 807,1011 819,1007 832,1003 843,999 855,995 866,991 877,988 887,985 898,983 908,980 917,978 927,976 936,975 947,984 959,983 971,981 982,979 994,977 1005,974 1016,971 1027,968 1037,965 1047,961 1056,957 1066,953 1075,948 1083,943 1091,938 1099,933 1107,928 1114,922 1120,916 1127,909 1132,903 1138,896 1143,889 1147,881 1151,873 1155,865 1158,857 1161,848 1163,839 561,1140 580,1131 599,1122 617,1113 634,1104 651,1096 668,1088 684,1080 700,1073 715,1066 730,1059 745,1053 759,1046 773,1040 786,1035 799,1029 812,1024 824,1019 836,1014 847,1010 859,1006 870,1002 880,999 890,996 900,993 910,990 920,988 929,985 938,984 948,997 961,995 973,993 985,991 997,988 1008,985 1019,982 1030,979 1041,975 1051,971 1061,967 1070,962 1079,957 1088,952 1097,947 1105,941 1113,935 1120,929 1127,922 1133,915 1139,908 1145,901 1150,893 1155,885 1159,877 1163,869 1167,860 1170,851 1172,841 571,1159 590,1149 608,1140 625,1131 643,1122 660,1113 676,1104 692,1096 707,1088 723,1081 737,1074 752,1067 765,1060 779,1054 792,1048 805,1042 817,1036 829,1031 841,1026 852,1021 863,1017 873,1013 884,1009 894,1006 903,1002 913,999 922,997 931,994 939,992 950,1010 963,1008 975,1005 987,1003 999,1000 1011,997 1023,993 1034,989 1045,985 1055,981 1065,976 1075,971 1085,966 1094,961 1103,955 1111,949 1119,943 1126,936 1134,929 1140,922 1147,914 1153,907 1158,899 1163,890 1168,881 1172,873 1176,863 1179,854 1182,844 581,1178 600,1168 617,1158 635,1148 652,1138 668,1129 684,1120 700,1112 715,1104 730,1096 745,1088 759,1081 772,1074 785,1067 798,1060 811,1054 823,1048 834,1043 846,1037 857,1032 867,1028 877,1023 887,1019 897,1015 907,1012 916,1008 925,1006 933,1003 941,1001 952,1023 965,1020 978,1018 990,1015 1003,1012 1015,1008 1026,1005 1038,1001 1049,996 1060,992 1070,987 1080,981 1090,976 1100,970 1109,964 1117,957 1126,951 1133,944 1141,936 1148,929 1155,921 1161,912 1167,904 1172,895 1177,886 1181,877 1185,867 1189,857 1192,847 592,1196 610,1186 628,1175 645,1165 661,1155 678,1145 693,1136 709,1127 724,1118 738,1110 752,1102 766,1094 779,1087 792,1080 805,1073 817,1066 828,1060 840,1054 851,1048 862,1043 872,1038 882,1033 892,1029 901,1025 910,1021 919,1017 927,1014 936,1011 944,1009 954,1036 967,1034 981,1031 993,1028 1006,1024 1018,1020 1031,1016 1042,1012 1054,1007 1065,1002 1076,997 1086,991 1096,985 1106,979 1115,973 1124,966 1133,959 1141,951 1149,944 1156,936 1163,927 1169,919 1176,910 1181,900 1186,891 1191,881 1196,871 1199,860 1203,850 603,1215 621,1203 638,1192 655,1182 671,1171 687,1161 703,1152 718,1142 732,1133 747,1124 760,1116 774,1108 787,1100 799,1092 812,1085 823,1078 835,1071 846,1065 857,1059 867,1053 877,1048 887,1043 896,1038 905,1034 914,1030 922,1026 931,1022 938,1019 946,1016 956,1050 970,1047 984,1044 997,1041 1010,1037 1023,1033 1035,1028 1047,1024 1059,1019 1070,1013 1081,1008 1092,1002 1102,995 1112,989 1122,982 1131,975 1140,967 1149,959 1157,951 1164,943 1172,934 1178,925 1185,916 1191,906 1196,896 1201,886 1206,875 1210,864 1214,853 615,1232 632,1221 649,1209 666,1198 682,1187 697,1177 713,1167 727,1157 742,1147 755,1138 769,1129 782,1121 795,1112 807,1104 819,1097 830,1089 841,1082 852,1076 863,1069 873,1063 882,1058 892,1052 901,1047 910,1042 918,1038 926,1034 934,1030 942,1027 949,1024 959,1064 973,1061 987,1058 1001,1054 1014,1050 1027,1046 1040,1041 1052,1036 1064,1030 1076,1025 1087,1019 1098,1012 1109,1006 1119,999 1129,992 1139,984 1148,976 1157,968 1165,959 1173,951 1181,941 1188,932 1195,922 1201,912 1207,902 1212,891 1217,880 1222,868 1226,857 627,1250 644,1238 661,1226 677,1214 693,1203 708,1192 723,1181 737,1171 751,1161 765,1152 778,1142 791,1133 803,1125 815,1116 826,1108 838,1101 848,1093 859,1086 869,1079 879,1073 888,1067 897,1061 906,1056 914,1051 922,1046 930,1042 938,1038 945,1034 952,1031 962,1078 977,1075 991,1072 1005,1068 1018,1063 1032,1059 1045,1054 1057,1048 1070,1043 1082,1037 1094,1030 1105,1023 1116,1017 1127,1009 1137,1002 1147,994 1156,985 1165,977 1174,968 1182,958 1190,949 1198,939 1205,929 1211,918 1218,907 1223,896 1229,885 1233,873 1238,861 640,1267 656,1254 673,1242 689,1230 704,1218 719,1207 733,1196 748,1185 761,1175 774,1165 787,1155 800,1146 812,1137 823,1128 835,1120 845,1111 856,1104 866,1096 876,1089 885,1083 894,1076 903,1070 911,1064 919,1059 927,1054 935,1049 942,1045 949,1041 955,1037 965,1093 980,1090 995,1086 1009,1081 1023,1077 1037,1072 1050,1067 1063,1061 1076,1055 1088,1049 1100,1042 1112,1035 1123,1027 1134,1020 1145,1012 1155,1003 1165,995 1174,986 1183,976 1192,967 1200,957 1208,946 1215,936 1222,925 1229,913 1235,902 1240,890 1246,877 1250,865 653,1284 669,1271 685,1258 701,1245 716,1233 730,1222 745,1210 758,1199 772,1188 784,1178 797,1168 809,1158 821,1148 832,1139 843,1130 853,1122 864,1114 873,1106 883,1099 892,1092 901,1085 909,1078 917,1072 925,1067 932,1061 939,1056 946,1052 952,1048 959,1044 969,1108 984,1105 999,1100 1014,1096 1028,1091 1042,1086 1056,1080 1069,1074 1082,1068 1095,1061 1107,1054 1119,1047 1131,1039 1142,1031 1153,1022 1164,1014 1174,1005 1184,995 1193,985 1202,975 1211,965 1219,954 1226,943 1234,932 1241,920 1247,908 1253,895 1258,883 1263,869 666,1300 682,1287 698,1274 713,1261 728,1248 742,1236 756,1224 769,1212 782,1201 795,1190 807,1180 819,1169 830,1160 841,1150 852,1141 862,1132 872,1124 881,1115 890,1108 899,1100 907,1093 915,1086 923,1080 930,1074 937,1068 944,1063 951,1058 957,1054 963,1050 973,1124 988,1120 1003,1115 1018,1110 1033,1105 1048,1100 1062,1094 1075,1087 1089,1081 1102,1074 1115,1066 1127,1059 1139,1050 1151,1042 1162,1033 1173,1024 1183,1015 1193,1005 1203,995 1212,984 1221,973 1230,962 1238,951 1245,939 1253,927 1259,914 1266,901 1272,888 1277,874 680,1317 696,1303 711,1289 726,1275 741,1262 754,1250 768,1237 781,1225 794,1214 806,1202 818,1191 829,1181 840,1171 851,1161 861,1151 871,1142 880,1133 889,1125 898,1116 906,1109 914,1101 922,1094 929,1087 936,1081 943,1075 949,1070 955,1064 961,1060 967,1055 977,1140 993,1135 1008,1131 1024,1126 1039,1120 1053,1114 1068,1108 1082,1101 1096,1094 1109,1087 1122,1079 1135,1071 1147,1063 1159,1054 1171,1045 1182,1035 1193,1025 1204,1015 1214,1004 1223,994 1233,982 1241,971 1250,959 1258,946 1265,934 1272,921 1279,907 1285,894 1291,880 695,1332 710,1318 725,1304 740,1290 754,1276 767,1263 780,1250 793,1238 805,1226 817,1214 829,1203 840,1192 850,1181 861,1171 870,1161 880,1151 889,1142 898,1133 906,1125 914,1117 922,1109 929,1101 936,1094 943,1088 949,1081 955,1076 961,1070 966,1065 971,1060 981,1156 997,1151 1013,1146 1029,1141 1045,1135 1060,1129 1075,1122 1089,1115 1103,1108 1117,1100 1130,1092 1144,1084 1156,1075 1169,1066 1181,1056 1192,1046 1203,1036 1214,1025 1225,1014 1235,1003 1244,991 1253,979 1262,967 1270,954 1278,941 1286,928 1293,914 1299,900 1305,885 710,1348 725,1333 739,1318 753,1304 767,1290 780,1276 793,1263 806,1250 817,1238 829,1226 840,1214 851,1203 861,1191 871,1181 880,1170 890,1160 898,1151 907,1142 915,1133 922,1124 930,1116 936,1108 943,1101 949,1094 955,1087 961,1081 966,1075 971,1070 976,1065 986,1173 1002,1168 1019,1163 1035,1157 1051,1151 1066,1144 1082,1137 1096,1130 1111,1122 1125,1114 1139,1106 1152,1097 1165,1088 1178,1078 1191,1068 1202,1058 1214,1047 1225,1036 1236,1025 1246,1013 1256,1001 1266,989 1275,976 1284,963 1292,949 1300,935 1307,921 1314,906 1320,891 725,1363 740,1347 754,1332 768,1318 781,1303 794,1289 806,1276 818,1262 830,1249 841,1237 852,1225 862,1213 872,1201 882,1190 891,1180 900,1169 908,1159 916,1150 923,1140 931,1132 938,1123 944,1115 950,1107 956,1100 962,1093 967,1086 972,1080 976,1075 981,1069 990,1190 1008,1185 1025,1179 1041,1173 1057,1166 1073,1160 1089,1152 1104,1145 1119,1137 1133,1128 1148,1119 1162,1110 1175,1101 1188,1091 1201,1080 1213,1070 1225,1059 1237,1047 1248,1036 1258,1023 1269,1011 1279,998 1288,985 1297,971 1306,957 1314,943 1322,928 1329,913 1336,898 741,1378 755,1362 769,1346 783,1331 796,1316 808,1302 820,1288 832,1274 843,1261 854,1248 864,1235 874,1223 884,1211 893,1199 902,1188 910,1178 918,1167 925,1157 933,1148 940,1138 946,1130 952,1121 958,1113 964,1105 969,1098 973,1091 978,1085 982,1079 986,1073 996,1208 1013,1202 1031,1196 1048,1190 1064,1183 1080,1176 1096,1168 1112,1160 1127,1152 1142,1143 1157,1134 1171,1124 1185,1114 1198,1104 1211,1093 1224,1082 1236,1071 1248,1059 1260,1047 1271,1034 1282,1021 1292,1008 1302,994 1311,980 1320,966 1329,951 1337,936 1344,920 1351,905 757,1392 771,1376 785,1360 798,1344 810,1329 823,1314 834,1299 846,1285 856,1271 867,1258 877,1245 886,1232 895,1220 904,1208 913,1197 921,1186 928,1175 935,1164 942,1154 949,1145 955,1136 961,1127 966,1119 971,1111 976,1103 980,1096 984,1089 988,1083 992,1077 1001,1225 1019,1220 1037,1213 1054,1207 1071,1199 1088,1192 1104,1184 1120,1176 1136,1167 1151,1158 1166,1148 1181,1138 1195,1128 1209,1117 1223,1106 1236,1095 1248,1083 1261,1071 1272,1058 1284,1045 1295,1032 1306,1018 1316,1004 1326,990 1335,975 1344,960 1352,944 1360,928 1368,912 774,1406 788,1389 801,1373 814,1357 826,1341 837,1326 849,1311 860,1296 870,1282 880,1268 890,1255 899,1241 908,1229 916,1217 924,1205 932,1193 939,1182 946,1171 952,1161 958,1151 964,1141 969,1132 974,1124 979,1115 983,1107 987,1100 991,1093 994,1086 998,1080 1007,1244 1026,1238 1044,1231 1061,1224 1079,1216 1096,1209 1113,1200 1129,1192 1145,1183 1161,1173 1176,1163 1191,1153 1206,1142 1220,1131 1234,1120 1247,1108 1261,1096 1273,1083 1285,1070 1297,1057 1309,1043 1320,1029 1330,1014 1340,999 1350,984 1359,968 1368,952 1377,936 1384,919 791,1420 805,1402 817,1385 830,1369 841,1353 853,1337 864,1321 874,1306 884,1292 894,1278 903,1264 912,1250 920,1237 928,1225 936,1212 943,1200 950,1189 957,1178 963,1167 968,1157 974,1147 979,1137 983,1128 987,1120 991,1111 995,1103 998,1096 1001,1089 1004,1082 1013,1263 1032,1256 1051,1249 1069,1242 1087,1234 1104,1226 1121,1217 1138,1208 1155,1199 1171,1189 1187,1179 1202,1168 1217,1157 1232,1145 1246,1134 1260,1121 1273,1109 1286,1096 1299,1082 1311,1068 1323,1054 1334,1040 1345,1025 1356,1009 1366,994 1375,978 1385,961 1393,944 1402,927 809,1433 822,1415 834,1398 846,1381 858,1364 869,1348 879,1332 889,1317 899,1302 908,1287 917,1273 926,1259 934,1245 941,1232 948,1219 955,1207 962,1195 968,1184 973,1173 979,1162 983,1152 988,1142 992,1132 996,1123 1000,1115 1003,1107 1006,1099 1008,1092 1010,1085 1020,1282 1039,1275 1058,1268 1077,1260 1095,1252 1113,1243 1130,1234 1148,1225 1164,1215 1181,1205 1197,1194 1213,1183 1228,1172 1243,1160 1258,1148 1272,1135 1286,1122 1300,1109 1313,1095 1325,1081 1337,1066 1349,1051 1361,1036 1372,1020 1382,1004 1392,987 1402,970 1411,953 1419,935 827,1446 840,1427 852,1410 863,1392 874,1375 885,1358 895,1342 905,1326 914,1311 923,1296 931,1281 939,1267 947,1253 954,1239 961,1226 967,1214 973,1201 979,1189 984,1178 989,1167 994,1156 998,1146 1002,1136 1005,1127 1008,1118 1011,1109 1013,1101 1015,1094 1017,1086 1027,1301 1046,1294 1066,1287 1085,1279 1103,1270 1122,1261 1140,1252 1157,1242 1175,1232 1192,1222 1208,1211 1224,1199 1240,1187 1256,1175 1271,1162 1285,1149 1300,1136 1313,1122 1327,1108 1340,1093 1352,1078 1365,1063 1376,1047 1388,1031 1399,1014 1409,997 1419,980 1428,962 1438,944 846,1458 858,1439 870,1421 881,1403 891,1386 902,1369 911,1352 921,1336 930,1320 938,1304 946,1289 954,1274 961,1260 968,1246 974,1233 980,1220 986,1207 991,1195 996,1183 1000,1171 1004,1160 1008,1150 1011,1140 1014,1130 1017,1121 1019,1112 1021,1103 1023,1095 1024,1088 1034,1322 1054,1314 1074,1306 1093,1298 1112,1289 1131,1280 1149,1270 1168,1260 1185,1249 1203,1238 1220,1227 1236,1215 1252,1203 1268,1191 1284,1178 1299,1164 1313,1150 1328,1136 1342,1121 1355,1106 1368,1091 1381,1075 1393,1059 1404,1042 1416,1025 1426,1008 1437,990 1447,971 1456,953 "/>
</svg>
