<svg width="1800" height="1800" viewBox="0 0 1800 1800" xmlns="http://www.w3.org/2000/svg">
<polyline fill="none" opacity="1" stroke="#FF0000" stroke-width="1" points="1269,154 1226,179 1185,202 1146,226 1109,249 1073,271 1039,293 1007,314 976,335 947,355 919,374 893,392 867,409 843,426 820,442 798,456 776,470 755,483 734,494 713,505 692,514 672,522 650,530 629,536 606,541 583,545 559,548 534,551 508,552 480,553 452,553 421,552 389,551 356,549 320,546 283,543 244,539 204,535 161,531 1264,197 1222,221 1181,245 1143,268 1106,290 1071,312 1037,334 1006,355 976,375 947,395 920,414 895,432 870,450 847,466 825,482 803,497 782,510 762,523 742,534 723,545 703,554 683,563 663,570 643,576 621,581 599,585 576,589 552,591 527,593 500,594 472,594 442,593 410,592 377,590 343,588 306,585 268,582 228,578 185,574 1260,238 1218,262 1178,285 1140,307 1103,330 1069,352 1036,373 1005,394 975,414 948,434 921,452 896,471 873,488 850,504 829,520 809,535 789,548 770,561 751,572 733,583 714,592 695,601 676,608 657,614 636,619 615,624 593,627 570,629 545,631 519,632 491,632 462,632 432,631 399,629 365,627 329,625 291,622 251,618 209,615 1257,277 1215,300 1175,323 1137,345 1101,367 1067,389 1035,410 1004,430 975,451 948,470 923,489 898,507 876,524 854,540 834,556 814,571 795,584 777,597 760,608 742,619 725,628 707,637 689,644 671,650 651,655 631,660 610,663 587,666 563,667 538,668 511,669 483,669 452,668 420,666 387,665 351,662 313,660 274,657 233,654 1253,315 1212,337 1172,359 1135,381 1099,403 1065,424 1034,445 1004,465 975,485 949,504 924,523 900,541 878,558 858,574 838,590 820,604 802,618 785,631 768,642 752,653 736,662 719,670 702,678 685,684 666,689 647,693 626,697 605,700 582,701 557,703 531,703 503,703 473,703 442,702 408,700 373,698 336,696 297,694 255,691 1251,350 1209,372 1170,394 1133,415 1098,437 1064,457 1033,478 1003,498 976,517 950,536 925,555 903,573 881,590 862,606 843,621 825,636 809,650 793,662 777,674 762,684 746,694 731,702 715,709 698,715 681,721 663,725 643,729 622,731 600,733 576,735 550,736 523,736 493,736 462,735 429,734 394,732 358,731 319,729 278,726 1249,384 1207,406 1168,427 1131,448 1096,468 1064,489 1033,509 1003,529 976,548 951,567 927,585 905,602 884,619 865,635 848,651 831,665 815,679 800,692 786,703 771,714 757,723 743,731 728,739 712,745 696,750 678,755 660,758 639,761 618,763 594,765 569,766 542,766 513,767 483,766 450,766 415,765 379,763 340,762 300,760 1247,416 1206,437 1167,458 1131,478 1096,498 1063,518 1033,538 1004,557 977,576 952,595 929,613 907,630 888,647 869,663 852,678 837,693 822,706 808,719 794,730 781,741 768,750 755,759 741,766 726,772 711,778 694,782 676,786 656,789 635,791 612,793 588,794 561,795 533,796 503,796 470,795 436,795 400,794 361,793 321,792 1246,447 1205,467 1167,487 1130,507 1096,527 1063,546 1033,565 1005,584 978,603 954,621 931,638 910,656 891,672 873,688 857,703 842,718 828,731 815,744 803,755 791,766 779,775 767,784 754,791 740,797 725,803 709,807 692,811 673,814 653,817 630,819 606,821 580,822 552,823 522,823 490,824 456,824 420,824 382,823 341,823 1246,476 1205,496 1167,515 1130,534 1096,553 1064,572 1034,591 1006,609 980,627 956,645 933,662 913,679 894,696 877,711 862,726 848,741 835,754 823,767 812,778 801,789 790,798 778,807 767,814 754,820 740,826 725,830 708,834 690,838 670,841 648,843 624,845 599,847 571,848 541,849 509,850 475,851 439,851 401,852 361,852 1246,504 1206,523 1168,541 1131,560 1097,578 1065,596 1035,614 1008,632 982,650 958,667 936,684 916,701 898,717 882,732 867,747 854,762 842,775 831,788 820,799 810,810 801,819 790,827 779,835 768,841 755,847 740,851 724,856 706,859 687,862 665,865 642,868 616,870 589,872 559,873 528,875 494,876 458,877 420,879 380,880 1248,531 1207,548 1169,566 1133,584 1099,602 1067,619 1037,636 1010,654 984,671 961,687 939,704 920,720 902,736 886,751 872,766 860,780 848,794 838,806 829,818 820,828 811,838 802,846 792,853 781,860 769,865 755,870 740,875 723,879 703,882 682,885 659,888 634,891 607,894 577,896 546,898 512,900 476,902 438,904 398,906 1250,556 1210,573 1172,590 1135,607 1102,624 1070,640 1040,657 1013,673 987,690 964,706 943,722 923,738 906,753 891,768 877,783 865,797 855,810 846,823 838,834 830,845 822,854 814,862 805,870 795,876 783,882 770,887 755,892 738,896 719,900 699,904 676,907 651,911 623,914 594,917 563,920 529,923 494,926 456,928 416,931 1253,580 1213,596 1175,612 1139,628 1105,644 1073,660 1044,676 1016,692 991,707 968,723 947,738 928,754 911,769 896,783 883,798 872,811 862,825 854,837 846,848 840,859 833,868 826,877 818,884 808,891 798,897 785,902 770,907 754,912 735,917 714,921 692,925 667,929 640,933 610,937 579,941 546,944 510,948 472,952 432,955 1257,603 1217,618 1179,634 1143,649 1109,664 1077,679 1048,694 1021,709 995,724 972,738 951,753 933,768 916,782 901,796 889,810 878,824 869,837 861,849 855,861 849,871 844,880 838,889 830,896 822,903 811,909 799,915 785,921 768,926 750,931 729,936 707,941 682,946 655,951 626,955 595,960 561,964 526,969 488,974 448,978 1262,626 1222,640 1184,654 1148,668 1114,682 1083,696 1053,710 1026,725 1001,739 978,752 957,766 938,780 922,794 907,808 895,821 884,834 876,847 869,859 864,871 859,881 855,890 849,899 843,906 835,913 825,920 813,926 799,932 783,938 764,944 744,950 721,956 696,961 670,967 640,973 609,978 576,984 540,989 503,995 463,1000 1268,647 1228,661 1190,674 1154,687 1120,700 1089,713 1059,726 1032,739 1007,752 984,765 963,778 944,791 928,804 914,817 901,830 891,843 883,855 877,867 872,878 869,889 865,898 861,907 855,914 848,922 838,929 826,936 812,943 796,949 778,956 757,963 735,969 710,976 683,983 654,989 623,996 590,1002 554,1009 516,1015 476,1022 1275,669 1235,681 1197,693 1161,705 1127,717 1096,729 1066,741 1039,753 1014,765 991,777 970,789 952,801 935,813 921,825 909,837 899,849 891,861 885,873 881,884 879,894 876,904 873,912 867,921 860,928 850,936 838,944 824,952 808,959 790,967 770,975 747,982 723,990 696,997 667,1005 635,1013 602,1020 567,1028 529,1035 489,1043 1283,690 1243,701 1205,712 1169,723 1135,734 1104,745 1074,756 1047,767 1022,778 999,789 978,800 960,811 943,822 929,833 917,844 907,855 899,866 894,877 890,887 888,898 887,907 884,916 878,925 871,934 862,942 850,951 836,960 820,968 802,977 781,986 759,994 734,1003 707,1012 678,1020 647,1029 614,1038 578,1046 540,1055 501,1064 1293,710 1252,720 1214,730 1178,740 1145,750 1113,760 1084,770 1056,780 1031,790 1008,800 988,810 969,820 953,830 938,839 926,849 916,859 908,869 903,879 899,889 898,899 897,909 894,919 889,928 882,938 872,948 860,958 846,967 830,977 812,987 792,997 769,1006 745,1016 718,1026 689,1035 658,1045 624,1055 589,1065 551,1074 511,1084 1303,731 1263,740 1225,749 1189,758 1155,766 1123,775 1094,784 1067,793 1042,802 1019,811 998,820 979,828 963,837 949,846 936,855 927,864 919,873 913,882 910,891 908,900 907,910 904,921 898,932 891,942 881,953 870,964 856,975 840,986 822,996 801,1007 779,1018 754,1029 727,1040 698,1051 667,1061 634,1072 598,1083 560,1094 521,1105 1314,752 1274,760 1236,767 1200,775 1166,783 1135,791 1105,799 1078,806 1053,814 1030,822 1009,830 991,838 974,845 960,853 948,861 938,869 930,877 924,885 920,894 918,903 916,913 912,924 907,936 899,947 890,959 878,971 864,983 848,995 830,1006 810,1018 787,1030 762,1042 735,1054 706,1066 675,1078 642,1090 606,1102 569,1113 529,1125 1327,773 1286,780 1248,786 1212,793 1179,800 1147,807 1118,813 1090,820 1065,827 1042,834 1022,841 1003,847 986,854 972,861 960,868 950,876 942,883 936,891 931,899 928,908 925,919 920,930 915,942 907,954 897,966 886,979 872,992 855,1004 837,1017 817,1030 794,1043 770,1056 743,1069 714,1082 683,1095 649,1107 614,1120 576,1133 536,1146 1340,795 1300,800 1262,806 1226,812 1192,817 1160,823 1131,829 1104,835 1079,841 1056,846 1035,852 1016,858 1000,864 985,871 973,877 963,884 954,891 947,898 942,906 938,916 934,926 928,937 922,949 914,962 904,975 892,988 878,1002 862,1015 844,1029 823,1043 801,1056 776,1070 749,1084 720,1098 689,1112 655,1126 620,1140 582,1154 542,1168 1355,817 1314,822 1276,826 1240,831 1207,836 1175,841 1145,845 1118,850 1093,855 1070,860 1049,865 1030,871 1013,876 999,882 986,887 976,894 967,900 959,908 953,916 948,925 942,935 936,947 929,959 921,972 910,985 898,999 884,1013 868,1027 849,1042 829,1056 806,1071 781,1086 754,1100 725,1115 694,1130 661,1145 625,1160 587,1175 547,1190 1370,840 1330,844 1292,847 1256,851 1222,855 1190,859 1161,863 1133,867 1108,871 1085,875 1064,880 1045,884 1028,889 1013,894 1000,900 989,906 979,912 971,920 964,928 958,937 951,947 944,958 936,971 927,984 916,997 904,1012 889,1026 873,1041 854,1056 833,1071 811,1087 786,1102 759,1118 730,1134 698,1149 665,1165 629,1181 592,1197 552,1213 1386,864 1346,867 1308,870 1272,873 1238,876 1206,879 1177,882 1149,885 1124,889 1101,892 1079,896 1060,900 1043,904 1028,909 1014,914 1003,920 992,926 983,933 975,942 968,951 960,961 952,972 943,985 933,998 922,1012 909,1026 894,1041 877,1056 858,1072 837,1088 815,1104 790,1120 762,1137 733,1153 702,1170 668,1186 633,1203 595,1220 555,1237 1404,889 1363,891 1325,893 1289,895 1255,897 1223,900 1194,902 1166,905 1140,907 1117,910 1095,914 1076,917 1058,921 1043,926 1029,930 1016,936 1005,942 995,949 986,958 978,967 969,977 960,988 950,1001 939,1014 927,1028 914,1043 898,1058 881,1074 862,1090 841,1106 818,1123 793,1140 765,1157 736,1174 704,1191 671,1209 635,1226 597,1244 557,1262 1422,915 1382,916 1343,918 1307,919 1273,920 1241,922 1211,924 1183,926 1157,928 1134,931 1112,933 1092,936 1074,940 1058,944 1043,949 1030,954 1018,961 1007,968 997,976 988,985 978,995 968,1007 957,1019 945,1032 933,1046 918,1061 902,1077 885,1093 865,1109 844,1126 820,1143 795,1161 768,1178 738,1196 706,1214 673,1232 637,1251 599,1269 559,1288 1441,943 1400,943 1362,944 1326,944 1291,945 1259,946 1229,947 1201,949 1175,950 1151,952 1129,955 1109,958 1090,961 1073,965 1058,969 1044,975 1031,981 1019,988 1008,996 997,1005 987,1016 976,1027 964,1039 951,1053 938,1067 923,1082 906,1098 888,1114 868,1131 846,1148 822,1165 797,1183 769,1202 739,1220 708,1239 674,1258 638,1277 600,1296 560,1315 1461,972 1420,971 1381,971 1345,971 1310,971 1278,972 1248,972 1219,973 1193,975 1169,976 1146,978 1125,981 1106,984 1089,988 1073,992 1058,997 1044,1003 1031,1011 1019,1019 1007,1028 996,1038 983,1050 971,1062 957,1075 943,1090 927,1105 910,1120 891,1137 871,1154 848,1172 824,1190 798,1208 770,1227 740,1246 708,1265 674,1284 638,1304 600,1324 560,1344 1481,1002 1440,1001 1402,1000 1365,1000 1330,999 1298,999 1267,999 1238,1000 1212,1001 1187,1002 1164,1004 1142,1006 1123,1009 1104,1012 1088,1017 1072,1022 1057,1028 1044,1035 1030,1043 1017,1053 1004,1063 991,1074 978,1087 963,1100 948,1114 931,1130 913,1145 894,1162 873,1179 850,1197 825,1216 799,1234 771,1253 741,1273 708,1293 674,1313 638,1333 599,1353 559,1374 1502,1034 1461,1033 1422,1031 1385,1030 1350,1029 1317,1028 1287,1028 1257,1028 1230,1029 1205,1030 1181,1031 1159,1033 1139,1036 1120,1040 1102,1044 1086,1049 1070,1055 1056,1062 1041,1070 1027,1079 1013,1090 999,1101 984,1114 969,1127 953,1141 935,1157 917,1173 896,1189 875,1207 851,1225 826,1243 800,1263 771,1282 740,1302 708,1322 673,1343 637,1364 598,1385 557,1406 1524,1068 1483,1066 1443,1064 1406,1062 1371,1060 1338,1059 1306,1059 1277,1058 1249,1059 1224,1059 1199,1061 1177,1063 1156,1065 1136,1069 1117,1073 1100,1078 1084,1084 1068,1091 1052,1099 1037,1109 1022,1119 1007,1130 991,1143 975,1156 957,1170 939,1186 920,1202 899,1219 877,1236 853,1255 827,1273 800,1293 771,1313 740,1333 707,1354 672,1375 635,1396 596,1418 555,1439 1546,1103 1505,1100 1465,1098 1428,1096 1392,1094 1359,1092 1327,1091 1297,1091 1269,1091 1242,1091 1218,1092 1194,1094 1172,1097 1152,1100 1133,1104 1114,1109 1097,1115 1080,1122 1063,1130 1047,1140 1031,1150 1015,1161 998,1174 980,1187 962,1202 943,1217 923,1233 901,1250 878,1268 854,1286 828,1305 800,1325 770,1345 739,1366 705,1387 670,1408 633,1430 594,1452 553,1475 1569,1140 1527,1137 1487,1134 1450,1131 1414,1129 1380,1127 1347,1126 1317,1125 1288,1125 1261,1125 1236,1126 1212,1128 1189,1130 1168,1133 1148,1138 1128,1143 1110,1149 1092,1156 1074,1164 1057,1173 1040,1183 1022,1195 1005,1207 986,1221 967,1235 947,1250 926,1267 903,1284 880,1302 855,1320 828,1339 799,1359 769,1380 737,1401 704,1422 668,1444 631,1466 591,1489 550,1512 1592,1179 1550,1175 1510,1172 1472,1169 1436,1166 1401,1164 1368,1163 1337,1161 1308,1161 1280,1161 1254,1162 1230,1163 1206,1166 1184,1169 1163,1173 1142,1178 1123,1184 1104,1191 1085,1199 1067,1209 1049,1219 1030,1230 1011,1243 992,1256 972,1271 951,1286 929,1302 906,1319 881,1337 855,1356 828,1376 799,1396 768,1416 736,1438 702,1459 666,1481 628,1504 588,1527 546,1550 1616,1220 1574,1215 1533,1212 1495,1208 1458,1205 1423,1203 1390,1201 1358,1200 1328,1199 1300,1199 1273,1200 1247,1201 1223,1204 1200,1207 1178,1211 1157,1216 1136,1222 1116,1229 1096,1237 1077,1246 1058,1257 1038,1268 1018,1280 998,1294 977,1308 955,1324 932,1340 908,1357 882,1375 856,1394 828,1414 798,1434 767,1455 734,1476 699,1498 663,1521 624,1544 584,1567 542,1591 1640,1262 1597,1258 1557,1253 1517,1250 1480,1247 1445,1244 1411,1242 1379,1240 1348,1240 1319,1239 1291,1240 1265,1241 1240,1244 1216,1247 1193,1251 1171,1256 1149,1262 1128,1269 1107,1277 1087,1286 1066,1296 1046,1308 1025,1320 1003,1334 981,1348 958,1364 935,1380 910,1397 883,1415 856,1434 827,1454 797,1475 765,1496 732,1517 696,1540 660,1562 621,1586 580,1609 538,1633 "/>
</svg>
