<svg width="1800" height="1800" viewBox="0 0 1800 1800" xmlns="http://www.w3.org/2000/svg">
<polyline fill="none" opacity="1" stroke="#00FF00" stroke-width="1" points="5,1794 5,1723 5,1651 5,1580 5,1508 5,1437 5,1365 5,1294 5,1222 5,1150 5,1079 5,1007 5,936 5,864 5,793 5,721 5,650 5,578 5,506 5,435 5,363 5,292 5,220 5,149 5,77 5,5 76,1794 76,1723 76,1651 76,1580 76,1508 76,1437 76,1365 76,1294 76,1222 76,1150 76,1079 76,1007 76,936 76,864 76,793 76,721 76,650 76,578 76,506 76,435 76,363 76,292 76,220 76,149 76,77 76,5 148,1794 148,1723 148,1651 148,1580 148,1508 148,1437 148,1365 148,1294 148,1222 148,1150 148,1079 148,1007 148,936 148,864 148,793 148,721 148,650 148,578 148,506 148,435 148,363 148,292 148,220 148,149 148,77 148,5 219,1794 219,1723 219,1651 219,1580 219,1508 219,1437 219,1365 219,1294 219,1222 219,1150 219,1079 219,1007 219,936 219,864 219,793 219,721 219,650 219,578 219,506 219,435 219,363 219,292 219,220 219,149 219,77 219,5 291,1794 291,1723 291,1651 291,1580 291,1508 291,1437 291,1365 291,1294 291,1222 291,1150 291,1079 291,1007 291,936 291,864 291,793 291,721 291,650 291,578 291,506 291,435 291,363 291,292 291,220 291,149 291,77 291,5 362,1794 362,1723 362,1651 362,1580 362,1508 362,1437 362,1365 362,1294 362,1222 362,1150 362,1079 362,1007 362,936 362,864 362,793 362,721 362,650 362,578 362,506 362,435 362,363 362,292 362,220 362,149 362,77 362,5 434,1794 434,1723 434,1651 434,1580 434,1508 434,1437 434,1365 434,1294 434,1222 434,1150 434,1079 434,1007 434,936 434,864 434,793 434,721 434,650 434,578 434,506 434,435 434,363 434,292 434,220 434,149 434,77 434,5 505,1794 505,1723 505,1651 505,1580 505,1508 505,1437 505,1365 505,1294 505,1222 505,1150 505,1079 505,1007 505,936 505,864 505,793 505,721 505,650 505,578 505,506 505,435 505,363 505,292 505,220 505,149 505,77 505,5 577,1794 577,1723 577,1651 577,1580 577,1508 577,1437 577,1365 577,1294 577,1222 577,1150 577,1079 577,1007 577,936 577,864 577,793 577,721 577,650 577,578 577,506 577,435 577,363 577,292 577,220 577,149 577,77 577,5 649,1794 649,1723 649,1651 649,1580 649,1508 649,1437 649,1365 649,1294 649,1222 649,1150 649,1079 649,1007 649,936 649,864 649,793 649,721 649,650 649,578 649,506 649,435 649,363 649,292 649,220 649,149 649,77 649,5 720,1794 720,1723 720,1651 720,1580 720,1508 720,1437 720,1365 720,1294 720,1222 720,1150 720,1079 720,1007 720,936 720,864 720,793 720,721 720,650 720,578 720,506 720,435 720,363 720,292 720,220 720,149 720,77 720,5 792,1794 792,1723 792,1651 792,1580 792,1508 792,1437 792,1365 792,1294 792,1222 792,1150 792,1079 792,1007 792,936 792,864 792,793 792,721 792,650 792,578 792,506 792,435 792,363 792,292 792,220 792,149 792,77 792,5 863,1794 863,1723 863,1651 863,1580 863,1508 863,1437 863,1365 863,1294 863,1222 863,1150 863,1079 863,1007 863,936 863,864 863,793 863,721 863,650 863,578 863,506 863,435 863,363 863,292 863,220 863,149 863,77 863,5 935,1794 935,1723 935,1651 935,1580 935,1508 935,1437 935,1365 935,1294 935,1222 935,1150 935,1079 935,1007 935,936 935,864 935,793 935,721 935,650 935,578 935,506 935,435 935,363 935,292 935,220 935,149 935,77 935,5 1006,1794 1006,1723 1006,1651 1006,1580 1006,1508 1006,1437 1006,1365 1006,1294 1006,1222 1006,1150 1006,1079 1006,1007 1006,936 1006,864 1006,793 1006,721 1006,650 1006,578 1006,506 1006,435 1006,363 1006,292 1006,220 1006,149 1006,77 1006,5 1078,1794 1078,1723 1078,1651 1078,1580 1078,1508 1078,1437 1078,1365 1078,1294 1078,1222 1078,1150 1078,1079 1078,1007 1078,936 1078,864 1078,793 1078,721 1078,650 1078,578 1078,506 1078,435 1078,363 1078,292 1078,220 1078,149 1078,77 1078,5 1149,1794 1149,1723 1149,1651 1149,1580 1149,1508 1149,1437 1149,1365 1149,1294 1149,1222 1149,1150 1149,1079 1149,1007 1149,936 1149,864 1149,793 1149,721 1149,650 1149,578 1149,506 1149,435 1149,363 1149,292 1149,220 1149,149 1149,77 1149,5 1221,1794 1221,1723 1221,1651 1221,1580 1221,1508 1221,1437 1221,1365 1221,1294 1221,1222 1221,1150 1221,1079 1221,1007 1221,936 1221,864 1221,793 1221,721 1221,650 1221,578 1221,506 1221,435 1221,363 1221,292 1221,220 1221,149 1221,77 1221,5 1293,1794 1293,1723 1293,1651 1293,1580 1293,1508 1293,1437 1293,1365 1293,1294 1293,1222 1293,1150 1293,1079 1293,1007 1293,936 1293,864 1293,793 1293,721 1293,650 1293,578 1293,506 1293,435 1293,363 1293,292 1293,220 1293,149 1293,77 1293,5 1364,1794 1364,1723 1364,1651 1364,1580 1364,1508 1364,1437 1364,1365 1364,1294 1364,1222 1364,1150 1364,1079 1364,1007 1364,936 1364,864 1364,793 1364,721 1364,650 1364,578 1364,506 1364,435 1364,363 1364,292 1364,220 1364,149 1364,77 1364,5 1436,1794 1436,1723 1436,1651 1436,1580 1436,1508 1436,1437 1436,1365 1436,1294 1436,1222 1436,1150 1436,1079 1436,1007 1436,936 1436,864 1436,793 1436,721 1436,650 1436,578 1436,506 1436,435 1436,363 1436,292 1436,220 1436,149 1436,77 1436,5 1507,1794 1507,1723 1507,1651 1507,1580 1507,1508 1507,1437 1507,1365 1507,1294 1507,1222 1507,1150 1507,1079 1507,1007 1507,936 1507,864 1507,793 1507,721 1507,650 1507,578 1507,506 1507,435 1507,363 1507,292 1507,220 1507,149 1507,77 1507,5 1579,1794 1579,1723 1579,1651 1579,1580 1579,1508 1579,1437 1579,1365 1579,1294 1579,1222 1579,1150 1579,1079 1579,1007 1579,936 1579,864 1579,793 1579,721 1579,650 1579,578 1579,506 1579,435 1579,363 1579,292 1579,220 1579,149 1579,77 1579,5 1650,1794 1650,1723 1650,1651 1650,1580 1650,1508 1650,1437 1650,1365 1650,1294 1650,1222 1650,1150 1650,1079 1650,1007 1650,936 1650,864 1650,793 1650,721 1650,650 1650,578 1650,506 1650,435 1650,363 1650,292 1650,220 1650,149 1650,77 1650,5 1722,1794 1722,1723 1722,1651 1722,1580 1722,1508 1722,1437 1722,1365 1722,1294 1722,1222 1722,1150 1722,1079 1722,1007 1722,936 1722,864 1722,793 1722,721 1722,650 1722,578 1722,506 1722,435 1722,363 1722,292 1722,220 1722,149 1722,77 1722,5 1794,1794 1794,1723 1794,1651 1794,1580 1794,1508 1794,1437 1794,1365 1794,1294 1794,1222 1794,1150 1794,1079 1794,1007 1794,936 1794,864 1794,793 1794,721 1794,650 1794,578 1794,506 1794,435 1794,363 1794,292 1794,220 1794,149 1794,77 1794,5 "/>
</svg>
