<svg width="1800" height="1800" viewBox="0 0 1800 1800" xmlns="http://www.w3.org/2000/svg">
<polyline fill="none" opacity="1" stroke="#00FF00" stroke-width="1" points="1794,5 1795,5 1795,5 1795,5 1795,5 1795,5 1795,5 1795,50 1795,184 1795,319 1795,453 1795,587 1795,721 1795,855 1795,989 1795,1124 1795,1258 1795,1392 1795,1526 1795,1660 1795,1794 1795,1795 1795,1795 1795,1795 1795,1795 1795,1795 1795,1795 1664,5 1794,5 1795,5 1795,5 1795,5 1795,5 1795,5 1795,114 1795,238 1795,362 1795,486 1795,610 1795,735 1795,859 1795,983 1795,1107 1795,1231 1795,1355 1795,1479 1795,1603 1795,1727 1795,1795 1795,1795 1795,1795 1795,1795 1795,1795 1752,1795 1545,5 1674,5 1794,5 1795,5 1795,5 1795,5 1795,64 1795,178 1795,292 1795,406 1795,520 1795,634 1795,748 1795,862 1795,976 1795,1090 1795,1204 1795,1318 1795,1432 1795,1546 1795,1660 1795,1774 1795,1795 1795,1795 1795,1795 1755,1795 1632,1795 1436,5 1565,5 1684,5 1794,5 1795,5 1795,33 1795,137 1795,241 1795,345 1795,449 1795,553 1795,657 1795,761 1795,865 1795,969 1795,1073 1795,1177 1795,1281 1795,1385 1795,1489 1795,1593 1795,1697 1795,1795 1795,1795 1758,1795 1646,1795 1523,1795 1337,5 1466,5 1586,5 1695,5 1794,23 1795,117 1795,211 1795,305 1795,399 1795,493 1795,587 1795,681 1795,775 1795,869 1795,963 1795,1057 1795,1150 1795,1244 1795,1338 1795,1432 1795,1526 1795,1620 1795,1714 1762,1795 1659,1795 1547,1795 1425,1795 1248,5 1378,5 1497,5 1606,33 1705,117 1794,201 1795,285 1795,369 1795,453 1795,537 1795,620 1795,704 1795,788 1795,872 1795,956 1795,1040 1795,1124 1795,1207 1795,1291 1795,1375 1795,1459 1795,1543 1765,1627 1673,1711 1570,1794 1458,1795 1336,1795 1170,5 1299,5 1418,64 1527,137 1626,211 1715,285 1794,359 1795,433 1795,506 1795,580 1795,654 1795,728 1795,802 1795,875 1795,949 1795,1023 1795,1097 1795,1171 1795,1244 1795,1318 1795,1392 1768,1466 1686,1540 1594,1613 1492,1687 1379,1761 1257,1795 1101,50 1230,114 1349,178 1458,241 1557,305 1646,369 1725,433 1794,496 1795,560 1795,624 1795,688 1795,751 1795,815 1795,879 1795,942 1795,1006 1795,1070 1795,1134 1795,1197 1795,1261 1772,1325 1700,1389 1617,1452 1525,1516 1423,1580 1310,1644 1188,1707 1042,184 1171,238 1290,292 1399,345 1498,399 1587,453 1666,506 1735,560 1794,614 1795,667 1795,721 1795,775 1795,828 1795,882 1795,936 1795,989 1795,1043 1795,1097 1795,1150 1775,1204 1713,1258 1641,1311 1559,1365 1466,1419 1364,1472 1252,1526 1129,1580 993,319 1123,362 1242,406 1351,449 1450,493 1539,537 1617,580 1686,624 1745,667 1794,711 1795,755 1795,798 1795,842 1795,885 1795,929 1795,973 1795,1016 1795,1060 1778,1103 1726,1147 1664,1191 1592,1234 1510,1278 1418,1322 1316,1365 1203,1409 1081,1452 955,453 1084,486 1203,520 1312,553 1411,587 1500,620 1579,654 1648,688 1706,721 1755,755 1794,788 1795,822 1795,855 1795,889 1795,922 1795,956 1795,989 1782,1023 1740,1057 1688,1090 1626,1124 1554,1157 1471,1191 1379,1224 1277,1258 1165,1291 1042,1325 926,587 1056,610 1175,634 1284,657 1383,681 1471,704 1550,728 1619,751 1678,775 1726,798 1765,822 1794,845 1795,869 1795,892 1795,916 1795,939 1785,963 1753,986 1711,1010 1659,1033 1597,1057 1525,1080 1443,1103 1351,1127 1248,1150 1136,1174 1014,1197 908,721 1037,735 1156,748 1265,761 1364,775 1453,788 1532,802 1601,815 1659,828 1708,842 1747,855 1775,869 1794,882 1795,896 1795,909 1788,922 1767,936 1735,949 1693,963 1641,976 1579,989 1507,1003 1425,1016 1332,1030 1230,1043 1118,1057 995,1070 900,855 1029,859 1148,862 1257,865 1356,869 1445,872 1523,875 1592,879 1651,882 1700,885 1738,889 1767,892 1785,896 1794,899 1792,902 1780,906 1758,909 1726,912 1684,916 1632,919 1570,922 1498,926 1416,929 1324,932 1222,936 1109,939 987,942 901,989 1030,983 1149,976 1258,969 1357,963 1446,956 1525,949 1594,942 1653,936 1701,929 1740,922 1768,916 1787,909 1795,902 1794,896 1782,889 1760,882 1728,875 1686,869 1634,862 1572,855 1500,849 1418,842 1326,835 1223,828 1111,822 988,815 913,1124 1042,1107 1161,1090 1270,1073 1369,1057 1458,1040 1537,1023 1606,1006 1664,989 1713,973 1752,956 1780,939 1795,922 1795,906 1795,889 1794,872 1772,855 1740,839 1698,822 1646,805 1584,788 1512,771 1430,755 1337,738 1235,721 1123,704 1000,688 935,1258 1064,1231 1183,1204 1292,1177 1391,1150 1480,1124 1559,1097 1627,1070 1686,1043 1735,1016 1773,989 1795,963 1795,936 1795,909 1795,882 1795,855 1794,828 1762,802 1720,775 1668,748 1606,721 1534,694 1451,667 1359,641 1257,614 1144,587 1022,560 967,1392 1096,1355 1215,1318 1324,1281 1423,1244 1512,1207 1591,1171 1659,1134 1718,1097 1767,1060 1795,1023 1795,986 1795,949 1795,912 1795,875 1795,839 1795,802 1794,765 1752,728 1700,691 1638,654 1565,617 1483,580 1391,543 1289,506 1176,470 1054,433 1009,1526 1138,1479 1257,1432 1366,1385 1465,1338 1554,1291 1632,1244 1701,1197 1760,1150 1795,1103 1795,1057 1795,1010 1795,963 1795,916 1795,869 1795,822 1795,775 1795,728 1794,681 1742,634 1679,587 1607,540 1525,493 1433,446 1331,399 1218,352 1096,305 1061,1660 1190,1603 1309,1546 1418,1489 1517,1432 1606,1375 1684,1318 1753,1261 1795,1204 1795,1147 1795,1090 1795,1033 1795,976 1795,919 1795,862 1795,805 1795,748 1795,691 1795,634 1794,577 1731,520 1659,463 1577,406 1485,349 1383,292 1270,235 1148,178 1123,1794 1252,1727 1371,1660 1480,1593 1579,1526 1668,1459 1747,1392 1795,1325 1795,1258 1795,1191 1795,1124 1795,1057 1795,989 1795,922 1795,855 1795,788 1795,721 1795,654 1795,587 1795,520 1794,453 1721,386 1639,319 1547,251 1445,184 1332,117 1210,50 1195,1795 1324,1795 1443,1774 1552,1697 1651,1620 1740,1543 1795,1466 1795,1389 1795,1311 1795,1234 1795,1157 1795,1080 1795,1003 1795,926 1795,849 1795,771 1795,694 1795,617 1795,540 1795,463 1795,386 1794,309 1711,231 1619,154 1517,77 1404,5 1282,5 1277,1795 1406,1795 1525,1795 1634,1795 1733,1714 1795,1627 1795,1540 1795,1452 1795,1365 1795,1278 1795,1191 1795,1103 1795,1016 1795,929 1795,842 1795,755 1795,667 1795,580 1795,493 1795,406 1795,319 1795,231 1794,144 1701,57 1599,5 1487,5 1364,5 1369,1795 1498,1795 1617,1795 1726,1795 1795,1795 1795,1711 1795,1613 1795,1516 1795,1419 1795,1322 1795,1224 1795,1127 1795,1030 1795,932 1795,835 1795,738 1795,641 1795,543 1795,446 1795,349 1795,251 1795,154 1795,57 1794,5 1691,5 1579,5 1456,5 1471,1795 1601,1795 1720,1795 1795,1795 1795,1795 1795,1794 1795,1687 1795,1580 1795,1472 1795,1365 1795,1258 1795,1150 1795,1043 1795,936 1795,828 1795,721 1795,614 1795,506 1795,399 1795,292 1795,184 1795,77 1795,5 1795,5 1794,5 1681,5 1559,5 1584,1795 1713,1795 1795,1795 1795,1795 1795,1795 1795,1795 1795,1761 1795,1644 1795,1526 1795,1409 1795,1291 1795,1174 1795,1057 1795,939 1795,822 1795,704 1795,587 1795,470 1795,352 1795,235 1795,117 1795,5 1795,5 1795,5 1795,5 1794,5 1671,5 1706,1795 1795,1795 1795,1795 1795,1795 1795,1795 1795,1795 1795,1795 1795,1707 1795,1580 1795,1452 1795,1325 1795,1197 1795,1070 1795,942 1795,815 1795,688 1795,560 1795,433 1795,305 1795,178 1795,50 1795,5 1795,5 1795,5 1795,5 1795,5 1794,5 "/>
</svg>
