<svg width="1800" height="1800" viewBox="0 0 1800 1800" xmlns="http://www.w3.org/2000/svg">
<polyline fill="none" opacity="1" stroke="#FF0000" stroke-width="1" points="1434,1077 1427,1091 1419,1106 1410,1120 1401,1134 1391,1149 1381,1163 1370,1177 1359,1192 1347,1206 1334,1220 1321,1235 1308,1249 1293,1263 1279,1277 1263,1292 1247,1306 1231,1320 1214,1335 1196,1349 1178,1363 1159,1378 1140,1392 1120,1406 1099,1421 1078,1435 1056,1449 1034,1464 1011,1478 988,1492 964,1506 939,1521 914,1535 888,1549 862,1564 835,1578 808,1592 780,1607 751,1621 722,1635 693,1650 662,1664 631,1678 600,1693 568,1707 535,1721 502,1735 469,1750 434,1764 399,1778 1420,1070 1413,1084 1405,1098 1396,1111 1387,1125 1377,1139 1367,1152 1356,1166 1345,1180 1333,1194 1320,1207 1307,1221 1294,1235 1279,1249 1265,1262 1249,1276 1233,1290 1217,1304 1200,1317 1182,1331 1164,1345 1145,1359 1125,1372 1106,1386 1085,1400 1064,1414 1042,1427 1020,1441 997,1455 974,1468 950,1482 925,1496 900,1510 874,1523 848,1537 821,1551 794,1565 766,1578 737,1592 708,1606 679,1620 648,1633 617,1647 586,1661 554,1675 521,1688 488,1702 455,1716 420,1730 385,1743 1406,1063 1399,1076 1391,1089 1383,1102 1374,1116 1364,1129 1354,1142 1343,1155 1331,1168 1320,1181 1307,1195 1294,1208 1280,1221 1266,1234 1251,1247 1236,1260 1220,1274 1203,1287 1186,1300 1169,1313 1150,1326 1131,1339 1112,1353 1092,1366 1072,1379 1050,1392 1029,1405 1006,1418 984,1432 960,1445 936,1458 912,1471 887,1484 861,1497 835,1511 808,1524 780,1537 752,1550 724,1563 695,1576 665,1590 635,1603 604,1616 573,1629 541,1642 508,1655 475,1669 441,1682 407,1695 372,1708 1394,1056 1386,1068 1378,1081 1370,1094 1361,1106 1351,1119 1341,1131 1330,1144 1319,1157 1307,1169 1294,1182 1281,1194 1267,1207 1253,1220 1238,1232 1223,1245 1207,1257 1190,1270 1173,1283 1156,1295 1137,1308 1119,1320 1099,1333 1079,1346 1059,1358 1038,1371 1016,1383 994,1396 971,1409 947,1421 923,1434 899,1446 874,1459 848,1471 822,1484 795,1497 768,1509 740,1522 711,1534 682,1547 652,1560 622,1572 591,1585 560,1597 528,1610 495,1623 462,1635 428,1648 394,1660 359,1673 1381,1049 1374,1061 1366,1073 1357,1085 1348,1097 1339,1109 1328,1121 1318,1133 1306,1145 1294,1157 1282,1169 1269,1181 1255,1193 1241,1205 1226,1217 1211,1229 1195,1241 1178,1253 1161,1265 1143,1277 1125,1289 1106,1301 1087,1313 1067,1325 1046,1337 1025,1349 1004,1361 981,1373 958,1385 935,1397 911,1409 887,1421 861,1433 836,1446 809,1458 783,1470 755,1482 727,1494 699,1506 670,1518 640,1530 610,1542 579,1554 547,1566 515,1578 483,1590 450,1602 416,1614 382,1626 347,1638 1370,1042 1362,1053 1354,1065 1346,1076 1337,1088 1327,1099 1317,1110 1306,1122 1295,1133 1283,1145 1270,1156 1257,1168 1243,1179 1229,1191 1214,1202 1199,1213 1183,1225 1166,1236 1149,1248 1132,1259 1113,1271 1095,1282 1075,1294 1055,1305 1035,1316 1013,1328 992,1339 970,1351 947,1362 923,1374 899,1385 875,1397 850,1408 824,1420 798,1431 771,1442 743,1454 716,1465 687,1477 658,1488 628,1500 598,1511 567,1523 536,1534 504,1545 471,1557 438,1568 404,1580 370,1591 335,1603 1358,1035 1351,1045 1343,1056 1335,1067 1325,1078 1316,1089 1306,1100 1295,1111 1283,1122 1271,1133 1259,1143 1246,1154 1232,1165 1218,1176 1203,1187 1188,1198 1172,1209 1155,1220 1138,1230 1120,1241 1102,1252 1083,1263 1064,1274 1044,1285 1023,1296 1002,1307 981,1317 958,1328 936,1339 912,1350 888,1361 864,1372 839,1383 813,1394 787,1404 760,1415 732,1426 704,1437 676,1448 647,1459 617,1470 587,1481 556,1491 524,1502 492,1513 460,1524 427,1535 393,1546 359,1557 324,1568 1348,1028 1340,1038 1332,1048 1324,1058 1315,1069 1305,1079 1295,1089 1284,1100 1273,1110 1261,1120 1248,1131 1235,1141 1222,1151 1207,1161 1192,1172 1177,1182 1161,1192 1145,1203 1127,1213 1110,1223 1092,1234 1073,1244 1053,1254 1033,1265 1013,1275 992,1285 970,1295 948,1306 925,1316 902,1326 878,1337 853,1347 828,1357 802,1368 776,1378 749,1388 722,1399 694,1409 665,1419 636,1429 606,1440 576,1450 545,1460 514,1471 482,1481 449,1491 416,1502 382,1512 348,1522 313,1532 1338,1020 1330,1030 1322,1040 1314,1050 1305,1059 1295,1069 1285,1079 1274,1089 1263,1098 1251,1108 1238,1118 1225,1128 1212,1137 1197,1147 1182,1157 1167,1166 1151,1176 1135,1186 1117,1196 1100,1205 1082,1215 1063,1225 1043,1235 1023,1244 1003,1254 982,1264 960,1273 938,1283 915,1293 892,1303 868,1312 843,1322 818,1332 792,1342 766,1351 739,1361 712,1371 684,1381 655,1390 626,1400 596,1410 566,1419 535,1429 504,1439 472,1449 439,1458 406,1468 372,1478 338,1488 303,1497 1328,1013 1321,1023 1313,1032 1304,1041 1295,1050 1286,1059 1275,1068 1265,1077 1253,1087 1241,1096 1229,1105 1216,1114 1202,1123 1188,1132 1173,1142 1158,1151 1142,1160 1125,1169 1108,1178 1090,1187 1072,1197 1053,1206 1034,1215 1014,1224 993,1233 972,1242 951,1252 928,1261 906,1270 882,1279 858,1288 834,1297 808,1306 783,1316 757,1325 730,1334 702,1343 674,1352 646,1361 617,1371 587,1380 557,1389 526,1398 494,1407 462,1416 430,1426 397,1435 363,1444 329,1453 294,1462 1319,1006 1312,1015 1304,1023 1296,1032 1287,1041 1277,1049 1267,1058 1256,1066 1244,1075 1232,1084 1220,1092 1207,1101 1193,1109 1179,1118 1164,1126 1149,1135 1133,1144 1116,1152 1099,1161 1081,1169 1063,1178 1044,1187 1025,1195 1005,1204 985,1212 963,1221 942,1230 919,1238 897,1247 873,1255 849,1264 825,1272 800,1281 774,1290 748,1298 721,1307 693,1315 665,1324 637,1333 608,1341 578,1350 548,1358 517,1367 486,1376 454,1384 421,1393 388,1401 354,1410 320,1418 285,1427 1311,999 1304,1007 1296,1015 1287,1023 1278,1031 1269,1039 1258,1047 1248,1055 1236,1063 1224,1071 1212,1079 1199,1087 1185,1095 1171,1103 1156,1111 1140,1119 1124,1127 1108,1135 1091,1143 1073,1151 1055,1159 1036,1168 1017,1176 997,1184 976,1192 955,1200 933,1208 911,1216 888,1224 865,1232 841,1240 816,1248 791,1256 766,1264 739,1272 713,1280 685,1288 657,1296 629,1304 599,1312 570,1320 539,1328 509,1336 477,1344 445,1352 413,1360 380,1368 346,1376 312,1384 277,1392 1303,992 1296,1000 1288,1007 1280,1014 1270,1022 1261,1029 1251,1037 1240,1044 1228,1052 1216,1059 1204,1067 1191,1074 1177,1081 1163,1089 1148,1096 1133,1104 1117,1111 1100,1119 1083,1126 1065,1134 1047,1141 1028,1148 1009,1156 989,1163 968,1171 947,1178 926,1186 903,1193 881,1200 857,1208 833,1215 809,1223 784,1230 758,1238 732,1245 705,1253 677,1260 649,1267 621,1275 592,1282 562,1290 532,1297 501,1305 469,1312 437,1320 405,1327 372,1334 338,1342 304,1349 269,1357 1296,985 1289,992 1281,999 1272,1006 1263,1013 1254,1019 1243,1026 1233,1033 1221,1040 1209,1047 1197,1054 1184,1061 1170,1067 1156,1074 1141,1081 1126,1088 1110,1095 1093,1102 1076,1109 1058,1116 1040,1122 1021,1129 1002,1136 982,1143 961,1150 940,1157 919,1164 896,1171 873,1177 850,1184 826,1191 802,1198 776,1205 751,1212 724,1219 698,1225 670,1232 642,1239 614,1246 585,1253 555,1260 525,1267 494,1274 462,1280 430,1287 398,1294 365,1301 331,1308 297,1315 262,1322 1290,978 1282,984 1274,991 1266,997 1257,1003 1247,1009 1237,1016 1226,1022 1215,1028 1203,1035 1190,1041 1177,1047 1163,1054 1149,1060 1134,1066 1119,1072 1103,1079 1086,1085 1069,1091 1052,1098 1033,1104 1015,1110 995,1116 975,1123 955,1129 934,1135 912,1142 890,1148 867,1154 843,1161 819,1167 795,1173 770,1179 744,1186 718,1192 691,1198 664,1205 636,1211 607,1217 578,1224 548,1230 518,1236 487,1242 456,1249 424,1255 391,1261 358,1268 324,1274 290,1280 255,1287 1284,971 1276,977 1268,982 1260,988 1251,994 1241,999 1231,1005 1220,1011 1209,1017 1197,1022 1184,1028 1171,1034 1157,1040 1143,1045 1128,1051 1113,1057 1097,1062 1080,1068 1063,1074 1046,1080 1027,1085 1009,1091 989,1097 969,1103 949,1108 928,1114 906,1120 884,1125 861,1131 837,1137 813,1143 789,1148 764,1154 738,1160 712,1165 685,1171 658,1177 630,1183 601,1188 572,1194 542,1200 512,1206 481,1211 450,1217 418,1223 385,1228 352,1234 318,1240 284,1246 249,1251 1278,964 1271,969 1263,974 1254,979 1245,984 1236,990 1225,995 1215,1000 1203,1005 1191,1010 1179,1015 1166,1020 1152,1026 1138,1031 1123,1036 1108,1041 1092,1046 1075,1051 1058,1057 1040,1062 1022,1067 1003,1072 984,1077 964,1082 943,1087 922,1093 901,1098 878,1103 855,1108 832,1113 808,1118 783,1123 758,1129 733,1134 706,1139 680,1144 652,1149 624,1154 596,1160 567,1165 537,1170 507,1175 476,1180 444,1185 412,1190 380,1196 347,1201 313,1206 279,1211 244,1216 1273,957 1266,961 1258,966 1250,970 1240,975 1231,980 1221,984 1210,989 1198,993 1186,998 1174,1002 1161,1007 1147,1012 1133,1016 1118,1021 1103,1025 1087,1030 1070,1035 1053,1039 1035,1044 1017,1048 998,1053 979,1057 959,1062 938,1067 917,1071 896,1076 873,1080 851,1085 827,1089 803,1094 779,1099 754,1103 728,1108 702,1112 675,1117 647,1122 619,1126 591,1131 562,1135 532,1140 502,1144 471,1149 439,1154 407,1158 375,1163 342,1167 308,1172 274,1177 239,1181 1269,950 1262,954 1254,958 1245,962 1236,966 1226,970 1216,974 1205,978 1194,982 1182,986 1170,990 1156,994 1143,998 1129,1002 1114,1006 1098,1010 1082,1014 1066,1018 1049,1022 1031,1026 1013,1030 994,1034 975,1038 955,1042 934,1046 913,1050 891,1054 869,1058 846,1062 823,1066 799,1070 774,1074 749,1078 724,1082 697,1086 670,1090 643,1094 615,1098 586,1102 557,1106 528,1110 497,1114 467,1118 435,1122 403,1126 371,1130 337,1134 304,1138 269,1142 235,1146 1265,943 1258,946 1250,949 1242,953 1232,956 1223,960 1213,963 1202,967 1190,970 1178,973 1166,977 1153,980 1139,984 1125,987 1110,991 1095,994 1079,997 1062,1001 1045,1004 1027,1008 1009,1011 990,1015 971,1018 951,1022 930,1025 909,1028 888,1032 865,1035 843,1039 819,1042 795,1046 771,1049 745,1052 720,1056 694,1059 667,1063 639,1066 611,1070 583,1073 554,1076 524,1080 494,1083 463,1087 431,1090 399,1094 367,1097 334,1101 300,1104 266,1107 231,1111 1262,935 1255,938 1247,941 1238,944 1229,947 1220,950 1209,953 1199,955 1187,958 1175,961 1163,964 1150,967 1136,970 1122,973 1107,975 1092,978 1076,981 1059,984 1042,987 1024,990 1006,993 987,996 968,998 948,1001 927,1004 906,1007 884,1010 862,1013 839,1016 816,1018 792,1021 767,1024 742,1027 717,1030 690,1033 664,1036 636,1038 608,1041 580,1044 550,1047 521,1050 491,1053 460,1056 428,1059 396,1061 364,1064 331,1067 297,1070 263,1073 228,1076 1260,928 1252,931 1244,933 1236,935 1227,937 1217,940 1207,942 1196,944 1185,947 1173,949 1160,951 1147,954 1133,956 1119,958 1104,960 1089,963 1073,965 1056,967 1039,970 1022,972 1003,974 985,976 965,979 945,981 925,983 904,986 882,988 860,990 837,992 813,995 789,997 765,999 740,1002 714,1004 688,1006 661,1008 634,1011 606,1013 577,1015 548,1018 518,1020 488,1022 457,1025 426,1027 394,1029 361,1031 328,1034 294,1036 260,1038 225,1041 1258,921 1250,923 1242,925 1234,926 1225,928 1215,930 1205,932 1194,933 1183,935 1171,937 1158,938 1145,940 1131,942 1117,944 1102,945 1087,947 1071,949 1054,950 1037,952 1020,954 1001,956 983,957 963,959 943,961 923,962 902,964 880,966 858,968 835,969 811,971 787,973 763,974 738,976 712,978 686,980 659,981 632,983 604,985 575,987 546,988 516,990 486,992 455,993 424,995 392,997 359,999 326,1000 292,1002 258,1004 223,1005 1256,914 1249,915 1241,916 1232,918 1223,919 1214,920 1203,921 1193,922 1181,923 1169,924 1157,926 1144,927 1130,928 1116,929 1101,930 1085,931 1070,932 1053,934 1036,935 1018,936 1000,937 981,938 962,939 942,941 921,942 900,943 878,944 856,945 833,946 810,947 786,949 761,950 736,951 711,952 684,953 658,954 630,955 602,957 574,958 544,959 515,960 485,961 454,962 422,963 390,965 358,966 325,967 291,968 257,969 222,970 1255,907 1248,908 1240,908 1231,909 1222,909 1213,910 1203,911 1192,911 1180,912 1168,912 1156,913 1143,913 1129,914 1115,915 1100,915 1085,916 1069,916 1052,917 1035,917 1017,918 999,919 980,919 961,920 941,920 920,921 899,921 878,922 855,923 833,923 809,924 785,924 761,925 735,925 710,926 684,927 657,927 629,928 601,928 573,929 544,929 514,930 484,931 453,931 421,932 389,932 357,933 324,933 290,934 256,935 221,935 1255,900 1248,900 1240,900 1231,900 1222,900 1212,900 1202,900 1191,900 1180,900 1168,900 1156,900 1142,900 1129,900 1115,900 1100,900 1084,900 1068,900 1052,900 1035,900 1017,900 999,900 980,900 961,900 941,900 920,900 899,900 877,900 855,900 832,900 809,900 785,900 760,900 735,900 710,900 683,900 656,900 629,900 601,900 572,900 543,900 514,900 483,900 453,900 421,900 389,900 357,900 323,900 290,900 255,900 221,900 1255,893 1248,892 1240,892 1231,891 1222,891 1213,890 1203,889 1192,889 1180,888 1168,888 1156,887 1143,887 1129,886 1115,885 1100,885 1085,884 1069,884 1052,883 1035,883 1017,882 999,881 980,881 961,880 941,880 920,879 899,879 878,878 855,877 833,877 809,876 785,876 761,875 735,875 710,874 684,873 657,873 629,872 601,872 573,871 544,871 514,870 484,869 453,869 421,868 389,868 357,867 324,867 290,866 256,865 221,865 1256,886 1249,885 1241,884 1232,882 1223,881 1214,880 1203,879 1193,878 1181,877 1169,876 1157,874 1144,873 1130,872 1116,871 1101,870 1085,869 1070,868 1053,866 1036,865 1018,864 1000,863 981,862 962,861 942,859 921,858 900,857 878,856 856,855 833,854 810,853 786,851 761,850 736,849 711,848 684,847 658,846 630,845 602,843 574,842 544,841 515,840 485,839 454,838 422,837 390,835 358,834 325,833 291,832 257,831 222,830 1258,879 1250,877 1242,875 1234,874 1225,872 1215,870 1205,868 1194,867 1183,865 1171,863 1158,862 1145,860 1131,858 1117,856 1102,855 1087,853 1071,851 1054,850 1037,848 1020,846 1001,844 983,843 963,841 943,839 923,838 902,836 880,834 858,832 835,831 811,829 787,827 763,826 738,824 712,822 686,820 659,819 632,817 604,815 575,813 546,812 516,810 486,808 455,807 424,805 392,803 359,801 326,800 292,798 258,796 223,795 1260,872 1252,869 1244,867 1236,865 1227,862 1217,860 1207,858 1196,856 1185,853 1173,851 1160,849 1147,846 1133,844 1119,842 1104,840 1089,837 1073,835 1056,833 1039,830 1022,828 1003,826 985,824 965,821 945,819 925,817 904,814 882,812 860,810 837,808 813,805 789,803 765,801 740,798 714,796 688,794 661,792 634,789 606,787 577,785 548,782 518,780 488,778 457,775 426,773 394,771 361,769 328,766 294,764 260,762 225,759 1262,865 1255,862 1247,859 1238,856 1229,853 1220,850 1209,847 1199,845 1187,842 1175,839 1163,836 1150,833 1136,830 1122,827 1107,824 1092,822 1076,819 1059,816 1042,813 1024,810 1006,807 987,804 968,802 948,799 927,796 906,793 884,790 862,787 839,784 816,782 792,779 767,776 742,773 717,770 690,767 664,764 636,762 608,759 580,756 550,753 521,750 491,747 460,744 428,741 396,739 364,736 331,733 297,730 263,727 228,724 1265,857 1258,854 1250,851 1242,847 1232,844 1223,840 1213,837 1202,833 1190,830 1178,827 1166,823 1153,820 1139,816 1125,813 1110,809 1095,806 1079,803 1062,799 1045,796 1027,792 1009,789 990,785 971,782 951,778 930,775 909,772 888,768 865,765 843,761 819,758 795,754 771,751 745,748 720,744 694,741 667,737 639,734 611,730 583,727 554,724 524,720 494,717 463,713 431,710 399,706 367,703 334,699 300,696 266,693 231,689 1269,850 1262,846 1254,842 1245,838 1236,834 1226,830 1216,826 1205,822 1194,818 1182,814 1170,810 1156,806 1143,802 1129,798 1114,794 1098,790 1082,786 1066,782 1049,778 1031,774 1013,770 994,766 975,762 955,758 934,754 913,750 891,746 869,742 846,738 823,734 799,730 774,726 749,722 724,718 697,714 670,710 643,706 615,702 586,698 557,694 528,690 497,686 467,682 435,678 403,674 371,670 337,666 304,662 269,658 235,654 1273,843 1266,839 1258,834 1250,830 1240,825 1231,820 1221,816 1210,811 1198,807 1186,802 1174,798 1161,793 1147,788 1133,784 1118,779 1103,775 1087,770 1070,765 1053,761 1035,756 1017,752 998,747 979,743 959,738 938,733 917,729 896,724 873,720 851,715 827,711 803,706 779,701 754,697 728,692 702,688 675,683 647,678 619,674 591,669 562,665 532,660 502,656 471,651 439,646 407,642 375,637 342,633 308,628 274,623 239,619 1278,836 1271,831 1263,826 1254,821 1245,816 1236,810 1225,805 1215,800 1203,795 1191,790 1179,785 1166,780 1152,774 1138,769 1123,764 1108,759 1092,754 1075,749 1058,743 1040,738 1022,733 1003,728 984,723 964,718 943,713 922,707 901,702 878,697 855,692 832,687 808,682 783,677 758,671 733,666 706,661 680,656 652,651 624,646 596,640 567,635 537,630 507,625 476,620 444,615 412,610 380,604 347,599 313,594 279,589 244,584 1284,829 1276,823 1268,818 1260,812 1251,806 1241,801 1231,795 1220,789 1209,783 1197,778 1184,772 1171,766 1157,760 1143,755 1128,749 1113,743 1097,738 1080,732 1063,726 1046,720 1027,715 1009,709 989,703 969,697 949,692 928,686 906,680 884,675 861,669 837,663 813,657 789,652 764,646 738,640 712,635 685,629 658,623 630,617 601,612 572,606 542,600 512,594 481,589 450,583 418,577 385,572 352,566 318,560 284,554 249,549 1290,822 1282,816 1274,809 1266,803 1257,797 1247,791 1237,784 1226,778 1215,772 1203,765 1190,759 1177,753 1163,746 1149,740 1134,734 1119,728 1103,721 1086,715 1069,709 1052,702 1033,696 1015,690 995,684 975,677 955,671 934,665 912,658 890,652 867,646 843,639 819,633 795,627 770,621 744,614 718,608 691,602 664,595 636,589 607,583 578,576 548,570 518,564 487,558 456,551 424,545 391,539 358,532 324,526 290,520 255,513 1296,815 1289,808 1281,801 1272,794 1263,787 1254,781 1243,774 1233,767 1221,760 1209,753 1197,746 1184,739 1170,733 1156,726 1141,719 1126,712 1110,705 1093,698 1076,691 1058,684 1040,678 1021,671 1002,664 982,657 961,650 940,643 919,636 896,629 873,623 850,616 826,609 802,602 776,595 751,588 724,581 698,575 670,568 642,561 614,554 585,547 555,540 525,533 494,526 462,520 430,513 398,506 365,499 331,492 297,485 262,478 1303,808 1296,800 1288,793 1280,786 1270,778 1261,771 1251,763 1240,756 1228,748 1216,741 1204,733 1191,726 1177,719 1163,711 1148,704 1133,696 1117,689 1100,681 1083,674 1065,666 1047,659 1028,652 1009,644 989,637 968,629 947,622 926,614 903,607 881,600 857,592 833,585 809,577 784,570 758,562 732,555 705,547 677,540 649,533 621,525 592,518 562,510 532,503 501,495 469,488 437,480 405,473 372,466 338,458 304,451 269,443 1311,801 1304,793 1296,785 1287,777 1278,769 1269,761 1258,753 1248,745 1236,737 1224,729 1212,721 1199,713 1185,705 1171,697 1156,689 1140,681 1124,673 1108,665 1091,657 1073,649 1055,641 1036,632 1017,624 997,616 976,608 955,600 933,592 911,584 888,576 865,568 841,560 816,552 791,544 766,536 739,528 713,520 685,512 657,504 629,496 599,488 570,480 539,472 509,464 477,456 445,448 413,440 380,432 346,424 312,416 277,408 1319,794 1312,785 1304,777 1296,768 1287,759 1277,751 1267,742 1256,734 1244,725 1232,716 1220,708 1207,699 1193,691 1179,682 1164,673 1149,665 1133,656 1116,648 1099,639 1081,631 1063,622 1044,613 1025,605 1005,596 985,588 963,579 942,570 919,562 897,553 873,545 849,536 825,528 800,519 774,510 748,502 721,493 693,485 665,476 637,467 608,459 578,450 548,442 517,433 486,424 454,416 421,407 388,399 354,390 320,382 285,373 1328,787 1321,777 1313,768 1304,759 1295,750 1286,741 1275,732 1265,723 1253,713 1241,704 1229,695 1216,686 1202,677 1188,668 1173,658 1158,649 1142,640 1125,631 1108,622 1090,613 1072,603 1053,594 1034,585 1014,576 993,567 972,558 951,548 928,539 906,530 882,521 858,512 834,503 808,494 783,484 757,475 730,466 702,457 674,448 646,439 617,429 587,420 557,411 526,402 494,393 462,384 430,374 397,365 363,356 329,347 294,338 1338,780 1330,770 1322,760 1314,750 1305,741 1295,731 1285,721 1274,711 1263,702 1251,692 1238,682 1225,672 1212,663 1197,653 1182,643 1167,634 1151,624 1135,614 1117,604 1100,595 1082,585 1063,575 1043,565 1023,556 1003,546 982,536 960,527 938,517 915,507 892,497 868,488 843,478 818,468 792,458 766,449 739,439 712,429 684,419 655,410 626,400 596,390 566,381 535,371 504,361 472,351 439,342 406,332 372,322 338,312 303,303 1348,772 1340,762 1332,752 1324,742 1315,731 1305,721 1295,711 1284,700 1273,690 1261,680 1248,669 1235,659 1222,649 1207,639 1192,628 1177,618 1161,608 1145,597 1127,587 1110,577 1092,566 1073,556 1053,546 1033,535 1013,525 992,515 970,505 948,494 925,484 902,474 878,463 853,453 828,443 802,432 776,422 749,412 722,401 694,391 665,381 636,371 606,360 576,350 545,340 514,329 482,319 449,309 416,298 382,288 348,278 313,268 1358,765 1351,755 1343,744 1335,733 1325,722 1316,711 1306,700 1295,689 1283,678 1271,667 1259,657 1246,646 1232,635 1218,624 1203,613 1188,602 1172,591 1155,580 1138,570 1120,559 1102,548 1083,537 1064,526 1044,515 1023,504 1002,493 981,483 958,472 936,461 912,450 888,439 864,428 839,417 813,406 787,396 760,385 732,374 704,363 676,352 647,341 617,330 587,319 556,309 524,298 492,287 460,276 427,265 393,254 359,243 324,232 1370,758 1362,747 1354,735 1346,724 1337,712 1327,701 1317,690 1306,678 1295,667 1283,655 1270,644 1257,632 1243,621 1229,609 1214,598 1199,587 1183,575 1166,564 1149,552 1132,541 1113,529 1095,518 1075,506 1055,495 1035,484 1013,472 992,461 970,449 947,438 923,426 899,415 875,403 850,392 824,380 798,369 771,358 743,346 716,335 687,323 658,312 628,300 598,289 567,277 536,266 504,255 471,243 438,232 404,220 370,209 335,197 1381,751 1374,739 1366,727 1357,715 1348,703 1339,691 1328,679 1318,667 1306,655 1294,643 1282,631 1269,619 1255,607 1241,595 1226,583 1211,571 1195,559 1178,547 1161,535 1143,523 1125,511 1106,499 1087,487 1067,475 1046,463 1025,451 1004,439 981,427 958,415 935,403 911,391 887,379 861,367 836,354 809,342 783,330 755,318 727,306 699,294 670,282 640,270 610,258 579,246 547,234 515,222 483,210 450,198 416,186 382,174 347,162 1394,744 1386,732 1378,719 1370,706 1361,694 1351,681 1341,669 1330,656 1319,643 1307,631 1294,618 1281,606 1267,593 1253,580 1238,568 1223,555 1207,543 1190,530 1173,517 1156,505 1137,492 1119,480 1099,467 1079,454 1059,442 1038,429 1016,417 994,404 971,391 947,379 923,366 899,354 874,341 848,329 822,316 795,303 768,291 740,278 711,266 682,253 652,240 622,228 591,215 560,203 528,190 495,177 462,165 428,152 394,140 359,127 1406,737 1399,724 1391,711 1383,698 1374,684 1364,671 1354,658 1343,645 1331,632 1320,619 1307,605 1294,592 1280,579 1266,566 1251,553 1236,540 1220,526 1203,513 1186,500 1169,487 1150,474 1131,461 1112,447 1092,434 1072,421 1050,408 1029,395 1006,382 984,368 960,355 936,342 912,329 887,316 861,303 835,289 808,276 780,263 752,250 724,237 695,224 665,210 635,197 604,184 573,171 541,158 508,145 475,131 441,118 407,105 372,92 1420,730 1413,716 1405,702 1396,689 1387,675 1377,661 1367,648 1356,634 1345,620 1333,606 1320,593 1307,579 1294,565 1279,551 1265,538 1249,524 1233,510 1217,496 1200,483 1182,469 1164,455 1145,441 1125,428 1106,414 1085,400 1064,386 1042,373 1020,359 997,345 974,332 950,318 925,304 900,290 874,277 848,263 821,249 794,235 766,222 737,208 708,194 679,180 648,167 617,153 586,139 554,125 521,112 488,98 455,84 420,70 385,57 "/>
</svg>
