<svg width="1800" height="1800" viewBox="0 0 1800 1800" xmlns="http://www.w3.org/2000/svg">
<polyline fill="none" opacity="1" stroke="#FF0000" stroke-width="1" points="903,915 905,916 907,916 910,916 912,916 914,916 918,915 922,914 927,910 930,903 930,895 926,889 921,885 916,884 913,884 911,884 909,884 907,884 905,884 903,917 905,918 907,918 910,918 912,918 914,919 918,920 925,921 934,916 941,905 939,891 931,882 922,879 916,880 913,882 911,882 909,882 907,882 904,882 902,920 904,921 907,921 910,920 912,919 912,920 914,926 924,933 944,930 960,910 957,882 937,867 919,869 912,877 912,880 911,881 909,880 906,879 903,880 900,922 903,924 908,924 912,923 913,919 909,917 901,927 910,954 956,967 1005,924 993,855 937,832 903,856 903,878 911,883 914,880 911,876 906,875 902,876 897,925 902,929 908,931 917,928 922,918 912,901 873,906 847,982 954,1078 1133,979 1085,759 899,743 847,852 889,901 918,893 921,878 914,870 906,870 900,872 893,929 897,935 906,940 922,942 946,927 952,873 856,800 626,936 789,1445 1604,1242 1354,328 635,529 703,956 907,981 955,904 938,865 916,858 902,861 895,867 886,931 889,940 896,953 918,970 975,976 1082,897 1078,542 142,203 5,1795 1795,1795 1795,5 5,465 624,1597 1125,1097 1042,857 950,822 908,835 893,852 887,863 878,930 876,941 874,961 882,1002 937,1085 1201,1197 1795,797 1795,5 5,5 1795,1795 5,5 5,1795 1795,1795 1709,705 1069,635 908,749 877,815 874,847 876,863 870,926 862,934 846,951 814,992 748,1123 699,1632 1778,1795 1795,1795 1795,5 1795,1795 5,5 1795,1795 1795,5 1045,5 697,421 774,740 827,827 853,856 865,869 865,918 855,921 834,922 779,917 606,901 5,910 5,1775 5,1795 5,1795 1795,5 1795,5 5,5 5,5 5,610 263,907 689,893 804,881 843,878 859,880 864,911 857,909 847,898 831,854 803,692 784,5 1384,5 1795,5 1795,5 5,5 5,5 1795,1795 1795,1795 956,1795 783,1449 814,1029 837,925 851,897 860,890 865,907 862,905 866,898 893,877 1017,828 1555,785 1795,1724 1795,1795 5,1795 1795,5 5,1795 5,5 1795,5 1795,721 1283,1015 955,951 879,913 863,899 863,894 865,903 863,905 866,910 887,930 948,1012 1048,1354 673,1795 5,1795 5,5 1795,5 1795,1795 5,1795 5,5 959,5 1018,615 921,829 877,880 864,893 863,896 864,899 859,902 853,911 842,938 804,1007 633,1152 10,1223 5,77 122,5 1795,5 1795,1795 5,1795 5,1064 298,556 719,704 823,823 847,874 855,893 860,899 863,894 855,894 842,898 815,906 754,915 617,885 395,664 382,10 1357,5 1795,221 1795,1795 889,1795 319,1519 472,1025 674,895 781,887 826,897 847,904 858,906 864,887 855,884 842,880 819,871 779,845 727,772 709,606 866,361 1308,279 1741,682 1637,1307 1135,1536 783,1357 705,1126 745,996 795,943 828,925 847,918 859,915 867,880 861,875 851,865 838,848 824,816 821,758 860,671 982,594 1181,620 1334,812 1299,1068 1112,1207 930,1186 839,1098 820,1019 829,971 843,945 855,931 863,923 873,876 869,869 864,858 861,841 862,815 877,778 919,739 997,721 1092,758 1155,858 1141,981 1061,1062 967,1077 901,1048 870,1009 861,975 862,953 866,938 870,929 879,873 878,866 877,856 879,842 887,825 906,805 939,790 986,791 1035,821 1064,878 1058,944 1020,993 969,1012 926,1007 898,989 884,969 878,953 877,940 878,931 "/>
</svg>
