<svg width="1800" height="1800" viewBox="0 0 1800 1800" xmlns="http://www.w3.org/2000/svg">
<polyline fill="none" opacity="1" stroke="#FFCDD2" stroke-width="1" points="865,866 864,866 863,866 862,866 861,866 859,867 858,867 857,867 855,868 854,868 853,868 851,869 850,870 849,870 847,871 846,872 844,873 843,874 842,876 840,877 839,878 838,880 837,881 836,883 835,885 834,887 833,889 833,891 832,893 832,895 831,897 831,899 831,901 831,903 832,906 832,908 833,910 833,912 834,914 835,915 836,917 837,919 838,920 839,922 841,923 842,925 843,926 845,927 846,928 847,929 849,930 850,930 852,931 853,932 854,932 856,933 857,933 858,933 859,933 861,934 862,934 863,934 864,934 865,865 864,865 863,865 862,865 860,865 859,865 858,866 856,866 855,866 854,867 852,867 851,868 849,868 848,869 846,870 845,871 843,872 842,873 840,874 839,875 838,877 836,879 835,880 834,882 833,884 832,886 831,888 830,890 830,892 829,894 829,897 829,899 829,901 829,904 830,906 830,908 831,910 831,912 832,914 833,916 834,918 835,920 837,922 838,923 839,925 841,926 842,927 844,928 845,929 847,930 848,931 849,932 851,932 852,933 854,933 855,934 857,934 858,934 859,935 861,935 862,935 863,935 864,935 865,864 864,864 863,864 862,864 860,864 859,864 858,864 856,864 855,865 853,865 852,866 850,866 849,867 847,867 845,868 844,869 842,870 841,871 839,873 838,874 836,876 835,877 833,879 832,881 831,883 830,885 829,887 828,889 828,892 827,894 827,896 827,899 827,901 827,904 827,906 828,909 828,911 829,913 830,915 831,917 832,919 834,921 835,923 836,925 838,926 839,928 841,929 842,930 844,931 846,932 847,933 849,933 850,934 852,935 853,935 855,935 856,936 858,936 859,936 860,936 862,936 863,936 864,936 865,863 864,863 863,863 862,863 860,863 859,863 857,863 856,863 854,863 853,864 851,864 850,864 848,865 846,866 845,867 843,868 841,869 839,870 838,871 836,873 835,874 833,876 832,878 830,880 829,882 828,884 827,886 826,889 825,891 825,894 824,896 824,899 824,902 824,904 825,907 825,909 826,912 827,914 828,916 829,919 830,921 832,923 833,924 835,926 836,928 838,929 840,930 841,932 843,933 845,934 846,934 848,935 850,936 851,936 853,936 855,937 856,937 858,937 859,937 860,937 862,937 863,937 864,937 865,862 864,861 863,861 862,861 860,861 859,861 857,861 856,861 854,862 852,862 851,862 849,863 847,863 846,864 844,865 842,866 840,867 838,868 836,869 835,871 833,872 831,874 830,876 828,878 827,880 825,883 824,885 823,888 823,890 822,893 822,896 821,899 821,902 822,904 822,907 823,910 823,913 824,915 826,918 827,920 828,922 830,924 831,926 833,928 835,929 837,931 838,932 840,933 842,934 844,935 846,936 848,937 849,937 851,938 853,938 854,938 856,939 857,939 859,939 860,939 862,939 863,939 864,939 866,860 864,860 863,860 862,860 860,860 859,860 857,860 856,860 854,860 852,860 850,861 849,861 847,862 845,862 843,863 841,864 839,865 837,866 835,867 833,869 831,871 829,872 828,874 826,877 824,879 823,881 822,884 821,887 820,890 819,893 819,896 818,899 818,902 819,905 819,908 820,911 821,914 822,916 823,919 825,921 826,924 828,926 830,928 831,930 833,931 835,933 837,934 839,935 841,936 843,937 845,938 847,939 849,939 851,939 852,940 854,940 856,940 857,940 859,940 860,940 862,940 863,940 865,940 866,859 865,859 863,859 862,858 860,858 859,858 857,858 855,858 854,858 852,858 850,859 848,859 846,860 844,860 842,861 840,862 838,863 836,864 834,865 831,867 829,869 827,871 825,873 824,875 822,877 820,880 819,883 818,886 817,889 816,892 816,895 815,899 815,902 816,905 816,908 817,912 818,915 819,918 820,920 822,923 824,925 826,928 828,930 830,932 832,933 834,935 836,936 838,937 840,938 842,939 844,940 846,940 848,941 850,941 852,942 854,942 856,942 857,942 859,942 861,942 862,942 863,941 865,941 866,858 865,857 863,857 862,857 860,857 859,857 857,856 855,856 854,856 852,857 850,857 848,857 846,858 843,858 841,859 839,860 837,861 834,862 832,863 830,865 827,867 825,869 823,871 821,873 819,876 817,879 816,882 815,885 814,888 813,891 812,895 812,898 812,902 812,906 813,909 814,912 815,916 816,919 818,922 819,925 821,927 823,930 826,932 828,934 830,935 832,937 835,938 837,940 839,941 842,941 844,942 846,943 848,943 850,943 852,943 854,944 856,944 857,944 859,943 861,943 862,943 864,943 865,943 867,856 865,856 864,856 862,855 861,855 859,855 857,855 855,855 854,855 852,855 850,855 847,855 845,855 843,856 840,856 838,857 836,858 833,859 831,861 828,862 826,864 823,866 821,869 819,871 816,874 814,877 813,880 811,883 810,887 809,891 808,894 808,898 808,902 809,906 809,910 810,914 811,917 813,920 815,924 817,927 819,929 821,932 823,934 826,936 828,938 831,939 833,941 836,942 838,943 841,944 843,944 845,945 848,945 850,945 852,945 854,945 856,945 858,945 859,945 861,945 862,945 864,944 865,944 867,855 866,855 864,854 863,854 861,853 859,853 857,853 856,853 854,853 852,853 849,853 847,853 845,853 842,853 840,854 837,855 835,856 832,857 829,858 826,860 824,862 821,864 818,866 816,869 813,872 811,875 809,878 808,882 806,886 805,890 804,894 804,898 804,902 805,907 805,911 806,915 808,919 810,922 812,926 814,929 816,932 819,934 821,937 824,939 827,940 829,942 832,943 835,944 838,945 840,946 843,947 845,947 847,947 850,947 852,947 854,947 856,947 858,947 859,947 861,946 863,946 864,946 866,945 867,854 866,853 865,853 863,852 861,852 860,851 858,851 856,851 854,851 852,850 849,850 847,850 844,851 842,851 839,851 836,852 834,853 831,854 828,855 825,857 822,859 819,861 816,863 813,866 810,869 808,873 806,876 804,880 802,884 801,889 800,893 800,898 800,903 800,907 801,912 802,916 804,920 806,924 808,928 811,931 813,934 816,937 819,939 822,942 825,943 828,945 831,946 834,947 837,948 840,949 842,949 845,949 847,950 850,950 852,950 854,949 856,949 858,949 860,949 862,948 863,948 865,947 866,947 868,852 867,852 865,851 863,851 862,850 860,850 858,849 856,849 854,848 852,848 849,848 847,848 844,848 842,848 839,849 836,849 833,850 829,851 826,852 823,854 820,856 816,858 813,860 810,863 807,867 804,870 802,874 799,878 798,883 796,888 795,893 795,898 795,903 795,908 796,913 798,918 800,922 802,926 805,930 807,934 810,937 814,940 817,943 820,945 823,947 827,948 830,949 833,950 836,951 839,952 842,952 845,952 847,952 850,952 852,952 854,952 856,951 858,951 860,950 862,950 864,949 865,949 867,948 869,851 867,850 866,850 864,849 862,848 861,848 859,847 857,847 854,846 852,846 850,845 847,845 844,845 841,845 838,846 835,846 832,847 828,848 825,849 821,850 818,852 814,854 810,857 807,860 803,863 800,867 797,872 795,876 793,881 791,887 790,892 789,898 789,903 790,909 791,914 793,919 795,924 798,929 801,933 804,937 807,940 811,943 814,946 818,948 822,950 825,951 829,953 832,953 836,954 839,955 842,955 845,955 847,955 850,955 852,954 855,954 857,953 859,953 861,952 863,952 864,951 866,950 867,950 869,850 868,849 866,848 865,847 863,847 861,846 859,845 857,844 855,844 852,843 850,843 847,843 844,842 841,842 838,842 835,843 831,843 827,844 824,845 820,846 816,848 811,850 807,853 803,856 800,860 796,864 793,869 790,874 787,879 785,885 784,891 783,897 784,904 784,910 786,916 788,922 790,927 793,932 796,937 800,941 804,944 808,947 812,950 816,952 820,954 824,955 828,956 832,957 835,957 838,958 842,958 845,958 848,957 850,957 853,957 855,956 857,955 859,955 861,954 863,953 865,953 867,952 868,951 870,848 869,847 867,846 866,846 864,845 862,844 860,843 858,842 855,841 853,841 850,840 848,840 845,839 841,839 838,839 834,839 830,839 826,840 822,841 818,842 814,844 809,846 804,849 800,852 796,856 791,860 788,865 784,871 781,877 779,883 778,890 777,897 777,904 778,911 779,918 782,924 785,930 788,935 792,940 796,945 801,948 805,952 810,954 814,956 819,958 823,959 827,960 831,961 835,961 838,961 842,961 845,961 848,960 851,960 853,959 856,958 858,958 860,957 862,956 864,955 866,954 867,953 869,953 871,847 870,846 868,845 867,844 865,843 863,842 861,841 859,840 856,839 854,838 851,837 848,837 845,836 842,836 838,835 834,835 830,835 826,836 821,836 817,838 812,839 807,841 801,844 796,847 791,851 787,856 782,861 778,867 775,874 772,881 770,889 769,897 770,905 771,912 772,920 775,927 779,933 783,939 787,945 792,949 797,953 802,956 807,959 812,961 817,963 822,964 826,964 831,965 835,965 839,965 842,964 845,964 849,963 851,962 854,962 857,961 859,960 861,959 863,958 865,957 867,956 868,955 870,954 872,845 871,844 869,843 868,842 866,841 864,840 862,839 860,838 857,837 855,836 852,835 849,834 846,833 842,832 838,831 834,831 830,831 825,831 820,832 815,833 810,834 804,836 798,839 793,842 787,846 781,851 776,857 771,863 767,871 764,879 762,887 761,896 761,905 762,914 765,922 768,930 772,938 777,944 782,950 788,955 794,959 799,962 805,964 811,966 816,968 821,968 826,969 831,969 835,969 839,968 843,968 846,967 849,966 852,965 855,964 858,963 860,962 862,961 864,960 866,959 868,958 869,957 871,956 873,844 872,843 870,842 869,840 867,839 865,838 863,837 861,835 858,834 856,833 853,832 850,830 847,829 843,828 839,827 835,827 830,826 825,826 820,826 814,827 808,828 802,830 796,832 789,836 782,840 776,845 770,851 764,859 759,867 755,876 753,886 752,896 752,906 753,916 756,925 760,934 765,942 771,950 777,956 783,961 790,965 796,968 803,970 809,972 815,973 821,974 826,974 831,974 835,973 840,972 843,972 847,971 850,969 853,968 856,967 859,966 861,964 863,963 865,962 867,961 869,959 871,958 872,957 875,843 873,841 872,840 870,839 868,837 866,836 864,835 862,833 860,832 857,830 854,829 851,827 848,826 844,825 840,823 835,822 831,821 825,821 820,821 814,821 807,822 800,823 793,825 785,829 778,833 770,838 763,845 756,853 750,862 745,872 742,883 741,895 741,907 743,918 746,929 751,939 757,948 764,956 771,963 779,968 786,972 794,975 801,977 808,978 814,979 821,979 826,979 831,978 836,978 841,977 845,975 848,974 852,973 855,971 858,970 860,968 863,967 865,965 867,964 869,962 870,961 872,960 873,958 876,841 875,840 873,839 872,837 870,836 868,834 866,832 864,831 861,829 859,827 856,826 853,824 849,822 845,821 841,819 837,818 832,816 826,815 820,815 813,814 806,815 798,816 790,817 782,820 773,825 764,830 755,837 747,846 740,856 734,868 730,881 728,894 728,908 730,921 735,934 741,945 748,956 756,964 765,971 774,976 783,980 791,983 800,985 807,985 814,986 821,985 827,985 832,984 837,982 842,981 846,979 850,978 853,976 856,974 859,972 862,971 864,969 866,967 868,966 870,964 872,963 873,961 875,960 877,840 876,839 875,837 873,836 871,834 870,832 868,830 866,828 863,827 861,825 858,823 855,821 851,819 847,817 843,815 838,813 833,811 827,809 821,808 814,807 806,807 797,807 788,809 778,811 768,815 757,820 747,828 737,837 728,849 721,862 716,877 713,893 713,909 716,925 722,940 729,953 738,964 748,973 759,981 769,986 780,989 789,992 799,993 807,993 815,993 822,992 828,990 834,989 839,987 844,985 848,983 852,981 855,979 858,977 861,975 864,973 866,971 868,969 870,968 872,966 873,964 875,963 876,961 879,839 878,837 876,836 875,834 873,832 871,830 870,828 868,826 865,824 863,822 860,820 857,817 853,815 849,812 845,810 840,808 835,805 829,803 822,801 815,799 806,798 797,798 787,798 775,800 764,803 751,809 738,816 726,827 715,839 705,855 699,873 695,892 695,911 699,930 706,947 716,963 728,975 740,985 753,992 765,997 777,1000 788,1002 798,1002 807,1002 816,1000 823,999 830,997 836,994 841,992 846,990 850,987 854,985 857,982 860,980 863,978 866,976 868,973 870,971 872,969 873,968 875,966 876,964 878,962 880,838 879,836 878,834 877,833 875,831 873,829 872,826 870,824 868,822 865,819 862,817 859,814 856,811 852,808 848,805 843,802 838,799 831,797 824,794 816,791 808,789 797,788 786,787 773,788 760,790 745,795 729,802 714,813 699,827 687,845 678,867 674,890 674,914 679,937 689,957 701,975 716,989 732,999 747,1006 762,1010 775,1012 788,1013 799,1012 809,1011 818,1008 825,1006 832,1003 838,1000 844,997 849,994 853,991 856,988 860,986 863,983 865,980 868,978 870,976 872,973 874,971 875,969 877,967 878,965 879,964 882,837 881,835 880,833 879,831 877,829 876,827 874,825 872,822 870,820 868,817 865,814 862,811 859,808 855,804 851,801 846,797 841,794 835,790 828,786 819,783 810,779 799,776 787,774 773,774 757,775 739,778 720,785 701,796 682,812 666,833 653,858 647,887 647,917 655,946 668,971 685,991 704,1006 723,1016 742,1023 759,1026 775,1026 789,1025 801,1023 811,1020 821,1017 829,1013 836,1010 842,1006 847,1002 852,999 856,995 859,992 863,989 866,986 868,983 870,980 872,978 874,975 876,973 877,971 879,969 880,967 881,965 884,836 883,834 882,832 881,830 879,828 878,825 876,823 875,820 873,817 871,814 868,811 866,808 862,804 859,801 855,797 850,792 845,788 839,783 832,779 824,774 814,769 802,765 789,761 774,758 756,757 735,758 712,763 687,774 663,791 640,815 623,847 613,884 614,922 625,958 643,989 666,1012 691,1028 716,1038 738,1042 758,1043 776,1042 791,1039 804,1035 815,1030 825,1026 833,1021 840,1016 846,1011 851,1007 856,1003 859,999 863,995 866,992 869,988 871,985 873,982 875,979 877,977 878,974 880,972 881,970 882,968 883,966 886,835 885,833 884,831 883,829 882,826 880,824 879,821 878,818 876,815 874,812 872,809 869,805 866,801 863,797 859,792 855,788 850,782 844,777 837,771 829,765 819,758 808,752 794,746 777,740 757,736 733,734 706,737 674,745 641,762 609,790 583,830 569,878 570,929 586,976 613,1014 646,1041 679,1056 710,1064 737,1066 760,1063 780,1059 796,1053 810,1047 821,1041 830,1034 838,1028 845,1022 851,1017 856,1012 860,1007 864,1002 867,998 870,994 872,991 874,987 876,984 878,981 879,978 881,976 882,973 883,971 884,969 885,967 888,834 887,832 886,830 885,828 884,825 883,823 882,820 881,817 879,814 877,810 875,807 873,803 871,798 868,794 864,789 860,783 856,777 850,771 844,764 836,756 827,748 815,739 801,730 784,721 762,713 736,707 703,704 663,708 619,723 572,754 532,803 509,869 511,941 537,1005 579,1052 625,1080 669,1093 708,1096 740,1093 766,1086 787,1077 804,1068 817,1059 828,1051 837,1043 845,1035 851,1028 856,1022 861,1016 865,1011 868,1006 871,1001 873,997 876,993 878,989 879,986 881,983 882,980 883,977 884,974 885,972 886,970 887,968 890,834 889,831 888,829 888,827 887,824 886,822 885,819 884,816 882,812 881,809 879,805 877,800 875,796 873,791 870,785 866,779 862,772 858,765 852,757 845,748 836,738 826,727 812,715 795,702 773,688 744,675 707,664 659,660 598,667 529,697 463,759 423,854 426,961 472,1052 539,1109 608,1135 666,1140 713,1134 749,1123 776,1110 798,1096 814,1083 827,1071 838,1061 846,1051 853,1042 858,1034 863,1027 867,1020 870,1014 873,1009 876,1004 878,999 880,995 881,991 883,987 884,984 885,981 886,978 887,975 888,973 888,970 889,968 892,833 891,831 891,829 890,826 889,824 889,821 888,818 887,814 886,811 885,807 883,803 882,799 880,794 878,788 876,782 873,776 870,768 866,760 861,751 855,741 848,729 838,716 826,700 811,683 790,664 761,642 722,620 666,599 588,589 485,607 370,679 287,824 295,1001 386,1135 501,1198 601,1210 675,1198 728,1177 766,1155 793,1133 813,1114 828,1097 840,1082 849,1069 856,1058 862,1048 866,1038 870,1030 874,1023 876,1017 879,1011 881,1006 882,1001 884,996 885,992 886,988 887,985 888,982 889,979 890,976 890,973 891,971 891,969 894,833 893,830 893,828 893,826 892,823 892,820 891,817 890,814 890,810 889,806 888,802 887,797 886,792 884,786 882,780 880,773 878,765 875,756 871,746 867,735 861,722 854,706 844,688 832,667 814,641 789,610 753,573 696,530 606,486 461,462 247,517 49,750 68,1096 281,1300 486,1338 622,1308 706,1263 759,1221 794,1185 817,1155 834,1130 846,1109 855,1091 862,1076 867,1063 872,1052 875,1042 878,1034 881,1026 883,1019 884,1013 886,1007 887,1002 888,997 889,993 890,989 891,986 891,983 892,979 892,977 893,974 893,972 894,969 896,832 896,830 895,828 895,825 895,823 895,820 894,817 894,813 893,809 893,805 892,801 892,796 891,791 890,785 889,779 888,771 886,763 885,754 882,743 880,731 876,717 872,700 866,679 857,654 846,624 829,584 802,533 758,464 678,371 516,248 154,155 5,490 5,1414 224,1642 547,1533 693,1414 766,1324 807,1259 832,1209 848,1172 859,1142 867,1118 872,1098 877,1081 880,1067 883,1055 885,1045 887,1036 888,1028 889,1020 890,1014 891,1008 892,1003 892,998 893,994 894,990 894,986 894,983 895,980 895,977 895,974 896,972 896,970 898,832 898,830 898,828 898,825 898,822 898,819 898,816 897,813 897,809 897,805 897,801 897,796 897,790 896,784 896,778 896,770 895,762 895,753 894,742 893,729 892,714 891,696 889,675 886,648 883,614 877,570 868,510 853,424 823,288 749,50 489,5 5,5 5,1795 555,1795 765,1706 828,1488 856,1362 870,1280 878,1223 883,1180 887,1148 889,1122 891,1101 892,1084 893,1069 894,1057 895,1046 895,1037 896,1028 896,1021 896,1015 897,1009 897,1003 897,999 897,994 897,990 897,987 898,983 898,980 898,977 898,975 898,972 898,970 900,832 900,830 900,828 901,825 901,822 901,819 901,816 901,813 901,809 901,805 902,801 902,796 902,790 903,785 903,778 904,771 904,762 905,753 906,742 907,729 908,714 910,696 913,675 916,648 921,615 928,571 940,512 960,427 1000,296 1095,69 1413,5 1795,5 1795,1795 1334,1795 1074,1689 992,1481 956,1359 938,1278 927,1222 920,1180 915,1147 912,1122 910,1101 908,1084 907,1069 906,1057 905,1046 904,1037 903,1028 903,1021 903,1015 902,1009 902,1003 902,999 901,994 901,990 901,987 901,983 901,980 901,977 900,975 900,972 900,970 902,832 903,830 903,828 903,825 903,823 904,820 904,817 905,813 905,810 906,806 906,801 907,796 908,791 909,785 910,779 911,772 913,763 915,754 917,744 920,731 924,717 929,700 936,680 945,656 957,626 975,587 1004,538 1051,473 1134,387 1299,282 1641,225 1795,556 1795,1335 1577,1578 1268,1503 1119,1400 1042,1317 999,1254 972,1207 955,1170 943,1140 935,1117 928,1097 924,1081 920,1067 917,1055 915,1044 913,1035 911,1027 910,1020 909,1014 908,1008 907,1003 906,998 906,994 905,990 905,986 904,983 904,980 903,977 903,974 903,972 903,969 905,833 905,831 905,828 906,826 906,823 907,820 907,817 908,814 909,810 910,806 911,802 912,797 913,792 915,787 917,780 919,773 921,766 924,757 928,747 933,736 939,723 946,707 956,690 970,669 988,644 1013,614 1051,580 1108,540 1197,502 1337,487 1532,548 1705,766 1688,1075 1502,1269 1313,1314 1182,1293 1098,1254 1044,1215 1009,1181 985,1152 967,1128 955,1108 945,1090 938,1075 932,1063 928,1051 924,1042 921,1033 918,1025 916,1019 915,1013 913,1007 912,1002 911,997 910,993 909,989 908,986 907,982 907,979 906,977 906,974 905,971 905,969 907,833 907,831 908,829 908,826 909,824 910,821 911,818 911,815 913,811 914,807 915,803 917,799 918,794 921,789 923,783 926,776 929,769 933,761 938,752 944,742 952,730 962,717 974,702 990,686 1011,667 1040,647 1079,626 1134,609 1209,602 1307,623 1413,694 1487,829 1480,993 1399,1120 1292,1183 1197,1198 1125,1189 1073,1171 1035,1150 1008,1130 987,1112 972,1095 960,1081 951,1068 944,1057 938,1047 933,1038 929,1030 925,1023 923,1016 920,1011 918,1005 916,1000 915,996 914,992 912,988 911,985 910,982 910,979 909,976 908,973 908,971 907,969 909,834 909,832 910,829 911,827 912,824 913,822 914,819 915,816 916,812 918,809 919,805 921,801 923,796 926,791 929,786 932,780 937,773 942,766 947,758 955,749 963,739 974,729 988,717 1005,705 1027,692 1055,680 1092,670 1139,667 1197,676 1262,707 1323,767 1361,857 1358,957 1316,1043 1253,1099 1188,1126 1132,1133 1086,1128 1051,1118 1023,1106 1002,1093 986,1081 972,1070 962,1059 953,1050 946,1041 941,1033 936,1026 932,1019 929,1014 926,1008 923,1003 921,999 919,994 917,991 916,987 915,984 913,981 912,978 911,975 911,973 910,970 909,968 911,834 911,832 912,830 913,828 914,825 915,823 917,820 918,817 919,814 921,811 923,807 925,803 928,799 931,794 934,789 938,784 943,778 949,772 955,765 963,757 972,749 984,741 998,733 1015,724 1037,717 1063,711 1095,709 1133,714 1176,729 1220,760 1258,808 1279,871 1277,939 1253,1000 1214,1045 1170,1074 1127,1087 1090,1091 1059,1089 1033,1082 1013,1075 996,1066 982,1058 971,1049 962,1042 954,1034 948,1028 942,1021 938,1015 934,1010 931,1005 928,1001 925,996 923,993 921,989 919,986 918,982 916,980 915,977 914,974 913,972 912,970 911,967 913,835 913,833 914,831 915,829 917,827 918,824 919,821 921,819 923,816 925,813 927,809 929,806 932,802 936,797 939,793 944,788 949,783 955,778 962,772 970,766 980,760 991,754 1005,748 1022,743 1041,739 1065,738 1092,741 1122,750 1154,767 1184,795 1208,833 1222,879 1221,928 1206,973 1180,1010 1149,1036 1117,1052 1088,1060 1061,1062 1038,1060 1019,1056 1003,1051 989,1045 978,1039 969,1033 961,1027 954,1021 948,1016 943,1011 939,1006 935,1002 932,998 929,994 927,990 924,987 922,984 921,981 919,978 918,976 916,973 915,971 914,969 913,967 914,836 915,834 916,832 918,830 919,828 920,826 922,823 924,820 926,818 928,815 930,812 933,808 936,805 940,801 944,797 948,793 954,789 960,784 967,780 975,775 985,770 996,766 1009,763 1025,760 1042,759 1062,761 1085,767 1109,777 1132,794 1154,818 1171,849 1179,884 1179,921 1169,956 1151,986 1129,1009 1105,1024 1081,1034 1059,1039 1040,1041 1022,1040 1007,1037 994,1033 983,1029 974,1024 966,1020 959,1015 953,1011 948,1006 943,1002 939,998 936,995 933,991 930,988 927,985 925,982 923,979 922,977 920,974 919,972 917,970 916,968 915,966 916,837 917,835 918,833 920,831 921,829 923,827 924,825 926,822 928,820 931,817 933,814 936,811 939,808 943,805 947,802 952,798 958,795 964,791 971,787 979,784 988,781 999,778 1011,776 1025,776 1041,777 1058,781 1076,788 1095,799 1113,814 1129,835 1141,860 1147,888 1146,916 1139,944 1127,968 1111,988 1092,1003 1074,1014 1055,1020 1039,1023 1023,1024 1010,1023 998,1022 987,1019 978,1016 970,1012 963,1009 957,1005 951,1001 947,998 943,995 939,991 936,988 933,985 930,982 928,980 926,977 924,975 922,973 921,970 920,968 918,966 917,965 918,838 919,836 920,835 922,833 923,831 925,829 927,827 929,824 931,822 933,820 936,817 939,815 942,812 946,809 951,806 955,803 961,800 967,797 974,795 982,792 991,790 1001,789 1012,789 1024,790 1038,792 1052,797 1067,805 1082,815 1096,829 1108,847 1117,868 1121,890 1121,913 1116,936 1107,956 1094,973 1080,987 1065,997 1050,1004 1036,1008 1022,1011 1010,1011 999,1011 989,1009 981,1007 973,1005 966,1002 960,999 955,996 950,993 946,991 942,988 939,985 936,982 933,980 930,978 928,975 926,973 925,971 923,969 921,967 920,965 919,963 919,839 921,838 922,836 923,834 925,832 927,831 929,829 931,827 933,824 936,822 938,820 942,818 945,815 949,813 953,811 958,808 963,806 969,804 976,802 984,801 992,800 1001,799 1011,800 1022,802 1034,805 1046,811 1058,818 1070,828 1081,841 1090,856 1097,873 1100,892 1100,911 1096,929 1089,946 1080,961 1069,973 1057,983 1044,990 1032,995 1021,999 1010,1000 1000,1001 991,1000 982,999 975,998 968,996 963,994 957,991 953,989 948,987 945,984 941,982 938,980 935,977 933,975 930,973 928,971 927,969 925,967 923,966 922,964 921,962 921,840 922,839 924,837 925,836 927,834 929,832 931,831 933,829 935,827 938,825 941,823 944,821 947,819 951,817 955,815 960,813 965,812 971,810 977,809 984,808 992,808 1001,808 1010,810 1019,812 1029,816 1040,822 1050,829 1060,839 1068,850 1075,863 1080,878 1083,893 1083,909 1080,925 1074,939 1067,952 1058,963 1048,972 1038,979 1028,984 1018,988 1008,990 999,992 991,992 983,992 976,991 970,990 964,988 959,986 955,985 950,983 947,981 943,979 940,977 937,975 935,973 932,971 930,969 928,967 927,966 925,964 923,962 922,961 922,842 924,840 925,839 927,837 928,836 930,834 932,833 934,831 937,829 940,828 942,826 946,824 949,823 953,821 957,820 962,818 967,817 972,816 978,815 985,815 992,816 999,817 1007,819 1016,822 1025,826 1033,831 1042,838 1050,847 1057,857 1062,868 1066,881 1068,894 1068,908 1066,921 1062,933 1056,945 1049,954 1041,963 1032,970 1023,975 1015,979 1006,982 998,983 991,984 984,985 977,984 971,984 966,983 961,982 956,980 952,979 948,977 945,975 942,974 939,972 937,970 934,969 932,967 930,965 928,964 926,962 925,961 924,960 924,843 925,842 927,840 928,839 930,838 932,836 934,835 936,833 938,832 941,830 944,829 947,828 950,826 954,825 958,824 963,823 967,822 973,822 978,822 984,822 991,823 998,824 1005,826 1012,830 1020,834 1027,839 1034,846 1041,854 1047,863 1051,873 1054,884 1056,895 1056,907 1054,918 1050,929 1046,939 1040,947 1033,955 1026,962 1019,967 1011,971 1004,974 997,976 990,977 983,978 977,978 972,978 967,978 962,977 958,976 954,975 950,973 947,972 944,971 941,969 938,968 936,966 933,965 931,964 930,962 928,961 926,959 925,958 925,844 926,843 928,842 929,841 931,839 933,838 935,837 937,836 940,834 942,833 945,832 948,831 952,830 955,829 959,828 963,827 968,827 973,827 978,827 984,828 989,829 996,831 1002,833 1009,837 1015,841 1021,846 1027,852 1033,859 1037,867 1041,876 1044,886 1045,896 1045,906 1043,916 1041,925 1037,934 1032,942 1027,949 1020,955 1014,960 1008,964 1001,967 995,969 989,971 983,972 977,973 972,973 967,973 963,972 959,972 955,971 951,970 948,969 945,968 942,967 939,965 937,964 935,963 933,962 931,960 929,959 928,958 926,957 926,846 927,845 929,843 931,842 932,841 934,840 936,839 939,838 941,837 943,836 946,835 949,834 952,833 956,833 960,832 964,832 968,832 973,832 977,832 983,833 988,835 993,837 999,839 1005,843 1010,847 1016,852 1021,857 1026,864 1029,871 1033,879 1035,888 1036,896 1036,905 1034,914 1032,922 1029,930 1025,937 1020,943 1015,949 1010,954 1004,958 998,961 993,964 987,965 982,967 977,968 972,968 967,968 963,968 959,968 955,967 952,967 949,966 946,965 943,964 941,963 938,962 936,961 934,960 932,959 930,957 929,956 927,955 927,847 928,846 930,845 932,844 933,843 935,842 937,841 940,840 942,839 944,839 947,838 950,837 953,837 956,836 960,836 964,836 968,836 972,836 977,837 981,838 986,840 991,842 996,845 1001,848 1006,852 1011,857 1015,862 1019,868 1022,875 1025,882 1027,889 1027,897 1027,904 1026,912 1024,919 1022,926 1018,933 1014,939 1010,944 1005,949 1000,952 995,956 990,958 985,960 981,962 976,963 971,964 967,964 963,964 960,964 956,964 953,963 950,963 947,962 944,961 942,960 939,960 937,959 935,958 933,957 931,956 930,955 928,954 928,848 929,848 931,847 933,846 934,845 936,844 938,843 940,843 943,842 945,841 948,841 951,840 954,840 957,839 960,839 964,840 967,840 971,841 976,842 980,843 984,845 989,847 993,850 998,853 1002,857 1006,861 1010,866 1013,871 1016,877 1018,884 1019,890 1020,897 1020,904 1019,911 1018,917 1015,924 1013,930 1009,935 1005,940 1001,944 997,948 992,951 988,954 984,956 979,957 975,959 971,960 967,960 963,960 960,961 956,961 953,960 950,960 947,959 945,959 942,958 940,957 938,957 936,956 934,955 932,954 931,953 929,952 929,850 930,849 932,848 933,847 935,847 937,846 939,845 941,845 943,844 946,844 948,843 951,843 954,843 957,843 960,843 963,843 967,844 971,844 974,846 978,847 982,849 986,851 990,854 994,857 998,860 1001,865 1005,869 1008,874 1010,880 1012,885 1013,891 1014,897 1014,904 1013,910 1012,916 1010,921 1007,927 1004,932 1001,936 997,940 994,944 990,947 986,949 982,951 978,953 974,955 970,956 966,956 963,957 960,957 956,957 953,957 950,957 948,957 945,956 943,956 941,955 939,955 937,954 935,953 933,952 931,952 930,951 929,851 931,850 932,850 934,849 936,849 938,848 939,847 942,847 944,846 946,846 948,846 951,846 954,846 957,846 960,846 963,846 966,847 970,848 973,849 977,851 980,853 984,855 987,857 991,860 994,864 997,868 1000,872 1003,877 1005,882 1006,887 1007,892 1008,898 1008,903 1007,909 1006,914 1004,919 1002,924 1000,929 997,933 994,937 990,940 987,943 983,946 980,948 976,949 972,951 969,952 966,953 962,954 959,954 956,954 953,954 951,954 948,954 946,954 943,953 941,953 939,953 937,952 935,951 934,951 932,950 931,949 930,853 931,852 933,851 935,851 936,850 938,850 940,849 942,849 944,849 946,848 949,848 951,848 954,848 956,849 959,849 962,850 965,850 968,851 972,853 975,854 978,856 981,858 985,861 988,864 991,867 993,871 996,874 998,879 1000,883 1001,888 1002,893 1002,898 1002,903 1002,908 1001,913 1000,917 998,922 995,926 993,930 990,934 987,937 984,940 981,942 978,944 974,946 971,948 968,949 965,950 962,951 959,951 956,951 953,952 951,952 948,952 946,952 944,951 942,951 940,951 938,950 936,950 934,949 933,949 931,948 931,854 932,853 934,853 935,852 937,852 938,852 940,851 942,851 944,851 946,851 949,851 951,851 954,851 956,851 959,852 961,852 964,853 967,854 970,856 973,857 976,859 979,861 982,864 985,867 987,870 990,873 992,877 994,881 995,885 996,889 997,893 998,898 998,903 997,907 996,912 995,916 993,920 992,924 989,928 987,931 984,934 981,937 979,939 976,941 973,943 970,945 967,946 964,947 961,948 958,948 956,949 953,949 951,949 948,949 946,949 944,949 942,949 940,949 938,948 936,948 935,947 933,947 932,947 931,855 932,855 934,854 935,854 937,854 939,853 941,853 942,853 944,853 946,853 949,853 951,853 953,853 956,854 958,854 961,855 963,856 966,857 969,859 971,860 974,862 977,864 979,866 982,869 984,872 986,875 988,879 990,882 991,886 992,890 993,894 993,898 993,902 993,907 992,911 991,915 990,918 988,922 986,925 984,928 981,931 979,934 976,936 974,938 971,940 968,942 966,943 963,944 960,945 958,946 955,946 953,947 951,947 948,947 946,947 944,947 942,947 940,947 939,947 937,946 935,946 934,946 932,945 932,857 933,856 934,856 936,856 937,855 939,855 941,855 943,855 944,855 946,855 948,855 951,855 953,856 955,856 957,857 960,858 962,859 965,860 967,861 970,863 972,865 975,867 977,869 979,871 981,874 983,877 985,880 986,884 987,887 988,891 989,895 989,898 989,902 989,906 988,910 987,913 986,917 985,920 983,923 981,926 979,929 977,931 974,934 972,936 969,938 967,939 964,940 962,942 959,943 957,943 955,944 952,944 950,945 948,945 946,945 944,945 942,945 941,945 939,945 937,945 936,944 934,944 933,944 932,858 933,858 935,857 936,857 938,857 939,857 941,857 943,857 944,857 946,857 948,857 950,857 952,858 954,858 957,859 959,860 961,861 963,862 966,864 968,865 970,867 972,869 975,871 977,873 978,876 980,879 982,882 983,885 984,888 985,892 985,895 986,898 986,902 985,906 985,909 984,912 983,916 981,919 980,922 978,924 976,927 974,929 972,931 970,933 968,935 965,937 963,938 961,939 959,940 956,941 954,942 952,942 950,943 948,943 946,943 944,943 942,943 941,943 939,943 937,943 936,943 934,943 933,942 932,859 933,859 935,859 936,859 938,858 939,858 941,858 943,858 944,859 946,859 948,859 950,859 952,860 954,860 956,861 958,862 960,863 962,864 964,866 966,867 968,869 970,871 972,873 974,875 976,878 977,880 979,883 980,886 981,889 982,892 982,895 982,899 982,902 982,905 981,908 981,911 980,914 979,917 977,920 976,923 974,925 972,927 970,929 968,931 966,933 964,934 962,936 960,937 958,938 956,939 954,940 952,940 950,941 948,941 946,941 944,942 942,942 941,942 939,942 938,942 936,941 935,941 933,941 932,860 934,860 935,860 936,860 938,860 939,860 941,860 942,860 944,860 946,860 948,861 949,861 951,862 953,862 955,863 957,864 959,865 961,866 963,868 965,869 967,871 968,873 970,875 972,877 973,879 975,882 976,884 977,887 978,890 978,893 979,896 979,899 979,902 979,905 978,908 978,911 977,913 976,916 975,919 973,921 972,923 970,926 968,928 966,929 964,931 963,932 961,934 959,935 957,936 955,937 953,938 951,938 949,939 947,939 946,940 944,940 942,940 941,940 939,940 938,940 936,940 935,940 933,940 933,862 934,862 935,861 936,861 938,861 939,861 941,862 942,862 944,862 945,862 947,863 949,863 951,864 952,864 954,865 956,866 958,867 960,868 961,870 963,871 965,873 967,874 968,876 970,878 971,881 972,883 973,885 974,888 975,891 976,893 976,896 976,899 976,902 976,904 976,907 975,910 974,912 973,915 972,917 971,920 969,922 968,924 966,926 965,928 963,929 961,931 959,932 958,933 956,934 954,935 952,936 950,936 949,937 947,937 945,938 944,938 942,938 941,939 939,939 938,939 936,939 935,939 934,938 933,863 934,863 935,863 936,863 938,863 939,863 941,863 942,863 944,863 945,864 947,864 948,865 950,865 952,866 953,867 955,868 957,869 958,870 960,871 962,873 963,874 965,876 966,878 968,880 969,882 970,884 971,886 972,889 972,891 973,894 973,896 974,899 974,901 973,904 973,907 972,909 972,912 971,914 970,916 969,918 967,921 966,922 965,924 963,926 961,927 960,929 958,930 956,931 955,932 953,933 951,934 950,935 948,935 946,936 945,936 943,937 942,937 940,937 939,937 938,937 936,937 935,937 934,937 933,864 934,864 935,864 936,864 938,864 939,864 940,864 942,865 943,865 945,865 946,866 948,866 949,867 951,868 952,868 954,869 956,870 957,872 959,873 960,874 962,876 963,877 964,879 966,881 967,883 968,885 969,887 969,889 970,892 971,894 971,897 971,899 971,901 971,904 970,906 970,909 969,911 969,913 968,915 967,917 965,919 964,921 963,923 961,924 960,926 958,927 957,929 955,930 954,931 952,932 951,932 949,933 948,934 946,934 945,935 943,935 942,935 940,936 939,936 938,936 936,936 935,936 934,936 933,865 934,865 935,865 936,865 938,865 939,866 940,866 942,866 943,866 944,867 946,867 947,868 949,868 950,869 952,870 953,871 955,872 956,873 957,874 959,876 960,877 961,879 963,880 964,882 965,884 966,886 967,888 967,890 968,892 968,894 969,897 969,899 969,901 968,904 968,906 968,908 967,910 966,912 966,914 965,916 964,918 962,920 961,922 960,923 959,925 957,926 956,927 954,928 953,929 951,930 950,931 948,932 947,932 946,933 944,933 943,934 941,934 940,934 939,934 937,935 936,935 935,935 934,935 "/>
</svg>
