<svg width="1800" height="1800" viewBox="0 0 1800 1800" xmlns="http://www.w3.org/2000/svg">
<polyline fill="none" opacity="1" stroke="#FFCDD2" stroke-width="1" points="737,279 750,300 763,321 776,342 788,361 799,380 810,398 820,416 830,432 840,448 849,464 858,478 866,492 874,505 882,518 889,530 896,541 902,551 908,561 914,570 920,578 925,585 930,592 935,598 939,604 943,336 973,341 1003,346 1033,352 1062,359 1091,366 1120,374 1148,383 1176,393 1204,403 1231,414 1258,426 1285,439 1311,452 1337,466 1363,480 1388,496 1412,512 1437,528 1460,546 1484,564 1506,583 1529,602 1551,623 1572,644 715,293 729,314 743,334 756,354 769,373 781,392 792,409 803,426 814,443 824,458 834,473 844,487 853,501 861,513 870,526 878,537 885,548 892,558 899,567 906,576 912,584 918,591 924,597 929,603 934,608 939,366 968,370 998,375 1026,381 1055,388 1083,395 1111,403 1139,411 1166,421 1193,431 1220,441 1246,453 1272,465 1298,478 1323,491 1348,505 1372,520 1396,536 1420,552 1443,569 1465,587 1488,605 1509,624 1530,644 1551,664 694,307 709,328 723,348 737,367 750,386 763,404 775,421 787,438 798,453 809,469 820,483 830,497 840,510 849,522 858,534 867,545 875,555 883,565 890,574 898,582 905,590 911,597 918,603 924,609 930,614 935,395 964,399 992,404 1020,409 1048,416 1076,423 1103,430 1130,438 1157,447 1183,457 1209,467 1235,479 1260,490 1285,503 1309,516 1334,530 1357,544 1380,559 1403,575 1426,592 1448,609 1469,627 1490,645 1510,665 1530,684 673,323 689,343 704,362 718,381 732,399 746,417 759,433 771,450 783,465 795,480 806,494 817,507 827,520 837,532 847,543 856,554 865,564 874,573 882,582 890,590 897,597 905,604 912,610 919,615 925,620 932,423 959,427 987,432 1015,437 1042,443 1069,450 1095,457 1122,465 1148,474 1173,483 1199,493 1224,504 1248,515 1272,527 1296,540 1320,553 1343,567 1365,582 1387,597 1409,613 1430,630 1451,648 1471,666 1491,684 1510,704 653,339 669,359 685,377 700,396 715,413 729,430 742,447 756,462 768,477 781,491 793,505 804,518 815,530 826,542 836,553 846,563 856,573 865,582 874,590 882,598 891,605 899,611 906,617 914,622 921,626 928,451 955,455 982,459 1009,464 1036,470 1062,476 1088,483 1113,491 1139,499 1164,508 1188,518 1213,528 1237,539 1260,551 1283,563 1306,576 1328,590 1350,604 1372,619 1393,634 1413,651 1434,668 1453,685 1472,704 1491,723 633,356 650,375 666,393 682,411 698,428 712,445 727,460 741,475 754,490 767,504 779,517 792,530 803,541 815,553 826,563 836,573 846,583 856,591 866,599 875,607 884,613 893,620 901,625 909,630 917,634 925,478 951,481 978,486 1004,490 1030,496 1055,502 1081,509 1106,516 1130,524 1155,533 1179,542 1202,552 1225,563 1248,574 1271,586 1293,598 1315,611 1336,625 1357,640 1377,655 1397,671 1416,687 1435,704 1454,722 1472,741 614,373 632,392 649,410 665,427 681,443 696,459 711,475 726,489 740,503 754,517 767,530 780,542 792,553 804,564 815,574 827,584 838,593 848,601 858,609 868,616 878,623 887,628 896,634 905,638 914,642 922,504 948,508 973,511 999,516 1024,521 1049,527 1074,533 1098,540 1122,548 1146,556 1169,565 1192,575 1215,585 1237,596 1259,608 1280,620 1301,633 1322,646 1342,660 1362,675 1381,690 1400,706 1418,723 1436,740 1453,758 596,391 614,409 631,427 648,443 665,459 681,475 697,490 712,504 726,518 741,531 755,543 768,555 781,566 794,576 806,586 818,595 829,604 840,612 851,619 862,626 872,632 882,638 891,643 901,647 910,651 919,530 944,533 969,537 994,541 1019,546 1043,551 1067,557 1091,564 1114,572 1137,580 1160,588 1182,598 1204,607 1226,618 1247,629 1268,641 1289,653 1308,666 1328,680 1347,694 1366,709 1384,724 1402,740 1419,757 1435,775 577,410 596,427 614,444 632,460 649,476 666,491 682,505 698,519 713,532 728,545 743,557 757,568 770,579 784,589 796,599 809,607 821,616 833,623 844,630 855,637 866,643 877,648 887,653 897,657 907,660 917,555 941,558 966,561 990,565 1014,570 1037,575 1061,581 1084,588 1107,595 1129,602 1151,611 1173,619 1194,629 1215,639 1236,650 1256,661 1276,673 1295,686 1314,699 1333,713 1351,727 1368,742 1385,758 1402,774 1418,791 560,429 579,446 598,462 616,478 634,493 652,508 669,522 685,535 701,548 716,560 731,571 746,582 760,593 774,602 787,611 800,620 813,628 825,635 838,642 849,648 861,654 872,659 883,663 893,667 904,670 914,579 938,582 962,585 986,589 1009,593 1032,598 1055,604 1077,610 1099,617 1121,624 1143,632 1164,641 1185,650 1205,660 1225,670 1245,681 1264,692 1283,704 1301,717 1319,730 1336,744 1353,759 1370,774 1386,790 1401,806 543,449 563,466 582,481 601,497 620,511 638,525 655,539 672,552 689,564 705,575 720,587 735,597 750,607 765,616 779,625 792,633 806,641 819,648 831,654 844,660 856,665 867,670 879,674 890,678 901,681 912,603 935,606 959,609 982,612 1004,616 1027,621 1049,626 1071,632 1092,639 1114,646 1135,653 1155,661 1176,670 1195,680 1215,689 1234,700 1252,711 1271,723 1288,735 1306,748 1322,761 1339,775 1354,790 1370,805 1385,821 526,470 547,486 567,501 587,516 606,530 624,543 642,556 660,569 677,580 694,592 710,602 726,612 741,622 756,631 770,639 785,647 798,654 812,661 825,667 838,673 851,678 863,682 875,686 887,689 899,692 910,627 933,629 955,631 978,635 1000,639 1022,643 1044,648 1065,654 1086,660 1107,667 1127,674 1147,682 1167,690 1186,699 1205,708 1223,718 1241,729 1259,740 1276,752 1293,765 1309,777 1325,791 1340,805 1355,820 1369,835 511,491 532,506 552,521 572,535 592,549 611,562 630,574 648,586 666,598 683,608 700,618 716,628 732,637 747,646 763,654 777,661 792,668 806,675 820,680 833,686 846,690 859,695 872,698 884,701 896,704 908,649 930,651 953,654 974,657 996,660 1017,665 1038,669 1059,675 1080,680 1100,687 1120,694 1139,701 1158,709 1177,718 1195,727 1213,736 1231,747 1248,757 1264,769 1280,781 1296,793 1311,806 1326,820 1340,834 1353,849 495,513 517,527 538,542 559,555 579,568 599,581 618,593 637,604 655,615 673,626 690,635 707,645 723,653 739,661 755,669 770,676 785,683 800,689 814,694 828,699 842,704 855,708 868,711 881,714 894,716 907,671 928,673 950,675 971,678 992,682 1013,686 1034,690 1054,695 1074,700 1093,707 1113,713 1132,720 1150,728 1168,736 1186,745 1203,754 1220,764 1237,774 1253,785 1268,796 1283,808 1298,821 1312,834 1326,848 1339,862 480,535 503,549 524,563 546,576 566,589 587,601 606,612 626,623 644,633 663,643 681,653 698,661 715,670 732,678 748,685 764,691 779,698 794,703 809,709 824,713 838,717 852,721 865,724 879,727 892,729 905,693 926,694 947,696 968,699 989,702 1009,706 1029,710 1049,715 1068,720 1087,726 1106,732 1124,739 1142,746 1160,754 1177,762 1194,771 1211,780 1226,790 1242,800 1257,811 1271,823 1285,835 1299,847 1312,860 1324,874 466,558 489,572 511,585 533,597 554,609 575,621 595,632 615,642 635,652 653,662 672,671 690,679 707,687 724,694 741,701 757,707 773,713 789,719 804,724 819,728 834,732 848,735 863,738 877,741 890,742 904,714 925,715 945,717 965,720 985,722 1005,726 1025,730 1044,734 1063,739 1081,744 1100,750 1118,757 1135,763 1152,771 1169,779 1185,787 1201,796 1217,805 1231,815 1246,826 1260,837 1273,848 1286,860 1299,873 1311,886 452,581 476,594 499,607 521,619 543,631 564,642 585,652 605,662 625,672 644,681 663,689 682,697 700,704 717,711 735,718 751,724 768,729 784,734 800,739 815,743 830,747 845,750 860,752 874,755 889,756 903,734 923,735 943,737 963,739 982,742 1002,745 1021,749 1039,753 1058,758 1076,763 1094,768 1111,774 1128,781 1145,788 1161,795 1177,803 1192,811 1207,820 1222,830 1235,840 1249,850 1262,861 1274,873 1286,885 1297,897 439,605 463,618 487,630 510,642 532,653 554,663 575,673 596,682 616,691 636,700 655,708 674,715 693,722 711,729 729,735 746,741 763,746 779,751 796,755 812,759 827,762 843,765 858,767 873,769 887,771 902,754 922,755 941,757 960,759 979,761 998,764 1017,768 1035,771 1053,776 1071,780 1088,785 1105,791 1122,797 1138,804 1154,811 1169,818 1184,826 1198,835 1212,844 1225,853 1238,863 1251,874 1263,885 1274,896 1285,908 427,630 451,642 475,653 499,664 521,675 544,685 566,694 587,703 608,712 628,720 648,727 667,734 686,741 705,747 723,753 741,758 758,763 775,767 792,771 808,775 824,778 840,780 856,782 871,784 886,786 901,774 920,775 939,776 958,778 977,780 995,783 1014,786 1031,789 1049,793 1066,798 1083,802 1099,808 1116,813 1131,819 1147,826 1161,833 1176,841 1190,849 1203,857 1216,866 1228,876 1240,886 1252,896 1263,907 1273,918 415,655 440,666 464,677 488,688 511,698 534,707 557,716 578,725 600,733 620,740 641,747 661,754 680,760 699,766 718,771 736,776 754,780 771,784 788,788 805,791 821,794 838,796 854,798 869,800 885,801 900,793 919,794 938,795 956,796 975,798 993,801 1010,804 1028,807 1045,810 1062,814 1078,819 1094,824 1110,829 1125,835 1140,841 1154,847 1168,855 1182,862 1195,870 1207,879 1219,887 1230,897 1241,907 1252,917 1261,928 403,681 429,691 454,702 478,712 502,721 525,730 548,738 570,746 592,754 613,761 634,767 654,774 674,779 694,785 713,789 731,794 750,798 767,802 785,805 802,808 819,810 836,812 852,814 868,816 884,817 900,812 918,812 937,813 955,815 973,816 990,818 1008,821 1025,824 1041,827 1058,831 1074,835 1089,839 1105,844 1119,850 1134,855 1148,861 1161,868 1174,875 1187,883 1199,890 1210,899 1221,908 1231,917 1241,927 1250,937 392,707 419,717 444,727 469,736 493,745 517,753 540,761 563,769 585,776 607,782 628,788 649,794 669,799 689,804 708,808 727,813 746,816 764,820 782,822 800,825 817,827 834,829 851,831 867,832 883,833 900,830 918,830 936,831 953,832 971,834 988,836 1005,838 1022,841 1038,843 1054,847 1070,850 1085,855 1100,859 1114,864 1128,869 1142,875 1155,881 1167,888 1179,895 1191,902 1202,910 1212,918 1222,927 1231,936 1240,946 382,733 409,743 435,752 460,761 485,769 509,777 533,784 556,791 579,798 601,804 622,809 643,815 664,819 684,824 704,828 724,832 743,835 761,838 779,840 797,843 815,845 832,846 849,847 866,848 883,849 899,848 917,848 935,849 952,850 969,851 986,853 1003,855 1019,857 1035,859 1051,862 1066,866 1081,869 1095,873 1109,878 1123,883 1136,888 1148,894 1161,900 1172,906 1183,913 1194,920 1204,928 1213,936 1222,945 1230,954 373,760 400,769 426,778 452,786 477,794 502,801 526,808 550,814 573,820 595,826 617,831 639,836 660,840 680,844 701,848 720,851 740,854 759,856 777,859 795,861 813,862 831,863 848,865 865,865 882,866 899,865 917,866 934,866 951,867 968,868 984,869 1001,871 1017,873 1032,875 1048,878 1063,881 1077,884 1091,887 1105,891 1118,896 1131,901 1143,906 1155,911 1166,917 1176,924 1187,930 1196,938 1205,945 1213,954 1221,962 364,788 391,796 418,804 444,812 470,819 495,826 520,832 544,838 567,843 590,848 612,853 634,857 656,861 677,865 697,868 717,871 737,873 756,875 775,877 794,879 812,880 830,881 847,882 865,882 882,883 899,883 916,883 933,883 950,884 967,885 983,886 999,887 1015,889 1030,890 1045,893 1060,895 1074,898 1088,901 1101,905 1114,909 1126,913 1138,917 1149,923 1160,928 1170,934 1180,940 1189,947 1197,954 1205,961 1213,969 355,816 383,824 411,831 437,838 463,845 489,851 514,856 538,862 562,867 585,871 608,875 631,879 652,882 674,886 695,888 715,891 735,893 755,895 774,896 793,897 811,898 829,899 847,899 864,900 882,900 899,900 916,900 933,900 950,901 966,901 982,902 998,903 1013,904 1028,905 1043,907 1057,909 1071,912 1085,914 1097,918 1110,921 1122,925 1133,929 1144,933 1154,938 1164,944 1174,949 1182,955 1190,962 1198,969 1205,976 348,844 376,852 404,858 431,865 457,871 483,876 509,881 533,886 558,890 581,894 605,898 627,901 649,904 671,907 692,909 713,911 733,913 753,914 773,915 792,916 810,917 829,917 847,917 864,917 882,917 899,917 916,917 933,917 949,917 966,917 981,918 997,918 1012,919 1027,920 1041,922 1055,923 1069,925 1082,927 1094,930 1107,933 1118,936 1129,940 1140,944 1150,948 1159,953 1168,958 1176,964 1184,970 1191,976 1198,983 340,873 369,880 397,886 425,892 452,897 478,902 504,907 529,911 554,915 578,918 601,921 624,924 647,926 669,928 690,930 711,932 732,933 752,934 772,935 791,935 810,935 828,935 847,935 865,935 882,935 899,934 916,934 933,934 949,933 965,933 981,933 996,933 1011,934 1026,935 1040,936 1054,937 1067,938 1080,940 1092,942 1104,945 1115,947 1126,950 1136,954 1145,958 1154,962 1163,966 1171,971 1178,977 1185,982 1191,989 334,903 363,909 392,914 420,919 447,924 474,928 500,932 525,936 550,939 575,942 599,945 622,947 645,949 667,950 689,952 710,953 731,953 751,954 771,954 791,954 810,954 829,954 847,953 865,953 883,952 900,951 917,951 933,950 950,949 966,949 981,949 996,949 1011,949 1025,949 1039,949 1053,950 1066,951 1078,952 1090,954 1101,956 1112,958 1123,961 1132,964 1142,967 1150,970 1158,974 1166,979 1173,983 1179,989 1185,994 328,932 358,938 387,943 415,947 443,951 470,955 496,958 522,961 548,964 572,966 597,968 620,970 643,971 666,972 688,973 710,974 731,974 751,974 771,974 791,974 810,973 829,972 848,971 866,971 883,970 901,968 918,967 934,966 950,965 966,965 982,964 997,963 1011,963 1025,963 1039,963 1052,963 1065,964 1077,964 1088,966 1100,967 1110,969 1120,971 1130,973 1139,976 1147,979 1155,982 1162,986 1168,990 1174,994 1179,999 323,962 353,967 382,971 411,975 439,979 467,982 493,985 520,987 545,989 571,991 595,992 619,994 642,994 665,995 688,995 709,995 731,995 752,995 772,994 792,993 811,992 830,991 849,990 867,988 885,987 902,986 919,984 935,983 952,981 967,980 982,979 997,978 1012,977 1025,977 1039,976 1052,976 1064,976 1076,976 1087,977 1098,978 1109,979 1118,980 1127,982 1136,984 1144,986 1151,989 1158,992 1164,996 1170,1000 1175,1004 318,993 349,997 379,1001 408,1004 436,1007 464,1009 491,1011 518,1013 544,1015 569,1016 594,1017 618,1017 642,1018 665,1018 688,1017 710,1017 731,1016 752,1015 773,1014 793,1013 813,1011 832,1010 850,1008 869,1006 886,1005 904,1003 921,1001 937,999 953,997 969,996 984,994 998,993 1013,991 1026,990 1039,989 1052,988 1064,988 1076,988 1087,988 1098,988 1108,989 1117,989 1126,991 1134,992 1142,994 1149,996 1155,999 1161,1001 1166,1005 1170,1008 314,1024 345,1027 375,1030 405,1033 434,1035 462,1037 490,1039 516,1040 543,1041 569,1041 594,1041 618,1041 642,1041 666,1041 688,1040 711,1039 732,1038 754,1036 774,1035 795,1033 814,1031 834,1029 852,1027 871,1024 888,1022 906,1020 923,1018 939,1015 955,1013 970,1011 985,1009 1000,1007 1014,1005 1028,1003 1041,1002 1053,1001 1065,1000 1076,999 1087,998 1097,998 1107,998 1116,998 1125,999 1133,1000 1140,1001 1147,1003 1153,1004 1158,1007 1163,1009 1167,1012 311,1055 342,1058 373,1060 403,1062 432,1064 461,1065 488,1066 516,1067 542,1067 568,1067 594,1066 619,1066 643,1065 666,1064 690,1063 712,1061 734,1059 755,1057 776,1055 797,1053 817,1050 836,1048 855,1045 873,1042 891,1040 908,1037 925,1034 942,1031 957,1029 973,1026 988,1024 1002,1021 1016,1019 1029,1017 1042,1015 1054,1013 1066,1011 1077,1010 1088,1009 1098,1008 1107,1007 1116,1007 1124,1007 1132,1007 1139,1008 1145,1009 1151,1010 1156,1012 1160,1014 1164,1016 309,1087 340,1089 371,1091 401,1092 431,1093 460,1093 488,1094 516,1094 543,1093 569,1093 595,1092 620,1091 644,1089 668,1087 691,1085 714,1083 736,1081 758,1078 779,1076 799,1073 819,1070 839,1067 858,1064 876,1061 894,1057 911,1054 928,1051 945,1048 960,1044 976,1041 990,1038 1005,1035 1018,1032 1032,1030 1044,1027 1056,1025 1068,1023 1079,1021 1089,1019 1099,1018 1108,1016 1117,1015 1125,1015 1132,1014 1139,1014 1145,1015 1150,1015 1155,1016 1159,1017 1162,1019 307,1119 339,1121 370,1121 401,1122 431,1122 460,1122 488,1122 516,1121 543,1120 570,1119 596,1117 621,1115 646,1113 670,1111 694,1109 717,1106 739,1103 761,1100 782,1097 803,1093 823,1090 842,1086 861,1083 880,1079 897,1075 915,1071 932,1067 948,1064 964,1060 979,1056 994,1053 1008,1049 1022,1046 1035,1042 1047,1039 1059,1036 1070,1034 1081,1031 1091,1029 1101,1027 1109,1025 1118,1024 1125,1022 1132,1021 1139,1021 1144,1020 1149,1020 1154,1020 1158,1021 1161,1022 306,1152 338,1152 370,1153 401,1152 431,1152 460,1151 489,1150 517,1149 545,1147 572,1145 598,1143 624,1141 648,1138 673,1135 697,1132 720,1129 742,1125 764,1121 785,1118 806,1114 826,1110 846,1105 865,1101 884,1097 902,1093 919,1088 936,1084 952,1080 968,1075 983,1071 998,1067 1012,1063 1025,1059 1038,1055 1050,1051 1062,1048 1073,1045 1084,1042 1094,1039 1103,1036 1111,1034 1119,1031 1127,1029 1134,1028 1140,1026 1145,1025 1150,1025 1154,1024 1157,1024 1160,1024 305,1185 338,1184 370,1184 401,1183 432,1182 462,1181 491,1179 519,1177 547,1174 574,1172 601,1169 626,1166 652,1163 676,1159 700,1155 723,1151 746,1147 768,1143 790,1139 811,1134 831,1130 851,1125 870,1120 888,1115 906,1110 924,1105 940,1100 957,1096 972,1091 987,1086 1002,1081 1016,1077 1029,1072 1042,1068 1054,1063 1066,1059 1077,1055 1087,1052 1097,1048 1106,1045 1114,1042 1122,1039 1129,1036 1135,1034 1141,1032 1146,1030 1151,1029 1154,1028 1157,1027 1160,1026 306,1218 339,1217 371,1216 403,1214 433,1212 464,1210 493,1208 522,1205 550,1202 577,1199 604,1195 630,1192 655,1188 680,1183 704,1179 728,1175 751,1170 773,1165 794,1160 815,1155 836,1150 856,1144 875,1139 893,1134 911,1128 929,1123 946,1117 962,1112 977,1106 993,1101 1007,1095 1021,1090 1034,1085 1047,1080 1059,1075 1070,1070 1081,1066 1091,1062 1100,1057 1109,1053 1117,1050 1125,1046 1132,1043 1138,1040 1143,1037 1148,1035 1152,1033 1156,1031 1158,1029 1160,1028 307,1251 340,1250 373,1248 405,1245 436,1243 466,1240 496,1237 525,1234 553,1230 581,1226 608,1222 634,1217 660,1213 685,1208 709,1203 733,1198 756,1192 778,1187 800,1181 821,1176 841,1170 861,1164 880,1158 899,1152 917,1146 935,1140 951,1134 968,1127 983,1121 998,1115 1013,1110 1026,1104 1039,1098 1052,1092 1064,1087 1075,1081 1086,1076 1095,1071 1105,1066 1113,1062 1121,1057 1129,1053 1135,1049 1141,1046 1146,1042 1151,1039 1155,1036 1158,1034 1160,1032 1162,1030 309,1285 342,1283 375,1280 407,1277 439,1274 469,1270 499,1266 529,1262 557,1258 585,1253 612,1249 639,1243 665,1238 690,1233 714,1227 738,1221 761,1215 784,1209 806,1203 827,1196 848,1190 868,1183 887,1177 906,1170 924,1163 941,1157 958,1150 974,1143 990,1137 1004,1130 1019,1124 1032,1117 1045,1111 1058,1104 1069,1098 1081,1092 1091,1086 1101,1081 1110,1075 1118,1070 1126,1065 1133,1060 1139,1056 1145,1051 1150,1047 1154,1043 1158,1040 1161,1036 1163,1033 1164,1031 311,1319 345,1316 378,1313 411,1309 443,1305 474,1301 504,1296 533,1291 562,1286 590,1281 618,1275 644,1270 670,1264 696,1258 720,1251 744,1245 768,1238 790,1231 812,1224 834,1217 854,1210 874,1203 894,1196 913,1189 931,1181 948,1174 965,1167 981,1159 996,1152 1011,1145 1026,1137 1039,1130 1052,1123 1064,1116 1076,1110 1087,1103 1097,1096 1107,1090 1116,1084 1124,1078 1131,1072 1138,1067 1144,1061 1150,1056 1154,1052 1158,1047 1162,1043 1164,1039 1166,1035 1167,1032 315,1354 349,1350 382,1346 415,1341 447,1337 478,1332 509,1326 539,1321 568,1315 596,1309 624,1303 651,1296 677,1290 702,1283 727,1276 751,1269 775,1261 798,1254 820,1246 841,1238 862,1231 882,1223 901,1215 920,1207 938,1199 956,1191 973,1183 989,1175 1004,1167 1019,1159 1033,1151 1047,1144 1059,1136 1071,1128 1083,1121 1094,1113 1104,1106 1113,1099 1122,1092 1130,1086 1137,1079 1144,1073 1150,1067 1155,1061 1159,1056 1163,1050 1166,1045 1168,1041 1170,1036 1170,1032 319,1389 353,1384 387,1379 420,1374 452,1368 484,1363 515,1357 545,1350 574,1344 603,1337 630,1330 658,1323 684,1316 710,1308 735,1300 759,1292 783,1284 805,1276 828,1268 849,1260 870,1251 890,1243 910,1234 928,1225 947,1217 964,1208 981,1199 997,1191 1012,1182 1027,1174 1041,1165 1055,1157 1067,1148 1079,1140 1091,1132 1101,1124 1111,1116 1120,1108 1129,1101 1137,1093 1144,1086 1150,1079 1156,1072 1161,1066 1165,1060 1169,1054 1171,1048 1173,1042 1174,1037 1175,1032 323,1424 358,1418 392,1413 426,1407 458,1400 490,1394 521,1387 551,1380 581,1373 610,1365 638,1358 665,1350 692,1342 718,1333 743,1325 767,1316 791,1308 814,1299 836,1290 858,1281 879,1272 899,1263 919,1253 937,1244 956,1235 973,1225 990,1216 1006,1207 1021,1197 1036,1188 1050,1179 1063,1170 1076,1161 1088,1152 1099,1143 1110,1134 1119,1125 1128,1117 1137,1109 1144,1101 1151,1093 1158,1085 1163,1078 1168,1070 1172,1063 1175,1057 1177,1050 1179,1044 1180,1038 1180,1032 329,1459 364,1453 399,1446 432,1440 465,1433 497,1425 528,1418 559,1410 589,1402 618,1394 646,1385 674,1377 700,1368 726,1359 752,1350 776,1341 800,1331 823,1322 846,1312 867,1302 888,1292 909,1282 928,1272 947,1262 965,1252 983,1242 1000,1232 1016,1222 1031,1212 1046,1202 1060,1192 1073,1183 1085,1173 1097,1163 1108,1154 1119,1144 1128,1135 1137,1126 1145,1117 1153,1108 1160,1099 1166,1091 1171,1083 1175,1075 1179,1067 1182,1059 1184,1052 1185,1045 1186,1038 1186,1032 336,1495 371,1488 406,1481 440,1473 473,1465 505,1457 536,1449 567,1440 597,1432 626,1423 655,1413 683,1404 710,1394 736,1385 761,1375 786,1365 810,1355 833,1344 856,1334 878,1324 899,1313 919,1302 939,1292 958,1281 976,1270 993,1259 1010,1249 1026,1238 1041,1227 1056,1217 1070,1206 1083,1195 1095,1185 1107,1175 1118,1164 1128,1154 1138,1144 1147,1134 1155,1124 1162,1115 1168,1106 1174,1096 1179,1087 1183,1079 1187,1070 1190,1062 1192,1054 1193,1046 1193,1038 1193,1031 343,1531 379,1523 414,1515 448,1507 481,1498 514,1489 545,1480 576,1471 606,1461 636,1452 665,1442 692,1431 720,1421 746,1411 772,1400 796,1389 821,1378 844,1367 867,1356 888,1345 910,1334 930,1322 950,1311 969,1300 987,1288 1004,1277 1021,1265 1037,1254 1052,1242 1067,1231 1081,1219 1094,1208 1106,1197 1118,1186 1129,1175 1139,1164 1148,1153 1157,1143 1165,1132 1172,1122 1178,1112 1184,1102 1189,1092 1193,1082 1196,1073 1198,1064 1200,1055 1201,1046 1201,1038 1200,1030 351,1567 387,1559 422,1550 457,1541 490,1531 523,1522 555,1512 586,1502 617,1491 646,1481 675,1470 703,1459 730,1448 757,1437 783,1425 808,1414 832,1402 855,1390 878,1379 900,1367 921,1355 942,1342 961,1330 980,1318 999,1306 1016,1294 1033,1281 1049,1269 1064,1257 1079,1245 1092,1233 1105,1221 1118,1209 1129,1197 1140,1185 1150,1174 1159,1162 1168,1151 1175,1139 1182,1128 1189,1117 1194,1107 1199,1096 1202,1086 1205,1076 1208,1066 1209,1056 1210,1047 1210,1038 1209,1029 360,1604 396,1594 432,1585 466,1575 500,1564 533,1554 565,1543 597,1532 627,1521 657,1510 686,1498 714,1487 742,1475 769,1463 794,1451 820,1439 844,1426 868,1414 890,1401 912,1388 934,1375 954,1363 974,1350 993,1337 1011,1324 1029,1311 1046,1298 1061,1285 1077,1272 1091,1259 1105,1246 1118,1233 1130,1221 1141,1208 1152,1196 1162,1183 1171,1171 1179,1159 1187,1147 1194,1135 1200,1123 1205,1112 1209,1100 1213,1089 1216,1078 1218,1068 1219,1057 1219,1047 1219,1037 1218,1027 "/>
</svg>
