<svg width="1800" height="1800" viewBox="0 0 1800 1800" xmlns="http://www.w3.org/2000/svg">
<polyline fill="none" opacity="1" stroke="#FF0000" stroke-width="1" points="1424,1718 1370,1633 1321,1557 1277,1488 1237,1427 1202,1372 1171,1323 1142,1279 1117,1239 1094,1204 1074,1172 1056,1144 1039,1119 1025,1096 1012,1075 1000,1057 989,1041 980,1026 972,1013 1511,1656 1447,1577 1390,1507 1339,1443 1293,1387 1252,1336 1215,1291 1182,1250 1153,1213 1126,1181 1103,1152 1082,1125 1063,1102 1045,1081 1030,1062 1017,1045 1004,1030 993,1016 984,1004 1590,1584 1518,1513 1454,1449 1396,1392 1344,1341 1298,1295 1256,1254 1219,1217 1186,1184 1156,1154 1129,1128 1105,1104 1084,1083 1064,1064 1047,1047 1032,1031 1018,1018 1006,1005 994,994 1661,1504 1582,1441 1511,1385 1447,1334 1390,1289 1339,1248 1293,1212 1252,1180 1215,1151 1182,1124 1153,1101 1126,1080 1103,1061 1081,1045 1062,1029 1045,1016 1030,1004 1016,993 1004,983 1723,1417 1637,1363 1560,1315 1491,1271 1430,1233 1374,1198 1325,1167 1281,1139 1241,1114 1205,1092 1173,1072 1145,1054 1119,1038 1096,1024 1076,1011 1057,999 1041,989 1026,980 1013,971 1775,1323 1684,1279 1602,1240 1529,1204 1463,1172 1404,1144 1352,1119 1304,1096 1262,1075 1224,1057 1191,1041 1160,1026 1133,1013 1109,1001 1087,991 1067,981 1050,973 1034,965 1020,958 1795,1224 1720,1191 1635,1160 1558,1133 1490,1109 1428,1087 1373,1068 1324,1050 1279,1035 1240,1021 1204,1008 1172,997 1144,987 1118,978 1096,970 1075,962 1057,956 1040,950 1026,945 1795,1122 1747,1099 1659,1078 1580,1059 1509,1043 1445,1028 1388,1015 1337,1003 1292,992 1251,982 1214,974 1181,966 1152,959 1126,953 1102,948 1081,943 1062,938 1045,934 1030,931 1795,1016 1764,1004 1674,993 1593,984 1521,975 1456,967 1398,960 1346,954 1300,948 1258,943 1220,939 1187,935 1157,931 1130,928 1106,925 1084,922 1065,920 1048,918 1032,916 1795,910 1770,909 1679,908 1598,907 1525,906 1460,906 1402,905 1349,905 1302,904 1260,904 1223,903 1189,903 1159,903 1132,902 1107,902 1086,902 1066,902 1049,901 1033,901 1795,803 1766,813 1676,822 1595,830 1522,837 1457,844 1399,850 1347,855 1300,860 1259,864 1221,868 1188,871 1158,874 1131,877 1106,879 1085,881 1065,883 1048,885 1033,887 1795,697 1751,718 1662,737 1583,754 1512,769 1448,783 1391,795 1339,806 1294,816 1252,825 1216,833 1183,840 1153,846 1127,851 1103,857 1082,861 1063,865 1046,869 1030,872 1795,594 1726,626 1640,654 1563,680 1494,703 1432,723 1376,742 1326,758 1282,773 1242,786 1206,798 1174,809 1146,818 1120,827 1097,834 1076,841 1058,847 1041,853 1026,858 1783,495 1691,537 1608,575 1535,609 1468,639 1409,666 1356,690 1308,712 1266,732 1227,749 1193,765 1163,779 1135,792 1111,803 1089,813 1069,822 1051,830 1035,838 1021,844 1733,400 1646,452 1568,499 1499,541 1436,578 1380,611 1330,642 1285,668 1245,693 1209,714 1177,734 1148,751 1122,766 1099,780 1078,793 1059,804 1043,814 1028,823 1014,831 1673,311 1593,373 1520,428 1456,477 1398,521 1346,560 1299,596 1257,627 1220,656 1187,681 1157,704 1130,724 1106,743 1084,759 1065,774 1048,787 1032,799 1018,809 1006,819 1604,230 1531,300 1465,362 1406,418 1353,468 1306,513 1263,554 1225,590 1191,622 1161,651 1134,677 1109,700 1087,721 1068,740 1050,756 1034,771 1020,785 1008,797 996,807 1526,157 1461,234 1402,303 1350,366 1303,421 1261,471 1223,516 1189,556 1159,592 1132,624 1108,653 1086,678 1067,701 1049,722 1033,741 1019,757 1007,772 996,785 986,797 1441,92 1384,176 1334,252 1288,319 1248,380 1212,434 1179,483 1150,526 1124,565 1100,600 1079,631 1061,659 1044,684 1029,707 1015,727 1003,745 992,761 982,776 974,788 "/>
</svg>
