<svg width="1800" height="1800" viewBox="0 0 1800 1800" xmlns="http://www.w3.org/2000/svg">
<polyline fill="none" opacity="1" stroke="#FF0000" stroke-width="1" points="886,873 877,867 863,861 842,854 814,849 773,845 714,846 629,856 505,884 551,928 661,949 736,955 788,954 825,950 850,944 868,937 880,931 893,865 885,856 872,844 853,831 825,814 784,795 723,773 632,748 494,723 547,1069 667,1043 746,1019 800,998 836,980 860,964 877,952 888,941 904,859 897,847 887,830 872,810 849,783 814,749 762,703 681,641 554,557 603,1212 712,1137 782,1081 828,1039 858,1007 878,983 891,964 900,949 916,856 913,841 908,821 899,794 884,760 862,713 828,648 773,555 686,420 720,1329 794,1210 841,1128 871,1070 890,1027 902,996 910,972 915,954 931,856 932,839 932,817 931,788 927,749 922,695 912,620 897,511 872,346 882,1391 903,1248 916,1152 924,1085 929,1037 931,1002 932,975 932,955 946,860 952,842 958,820 965,790 973,751 984,698 1002,625 1030,519 1077,358 1059,1380 1019,1241 995,1147 980,1082 970,1035 962,999 956,972 950,951 961,868 971,851 983,829 997,802 1016,767 1041,721 1081,662 1145,580 1254,461 1211,1294 1120,1190 1066,1116 1032,1062 1009,1021 992,988 979,963 968,943 975,879 990,864 1006,845 1026,821 1051,792 1086,758 1136,719 1217,676 1356,629 1300,1155 1185,1110 1117,1067 1073,1030 1042,998 1019,971 1000,948 985,930 988,894 1006,881 1026,865 1049,845 1078,823 1115,801 1165,781 1235,773 1346,805 1302,1013 1209,1027 1146,1013 1102,992 1068,969 1041,948 1019,930 1000,914 999,912 1019,901 1042,887 1068,872 1097,856 1132,841 1173,832 1220,839 1260,878 1250,939 1204,966 1159,966 1120,955 1087,939 1059,923 1034,908 1012,895 1008,933 1031,924 1056,912 1082,900 1111,887 1142,875 1174,870 1204,875 1222,892 1218,915 1195,928 1164,929 1132,921 1101,909 1073,896 1047,884 1023,873 1015,956 1040,949 1067,939 1095,928 1123,916 1151,905 1177,897 1198,895 1209,898 1207,903 1192,905 1169,901 1142,892 1114,880 1086,868 1058,857 1032,848 1020,982 1048,976 1077,967 1107,956 1135,944 1162,931 1185,919 1202,910 1210,902 1208,895 1197,887 1178,877 1154,865 1126,852 1097,840 1068,829 1039,821 1024,1012 1055,1007 1088,998 1119,986 1150,972 1177,956 1199,939 1214,922 1222,905 1220,889 1210,873 1192,856 1168,839 1140,823 1109,809 1077,799 1045,791 1026,1045 1062,1041 1098,1032 1134,1019 1167,1002 1196,981 1219,958 1235,934 1243,908 1241,883 1231,858 1212,834 1187,812 1156,792 1122,776 1086,764 1050,757 1026,1083 1068,1080 1110,1071 1151,1056 1188,1035 1221,1009 1247,979 1264,946 1273,912 1271,877 1259,843 1239,811 1211,782 1176,757 1137,738 1096,725 1054,718 1024,1127 1073,1126 1123,1117 1171,1099 1215,1073 1253,1041 1283,1002 1303,960 1313,915 1311,870 1297,825 1274,784 1241,748 1201,717 1155,694 1106,679 1057,673 "/>
</svg>
