<svg width="1800" height="1800" viewBox="0 0 1800 1800" xmlns="http://www.w3.org/2000/svg">
<polyline fill="none" opacity="1" stroke="#FFCDD2" stroke-width="1" points="1795,5 1795,5 1795,5 1795,5 1795,5 1795,5 1795,5 1795,5 1795,5 1795,5 1795,5 1795,5 1795,5 1795,244 1795,565 1795,872 1795,1164 1795,1442 1795,1705 1795,1795 1795,1795 1795,1795 1795,1795 1795,1795 1795,1795 1795,1795 1795,1795 1795,1795 1795,1795 1795,1795 1795,1795 1795,1795 1795,1795 1598,1795 1341,1795 1083,1795 825,1795 567,1795 310,1795 53,1795 5,1795 5,1795 5,1795 5,1795 5,1795 5,1795 5,1795 5,1795 5,1795 5,1795 5,1795 5,1795 5,1795 5,1795 5,1556 5,1285 5,999 5,698 5,383 5,54 5,5 5,5 5,5 5,5 5,5 5,5 5,5 5,5 5,5 5,5 5,5 5,5 1795,5 1795,5 1795,5 1795,5 1795,5 1795,5 1795,5 1795,5 1795,5 1795,5 1795,5 1795,5 1795,5 1795,97 1795,410 1795,708 1795,992 1795,1262 1795,1517 1795,1759 1795,1795 1795,1795 1795,1795 1795,1795 1795,1795 1795,1795 1795,1795 1795,1795 1795,1795 1795,1795 1795,1795 1795,1795 1795,1795 1560,1795 1317,1795 1073,1795 829,1795 586,1795 342,1795 100,1795 5,1795 5,1795 5,1795 5,1795 5,1795 5,1795 5,1795 5,1795 5,1795 5,1795 5,1795 5,1795 5,1795 5,1623 5,1373 5,1109 5,831 5,539 5,233 5,5 5,5 5,5 5,5 5,5 5,5 5,5 5,5 5,5 5,5 5,5 5,5 5,5 1795,5 1795,5 1795,5 1795,5 1795,5 1795,5 1795,5 1795,5 1795,5 1795,5 1795,5 1795,5 1795,5 1795,5 1795,268 1795,558 1795,833 1795,1096 1795,1344 1795,1579 1795,1795 1795,1795 1795,1795 1795,1795 1795,1795 1795,1795 1795,1795 1795,1795 1795,1795 1795,1795 1795,1795 1795,1795 1750,1795 1522,1795 1293,1795 1063,1795 833,1795 603,1795 374,1795 146,1795 5,1795 5,1795 5,1795 5,1795 5,1795 5,1795 5,1795 5,1795 5,1795 5,1795 5,1795 5,1795 5,1675 5,1446 5,1204 5,947 5,677 5,394 5,97 5,5 5,5 5,5 5,5 5,5 5,5 5,5 5,5 5,5 5,5 5,5 5,5 5,5 1795,5 1795,5 1795,5 1795,5 1795,5 1795,5 1795,5 1795,5 1795,5 1795,5 1795,5 1795,5 1795,5 1795,5 1795,140 1795,421 1795,689 1795,943 1795,1184 1795,1412 1795,1627 1795,1795 1795,1795 1795,1795 1795,1795 1795,1795 1795,1795 1795,1795 1795,1795 1795,1795 1795,1795 1795,1795 1700,1795 1485,1795 1270,1795 1054,1795 837,1795 621,1795 405,1795 190,1795 5,1795 5,1795 5,1795 5,1795 5,1795 5,1795 5,1795 5,1795 5,1795 5,1795 5,1795 5,1715 5,1506 5,1284 5,1048 5,799 5,537 5,262 5,5 5,5 5,5 5,5 5,5 5,5 5,5 5,5 5,5 5,5 5,5 5,5 5,5 5,5 1795,5 1795,5 1795,5 1795,5 1795,5 1795,5 1795,5 1795,5 1795,5 1795,5 1795,5 1795,5 1795,5 1795,5 1795,26 1795,298 1795,557 1795,804 1795,1038 1795,1259 1795,1467 1795,1662 1795,1795 1795,1795 1795,1795 1795,1795 1795,1795 1795,1795 1795,1795 1795,1795 1795,1795 1795,1795 1652,1795 1450,1795 1248,1795 1044,1795 841,1795 637,1795 435,1795 233,1795 32,1795 5,1795 5,1795 5,1795 5,1795 5,1795 5,1795 5,1795 5,1795 5,1795 5,1742 5,1552 5,1350 5,1134 5,906 5,665 5,411 5,144 5,5 5,5 5,5 5,5 5,5 5,5 5,5 5,5 5,5 5,5 5,5 5,5 5,5 5,5 1795,5 1795,5 1795,5 1795,5 1795,5 1795,5 1795,5 1795,5 1795,5 1795,5 1795,5 1795,5 1795,5 1795,5 1795,5 1795,188 1795,439 1795,678 1795,904 1795,1118 1795,1320 1795,1509 1795,1685 1795,1795 1795,1795 1795,1795 1795,1795 1795,1795 1795,1795 1795,1795 1795,1795 1792,1795 1605,1795 1416,1795 1226,1795 1035,1795 844,1795 654,1795 463,1795 274,1795 86,1795 5,1795 5,1795 5,1795 5,1795 5,1795 5,1795 5,1795 5,1795 5,1757 5,1586 5,1402 5,1206 5,997 5,776 5,543 5,297 5,38 5,5 5,5 5,5 5,5 5,5 5,5 5,5 5,5 5,5 5,5 5,5 5,5 5,5 5,5 1795,5 1795,5 1795,5 1795,5 1795,5 1795,5 1795,5 1795,5 1795,5 1795,5 1795,5 1795,5 1795,5 1795,5 1795,5 1795,90 1795,333 1795,564 1795,783 1795,990 1795,1185 1795,1368 1795,1539 1795,1698 1795,1795 1795,1795 1795,1795 1795,1795 1795,1795 1795,1795 1795,1795 1734,1795 1559,1795 1383,1795 1205,1795 1027,1795 848,1795 669,1795 491,1795 314,1795 139,1795 5,1795 5,1795 5,1795 5,1795 5,1795 5,1795 5,1795 5,1762 5,1608 5,1443 5,1265 5,1075 5,873 5,659 5,433 5,195 5,5 5,5 5,5 5,5 5,5 5,5 5,5 5,5 5,5 5,5 5,5 5,5 5,5 5,5 5,5 1795,5 1795,5 1795,5 1795,5 1795,5 1795,5 1795,5 1795,5 1795,5 1795,5 1795,5 1795,5 1795,5 1795,5 1795,5 1795,5 1795,239 1795,462 1795,674 1795,874 1795,1062 1795,1239 1795,1404 1795,1558 1795,1700 1795,1795 1795,1795 1795,1795 1795,1795 1795,1795 1795,1795 1679,1795 1515,1795 1351,1795 1185,1795 1018,1795 851,1795 685,1795 518,1795 353,1795 189,1795 27,1795 5,1795 5,1795 5,1795 5,1795 5,1795 5,1757 5,1620 5,1471 5,1311 5,1139 5,956 5,761 5,554 5,336 5,106 5,5 5,5 5,5 5,5 5,5 5,5 5,5 5,5 5,5 5,5 5,5 5,5 5,5 5,5 5,5 1795,5 1795,5 1795,5 1795,5 1795,5 1795,5 1795,5 1795,5 1795,5 1795,5 1795,5 1795,5 1795,5 1795,5 1795,5 1795,5 1795,156 1795,372 1795,576 1795,769 1795,951 1795,1122 1795,1281 1795,1429 1795,1566 1795,1692 1795,1795 1795,1795 1795,1795 1795,1795 1775,1795 1625,1795 1473,1795 1320,1795 1165,1795 1010,1795 855,1795 699,1795 545,1795 391,1795 238,1795 87,1795 5,1795 5,1795 5,1795 5,1795 5,1743 5,1622 5,1489 5,1346 5,1191 5,1025 5,848 5,660 5,461 5,250 5,28 5,5 5,5 5,5 5,5 5,5 5,5 5,5 5,5 5,5 5,5 5,5 5,5 5,5 5,5 5,5 1795,5 1795,5 1795,5 1795,5 1795,5 1795,5 1795,5 1795,5 1795,5 1795,5 1795,5 1795,5 1795,5 1795,5 1795,5 1795,5 1795,85 1795,293 1795,490 1795,676 1795,851 1795,1016 1795,1169 1795,1312 1795,1444 1795,1565 1795,1676 1795,1775 1795,1795 1795,1795 1712,1795 1573,1795 1432,1795 1290,1795 1146,1795 1002,1795 858,1795 713,1795 570,1795 427,1795 285,1795 146,1795 8,1795 5,1795 5,1795 5,1720 5,1614 5,1497 5,1370 5,1232 5,1083 5,923 5,752 5,571 5,378 5,175 5,5 5,5 5,5 5,5 5,5 5,5 5,5 5,5 5,5 5,5 5,5 5,5 5,5 5,5 5,5 5,5 1795,5 1795,5 1795,5 1795,5 1795,5 1795,5 1795,5 1795,5 1795,5 1795,5 1795,5 1795,5 1795,5 1795,5 1795,5 1795,5 1795,25 1795,224 1795,414 1795,593 1795,762 1795,920 1795,1068 1795,1206 1795,1333 1795,1450 1795,1556 1795,1652 1795,1737 1777,1795 1651,1795 1523,1795 1393,1795 1261,1795 1128,1795 995,1795 861,1795 727,1795 594,1795 462,1795 331,1795 202,1795 75,1795 5,1771 5,1690 5,1598 5,1496 5,1384 5,1261 5,1128 5,985 5,831 5,667 5,492 5,307 5,111 5,5 5,5 5,5 5,5 5,5 5,5 5,5 5,5 5,5 5,5 5,5 5,5 5,5 5,5 5,5 5,5 1795,5 1795,5 1795,5 1795,5 1795,5 1795,5 1795,5 1795,5 1795,5 1795,5 1795,5 1795,5 1795,5 1795,5 1795,5 1795,5 1795,5 1795,167 1795,349 1795,521 1795,683 1795,835 1795,978 1795,1110 1795,1232 1795,1344 1795,1446 1795,1538 1795,1621 1708,1693 1593,1755 1475,1795 1355,1795 1233,1795 1111,1795 987,1795 864,1795 740,1795 617,1795 495,1795 375,1795 256,1779 139,1721 25,1653 5,1575 5,1487 5,1389 5,1281 5,1163 5,1035 5,898 5,750 5,592 5,424 5,246 5,58 5,5 5,5 5,5 5,5 5,5 5,5 5,5 5,5 5,5 5,5 5,5 5,5 5,5 5,5 5,5 5,5 1795,5 1795,5 1795,5 1795,5 1795,5 1795,5 1795,5 1795,5 1795,5 1795,5 1795,5 1795,5 1795,5 1795,5 1795,5 1795,5 1795,5 1795,119 1795,294 1795,459 1795,615 1795,761 1795,897 1795,1024 1795,1141 1795,1249 1795,1347 1795,1435 1746,1514 1643,1583 1537,1643 1428,1693 1318,1733 1207,1764 1094,1785 980,1795 866,1795 753,1792 640,1774 527,1748 417,1711 307,1665 200,1610 96,1545 5,1470 5,1386 5,1292 5,1188 5,1075 5,953 5,820 5,678 5,527 5,366 5,195 5,15 5,5 5,5 5,5 5,5 5,5 5,5 5,5 5,5 5,5 5,5 5,5 5,5 5,5 5,5 5,5 5,5 1555,5 1702,5 1795,5 1795,5 1795,5 1795,5 1795,5 1795,5 1795,5 1795,5 1795,5 1795,5 1795,5 1795,5 1795,5 1795,5 1795,5 1795,81 1795,248 1795,406 1795,555 1795,695 1795,826 1795,947 1795,1060 1795,1163 1795,1257 1764,1341 1673,1417 1580,1483 1483,1540 1384,1588 1283,1627 1181,1657 1078,1677 974,1688 869,1690 765,1683 661,1666 558,1641 457,1606 357,1562 259,1509 164,1447 72,1375 5,1294 5,1204 5,1105 5,997 5,879 5,752 5,617 5,471 5,317 5,154 5,5 5,5 5,5 5,5 5,5 5,5 5,5 5,5 5,5 5,5 5,5 5,5 5,5 5,5 5,5 38,5 178,5 1234,5 1389,5 1531,5 1659,5 1773,5 1795,5 1795,5 1795,5 1795,5 1795,5 1795,5 1795,5 1795,5 1795,5 1795,5 1795,5 1795,5 1795,52 1795,212 1795,363 1795,506 1795,639 1795,764 1795,880 1795,988 1795,1086 1764,1176 1686,1257 1604,1329 1519,1393 1432,1447 1342,1493 1250,1530 1157,1558 1062,1578 967,1588 872,1590 776,1583 682,1568 588,1543 495,1510 405,1468 316,1417 230,1357 147,1289 67,1212 5,1126 5,1031 5,927 5,815 5,694 5,564 5,425 5,278 5,121 5,5 5,5 5,5 5,5 5,5 5,5 5,5 5,5 5,5 5,5 5,5 5,5 5,5 89,5 211,5 346,5 496,5 927,5 1091,5 1241,5 1378,5 1501,5 1611,5 1709,5 1795,5 1795,5 1795,5 1795,5 1795,5 1795,5 1795,5 1795,5 1795,5 1795,5 1795,31 1795,184 1795,328 1795,464 1795,592 1795,711 1795,822 1795,924 1746,1018 1681,1104 1611,1181 1538,1250 1462,1311 1383,1363 1301,1406 1218,1442 1133,1469 1048,1487 961,1497 874,1499 788,1493 701,1478 616,1454 532,1423 450,1382 370,1334 292,1277 218,1212 147,1138 79,1056 16,966 5,867 5,760 5,644 5,520 5,388 5,247 5,98 5,5 5,5 5,5 5,5 5,5 5,5 5,5 5,5 5,5 5,5 50,5 143,5 248,5 366,5 496,5 641,5 799,5 635,5 807,5 966,5 1110,5 1242,5 1360,5 1466,5 1560,5 1643,5 1714,5 1774,5 1795,5 1795,5 1795,5 1795,5 1795,5 1795,5 1795,20 1795,165 1795,302 1795,432 1795,553 1795,666 1760,772 1712,869 1659,959 1601,1040 1540,1114 1475,1179 1407,1237 1336,1287 1263,1328 1188,1362 1111,1387 1033,1405 955,1415 877,1417 798,1410 720,1396 643,1374 567,1344 493,1305 421,1259 352,1205 286,1143 223,1073 163,995 108,909 58,815 12,713 5,603 5,485 5,359 5,225 5,83 5,5 5,5 5,5 5,5 5,5 5,5 5,5 57,5 123,5 201,5 290,5 391,5 504,5 630,5 769,5 921,5 1087,5 357,5 537,5 703,5 856,5 995,5 1121,5 1235,5 1337,5 1427,5 1506,5 1575,5 1632,5 1680,5 1718,5 1747,5 1768,5 1779,5 1783,16 1779,154 1769,284 1751,407 1727,522 1697,630 1661,730 1621,822 1575,907 1526,985 1472,1055 1415,1117 1354,1171 1291,1218 1226,1258 1159,1290 1090,1314 1020,1331 950,1340 879,1342 808,1336 738,1322 669,1301 601,1273 534,1236 470,1192 409,1141 350,1082 295,1016 243,941 196,860 153,770 116,674 83,569 57,457 36,338 22,211 15,76 16,5 24,5 41,5 66,5 100,5 144,5 197,5 261,5 336,5 421,5 518,5 626,5 747,5 881,5 1028,5 1188,5 1362,5 94,5 282,5 455,5 615,5 761,5 895,5 1016,5 1125,5 1223,5 1309,5 1385,5 1450,5 1505,5 1551,5 1587,5 1615,5 1634,5 1645,20 1649,150 1645,274 1635,390 1618,499 1596,601 1568,695 1534,783 1496,863 1454,937 1408,1003 1358,1062 1305,1113 1249,1158 1191,1195 1131,1225 1070,1249 1008,1264 944,1273 881,1275 818,1269 755,1256 693,1236 632,1209 573,1175 517,1133 462,1085 411,1029 363,966 319,896 279,818 244,734 214,642 189,543 169,437 156,324 150,204 150,76 158,5 174,5 198,5 230,5 272,5 323,5 384,5 455,5 537,5 629,5 734,5 850,5 978,5 1119,5 1273,5 1440,5 1622,5 5,5 40,5 220,5 387,5 540,5 681,5 809,5 925,5 1030,5 1123,5 1206,5 1278,5 1340,5 1393,5 1436,5 1471,5 1497,5 1515,30 1525,154 1529,270 1526,380 1516,483 1500,579 1479,668 1453,751 1422,827 1386,896 1347,958 1304,1014 1258,1062 1209,1105 1158,1140 1106,1168 1051,1190 996,1205 939,1213 883,1215 826,1209 771,1197 716,1178 662,1153 610,1120 560,1081 513,1035 469,983 428,923 391,857 358,784 330,704 306,618 288,525 276,425 270,318 270,204 278,84 293,5 315,5 346,5 386,5 434,5 492,5 560,5 638,5 727,5 826,5 938,5 1061,5 1196,5 1344,5 1505,5 1679,5 1795,5 5,5 5,5 5,5 172,5 332,5 479,5 614,5 737,5 848,5 948,5 1037,5 1116,5 1184,5 1244,5 1293,5 1335,5 1367,5 1392,48 1409,164 1419,273 1423,376 1419,473 1410,564 1396,648 1376,725 1351,797 1323,862 1290,920 1254,973 1214,1018 1172,1058 1128,1091 1081,1118 1033,1138 984,1152 935,1160 885,1161 835,1156 786,1145 737,1127 690,1103 645,1073 602,1036 561,993 523,943 489,888 458,825 432,757 410,682 393,600 382,513 376,419 377,318 384,212 398,98 419,5 448,5 486,5 532,5 587,5 652,5 726,5 811,5 906,5 1012,5 1130,5 1259,5 1401,5 1556,5 1723,5 1795,5 1795,5 5,5 5,5 5,5 5,5 137,5 290,5 431,5 560,5 677,5 783,5 879,5 964,5 1038,5 1104,5 1160,5 1207,5 1246,5 1277,72 1300,181 1316,283 1326,380 1329,470 1326,555 1317,634 1304,706 1285,773 1263,834 1236,889 1206,938 1173,981 1137,1018 1098,1049 1058,1074 1017,1093 974,1106 930,1113 886,1115 843,1110 800,1099 757,1083 717,1060 677,1032 640,997 606,957 574,910 546,858 522,800 501,736 486,665 475,589 470,507 470,419 477,325 490,225 510,119 538,7 573,5 617,5 669,5 730,5 801,5 882,5 972,5 1074,5 1186,5 1310,5 1446,5 1594,5 1755,5 1795,5 1795,5 1795,5 5,5 5,5 5,5 5,5 5,5 114,5 260,5 395,5 518,5 630,5 731,5 821,5 902,5 973,5 1035,5 1088,5 1133,5 1169,102 1198,203 1220,299 1235,389 1244,473 1247,552 1244,625 1236,693 1224,755 1207,812 1186,863 1162,909 1134,949 1104,983 1071,1012 1037,1036 1001,1054 964,1066 926,1073 888,1074 850,1069 813,1059 776,1044 741,1023 708,996 677,964 648,927 622,883 600,835 581,780 566,721 556,655 552,584 552,508 558,426 571,338 589,245 615,146 649,42 690,5 739,5 797,5 864,5 941,5 1027,5 1124,5 1231,5 1349,5 1479,5 1620,5 1774,5 1795,5 1795,5 1795,5 1795,5 5,5 5,5 5,5 5,5 5,5 5,5 101,5 241,5 370,5 487,5 593,5 689,5 775,5 852,5 919,5 977,5 1027,39 1069,138 1104,231 1131,320 1151,403 1165,482 1174,555 1176,623 1174,686 1167,743 1155,796 1139,843 1120,886 1098,923 1073,955 1046,981 1017,1003 986,1020 955,1031 922,1037 890,1038 857,1034 825,1025 794,1011 764,991 736,967 710,937 687,902 666,862 649,817 636,766 627,711 622,650 623,584 628,514 640,437 658,356 682,270 713,178 752,82 798,5 853,5 917,5 989,5 1071,5 1162,5 1264,5 1377,5 1500,5 1635,5 1782,5 1795,5 1795,5 1795,5 1795,5 1795,5 5,5 5,5 5,5 5,5 5,5 5,5 5,5 99,5 233,5 355,5 466,5 567,5 658,5 739,5 811,5 875,5 930,87 977,178 1016,265 1048,346 1074,423 1093,495 1106,563 1113,625 1116,683 1114,736 1107,785 1096,828 1082,867 1065,902 1045,931 1023,956 999,976 973,991 946,1001 919,1007 891,1008 863,1005 836,996 810,983 785,965 762,942 741,915 723,883 707,846 695,804 687,758 683,707 683,651 688,590 699,525 715,455 738,380 767,300 804,216 847,127 899,33 958,5 1027,5 1104,5 1191,5 1287,5 1394,5 1512,5 1640,5 1780,5 1795,5 1795,5 1795,5 1795,5 1795,5 1795,5 5,5 5,5 5,5 5,5 5,5 5,5 5,5 5,5 107,5 234,5 349,5 455,5 550,5 636,5 713,5 781,53 840,140 892,224 936,303 972,377 1002,448 1026,514 1044,575 1056,632 1063,685 1065,734 1063,778 1057,818 1047,854 1035,885 1019,912 1001,935 982,953 961,967 938,977 916,982 892,983 869,979 847,972 825,960 805,943 786,922 770,897 756,868 745,834 737,796 733,754 734,707 739,656 749,600 764,540 785,476 812,408 846,335 887,258 935,177 991,91 1055,5 1128,5 1210,5 1301,5 1402,5 1513,5 1635,5 1768,5 1795,5 1795,5 1795,5 1795,5 1795,5 1795,5 1795,5 5,5 5,5 5,5 5,5 5,5 5,5 5,5 5,5 5,5 123,5 243,5 353,5 452,5 542,5 623,35 695,118 759,198 814,273 862,345 903,413 937,476 965,536 987,592 1003,644 1014,692 1021,736 1023,776 1021,813 1015,845 1007,873 996,898 982,918 966,935 949,947 931,956 913,961 894,962 875,959 856,952 839,941 822,926 808,907 796,884 786,857 779,827 776,792 776,754 780,711 789,665 803,615 823,561 848,503 879,440 917,374 962,305 1015,231 1075,153 1143,71 1220,5 1306,5 1401,5 1507,5 1622,5 1748,5 1795,5 1795,5 1795,5 1795,5 1795,5 1795,5 1795,5 1795,5 5,5 5,5 5,5 5,5 5,5 5,5 5,5 5,5 5,5 24,5 147,5 261,5 364,5 458,35 542,113 618,188 685,259 744,327 796,391 841,452 879,509 910,563 936,613 956,660 971,703 981,742 986,778 988,811 987,840 982,865 974,887 964,905 953,920 939,932 925,939 910,944 895,944 879,942 865,935 851,926 838,912 828,895 819,875 813,851 810,824 810,793 814,758 823,720 835,678 853,633 876,585 905,533 940,477 982,418 1030,355 1086,289 1150,219 1222,146 1303,69 1393,5 1492,5 1601,5 1720,5 1795,5 1795,5 1795,5 1795,5 1795,5 1795,5 1795,5 1795,5 1795,5 5,5 5,5 5,5 5,5 5,5 5,5 5,5 5,5 5,5 5,5 62,5 178,5 285,53 382,126 470,195 549,261 620,324 682,384 737,441 785,495 826,545 861,593 890,637 913,679 932,717 945,752 954,784 959,812 961,838 959,861 955,880 949,896 940,909 930,919 919,926 908,930 896,931 884,928 872,923 862,914 853,902 845,887 840,869 837,848 838,824 841,796 849,766 860,732 876,695 897,655 924,612 956,566 994,517 1039,465 1091,409 1151,350 1218,289 1293,224 1377,156 1470,85 1573,10 1685,5 1795,5 1795,5 1795,5 1795,5 1795,5 1795,5 1795,5 1795,5 1795,5 1795,5 5,5 5,5 5,5 5,5 5,5 5,5 5,5 5,5 5,5 5,5 5,22 106,91 216,156 316,219 406,280 488,337 562,392 628,445 686,494 737,541 781,585 818,626 850,665 876,701 897,734 914,764 926,792 934,817 938,840 940,859 939,876 935,890 929,902 922,910 914,916 905,920 896,920 887,918 879,913 871,906 865,895 861,882 858,867 859,848 862,827 868,803 879,777 893,747 912,715 936,681 965,643 1000,603 1042,560 1090,514 1145,466 1207,415 1277,361 1355,305 1442,246 1538,184 1644,119 1759,52 1795,5 1795,5 1795,5 1795,5 1795,5 1795,5 1795,5 1795,5 1795,5 1795,5 5,5 5,5 5,5 5,5 5,5 5,5 5,5 5,5 5,24 5,87 5,148 44,206 156,262 259,316 352,367 436,416 512,463 581,508 641,550 694,590 741,627 781,662 816,695 844,726 868,754 887,780 901,803 912,825 919,844 923,860 924,875 923,887 920,897 916,904 910,909 904,912 897,912 891,911 885,907 880,900 876,891 874,880 874,867 877,851 883,833 892,813 904,790 921,765 943,738 969,708 1001,677 1039,642 1083,606 1133,567 1191,526 1255,482 1328,437 1409,389 1498,338 1597,286 1705,231 1795,173 1795,114 1795,52 1795,5 1795,5 1795,5 1795,5 1795,5 1795,5 1795,5 1795,5 5,5 5,5 5,5 5,5 5,5 5,7 5,65 5,120 5,174 5,226 5,276 5,324 106,371 211,415 306,457 393,498 471,536 541,573 604,608 659,641 708,671 750,701 787,728 818,753 843,776 864,798 881,817 894,835 903,850 909,864 912,876 913,886 912,894 910,900 906,904 902,907 898,907 893,905 890,902 887,897 885,890 885,880 887,869 892,856 900,842 911,825 926,806 945,786 969,763 997,739 1031,712 1071,684 1117,654 1170,622 1229,588 1296,552 1371,514 1454,475 1545,433 1646,390 1756,344 1795,297 1795,248 1795,197 1795,144 1795,89 1795,32 1795,5 1795,5 1795,5 1795,5 1795,5 5,5 5,5 5,49 5,99 5,147 5,194 5,240 5,284 5,326 5,367 5,406 5,444 66,481 172,516 269,549 357,581 437,611 509,640 574,668 631,693 681,718 725,741 763,762 796,782 823,800 846,817 864,833 879,846 890,859 897,870 902,879 905,887 906,893 905,898 903,901 901,903 898,903 896,902 893,900 892,895 892,890 894,882 898,874 905,864 914,852 927,839 944,824 964,808 990,790 1020,771 1056,750 1097,728 1145,704 1199,679 1260,652 1329,624 1405,594 1490,563 1583,530 1686,496 1795,460 1795,423 1795,384 1795,344 1795,302 1795,259 1795,214 1795,168 1795,120 1795,71 1795,20 1795,5 5,201 5,239 5,277 5,314 5,349 5,383 5,416 5,448 5,479 5,509 5,538 5,566 35,592 142,618 241,642 330,666 412,688 485,709 550,729 609,748 661,766 706,782 745,798 779,813 808,826 832,838 852,850 867,860 880,869 889,877 895,883 899,889 901,894 902,897 901,900 900,901 899,901 897,900 896,898 896,895 898,891 901,886 906,880 914,872 925,864 939,854 957,843 979,831 1006,818 1037,804 1074,789 1117,773 1166,756 1222,737 1284,718 1354,697 1432,675 1518,652 1612,629 1716,604 1795,577 1795,550 1795,522 1795,492 1795,462 1795,430 1795,398 1795,364 1795,329 1795,293 1795,256 1795,217 5,458 5,482 5,506 5,529 5,551 5,573 5,594 5,614 5,634 5,653 5,671 5,688 14,705 122,721 221,737 312,751 394,766 468,779 535,791 594,803 647,815 693,825 733,835 768,844 798,853 822,861 843,868 860,874 873,880 883,885 890,889 895,893 898,896 899,898 900,899 899,900 899,900 898,900 898,899 899,897 902,894 906,891 912,887 921,882 932,877 947,870 966,864 989,856 1017,848 1049,839 1087,830 1131,819 1181,808 1237,797 1301,784 1371,771 1450,758 1537,743 1632,728 1737,712 1795,696 1795,679 1795,661 1795,642 1795,623 1795,603 1795,582 1795,561 1795,539 1795,516 1795,493 1795,468 5,716 5,726 5,736 5,745 5,755 5,764 5,772 5,781 5,789 5,797 5,804 5,812 5,819 111,825 211,832 302,838 384,844 459,849 526,855 586,860 639,864 686,869 726,873 762,877 792,880 817,883 838,886 855,889 869,891 879,894 887,895 892,897 896,898 898,899 899,900 899,900 899,900 899,900 900,899 901,898 904,897 908,896 915,894 924,892 937,890 952,888 971,885 995,882 1023,878 1056,875 1094,871 1138,866 1189,862 1246,857 1310,852 1381,846 1460,841 1547,835 1643,828 1748,822 1795,815 1795,808 1795,800 1795,792 1795,784 1795,776 1795,767 1795,759 1795,749 1795,740 1795,730 1795,720 5,974 5,970 5,966 5,962 5,958 5,955 5,951 5,948 5,944 5,941 5,938 5,935 5,933 109,930 209,927 300,925 382,922 457,920 524,918 584,916 638,914 684,913 725,911 761,909 791,908 816,907 837,905 855,904 868,903 879,903 887,902 892,901 896,901 898,900 899,900 899,900 899,900 899,900 900,900 901,901 904,901 909,902 916,902 925,903 937,904 953,905 972,906 996,907 1024,909 1057,910 1095,912 1140,914 1190,915 1247,917 1311,919 1383,922 1462,924 1549,926 1645,929 1750,931 1795,934 1795,937 1795,940 1795,943 1795,946 1795,950 1795,953 1795,957 1795,960 1795,964 1795,968 1795,972 5,1232 5,1213 5,1196 5,1178 5,1162 5,1145 5,1130 5,1114 5,1100 5,1086 5,1072 5,1059 7,1046 116,1034 216,1023 306,1011 389,1001 463,991 530,981 590,973 643,964 689,956 730,949 765,942 794,936 820,930 840,924 857,920 871,915 881,912 888,908 894,906 897,903 899,902 899,901 899,900 899,900 899,900 899,901 900,903 903,905 907,907 914,910 923,914 935,918 950,922 969,927 992,933 1020,939 1053,946 1091,953 1135,961 1185,969 1242,978 1305,987 1376,997 1455,1007 1542,1018 1638,1029 1743,1041 1795,1053 1795,1066 1795,1080 1795,1094 1795,1108 1795,1123 1795,1138 1795,1155 1795,1171 1795,1188 1795,1206 1795,1224 5,1489 5,1457 5,1425 5,1394 5,1364 5,1336 5,1308 5,1281 5,1254 5,1229 5,1205 5,1182 25,1159 133,1138 231,1117 321,1098 403,1079 477,1061 543,1044 602,1028 654,1013 700,999 740,986 774,974 803,963 827,952 847,943 864,934 876,927 886,920 892,914 897,909 899,906 901,903 900,901 900,899 899,899 898,900 897,902 898,904 900,908 903,912 909,917 917,924 929,931 943,939 962,948 984,958 1011,969 1043,981 1081,994 1124,1007 1173,1022 1229,1037 1292,1054 1362,1071 1441,1090 1527,1109 1622,1129 1726,1150 1795,1172 1795,1195 1795,1219 1795,1244 1795,1269 1795,1296 1795,1323 1795,1352 1795,1381 1795,1412 1795,1443 1795,1475 5,1746 5,1699 5,1653 5,1609 5,1566 5,1525 5,1485 5,1446 5,1408 5,1372 5,1337 5,1304 51,1272 158,1241 256,1211 345,1183 425,1156 498,1130 563,1106 621,1083 672,1062 716,1042 755,1023 788,1005 816,989 839,974 858,960 873,948 885,937 893,928 899,919 902,912 904,907 904,903 902,900 901,898 898,898 896,899 895,901 894,905 895,910 897,916 902,924 909,933 919,943 933,955 950,968 971,982 997,998 1028,1015 1064,1033 1107,1053 1155,1074 1210,1096 1271,1120 1341,1145 1418,1171 1503,1199 1597,1228 1700,1258 1795,1290 1795,1323 1795,1357 1795,1393 1795,1430 1795,1468 1795,1507 1795,1548 1795,1591 1795,1634 1795,1679 1795,1725 5,1795 5,1795 5,1795 5,1795 5,1767 5,1713 5,1660 5,1610 5,1561 5,1514 5,1468 5,1424 88,1382 193,1342 289,1304 376,1267 455,1232 526,1198 590,1167 646,1137 696,1109 739,1082 776,1058 808,1035 834,1014 856,994 873,977 887,961 897,946 904,934 908,923 909,914 909,907 908,901 905,897 902,895 898,895 894,896 891,899 889,904 888,911 889,919 892,929 898,941 907,954 918,969 934,986 954,1005 978,1026 1008,1048 1043,1072 1083,1097 1130,1125 1183,1154 1243,1185 1311,1217 1387,1252 1470,1288 1563,1325 1664,1365 1775,1406 1795,1449 1795,1494 1795,1540 1795,1589 1795,1638 1795,1690 1795,1744 1795,1795 1795,1795 1795,1795 1795,1795 5,1795 5,1795 5,1795 5,1795 5,1795 5,1795 5,1795 5,1772 5,1712 5,1653 5,1597 20,1543 134,1492 237,1442 331,1394 417,1349 494,1306 563,1265 624,1226 679,1189 726,1154 767,1122 803,1091 832,1063 857,1037 877,1013 892,991 904,971 912,954 917,938 919,925 919,914 917,905 913,898 908,893 903,891 897,890 892,892 887,896 883,902 880,910 879,920 880,932 884,947 891,963 901,982 914,1003 932,1026 955,1051 982,1079 1015,1108 1053,1140 1098,1174 1150,1210 1208,1248 1274,1288 1347,1330 1429,1375 1520,1421 1619,1470 1728,1521 1795,1574 1795,1629 1795,1686 1795,1746 1795,1795 1795,1795 1795,1795 1795,1795 1795,1795 1795,1795 1795,1795 5,1795 5,1795 5,1795 5,1795 5,1795 5,1795 5,1795 5,1795 5,1795 5,1791 5,1724 78,1660 189,1599 290,1540 382,1483 465,1429 540,1378 607,1329 666,1282 718,1239 763,1197 802,1159 835,1122 862,1089 884,1058 902,1029 915,1003 924,980 930,959 932,941 932,925 930,912 925,901 919,893 912,887 905,884 897,883 889,885 882,890 875,897 870,907 867,919 865,934 867,951 871,971 879,993 890,1018 906,1045 926,1075 951,1108 981,1143 1018,1180 1060,1221 1109,1263 1165,1309 1229,1356 1300,1407 1379,1460 1467,1515 1565,1573 1671,1633 1787,1697 1795,1762 1795,1795 1795,1795 1795,1795 1795,1795 1795,1795 1795,1795 1795,1795 1795,1795 1795,1795 5,1795 5,1795 5,1795 5,1795 5,1795 5,1795 5,1795 5,1795 5,1795 5,1795 28,1795 146,1774 254,1703 352,1635 442,1569 522,1507 594,1447 658,1390 714,1337 764,1286 806,1238 842,1193 872,1151 897,1112 916,1076 931,1043 942,1013 948,986 951,962 951,940 948,922 943,907 935,894 927,885 917,878 907,875 896,874 885,876 875,882 866,890 858,901 852,915 848,932 847,952 848,975 853,1001 862,1030 875,1062 892,1096 914,1134 942,1175 976,1218 1015,1265 1062,1314 1115,1367 1176,1422 1244,1481 1321,1542 1406,1606 1501,1673 1604,1743 1718,1795 1795,1795 1795,1795 1795,1795 1795,1795 1795,1795 1795,1795 1795,1795 1795,1795 1795,1795 1795,1795 5,1795 5,1795 5,1795 5,1795 5,1795 5,1795 5,1795 5,1795 5,1795 5,1795 109,1795 224,1795 329,1795 424,1727 510,1652 587,1581 656,1513 717,1449 770,1388 816,1330 856,1276 889,1225 916,1177 937,1133 953,1092 965,1054 972,1020 975,989 975,961 972,937 966,916 957,899 947,885 935,874 922,867 909,862 895,862 881,864 868,870 856,880 845,892 836,908 828,928 824,951 822,977 824,1006 830,1039 839,1075 853,1115 873,1158 897,1204 928,1253 964,1306 1007,1363 1057,1422 1115,1485 1180,1552 1254,1621 1336,1694 1427,1771 1528,1795 1638,1795 1759,1795 1795,1795 1795,1795 1795,1795 1795,1795 1795,1795 1795,1795 1795,1795 1795,1795 1795,1795 5,1795 5,1795 5,1795 5,1795 5,1795 5,1795 5,1795 5,1795 5,1795 79,1795 201,1795 312,1795 413,1795 505,1795 587,1732 661,1652 726,1576 783,1504 833,1436 876,1371 911,1310 941,1253 964,1199 982,1150 995,1104 1003,1062 1007,1023 1006,989 1003,958 996,931 986,907 974,888 960,872 945,860 929,852 911,847 894,846 877,849 860,856 844,866 830,881 817,898 806,920 798,946 793,975 791,1008 793,1045 799,1085 810,1130 825,1178 846,1229 873,1285 906,1344 946,1407 992,1474 1046,1545 1108,1619 1178,1697 1257,1779 1344,1795 1441,1795 1548,1795 1665,1795 1793,1795 1795,1795 1795,1795 1795,1795 1795,1795 1795,1795 1795,1795 1795,1795 1795,1795 5,1795 5,1795 5,1795 5,1795 5,1795 5,1795 5,1795 5,1795 56,1795 185,1795 303,1795 410,1795 507,1795 595,1795 673,1795 743,1720 804,1636 858,1556 903,1480 942,1408 974,1341 999,1277 1019,1218 1033,1163 1041,1112 1045,1066 1045,1023 1041,985 1033,950 1022,920 1009,895 993,873 975,855 956,842 935,833 914,828 893,827 872,830 851,837 831,849 813,865 796,885 781,909 769,937 760,969 754,1006 752,1047 754,1092 761,1141 773,1194 790,1251 813,1313 842,1379 877,1449 920,1523 970,1601 1028,1683 1094,1770 1168,1795 1252,1795 1345,1795 1448,1795 1561,1795 1685,1795 1795,1795 1795,1795 1795,1795 1795,1795 1795,1795 1795,1795 1795,1795 1795,1795 5,1795 5,1795 5,1795 5,1795 5,1795 5,1795 5,1795 42,1795 177,1795 302,1795 415,1795 518,1795 611,1795 694,1795 768,1795 833,1783 890,1691 939,1603 981,1520 1015,1441 1042,1367 1063,1298 1078,1233 1088,1172 1092,1116 1092,1065 1088,1019 1079,976 1067,939 1052,906 1034,878 1013,854 991,835 968,820 943,810 917,804 892,803 866,807 841,815 817,828 794,845 773,867 754,893 737,924 724,960 714,1000 707,1045 705,1094 707,1148 715,1206 727,1269 746,1337 771,1409 802,1485 840,1567 886,1652 939,1743 1001,1795 1071,1795 1151,1795 1239,1795 1338,1795 1447,1795 1566,1795 1696,1795 1795,1795 1795,1795 1795,1795 1795,1795 1795,1795 1795,1795 1795,1795 5,1795 5,1795 5,1795 5,1795 5,1795 5,1795 37,1795 179,1795 310,1795 429,1795 538,1795 636,1795 724,1795 802,1795 872,1795 932,1795 984,1741 1029,1646 1065,1555 1095,1469 1117,1389 1134,1313 1144,1243 1149,1177 1148,1116 1143,1060 1134,1010 1121,964 1104,923 1084,887 1061,856 1036,830 1009,809 981,793 951,782 921,776 890,775 860,779 830,788 801,802 773,821 748,844 724,873 703,907 684,946 669,989 658,1038 651,1092 649,1150 651,1214 659,1282 673,1356 693,1434 719,1518 753,1606 794,1700 842,1795 899,1795 965,1795 1039,1795 1123,1795 1217,1795 1321,1795 1436,1795 1562,1795 1699,1795 1795,1795 1795,1795 1795,1795 1795,1795 1795,1795 1795,1795 5,1795 5,1795 5,1795 5,1795 5,1795 42,1795 191,1795 328,1795 453,1795 567,1795 671,1795 764,1795 846,1795 920,1795 984,1795 1039,1795 1086,1787 1125,1683 1157,1585 1181,1493 1199,1406 1210,1324 1215,1247 1215,1176 1209,1111 1199,1050 1184,996 1166,946 1144,902 1118,863 1091,830 1060,802 1028,779 995,762 960,750 924,743 889,742 853,746 818,756 784,771 751,791 720,817 691,848 665,885 641,926 621,974 605,1026 593,1084 585,1148 583,1216 585,1290 594,1370 609,1455 630,1545 658,1641 694,1742 738,1795 789,1795 850,1795 919,1795 998,1795 1086,1795 1185,1795 1295,1795 1415,1795 1547,1795 1691,1795 1795,1795 1795,1795 1795,1795 1795,1795 1795,1795 5,1795 5,1795 5,1795 5,1795 57,1795 213,1795 356,1795 488,1795 608,1795 716,1795 814,1795 901,1795 979,1795 1047,1795 1105,1795 1155,1795 1196,1795 1230,1716 1256,1610 1274,1511 1286,1417 1292,1329 1291,1247 1285,1171 1274,1100 1259,1035 1238,976 1214,923 1187,875 1156,834 1122,798 1087,768 1049,743 1010,725 969,712 928,705 887,704 846,708 805,718 766,735 727,756 691,784 656,818 624,857 595,902 570,953 548,1009 530,1072 517,1140 509,1214 506,1293 509,1379 518,1470 534,1567 556,1670 586,1779 624,1795 670,1795 725,1795 789,1795 862,1795 945,1795 1039,1795 1142,1795 1257,1795 1384,1795 1522,1795 1673,1795 1795,1795 1795,1795 1795,1795 1795,1795 5,1795 5,1795 5,1795 84,1795 247,1795 397,1795 534,1795 660,1795 774,1795 876,1795 968,1795 1049,1795 1121,1795 1182,1795 1235,1795 1279,1795 1314,1795 1342,1742 1362,1630 1374,1523 1380,1423 1380,1329 1373,1241 1362,1159 1344,1084 1323,1014 1296,951 1266,894 1233,843 1196,799 1157,760 1115,728 1071,702 1026,682 980,668 933,661 885,659 838,664 792,675 746,692 702,716 659,746 619,781 581,823 546,871 514,926 486,986 462,1053 443,1126 429,1205 420,1290 417,1382 420,1479 430,1583 447,1693 471,1795 503,1795 543,1795 592,1795 650,1795 717,1795 794,1795 881,1795 979,1795 1088,1795 1209,1795 1341,1795 1485,1795 1643,1795 1795,1795 1795,1795 1795,1795 5,1795 5,1795 124,1795 293,1795 449,1795 593,1795 724,1795 843,1795 951,1795 1047,1795 1132,1795 1207,1795 1272,1795 1328,1795 1374,1795 1411,1795 1440,1795 1461,1763 1475,1643 1481,1529 1481,1422 1474,1322 1461,1228 1443,1141 1419,1061 1391,987 1359,920 1322,859 1282,805 1239,757 1193,716 1145,682 1095,654 1043,633 991,618 937,610 884,609 830,614 777,626 725,644 674,669 625,701 578,739 534,784 493,835 455,893 420,957 390,1028 365,1106 344,1190 329,1281 320,1379 316,1483 320,1593 330,1711 348,1795 373,1795 407,1795 449,1795 501,1795 562,1795 632,1795 713,1795 805,1795 907,1795 1021,1795 1147,1795 1285,1795 1436,1795 1600,1795 1777,1795 1795,1795 5,1795 176,1795 353,1795 515,1795 665,1795 802,1795 926,1795 1038,1795 1139,1795 1228,1795 1307,1795 1375,1795 1433,1795 1482,1795 1521,1795 1552,1795 1574,1795 1588,1777 1595,1649 1595,1529 1587,1415 1574,1309 1554,1210 1529,1117 1499,1032 1464,953 1425,882 1381,817 1334,760 1285,709 1232,666 1177,629 1120,600 1062,577 1002,562 942,553 882,552 821,557 762,570 703,589 645,616 589,649 536,690 485,737 436,792 392,853 350,922 314,997 281,1080 254,1169 232,1265 216,1369 206,1479 202,1597 206,1721 217,1795 236,1795 263,1795 298,1795 343,1795 397,1795 461,1795 535,1795 619,1795 715,1795 822,1795 942,1795 1073,1795 1217,1795 1374,1795 1545,1795 1729,1795 243,1795 426,1795 595,1795 751,1795 893,1795 1023,1795 1140,1795 1245,1795 1338,1795 1421,1795 1492,1795 1553,1795 1604,1795 1645,1795 1678,1795 1701,1795 1716,1795 1723,1784 1723,1649 1715,1521 1701,1401 1680,1289 1653,1184 1621,1086 1583,995 1541,912 1494,837 1444,769 1390,708 1333,654 1273,608 1211,570 1147,539 1081,515 1015,498 947,489 880,488 812,494 745,507 679,528 614,556 551,591 490,634 432,684 377,742 325,807 276,879 232,959 193,1046 158,1141 129,1243 106,1352 88,1469 78,1593 74,1725 78,1795 89,1795 109,1795 138,1795 175,1795 222,1795 279,1795 346,1795 423,1795 512,1795 612,1795 724,1795 848,1795 985,1795 1134,1795 1298,1795 1475,1795 514,1795 690,1795 852,1795 1000,1795 1134,1795 1256,1795 1366,1795 1463,1795 1549,1795 1624,1795 1688,1795 1741,1795 1784,1795 1795,1795 1795,1795 1795,1795 1795,1795 1795,1783 1795,1641 1795,1506 1795,1380 1792,1261 1757,1150 1717,1047 1672,952 1622,864 1568,784 1510,713 1449,648 1384,592 1317,544 1247,503 1175,470 1102,445 1028,428 953,418 877,416 802,423 728,437 654,458 582,488 511,525 443,570 377,623 314,684 254,753 198,829 147,913 99,1005 57,1105 20,1213 5,1328 5,1451 5,1582 5,1721 5,1795 5,1795 5,1795 5,1795 5,1795 37,1795 86,1795 146,1795 216,1795 297,1795 389,1795 493,1795 610,1795 739,1795 881,1795 1037,1795 1207,1795 800,1795 968,1795 1122,1795 1262,1795 1388,1795 1502,1795 1604,1795 1693,1795 1771,1795 1795,1795 1795,1795 1795,1795 1795,1795 1795,1795 1795,1795 1795,1795 1795,1795 1795,1775 1795,1625 1795,1484 1795,1351 1795,1226 1795,1109 1795,1001 1766,900 1708,808 1646,724 1580,649 1510,581 1438,522 1362,471 1285,428 1205,394 1124,367 1041,349 958,339 875,337 792,344 709,358 628,381 547,412 469,452 392,499 318,555 247,619 180,691 116,771 56,860 5,957 5,1061 5,1175 5,1296 5,1426 5,1563 5,1710 5,1795 5,1795 5,1795 5,1795 5,1795 5,1795 5,1795 5,1795 5,1795 70,1795 155,1795 251,1795 359,1795 481,1795 615,1795 763,1795 924,1795 1101,1795 1260,1795 1405,1795 1537,1795 1655,1795 1761,1795 1795,1795 1795,1795 1795,1795 1795,1795 1795,1795 1795,1795 1795,1795 1795,1795 1795,1795 1795,1795 1795,1795 1795,1758 1795,1601 1795,1453 1795,1313 1795,1182 1795,1060 1795,946 1795,841 1795,744 1728,656 1653,577 1575,506 1494,444 1410,390 1324,345 1236,309 1147,281 1056,262 964,252 873,250 781,257 690,272 600,296 511,329 424,370 339,420 257,478 178,545 102,621 29,705 5,798 5,900 5,1010 5,1129 5,1256 5,1392 5,1536 5,1690 5,1795 5,1795 5,1795 5,1795 5,1795 5,1795 5,1795 5,1795 5,1795 5,1795 5,1795 5,1795 96,1795 209,1795 335,1795 474,1795 627,1795 1416,1795 1566,1795 1702,1795 1795,1795 1795,1795 1795,1795 1795,1795 1795,1795 1795,1795 1795,1795 1795,1795 1795,1795 1795,1795 1795,1795 1795,1795 1795,1795 1795,1795 1795,1733 1795,1569 1795,1413 1795,1267 1795,1130 1795,1002 1795,882 1795,772 1795,671 1795,579 1730,496 1643,422 1553,357 1461,301 1366,254 1269,216 1170,187 1071,167 971,156 870,154 770,161 670,177 571,202 474,236 378,279 284,332 193,393 105,463 20,542 5,631 5,728 5,834 5,949 5,1074 5,1207 5,1350 5,1501 5,1661 5,1795 5,1795 5,1795 5,1795 5,1795 5,1795 5,1795 5,1795 5,1795 5,1795 5,1795 5,1795 5,1795 5,1795 41,1795 172,1795 316,1795 1745,1795 1795,1795 1795,1795 1795,1795 1795,1795 1795,1795 1795,1795 1795,1795 1795,1795 1795,1795 1795,1795 1795,1795 1795,1795 1795,1795 1795,1795 1795,1795 1795,1795 1795,1699 1795,1527 1795,1365 1795,1212 1795,1069 1795,935 1795,810 1795,695 1795,589 1795,493 1795,406 1714,329 1615,261 1513,202 1409,153 1303,113 1195,83 1087,62 977,51 868,49 758,56 649,73 541,99 434,135 329,180 226,234 126,298 28,372 5,455 5,547 5,648 5,760 5,880 5,1010 5,1149 5,1298 5,1456 5,1624 5,1795 5,1795 5,1795 5,1795 5,1795 5,1795 5,1795 5,1795 5,1795 5,1795 5,1795 5,1795 5,1795 5,1795 5,1795 5,1795 5,1795 1795,1795 1795,1795 1795,1795 1795,1795 1795,1795 1795,1795 1795,1795 1795,1795 1795,1795 1795,1795 1795,1795 1795,1795 1795,1795 1795,1795 1795,1795 1795,1795 1795,1795 1795,1655 1795,1476 1795,1307 1795,1147 1795,998 1795,858 1795,728 1795,608 1795,498 1795,398 1795,307 1789,226 1680,155 1568,94 1455,43 1339,5 1222,5 1103,5 984,5 865,5 746,5 627,5 509,5 393,24 278,71 166,128 56,195 5,271 5,358 5,454 5,560 5,676 5,801 5,937 5,1082 5,1237 5,1402 5,1577 5,1762 5,1795 5,1795 5,1795 5,1795 5,1795 5,1795 5,1795 5,1795 5,1795 5,1795 5,1795 5,1795 5,1795 5,1795 5,1795 5,1795 1795,1795 1795,1795 1795,1795 1795,1795 1795,1795 1795,1795 1795,1795 1795,1795 1795,1795 1795,1795 1795,1795 1795,1795 1795,1795 1795,1795 1795,1795 1795,1795 1795,1795 1795,1602 1795,1415 1795,1239 1795,1073 1795,917 1795,772 1795,637 1795,512 1795,397 1795,292 1795,198 1795,114 1747,40 1626,5 1502,5 1376,5 1249,5 1120,5 991,5 862,5 733,5 604,5 476,5 350,5 225,5 102,12 5,81 5,161 5,251 5,351 5,461 5,582 5,713 5,854 5,1005 5,1167 5,1338 5,1520 5,1713 5,1795 5,1795 5,1795 5,1795 5,1795 5,1795 5,1795 5,1795 5,1795 5,1795 5,1795 5,1795 5,1795 5,1795 5,1795 5,1795 1795,1795 1795,1795 1795,1795 1795,1795 1795,1795 1795,1795 1795,1795 1795,1795 1795,1795 1795,1795 1795,1795 1795,1795 1795,1795 1795,1795 1795,1795 1795,1795 1795,1742 1795,1538 1795,1344 1795,1161 1795,988 1795,827 1795,675 1795,535 1795,405 1795,286 1795,177 1795,79 1795,5 1795,5 1685,5 1551,5 1415,5 1277,5 1138,5 999,5 859,5 719,5 580,5 442,5 305,5 170,5 37,5 5,5 5,40 5,134 5,238 5,352 5,478 5,614 5,760 5,918 5,1086 5,1264 5,1453 5,1653 5,1795 5,1795 5,1795 5,1795 5,1795 5,1795 5,1795 5,1795 5,1795 5,1795 5,1795 5,1795 5,1795 5,1795 5,1795 5,1795 1795,1795 1795,1795 1795,1795 1795,1795 1795,1795 1795,1795 1795,1795 1795,1795 1795,1795 1795,1795 1795,1795 1795,1795 1795,1795 1795,1795 1795,1795 1795,1795 1795,1676 1795,1463 1795,1262 1795,1072 1795,893 1795,725 1795,568 1795,422 1795,287 1795,164 1795,51 1795,5 1795,5 1795,5 1747,5 1602,5 1455,5 1307,5 1157,5 1007,5 856,5 705,5 555,5 406,5 259,5 113,5 5,5 5,5 5,5 5,6 5,114 5,233 5,363 5,504 5,657 5,820 5,994 5,1180 5,1376 5,1583 5,1795 5,1795 5,1795 5,1795 5,1795 5,1795 5,1795 5,1795 5,1795 5,1795 5,1795 5,1795 5,1795 5,1795 5,1795 5,1795 1795,1795 1795,1795 1795,1795 1795,1795 1795,1795 1795,1795 1795,1795 1795,1795 1795,1795 1795,1795 1795,1795 1795,1795 1795,1795 1795,1795 1795,1795 1795,1795 1795,1598 1795,1378 1795,1170 1795,973 1795,787 1795,613 1795,450 1795,299 1795,159 1795,31 1795,5 1795,5 1795,5 1795,5 1795,5 1655,5 1497,5 1337,5 1176,5 1015,5 853,5 691,5 530,5 369,5 210,5 53,5 5,5 5,5 5,5 5,5 5,5 5,103 5,237 5,384 5,542 5,711 5,892 5,1084 5,1287 5,1502 5,1729 5,1795 5,1795 5,1795 5,1795 5,1795 5,1795 5,1795 5,1795 5,1795 5,1795 5,1795 5,1795 5,1795 5,1795 5,1795 1795,1795 1795,1795 1795,1795 1795,1795 1795,1795 1795,1795 1795,1795 1795,1795 1795,1795 1795,1795 1795,1795 1795,1795 1795,1795 1795,1795 1795,1795 1795,1749 1795,1509 1795,1281 1795,1065 1795,861 1795,669 1795,489 1795,320 1795,164 1795,19 1795,5 1795,5 1795,5 1795,5 1795,5 1795,5 1710,5 1540,5 1369,5 1196,5 1023,5 849,5 676,5 503,5 331,5 161,5 5,5 5,5 5,5 5,5 5,5 5,5 5,5 5,100 5,252 5,415 5,590 5,778 5,977 5,1187 5,1410 5,1644 5,1795 5,1795 5,1795 5,1795 5,1795 5,1795 5,1795 5,1795 5,1795 5,1795 5,1795 5,1795 5,1795 5,1795 5,1795 1795,1795 1795,1795 1795,1795 1795,1795 1795,1795 1795,1795 1795,1795 1795,1795 1795,1795 1795,1795 1795,1795 1795,1795 1795,1795 1795,1795 1795,1795 1795,1656 1795,1408 1795,1173 1795,949 1795,738 1795,540 1795,353 1795,179 1795,17 1795,5 1795,5 1795,5 1795,5 1795,5 1795,5 1795,5 1767,5 1585,5 1401,5 1217,5 1032,5 846,5 661,5 476,5 292,5 109,5 5,5 5,5 5,5 5,5 5,5 5,5 5,5 5,5 5,108 5,277 5,458 5,652 5,857 5,1075 5,1306 5,1548 5,1795 5,1795 5,1795 5,1795 5,1795 5,1795 5,1795 5,1795 5,1795 5,1795 5,1795 5,1795 5,1795 5,1795 5,1795 1795,1795 1795,1795 1795,1795 1795,1795 1795,1795 1795,1795 1795,1795 1795,1795 1795,1795 1795,1795 1795,1795 1795,1795 1795,1795 1795,1795 1795,1795 1795,1551 1795,1295 1795,1052 1795,821 1795,603 1795,398 1795,205 1795,25 1795,5 1795,5 1795,5 1795,5 1795,5 1795,5 1795,5 1795,5 1795,5 1631,5 1435,5 1238,5 1040,5 842,5 644,5 447,5 251,5 55,5 5,5 5,5 5,5 5,5 5,5 5,5 5,5 5,5 5,5 5,126 5,314 5,514 5,726 5,951 5,1189 5,1440 5,1703 5,1795 5,1795 5,1795 5,1795 5,1795 5,1795 5,1795 5,1795 5,1795 5,1795 5,1795 5,1795 5,1795 5,1795 1795,1795 1795,1795 1795,1795 1795,1795 1795,1795 1795,1795 1795,1795 1795,1795 1795,1795 1795,1795 1795,1795 1795,1795 1795,1795 1795,1795 1795,1710 1795,1433 1795,1169 1795,918 1795,680 1795,455 1795,243 1795,44 1795,5 1795,5 1795,5 1795,5 1795,5 1795,5 1795,5 1795,5 1795,5 1795,5 1679,5 1470,5 1260,5 1050,5 839,5 628,5 418,5 208,5 5,5 5,5 5,5 5,5 5,5 5,5 5,5 5,5 5,5 5,5 5,5 5,156 5,363 5,582 5,814 5,1060 5,1318 5,1590 5,1795 5,1795 5,1795 5,1795 5,1795 5,1795 5,1795 5,1795 5,1795 5,1795 5,1795 5,1795 5,1795 5,1795 1795,1795 1795,1795 1795,1795 1795,1795 1795,1795 1795,1795 1795,1795 1795,1795 1795,1795 1795,1795 1795,1795 1795,1795 1795,1795 1795,1795 1795,1588 1795,1303 1795,1030 1795,771 1795,526 1795,294 1795,76 1795,5 1795,5 1795,5 1795,5 1795,5 1795,5 1795,5 1795,5 1795,5 1795,5 1795,5 1728,5 1506,5 1283,5 1059,5 835,5 611,5 387,5 165,5 5,5 5,5 5,5 5,5 5,5 5,5 5,5 5,5 5,5 5,5 5,5 5,5 5,199 5,425 5,665 5,918 5,1184 5,1464 5,1758 5,1795 5,1795 5,1795 5,1795 5,1795 5,1795 5,1795 5,1795 5,1795 5,1795 5,1795 5,1795 5,1795 1795,1795 1795,1795 1795,1795 1795,1795 1795,1795 1795,1795 1795,1795 1795,1795 1795,1795 1795,1795 1795,1795 1795,1795 1795,1795 1795,1761 1795,1453 1795,1158 1795,878 1795,611 1795,359 1795,120 1795,5 1795,5 1795,5 1795,5 1795,5 1795,5 1795,5 1795,5 1795,5 1795,5 1795,5 1795,5 1779,5 1543,5 1306,5 1069,5 831,5 593,5 356,5 120,5 5,5 5,5 5,5 5,5 5,5 5,5 5,5 5,5 5,5 5,5 5,5 5,5 5,22 5,254 5,501 5,762 5,1036 5,1325 5,1627 5,1795 5,1795 5,1795 5,1795 5,1795 5,1795 5,1795 5,1795 5,1795 5,1795 5,1795 5,1795 5,1795 1795,1795 1795,1795 1795,1795 1795,1795 1795,1795 1795,1795 1795,1795 1795,1795 1795,1795 1795,1795 1795,1795 1795,1795 1795,1795 1795,1621 1795,1303 1795,1000 1795,712 1795,437 1795,177 1795,5 1795,5 1795,5 1795,5 1795,5 1795,5 1795,5 1795,5 1795,5 1795,5 1795,5 1795,5 1795,5 1795,5 1582,5 1331,5 1079,5 827,5 575,5 324,5 74,5 5,5 5,5 5,5 5,5 5,5 5,5 5,5 5,5 5,5 5,5 5,5 5,5 5,5 5,70 5,324 5,592 5,875 5,1172 5,1483 5,1795 5,1795 5,1795 5,1795 5,1795 5,1795 5,1795 5,1795 5,1795 5,1795 5,1795 5,1795 5,1795 "/>
</svg>
