<svg width="1800" height="1800" viewBox="0 0 1800 1800" xmlns="http://www.w3.org/2000/svg">
<polyline fill="none" opacity="1" stroke="#FF0000" stroke-width="1" points="720,1079 720,1057 720,1036 720,1014 720,993 720,972 720,950 720,929 720,907 720,886 720,864 720,843 720,821 720,800 720,778 720,757 720,735 742,1079 742,1057 742,1036 742,1014 742,993 742,972 742,950 742,929 742,907 742,886 742,864 742,843 742,821 742,800 742,778 742,757 742,735 763,1079 763,1057 763,1036 763,1014 763,993 763,972 763,950 763,929 763,907 763,886 763,864 763,843 763,821 763,800 763,778 763,757 763,735 785,1079 785,1057 785,1036 785,1014 785,993 785,972 785,950 785,929 785,907 785,886 785,864 785,843 785,821 785,800 785,778 785,757 785,735 806,1079 806,1057 806,1036 806,1014 806,993 806,972 806,950 806,929 806,907 806,886 806,864 806,843 806,821 806,800 806,778 806,757 806,735 827,1079 827,1057 827,1036 827,1014 827,993 827,972 827,950 827,929 827,907 827,886 827,864 827,843 827,821 827,800 827,778 827,757 827,735 849,1079 849,1057 849,1036 849,1014 849,993 849,972 849,950 849,929 849,907 849,886 849,864 849,843 849,821 849,800 849,778 849,757 849,735 870,1079 870,1057 870,1036 870,1014 870,993 870,972 870,950 870,929 870,907 870,886 870,864 870,843 870,821 870,800 870,778 870,757 870,735 892,1079 892,1057 892,1036 892,1014 892,993 892,972 892,950 892,929 892,907 892,886 892,864 892,843 892,821 892,800 892,778 892,757 892,735 913,1079 913,1057 913,1036 913,1014 913,993 913,972 913,950 913,929 913,907 913,886 913,864 913,843 913,821 913,800 913,778 913,757 913,735 935,1079 935,1057 935,1036 935,1014 935,993 935,972 935,950 935,929 935,907 935,886 935,864 935,843 935,821 935,800 935,778 935,757 935,735 956,1079 956,1057 956,1036 956,1014 956,993 956,972 956,950 956,929 956,907 956,886 956,864 956,843 956,821 956,800 956,778 956,757 956,735 978,1079 978,1057 978,1036 978,1014 978,993 978,972 978,950 978,929 978,907 978,886 978,864 978,843 978,821 978,800 978,778 978,757 978,735 999,1079 999,1057 999,1036 999,1014 999,993 999,972 999,950 999,929 999,907 999,886 999,864 999,843 999,821 999,800 999,778 999,757 999,735 1021,1079 1021,1057 1021,1036 1021,1014 1021,993 1021,972 1021,950 1021,929 1021,907 1021,886 1021,864 1021,843 1021,821 1021,800 1021,778 1021,757 1021,735 1042,1079 1042,1057 1042,1036 1042,1014 1042,993 1042,972 1042,950 1042,929 1042,907 1042,886 1042,864 1042,843 1042,821 1042,800 1042,778 1042,757 1042,735 1064,1079 1064,1057 1064,1036 1064,1014 1064,993 1064,972 1064,950 1064,929 1064,907 1064,886 1064,864 1064,843 1064,821 1064,800 1064,778 1064,757 1064,735 "/>
</svg>
