<svg width="1800" height="1800" viewBox="0 0 1800 1800" xmlns="http://www.w3.org/2000/svg">
<polyline fill="none" opacity="1" stroke="#FFCDD2" stroke-width="1" points="1795,1795 1795,1795 1795,1795 1795,1795 1726,1795 1641,1795 1559,1795 1480,1795 1404,1795 1331,1795 1260,1795 1192,1795 1127,1795 1065,1795 1005,1795 949,1795 895,1795 843,1760 795,1725 750,1688 707,1650 667,1611 630,1570 595,1529 564,1487 535,1445 509,1402 486,1358 465,1314 447,1269 433,1224 421,1179 411,1133 405,1088 401,1043 400,998 402,953 407,908 414,864 425,820 438,777 453,734 472,692 493,651 518,611 545,572 574,534 607,497 642,461 681,427 722,394 765,362 812,333 861,304 913,278 968,253 1026,231 1086,210 1150,192 1216,175 1285,161 1356,150 1431,140 1508,134 1588,130 1795,1795 1795,1795 1795,1795 1795,1795 1735,1795 1653,1795 1573,1795 1496,1795 1422,1795 1351,1795 1282,1795 1216,1795 1153,1795 1092,1795 1035,1795 979,1773 927,1743 877,1711 830,1678 786,1644 744,1609 705,1572 669,1535 635,1497 604,1458 576,1418 551,1377 528,1336 508,1295 491,1253 476,1211 464,1168 455,1126 449,1083 445,1040 444,998 446,956 450,914 457,872 467,831 479,791 494,751 512,712 533,673 556,636 582,600 611,564 642,530 676,497 713,466 752,435 795,407 840,380 887,354 937,331 990,309 1046,289 1105,271 1166,255 1230,242 1296,230 1365,221 1437,215 1512,211 1589,210 1795,1795 1795,1795 1795,1795 1795,1795 1741,1795 1662,1795 1584,1795 1510,1795 1438,1795 1369,1795 1302,1795 1238,1795 1176,1793 1117,1770 1061,1746 1007,1720 956,1693 908,1664 862,1633 819,1602 779,1569 741,1535 705,1501 673,1465 643,1428 615,1391 590,1353 568,1315 549,1276 532,1237 517,1197 506,1158 497,1118 490,1078 486,1038 485,998 486,959 490,919 497,880 506,842 518,804 532,767 550,731 569,695 592,660 616,626 644,594 674,562 707,532 742,503 781,475 821,449 864,425 910,402 959,381 1010,362 1064,345 1120,330 1179,317 1241,306 1305,297 1372,291 1441,287 1513,286 1588,287 1795,1795 1795,1795 1795,1795 1795,1795 1745,1795 1668,1795 1593,1795 1521,1795 1451,1795 1383,1784 1319,1769 1256,1752 1197,1734 1140,1714 1085,1692 1033,1668 983,1644 936,1617 892,1589 850,1560 811,1530 774,1499 739,1467 707,1434 678,1400 651,1365 627,1330 606,1294 586,1258 570,1221 556,1184 544,1147 535,1110 529,1073 525,1035 523,998 524,961 528,924 534,888 543,852 554,817 568,782 584,749 603,716 625,683 648,652 675,622 704,593 735,565 769,539 806,514 845,491 887,469 931,449 978,430 1027,414 1079,399 1133,386 1190,376 1249,367 1311,361 1376,358 1443,356 1512,358 1584,362 1795,1727 1795,1736 1795,1742 1795,1746 1746,1747 1671,1746 1599,1743 1529,1737 1461,1729 1396,1719 1333,1706 1273,1692 1215,1676 1159,1659 1106,1639 1056,1618 1008,1596 962,1572 919,1547 878,1520 840,1493 804,1464 771,1434 740,1404 711,1372 685,1340 662,1308 640,1274 622,1240 605,1206 592,1172 580,1137 571,1102 565,1067 561,1033 559,998 560,963 563,929 569,895 577,862 588,829 601,797 617,766 635,735 655,706 678,677 703,649 731,623 761,598 794,574 829,551 867,530 907,511 949,493 994,477 1041,463 1091,451 1143,441 1198,433 1255,427 1315,423 1377,422 1441,423 1508,427 1578,434 1795,1642 1795,1654 1795,1663 1795,1669 1745,1672 1673,1674 1602,1672 1534,1669 1469,1663 1406,1656 1345,1646 1287,1634 1230,1621 1177,1605 1125,1588 1076,1570 1030,1550 986,1528 944,1505 904,1481 867,1456 832,1430 800,1403 770,1375 742,1346 716,1316 693,1285 673,1255 654,1223 639,1191 625,1159 614,1127 605,1095 598,1062 594,1030 593,997 593,965 596,933 601,902 609,871 619,841 632,811 646,782 663,754 683,727 705,700 729,675 756,651 785,628 816,607 849,587 886,568 924,551 965,536 1008,522 1053,511 1101,501 1151,493 1204,488 1259,484 1316,483 1376,484 1438,488 1502,494 1569,503 1795,1560 1795,1574 1795,1585 1795,1594 1742,1600 1671,1603 1604,1605 1538,1603 1474,1600 1413,1595 1355,1587 1298,1578 1244,1567 1192,1554 1142,1539 1095,1523 1049,1505 1007,1486 966,1465 928,1444 891,1421 858,1397 826,1372 797,1346 770,1319 745,1292 723,1264 703,1235 685,1206 669,1177 656,1147 645,1117 636,1087 630,1057 625,1027 624,997 624,967 627,937 631,908 639,880 648,852 660,824 674,798 690,772 709,747 729,723 752,700 778,678 806,658 835,639 868,621 902,605 939,590 978,577 1019,566 1063,556 1109,549 1157,544 1207,540 1260,539 1315,540 1372,544 1432,550 1493,558 1557,569 1795,1481 1795,1497 1795,1511 1795,1522 1736,1530 1668,1535 1602,1539 1539,1540 1478,1539 1419,1536 1362,1530 1307,1523 1255,1514 1204,1504 1156,1491 1110,1477 1067,1462 1025,1445 986,1427 949,1407 914,1386 881,1365 850,1342 822,1318 796,1294 772,1269 750,1243 730,1217 713,1190 698,1162 685,1135 674,1107 665,1079 659,1051 654,1024 652,996 652,968 655,941 659,914 666,888 675,862 686,837 699,812 714,789 732,766 752,744 774,724 798,704 824,686 853,669 884,653 916,639 952,627 989,616 1028,607 1070,600 1114,595 1160,592 1208,591 1259,592 1311,595 1366,601 1423,609 1482,620 1544,633 1795,1405 1795,1423 1795,1439 1795,1452 1728,1462 1662,1470 1599,1475 1538,1479 1479,1480 1422,1479 1367,1476 1314,1471 1264,1464 1215,1455 1169,1445 1124,1433 1082,1420 1042,1405 1004,1389 968,1372 934,1353 902,1333 873,1313 845,1291 820,1269 796,1246 775,1222 756,1198 739,1174 724,1148 711,1123 701,1097 692,1072 686,1046 681,1020 679,995 679,969 681,944 685,919 691,895 699,872 709,849 722,826 736,805 753,784 772,765 793,746 816,729 841,713 868,698 897,685 929,673 962,662 998,654 1035,647 1075,642 1117,639 1161,638 1207,639 1255,642 1306,648 1358,656 1413,666 1469,679 1528,694 1795,1332 1795,1352 1795,1370 1783,1384 1718,1397 1655,1407 1594,1414 1535,1420 1478,1423 1423,1424 1370,1423 1319,1420 1270,1415 1223,1409 1179,1400 1136,1391 1095,1379 1056,1367 1019,1353 985,1337 952,1321 921,1303 893,1285 866,1265 841,1245 819,1224 798,1203 779,1180 763,1158 748,1135 736,1111 725,1088 717,1064 710,1041 706,1017 703,993 703,970 705,947 708,924 714,902 721,881 731,860 743,839 756,820 772,801 790,784 810,767 831,752 855,738 881,725 909,714 939,704 970,696 1004,690 1040,685 1078,682 1118,681 1160,682 1204,685 1250,690 1298,698 1348,708 1400,720 1454,735 1510,753 1795,1261 1795,1283 1795,1303 1768,1320 1705,1334 1645,1346 1586,1356 1530,1363 1475,1368 1422,1371 1371,1372 1322,1371 1275,1368 1230,1364 1187,1357 1145,1350 1106,1340 1069,1330 1033,1317 1000,1304 968,1290 938,1274 911,1258 885,1240 861,1222 839,1203 819,1183 801,1163 785,1142 771,1121 758,1100 748,1078 739,1057 733,1035 728,1013 726,992 725,970 726,949 730,929 735,909 742,889 751,870 762,852 774,834 789,818 806,802 825,788 845,774 868,762 892,752 918,742 947,734 977,728 1009,724 1043,721 1079,720 1117,721 1157,724 1199,729 1243,736 1288,746 1336,758 1385,772 1437,789 1490,809 1795,1193 1795,1217 1795,1239 1751,1257 1691,1274 1633,1288 1577,1299 1522,1308 1470,1315 1419,1320 1370,1323 1323,1324 1278,1323 1234,1320 1193,1316 1153,1310 1115,1303 1079,1294 1045,1284 1013,1272 982,1260 953,1246 927,1231 902,1216 879,1199 857,1182 838,1164 820,1146 805,1127 791,1108 779,1089 769,1069 760,1049 754,1029 749,1010 746,990 745,971 746,951 749,933 754,914 760,897 768,879 778,863 790,848 804,833 820,819 837,807 857,795 878,785 901,776 926,769 953,763 981,759 1012,756 1044,755 1078,756 1114,759 1152,764 1192,771 1233,780 1277,791 1322,805 1369,821 1418,840 1468,862 1795,1128 1795,1154 1792,1177 1733,1198 1675,1216 1620,1231 1566,1245 1513,1256 1463,1265 1414,1271 1367,1276 1322,1279 1279,1280 1237,1279 1197,1276 1159,1272 1122,1266 1088,1259 1055,1251 1024,1241 994,1231 967,1219 941,1206 917,1192 894,1178 874,1162 855,1146 838,1130 823,1113 809,1095 797,1078 787,1060 779,1042 773,1024 768,1006 765,988 764,970 764,953 767,936 771,920 777,904 784,888 794,874 805,860 818,847 832,835 849,825 867,815 887,807 908,799 932,794 957,790 984,787 1013,786 1043,787 1075,790 1109,795 1145,801 1183,810 1222,821 1263,834 1306,850 1350,868 1397,889 1445,912 1795,1066 1795,1093 1769,1118 1713,1141 1658,1160 1604,1178 1553,1193 1503,1205 1454,1216 1408,1224 1363,1231 1319,1235 1278,1238 1238,1239 1199,1238 1163,1235 1128,1232 1095,1226 1063,1220 1033,1212 1005,1203 978,1192 953,1181 930,1169 908,1156 889,1143 870,1129 854,1114 839,1099 826,1083 814,1067 804,1051 796,1035 790,1018 785,1002 782,986 780,970 781,954 783,939 786,924 791,910 798,896 807,884 817,872 829,860 843,850 858,841 875,833 894,827 914,821 936,817 959,815 985,814 1012,815 1040,818 1071,822 1103,829 1137,837 1172,847 1209,860 1248,875 1288,892 1330,912 1374,935 1419,959 1795,1006 1795,1036 1745,1062 1691,1086 1638,1107 1587,1126 1538,1143 1490,1157 1444,1170 1399,1180 1356,1188 1315,1194 1275,1198 1237,1200 1200,1201 1165,1200 1132,1198 1100,1194 1069,1189 1041,1183 1014,1176 988,1167 964,1158 942,1147 921,1136 902,1124 884,1112 868,1098 854,1085 841,1071 830,1056 820,1042 812,1027 805,1013 800,998 797,983 795,969 795,955 797,942 800,928 804,916 811,904 818,893 828,882 839,873 851,864 866,857 881,851 899,845 918,842 938,839 960,839 984,840 1009,842 1036,846 1065,852 1095,860 1126,870 1160,883 1194,897 1231,913 1269,932 1308,954 1350,978 1392,1004 1795,950 1772,980 1719,1008 1667,1034 1617,1057 1569,1077 1522,1096 1476,1111 1432,1125 1390,1137 1349,1146 1309,1154 1271,1160 1234,1164 1199,1166 1166,1167 1134,1166 1103,1164 1074,1160 1047,1156 1021,1150 996,1143 973,1135 952,1126 932,1116 913,1106 896,1095 881,1083 867,1071 854,1059 843,1046 834,1033 826,1020 819,1007 814,994 811,981 809,968 808,956 809,944 812,932 816,921 821,910 829,901 837,892 847,884 859,877 872,871 886,866 902,863 920,861 939,860 960,861 982,863 1005,867 1030,873 1057,881 1085,890 1114,902 1146,915 1178,931 1212,950 1248,970 1285,993 1324,1018 1364,1047 1794,896 1742,928 1692,957 1643,984 1595,1009 1549,1031 1504,1050 1461,1068 1419,1083 1378,1096 1339,1107 1302,1116 1265,1123 1231,1129 1197,1133 1165,1135 1135,1136 1105,1135 1078,1133 1051,1130 1026,1125 1003,1120 981,1113 960,1106 941,1098 923,1089 907,1079 892,1069 878,1058 866,1047 855,1036 846,1024 838,1013 832,1001 827,989 823,978 821,967 820,956 820,945 822,935 826,925 831,916 837,908 845,901 854,894 864,889 876,884 890,881 904,879 921,878 938,879 957,881 978,885 1000,891 1023,898 1047,907 1074,918 1101,931 1130,946 1160,964 1192,983 1225,1005 1260,1030 1296,1057 1333,1086 1759,844 1710,878 1663,909 1616,937 1571,963 1527,987 1485,1008 1444,1026 1404,1043 1366,1057 1329,1070 1293,1080 1258,1089 1225,1096 1193,1101 1163,1104 1134,1106 1106,1107 1080,1106 1055,1105 1031,1101 1008,1097 987,1092 967,1086 949,1079 932,1072 916,1064 901,1055 888,1046 877,1036 866,1026 857,1016 849,1006 843,995 837,985 834,975 831,965 830,955 830,946 832,937 835,929 839,922 844,915 851,909 859,904 869,900 879,896 892,895 905,894 920,895 936,897 954,900 972,905 992,912 1014,921 1037,931 1061,944 1086,958 1113,975 1141,993 1171,1014 1201,1038 1234,1064 1267,1092 1302,1123 1724,796 1677,831 1632,863 1588,893 1546,920 1504,945 1464,967 1426,987 1388,1005 1352,1020 1316,1034 1283,1046 1250,1056 1219,1064 1188,1070 1160,1075 1132,1079 1105,1081 1080,1081 1056,1081 1034,1079 1012,1076 992,1072 973,1068 955,1062 939,1056 924,1049 910,1041 897,1033 886,1025 875,1016 866,1008 859,999 852,990 847,981 843,972 840,963 839,955 839,947 840,939 842,932 845,926 850,921 856,916 863,912 872,909 881,907 892,907 904,907 918,909 933,913 948,918 966,924 984,932 1004,942 1025,954 1047,968 1070,983 1095,1001 1121,1021 1148,1043 1176,1068 1206,1095 1237,1125 1269,1157 1687,751 1643,787 1601,820 1559,851 1519,879 1480,905 1443,929 1406,950 1371,969 1336,986 1303,1001 1271,1014 1240,1025 1211,1034 1182,1042 1155,1048 1129,1052 1104,1056 1080,1057 1057,1058 1035,1057 1015,1056 996,1053 978,1050 961,1045 945,1040 930,1034 917,1028 905,1021 894,1014 884,1007 875,999 867,991 861,984 855,976 851,968 848,961 846,954 846,947 846,941 848,935 851,930 855,925 860,922 866,919 873,918 882,917 892,918 903,920 915,923 928,927 942,933 958,941 974,950 992,962 1011,974 1032,989 1053,1006 1075,1025 1099,1047 1124,1070 1150,1096 1177,1124 1205,1155 1235,1188 1649,708 1608,745 1568,780 1529,812 1492,841 1455,868 1420,892 1385,915 1352,935 1320,953 1289,969 1259,983 1230,995 1202,1006 1175,1015 1149,1022 1124,1027 1100,1032 1078,1035 1056,1036 1036,1037 1017,1036 998,1035 981,1033 965,1029 950,1025 936,1021 923,1016 911,1010 900,1004 891,998 882,991 874,984 868,978 863,971 858,965 855,958 853,952 852,947 852,941 853,937 855,933 858,930 862,927 867,926 874,925 881,926 890,927 899,930 910,935 922,940 935,948 949,956 964,967 980,979 997,993 1015,1009 1034,1027 1055,1047 1076,1070 1099,1094 1122,1121 1147,1151 1173,1183 1199,1217 1610,668 1571,706 1534,742 1498,775 1463,805 1429,833 1396,859 1364,882 1332,903 1302,922 1273,939 1245,954 1218,968 1191,979 1166,989 1142,997 1119,1004 1096,1009 1075,1013 1055,1016 1035,1018 1017,1018 1000,1018 983,1016 968,1014 954,1011 940,1008 928,1003 916,999 906,994 897,989 888,983 881,977 874,972 869,966 864,961 861,955 858,950 857,946 856,942 856,938 858,935 860,933 864,932 868,931 873,932 880,933 887,936 895,940 905,945 915,952 926,960 939,970 952,981 966,995 981,1010 998,1027 1015,1046 1033,1067 1052,1090 1072,1116 1093,1144 1116,1174 1139,1207 1163,1243 1569,631 1534,670 1500,706 1466,740 1433,772 1402,801 1371,827 1341,851 1312,874 1284,894 1257,912 1230,928 1205,942 1180,954 1157,965 1134,974 1112,982 1091,988 1071,993 1052,997 1034,999 1017,1001 1000,1001 985,1001 970,1000 956,998 944,995 932,992 921,988 911,984 901,980 893,975 886,970 879,966 874,961 869,956 865,952 862,948 860,944 859,941 859,939 860,937 862,935 864,935 867,935 872,937 877,939 883,943 890,948 898,954 907,962 917,971 927,982 939,994 951,1009 965,1025 979,1043 994,1063 1010,1085 1027,1109 1045,1136 1064,1164 1083,1196 1104,1230 1126,1266 1528,596 1496,636 1464,674 1433,708 1403,741 1374,771 1345,798 1317,823 1290,846 1264,867 1239,886 1215,903 1191,918 1168,931 1146,943 1125,953 1105,961 1085,968 1067,974 1049,979 1032,982 1015,984 1000,986 985,986 971,986 958,985 946,983 935,981 924,978 914,975 905,971 897,967 890,964 884,960 878,956 873,952 869,949 866,945 863,943 862,940 861,939 861,937 862,937 864,937 866,939 869,941 874,944 878,949 884,955 891,962 898,970 906,981 915,992 925,1005 936,1021 947,1037 960,1056 973,1077 987,1100 1001,1125 1017,1153 1033,1182 1050,1215 1068,1249 1087,1287 1486,565 1457,605 1427,644 1399,679 1371,712 1345,743 1318,771 1293,797 1268,821 1244,842 1221,862 1198,880 1177,895 1155,909 1135,922 1115,933 1097,942 1078,950 1061,956 1044,962 1028,966 1013,969 999,971 985,972 972,973 959,972 948,971 937,970 927,968 917,965 909,963 901,960 894,957 887,954 881,951 876,948 872,945 868,942 866,940 863,939 862,938 861,938 862,938 862,939 864,941 866,944 869,948 873,954 877,960 883,968 889,978 895,988 903,1001 911,1015 920,1031 929,1048 939,1068 950,1090 962,1113 975,1139 988,1167 1002,1198 1017,1231 1032,1267 1048,1305 1444,536 1417,577 1390,616 1364,652 1339,686 1315,717 1291,746 1268,773 1245,797 1223,820 1202,840 1181,858 1161,875 1142,890 1123,903 1105,914 1088,924 1071,933 1055,940 1039,946 1024,951 1010,955 997,957 984,959 971,960 960,961 949,960 938,960 929,958 920,956 911,954 903,952 896,950 890,947 884,945 879,943 874,941 870,939 867,938 864,937 862,937 861,937 860,938 860,940 861,943 862,946 864,951 867,957 870,964 874,973 878,983 883,995 889,1008 895,1022 902,1039 910,1057 918,1078 927,1100 937,1124 947,1151 958,1180 970,1211 982,1245 995,1281 1008,1320 1401,510 1376,552 1352,591 1329,628 1307,663 1284,694 1263,724 1242,751 1221,776 1202,799 1182,820 1163,839 1145,856 1128,871 1111,885 1094,897 1078,908 1063,917 1048,925 1033,931 1020,937 1007,941 994,945 982,947 970,949 959,950 949,950 939,950 930,949 921,948 913,946 905,945 898,943 892,941 886,939 881,938 876,936 872,935 868,935 865,934 862,935 860,936 859,937 858,940 857,943 858,947 858,953 860,959 862,967 864,977 867,987 871,999 875,1013 879,1028 885,1045 890,1064 897,1085 904,1108 911,1133 919,1160 928,1190 937,1222 947,1256 957,1293 968,1332 1357,487 1335,529 1314,569 1293,607 1273,641 1254,674 1234,704 1216,731 1197,757 1179,780 1162,802 1145,821 1129,839 1113,855 1097,869 1082,882 1068,893 1054,902 1040,911 1027,918 1015,924 1002,929 991,933 980,936 969,938 959,939 949,940 939,940 931,940 922,940 914,939 907,938 900,936 893,935 887,934 882,933 877,932 872,931 868,931 864,931 861,932 859,933 856,936 855,939 853,942 852,947 852,953 852,960 853,969 854,979 855,990 857,1002 860,1016 863,1032 866,1050 870,1069 875,1091 880,1114 885,1140 891,1168 897,1198 904,1230 911,1265 919,1302 927,1342 1313,466 1294,509 1275,550 1257,587 1239,623 1222,655 1205,686 1189,714 1173,740 1157,764 1141,786 1126,806 1112,824 1098,840 1084,855 1070,868 1057,879 1045,889 1032,898 1020,906 1009,912 998,917 987,922 977,925 967,928 957,930 948,931 939,932 931,932 923,932 915,931 908,930 901,930 895,929 888,928 883,927 877,927 872,927 868,927 864,927 860,929 857,931 854,933 851,937 849,941 847,946 845,953 844,960 844,969 843,979 843,991 844,1004 845,1018 846,1035 848,1053 850,1073 852,1094 855,1118 858,1144 862,1172 866,1203 870,1236 875,1271 880,1309 885,1349 1268,448 1252,492 1236,533 1220,571 1205,606 1190,640 1176,670 1161,699 1147,725 1134,749 1120,772 1107,792 1094,810 1082,827 1070,842 1058,855 1046,867 1035,878 1024,887 1013,895 1003,901 993,907 983,912 974,915 964,918 955,921 947,922 939,923 931,924 923,924 916,924 908,923 902,923 895,922 889,922 883,922 878,921 872,922 867,922 863,923 858,925 854,927 850,930 847,934 844,938 841,944 838,951 836,959 834,968 832,978 831,990 830,1004 829,1019 829,1035 828,1054 829,1074 829,1096 830,1120 831,1147 832,1175 834,1206 836,1239 838,1275 840,1313 843,1353 1223,434 1210,477 1196,518 1183,557 1171,593 1158,626 1146,657 1134,686 1122,712 1110,737 1099,759 1088,780 1077,798 1066,815 1055,831 1045,844 1035,856 1025,867 1015,876 1006,885 997,892 988,898 979,902 970,906 962,910 953,912 945,914 938,915 930,916 923,917 916,917 909,917 902,916 896,916 889,916 883,916 877,916 872,916 866,917 861,918 856,920 851,923 847,926 843,930 838,935 834,941 831,948 827,956 824,965 821,976 818,988 816,1002 813,1017 811,1034 809,1053 807,1073 806,1096 804,1120 803,1147 802,1175 802,1206 801,1240 801,1276 801,1314 801,1355 1178,422 1167,465 1157,507 1146,545 1136,581 1126,615 1116,646 1106,675 1096,702 1087,726 1077,749 1068,770 1059,788 1050,805 1041,821 1032,835 1023,847 1015,858 1007,867 998,876 990,883 982,889 974,894 966,898 959,902 951,904 944,906 937,908 929,909 922,909 916,910 909,910 902,910 896,910 889,910 883,910 877,910 871,911 865,912 860,913 854,915 848,918 843,921 838,925 833,930 828,936 823,944 818,952 814,962 810,972 805,985 801,999 797,1014 793,1031 789,1050 786,1071 782,1093 779,1118 775,1145 772,1174 769,1205 766,1238 764,1274 761,1313 759,1354 1132,412 1125,456 1117,497 1109,536 1101,572 1094,606 1086,637 1078,666 1071,693 1063,718 1056,740 1048,761 1041,780 1034,797 1026,813 1019,827 1012,839 1005,850 998,860 990,868 983,875 976,882 969,887 963,891 956,895 949,897 942,899 935,901 929,902 922,903 915,903 909,903 902,903 896,903 889,903 883,903 877,904 870,904 864,906 858,907 852,909 845,912 839,915 833,920 827,925 821,931 815,938 809,947 804,956 798,967 792,980 786,994 781,1009 775,1026 770,1045 764,1066 758,1089 753,1113 748,1140 742,1169 737,1201 732,1234 726,1270 721,1309 716,1350 1087,406 1082,450 1077,491 1072,530 1066,566 1061,599 1056,631 1050,660 1045,687 1040,711 1034,734 1028,755 1023,774 1017,791 1012,806 1006,820 1000,833 994,844 989,853 983,862 977,869 971,875 965,880 959,885 953,888 946,891 940,893 934,894 928,896 921,896 915,897 909,897 902,897 896,897 889,897 883,897 876,897 869,898 863,899 856,901 849,903 842,905 835,909 829,913 822,918 815,925 808,932 800,940 793,950 786,961 779,973 772,987 764,1003 757,1020 750,1039 742,1060 735,1082 727,1107 720,1134 712,1163 704,1194 697,1228 689,1264 681,1302 673,1344 1042,402 1039,446 1037,487 1034,526 1032,562 1029,595 1026,626 1023,655 1019,682 1016,707 1012,729 1009,750 1005,769 1001,786 997,801 993,815 989,828 984,838 980,848 975,856 970,864 965,870 960,875 955,879 950,882 944,885 938,887 933,888 927,889 921,890 915,890 909,890 902,890 896,890 889,890 882,890 876,891 869,891 861,892 854,894 847,896 839,898 832,902 824,906 816,911 808,917 800,924 791,933 783,942 775,953 766,965 757,979 748,995 739,1012 730,1030 721,1051 711,1074 702,1098 692,1125 682,1154 672,1185 662,1219 652,1255 641,1293 631,1335 997,401 997,445 997,486 997,524 997,560 996,594 996,625 995,653 994,680 992,704 991,727 989,747 987,766 985,783 982,798 980,812 977,824 974,835 971,844 967,852 964,859 960,865 955,870 951,874 947,877 942,880 937,882 932,883 926,884 921,884 915,884 909,884 902,884 896,884 889,883 882,883 875,883 868,884 860,885 853,886 845,888 836,890 828,894 819,898 810,902 801,908 792,915 783,924 773,933 763,944 753,956 743,969 732,985 721,1002 710,1020 699,1041 688,1063 676,1088 664,1114 652,1143 640,1174 627,1207 615,1243 602,1282 588,1323 952,403 955,447 958,487 960,525 962,561 964,594 966,625 967,653 968,680 969,704 969,726 970,746 969,765 969,781 968,796 967,810 966,822 964,832 962,841 960,849 957,856 954,862 951,866 948,870 944,873 940,875 935,877 931,878 926,878 920,879 915,878 909,878 903,878 896,877 890,877 882,876 875,876 867,876 859,877 851,878 843,879 834,882 824,885 815,888 805,893 795,899 785,905 774,913 763,922 752,933 740,945 728,958 716,973 704,990 691,1008 678,1028 664,1051 651,1075 637,1101 622,1130 608,1160 593,1194 578,1229 562,1267 546,1308 907,408 913,451 918,491 923,529 928,564 932,597 936,628 940,656 943,682 946,706 948,727 950,747 952,765 953,782 954,796 955,809 955,821 954,831 954,840 953,847 951,854 949,859 947,863 944,867 941,869 938,871 934,873 930,873 926,873 921,873 915,873 910,872 903,871 897,870 890,870 883,869 875,868 867,868 859,868 850,869 841,870 831,872 821,875 811,878 800,883 789,888 778,894 766,902 753,911 741,921 728,932 714,945 700,960 686,976 672,994 657,1014 641,1036 625,1060 609,1086 593,1114 576,1145 559,1177 541,1213 523,1250 504,1291 863,415 871,458 879,498 887,535 894,570 901,602 907,632 913,660 918,686 923,709 928,731 932,750 935,768 938,784 941,798 943,810 944,821 945,831 946,840 946,847 946,853 945,858 943,861 942,864 939,867 937,868 934,869 930,869 926,869 921,868 916,867 911,866 905,865 898,864 891,862 884,861 876,860 867,860 859,860 849,860 839,861 829,862 818,864 807,867 796,871 783,876 771,882 758,889 744,898 730,907 716,918 701,931 685,945 669,961 653,979 636,998 619,1020 601,1043 582,1069 564,1096 544,1126 525,1159 505,1193 484,1231 463,1271 819,426 830,468 841,507 851,544 861,578 870,610 879,640 887,667 894,692 901,715 908,736 913,755 919,772 923,787 927,801 931,813 934,823 936,833 938,841 940,847 940,853 941,857 940,860 939,863 938,864 936,865 933,866 930,865 926,865 922,864 917,862 912,861 906,859 900,857 893,855 885,854 877,852 868,851 859,850 849,850 839,850 828,851 816,853 804,855 791,859 778,863 765,869 750,875 735,883 720,892 704,903 687,915 670,929 653,944 635,961 616,980 596,1001 577,1024 556,1049 535,1076 514,1106 491,1137 469,1172 446,1209 422,1248 776,439 790,480 803,519 816,555 828,589 840,620 851,649 861,676 871,700 880,722 888,743 896,761 903,778 909,792 915,805 920,817 924,827 928,836 931,843 934,849 936,854 937,857 938,860 938,862 937,863 936,863 934,863 931,862 928,861 924,859 919,857 914,855 908,853 902,850 895,848 887,846 878,844 869,842 860,840 849,840 838,839 827,840 814,841 801,843 788,845 774,849 759,854 743,860 727,867 710,876 693,886 675,897 656,910 637,925 617,942 596,960 575,980 553,1003 530,1027 507,1054 483,1083 459,1114 434,1148 408,1184 381,1223 733,454 750,495 766,533 781,569 796,602 810,633 823,661 836,687 848,710 859,732 869,752 878,769 887,785 895,799 903,812 909,822 915,832 921,840 925,846 929,852 932,856 934,859 936,861 936,862 937,862 936,862 935,861 932,860 930,858 926,855 922,852 917,849 911,846 904,843 897,840 889,837 881,835 871,832 861,830 850,829 839,828 826,827 813,828 799,829 785,831 770,834 754,838 737,844 720,850 701,858 683,867 663,878 643,891 621,905 600,920 577,938 554,958 530,979 505,1003 480,1029 453,1057 427,1088 399,1121 371,1156 341,1195 691,473 711,513 730,551 748,585 765,618 781,647 797,675 811,700 825,723 838,744 851,763 862,779 873,795 883,808 892,819 900,830 907,838 914,845 920,851 924,856 929,859 932,861 934,863 936,863 937,863 937,861 936,860 935,857 932,855 929,851 925,848 920,844 914,840 908,836 901,833 893,829 884,825 874,822 863,819 852,817 840,815 827,814 813,814 798,814 783,816 766,818 749,821 731,826 713,832 693,839 673,847 652,857 630,869 607,882 583,897 559,914 534,933 508,954 481,977 453,1002 424,1029 395,1059 365,1092 334,1126 302,1164 650,494 672,534 694,570 715,604 734,636 753,664 771,691 788,715 804,737 819,757 833,775 847,791 859,806 871,818 881,829 891,838 900,846 908,852 915,857 921,861 926,863 931,865 934,865 936,865 938,863 939,861 939,859 938,856 936,852 933,848 929,844 924,839 919,834 912,830 905,825 897,820 887,816 877,812 866,808 854,805 842,802 828,800 813,799 798,799 781,799 764,801 746,803 727,807 707,812 686,818 664,826 641,835 618,846 593,858 568,872 541,888 514,906 486,926 457,949 427,973 396,999 365,1028 332,1060 298,1094 264,1130 610,519 635,557 659,593 682,626 705,656 726,684 746,710 765,733 783,754 800,773 817,790 832,805 846,819 859,830 872,840 883,848 893,855 903,860 911,864 918,867 925,868 930,869 934,868 938,867 940,865 942,862 942,858 941,854 940,850 937,845 934,839 929,834 924,828 917,823 910,817 901,811 892,806 882,801 870,797 858,792 844,789 830,786 815,784 798,782 781,782 763,782 743,784 723,787 702,791 679,796 656,803 632,811 607,821 580,832 553,846 525,861 496,878 466,897 434,918 402,941 369,967 335,995 300,1025 264,1058 227,1094 571,546 599,583 625,617 651,649 676,679 699,706 722,730 743,753 764,773 783,791 801,807 818,821 834,833 849,844 863,852 876,860 888,865 899,870 908,873 917,874 924,875 931,874 936,873 940,870 943,867 945,863 946,859 946,853 945,848 943,842 940,835 935,829 930,822 924,816 916,809 907,802 898,796 887,790 875,784 862,779 848,775 833,771 817,767 800,765 781,764 762,763 742,764 720,765 698,768 674,773 649,778 623,785 596,794 568,805 539,817 509,831 478,847 446,865 413,885 378,908 343,932 306,959 269,988 230,1020 190,1055 533,575 563,612 593,645 621,676 648,704 674,730 699,753 723,775 745,794 766,811 787,826 806,838 824,850 840,859 856,867 870,873 883,877 895,880 906,882 916,883 925,882 932,881 938,878 943,875 947,870 950,865 952,859 952,853 952,846 950,839 947,832 943,824 937,816 931,809 923,801 914,793 904,786 893,779 881,772 868,766 853,760 837,755 820,750 802,747 783,744 763,743 741,742 718,743 694,744 669,748 643,752 616,758 587,766 558,775 527,786 495,799 462,814 427,831 392,850 355,871 318,895 279,921 239,949 197,980 155,1013 496,608 529,643 561,675 592,705 622,732 650,757 677,779 703,799 728,817 751,832 773,846 794,858 814,868 832,876 850,882 865,887 880,891 894,893 906,893 917,893 926,891 935,888 942,884 948,879 953,874 956,868 958,861 959,853 959,845 958,837 955,828 951,819 946,810 939,801 932,792 923,784 912,775 901,767 888,759 874,751 859,744 843,738 825,732 806,728 786,724 764,721 742,719 718,719 693,719 666,721 639,725 610,730 579,736 548,744 515,754 482,766 446,780 410,795 372,813 334,833 294,855 252,880 210,907 166,937 121,969 460,643 496,677 531,708 564,736 597,762 627,786 657,807 685,825 712,842 737,856 761,869 784,879 806,888 826,895 844,900 862,903 878,905 893,906 906,905 919,904 929,900 939,896 947,891 954,885 959,878 963,871 966,863 968,854 968,845 967,835 964,825 961,815 955,805 949,794 941,784 932,774 921,764 910,754 897,745 882,736 866,728 849,721 831,714 811,708 790,703 767,699 743,695 718,694 692,693 664,694 635,696 605,699 573,704 540,711 505,720 469,730 432,743 394,757 354,774 313,792 271,813 227,837 182,863 135,891 88,922 426,682 465,714 502,743 538,770 573,795 606,817 638,836 668,854 697,869 724,882 751,893 775,902 798,909 820,915 841,919 860,921 877,922 894,921 908,919 922,916 934,911 944,906 953,899 961,892 967,884 972,875 976,865 978,855 978,844 977,833 975,822 971,810 966,799 960,787 952,776 943,764 932,753 920,742 906,731 891,721 875,711 857,702 838,694 817,687 795,680 772,675 747,670 720,667 693,665 663,664 633,665 601,667 567,671 533,677 496,684 459,693 420,704 379,717 337,732 294,750 249,769 203,791 155,816 106,843 56,872 393,723 434,753 474,782 513,807 550,830 586,850 620,869 652,885 684,898 713,910 741,919 768,927 793,933 816,937 838,939 859,940 878,939 896,937 912,934 926,929 939,923 951,916 961,908 969,899 977,890 982,879 986,868 989,856 990,844 989,832 987,819 984,806 979,793 972,780 964,767 955,754 944,741 931,729 917,717 902,705 885,694 866,684 846,674 825,665 802,657 777,650 751,644 724,639 695,636 664,634 632,633 599,634 564,636 527,640 489,646 449,654 408,663 366,675 322,689 276,704 229,723 181,743 131,766 79,792 26,820 361,766 406,796 448,822 490,846 529,868 567,887 604,903 638,917 672,930 703,940 733,948 762,954 789,958 814,960 838,961 860,961 880,958 899,955 917,949 932,943 947,936 959,927 970,918 980,907 987,896 994,884 998,872 1001,858 1003,845 1003,831 1001,817 998,802 993,787 986,773 978,758 968,744 957,729 944,715 930,702 914,688 896,676 877,664 856,653 834,642 810,633 784,624 757,617 729,611 698,606 666,602 633,600 598,599 561,600 523,602 483,606 442,612 399,620 354,630 308,643 260,657 211,674 160,693 107,714 53,738 5,764 332,813 379,841 424,865 468,888 510,908 550,925 589,940 626,953 661,963 695,971 727,978 758,982 786,985 813,986 839,985 862,983 884,979 904,973 923,967 940,959 955,950 969,940 981,928 991,916 1000,904 1007,890 1012,876 1015,861 1017,846 1018,830 1016,814 1013,798 1008,782 1002,765 994,749 984,733 972,717 959,701 944,686 928,671 909,657 890,644 868,631 845,619 820,608 793,597 765,588 735,580 703,574 670,568 635,565 599,562 560,561 520,562 479,565 435,569 390,576 344,584 295,595 245,607 194,622 140,640 85,659 29,682 5,707 303,862 353,888 401,911 448,932 492,950 535,966 576,979 615,990 653,999 689,1005 723,1010 755,1013 785,1014 814,1013 841,1010 866,1006 890,1001 911,993 931,985 949,975 966,965 980,953 993,940 1004,926 1014,912 1021,896 1027,880 1031,864 1034,847 1034,830 1033,812 1030,794 1025,776 1019,758 1011,740 1001,722 989,705 975,687 960,670 943,654 924,638 904,622 881,608 857,594 831,581 804,569 774,559 743,549 710,541 676,534 639,528 601,524 561,521 519,520 476,521 431,524 384,529 335,535 285,544 232,555 178,569 123,584 65,602 6,623 5,646 277,914 330,938 380,960 429,979 476,995 521,1009 565,1020 606,1029 646,1036 684,1041 720,1044 754,1045 786,1044 817,1041 845,1037 872,1031 897,1024 920,1015 941,1005 961,993 978,981 994,967 1008,952 1020,937 1030,921 1038,903 1044,886 1049,867 1052,849 1053,829 1052,810 1049,790 1044,771 1038,751 1029,731 1019,711 1007,692 993,673 978,654 960,636 941,618 919,601 896,584 871,569 845,554 816,540 785,528 753,516 719,506 683,497 645,490 605,484 564,480 520,477 475,476 428,477 379,480 328,485 276,492 221,501 165,512 107,526 47,543 5,561 5,583 252,969 308,991 361,1011 413,1028 462,1042 510,1054 555,1064 599,1071 641,1076 681,1079 719,1080 755,1079 789,1076 821,1072 851,1066 880,1058 906,1048 930,1038 953,1026 973,1012 992,998 1009,982 1024,966 1036,948 1047,930 1056,911 1063,891 1068,871 1072,851 1073,830 1072,808 1070,787 1065,765 1059,743 1050,722 1040,700 1027,679 1013,658 997,637 979,617 959,597 937,578 913,560 887,542 860,526 830,510 798,496 765,483 729,470 692,460 653,450 611,443 568,436 523,432 476,429 427,428 376,429 323,432 269,437 212,444 153,454 93,466 30,480 5,497 5,517 230,1027 288,1047 344,1065 398,1080 450,1092 500,1102 548,1110 594,1115 638,1118 680,1119 720,1118 758,1115 794,1110 828,1104 859,1096 889,1086 917,1075 943,1062 967,1048 988,1033 1008,1016 1026,999 1042,980 1055,961 1067,940 1077,919 1084,898 1090,876 1093,853 1095,830 1095,807 1092,783 1088,759 1081,736 1073,712 1062,689 1050,665 1035,642 1019,620 1000,597 979,576 957,555 932,535 905,515 877,497 846,479 813,463 779,447 742,433 703,421 662,409 619,400 575,391 528,385 479,380 428,377 375,376 320,377 263,380 204,386 143,393 80,403 15,416 5,430 5,448 209,1087 270,1106 329,1121 385,1134 440,1144 492,1152 543,1158 591,1161 637,1162 681,1161 723,1158 763,1153 800,1146 836,1138 869,1127 901,1115 930,1102 957,1087 982,1071 1005,1054 1026,1035 1045,1016 1062,995 1076,974 1089,951 1099,928 1107,905 1113,881 1117,856 1119,831 1119,805 1117,780 1112,754 1106,728 1097,703 1087,677 1074,652 1059,626 1042,602 1023,578 1002,554 978,531 953,509 925,487 896,467 864,447 830,428 794,411 756,395 716,380 674,367 629,355 583,345 534,336 484,329 431,324 376,321 319,320 260,321 199,325 136,330 70,338 5,348 5,361 5,377 191,1151 254,1167 316,1180 375,1191 432,1199 487,1205 539,1208 590,1209 638,1208 684,1205 728,1200 770,1193 809,1184 846,1173 882,1161 914,1147 945,1131 974,1114 1000,1096 1024,1076 1046,1056 1066,1034 1084,1011 1099,988 1112,963 1123,938 1132,912 1139,886 1143,859 1146,832 1146,804 1144,776 1139,749 1133,721 1124,693 1113,665 1100,638 1085,610 1068,583 1048,557 1026,531 1002,506 976,482 948,458 917,435 884,414 849,393 812,373 773,355 731,338 688,323 642,309 594,296 543,286 491,277 436,269 379,264 320,261 259,260 196,261 130,265 62,270 5,278 5,289 5,303 174,1217 241,1231 305,1242 366,1250 426,1256 483,1260 538,1261 591,1260 641,1256 689,1251 735,1244 779,1234 820,1223 859,1210 896,1195 930,1179 963,1161 992,1142 1020,1122 1046,1100 1069,1077 1089,1053 1108,1028 1124,1002 1138,976 1150,948 1159,920 1167,892 1171,863 1174,833 1174,803 1173,773 1168,743 1162,713 1153,683 1142,653 1129,623 1113,594 1095,565 1075,536 1053,508 1028,481 1001,454 972,428 940,403 907,379 870,356 832,335 791,314 749,295 703,277 656,261 606,246 554,233 500,222 443,213 385,205 324,200 260,197 194,195 127,197 56,200 5,206 5,215 5,226 160,1286 229,1297 296,1306 360,1312 422,1316 482,1317 539,1316 594,1312 647,1307 697,1299 745,1289 790,1278 833,1264 874,1249 912,1232 949,1213 982,1193 1013,1172 1042,1149 1069,1125 1093,1100 1115,1073 1135,1046 1152,1018 1166,989 1179,959 1189,929 1197,898 1202,867 1205,835 1205,803 1204,770 1200,738 1193,705 1184,673 1173,641 1159,609 1144,577 1125,545 1105,515 1082,484 1056,454 1028,425 998,397 966,370 931,344 894,319 854,295 812,272 768,250 722,230 673,212 621,195 568,179 511,166 453,154 392,144 329,137 264,131 196,128 125,126 53,128 5,131 5,137 5,146 149,1357 220,1366 290,1373 357,1377 421,1378 483,1377 543,1373 600,1367 655,1359 707,1349 757,1337 804,1323 849,1307 891,1289 931,1270 969,1249 1004,1226 1037,1202 1067,1177 1095,1151 1120,1123 1143,1094 1163,1065 1181,1034 1197,1003 1210,971 1221,938 1229,905 1235,871 1238,837 1239,802 1237,767 1233,733 1227,698 1218,663 1206,628 1193,594 1176,560 1158,526 1136,492 1113,460 1087,428 1058,396 1027,366 994,336 958,307 920,280 879,253 836,228 790,204 742,182 692,161 639,141 583,124 525,108 465,94 402,81 337,71 269,63 199,57 127,54 52,53 5,54 5,58 5,64 139,1432 214,1438 286,1442 355,1444 422,1442 487,1439 549,1433 608,1424 665,1414 719,1401 771,1386 820,1370 867,1351 911,1331 953,1309 992,1286 1029,1261 1063,1235 1094,1207 1123,1178 1150,1148 1173,1117 1195,1084 1214,1051 1230,1018 1244,983 1255,948 1264,912 1270,876 1274,839 1275,802 1273,765 1269,727 1263,690 1254,653 1242,616 1228,579 1212,542 1192,506 1171,470 1147,435 1120,400 1091,366 1059,333 1024,301 987,270 948,240 906,211 862,183 815,156 765,132 713,108 658,86 601,66 542,48 479,31 415,16 347,5 277,5 205,5 130,5 53,5 5,5 5,5 5,5 133,1509 210,1513 285,1514 357,1513 426,1509 493,1503 557,1494 619,1483 678,1470 734,1455 788,1438 839,1419 888,1398 934,1375 977,1351 1017,1325 1056,1297 1091,1268 1124,1238 1154,1206 1182,1174 1206,1140 1229,1105 1248,1069 1266,1033 1280,996 1292,958 1301,920 1308,881 1312,841 1313,802 1312,762 1308,722 1302,682 1292,642 1281,603 1266,563 1249,524 1230,485 1208,447 1183,409 1155,372 1125,335 1093,299 1057,265 1019,231 979,198 936,167 890,136 842,107 791,80 737,54 681,30 622,7 560,5 496,5 429,5 360,5 288,5 214,5 136,5 57,5 5,5 5,5 5,5 129,1589 209,1590 286,1589 361,1585 433,1579 502,1570 568,1558 632,1545 693,1529 752,1511 808,1491 861,1469 911,1446 958,1420 1003,1393 1046,1365 1085,1334 1122,1303 1156,1270 1187,1236 1216,1200 1242,1164 1265,1127 1286,1088 1304,1049 1319,1009 1331,969 1341,928 1348,886 1352,844 1354,802 1353,760 1349,717 1343,674 1334,632 1322,589 1307,547 1290,505 1270,464 1247,423 1222,382 1194,342 1163,303 1129,265 1093,228 1054,191 1012,156 968,122 921,89 871,57 819,27 763,5 706,5 645,5 582,5 516,5 447,5 376,5 302,5 225,5 145,5 63,5 5,5 5,5 5,5 "/>
</svg>
