<svg width="1800" height="1800" viewBox="0 0 1800 1800" xmlns="http://www.w3.org/2000/svg">
<polyline fill="none" opacity="1" stroke="#FFCDD2" stroke-width="1" points="452,1347 452,1329 452,1311 452,1294 452,1276 452,1258 452,1240 452,1222 452,1204 452,1186 452,1168 452,1150 452,1133 452,1115 452,1097 452,1079 452,1061 452,1043 452,1025 452,1007 452,989 452,972 452,954 452,936 452,918 452,900 452,882 452,864 452,846 452,828 452,811 452,793 452,775 452,757 452,739 452,721 452,703 452,685 452,667 452,650 452,632 452,614 452,596 452,578 452,560 452,542 452,524 452,506 452,489 452,471 470,1347 470,1329 470,1311 470,1294 470,1276 470,1258 470,1240 470,1222 470,1204 470,1186 470,1168 470,1150 470,1133 470,1115 470,1097 470,1079 470,1061 470,1043 470,1025 470,1007 470,989 470,972 470,954 470,936 470,918 470,900 470,882 470,864 470,846 470,828 470,811 470,793 470,775 470,757 470,739 470,721 470,703 470,685 470,667 470,650 470,632 470,614 470,596 470,578 470,560 470,542 470,524 470,506 470,489 470,471 488,1347 488,1329 488,1311 488,1294 488,1276 488,1258 488,1240 488,1222 488,1204 488,1186 488,1168 488,1150 488,1133 488,1115 488,1097 488,1079 488,1061 488,1043 488,1025 488,1007 488,989 488,972 488,954 488,936 488,918 488,900 488,882 488,864 488,846 488,828 488,811 488,793 488,775 488,757 488,739 488,721 488,703 488,685 488,667 488,650 488,632 488,614 488,596 488,578 488,560 488,542 488,524 488,506 488,489 488,471 505,1347 505,1329 505,1311 505,1294 505,1276 505,1258 505,1240 505,1222 505,1204 505,1186 505,1168 505,1150 505,1133 505,1115 505,1097 505,1079 505,1061 505,1043 505,1025 505,1007 505,989 505,972 505,954 505,936 505,918 505,900 505,882 505,864 505,846 505,828 505,811 505,793 505,775 505,757 505,739 505,721 505,703 505,685 505,667 505,650 505,632 505,614 505,596 505,578 505,560 505,542 505,524 505,506 505,489 505,471 523,1347 523,1329 523,1311 523,1294 523,1276 523,1258 523,1240 523,1222 523,1204 523,1186 523,1168 523,1150 523,1133 523,1115 523,1097 523,1079 523,1061 523,1043 523,1025 523,1007 523,989 523,972 523,954 523,936 523,918 523,900 523,882 523,864 523,846 523,828 523,811 523,793 523,775 523,757 523,739 523,721 523,703 523,685 523,667 523,650 523,632 523,614 523,596 523,578 523,560 523,542 523,524 523,506 523,489 523,471 541,1347 541,1329 541,1311 541,1294 541,1276 541,1258 541,1240 541,1222 541,1204 541,1186 541,1168 541,1150 541,1133 541,1115 541,1097 541,1079 541,1061 541,1043 541,1025 541,1007 541,989 541,972 541,954 541,936 541,918 541,900 541,882 541,864 541,846 541,828 541,811 541,793 541,775 541,757 541,739 541,721 541,703 541,685 541,667 541,650 541,632 541,614 541,596 541,578 541,560 541,542 541,524 541,506 541,489 541,471 559,1347 559,1329 559,1311 559,1294 559,1276 559,1258 559,1240 559,1222 559,1204 559,1186 559,1168 559,1150 559,1133 559,1115 559,1097 559,1079 559,1061 559,1043 559,1025 559,1007 559,989 559,972 559,954 559,936 559,918 559,900 559,882 559,864 559,846 559,828 559,811 559,793 559,775 559,757 559,739 559,721 559,703 559,685 559,667 559,650 559,632 559,614 559,596 559,578 559,560 559,542 559,524 559,506 559,489 559,471 577,1347 577,1329 577,1311 577,1294 577,1276 577,1258 577,1240 577,1222 577,1204 577,1186 577,1168 577,1150 577,1133 577,1115 577,1097 577,1079 577,1061 577,1043 577,1025 577,1007 577,989 577,972 577,954 577,936 577,918 577,900 577,882 577,864 577,846 577,828 577,811 577,793 577,775 577,757 577,739 577,721 577,703 577,685 577,667 577,650 577,632 577,614 577,596 577,578 577,560 577,542 577,524 577,506 577,489 577,471 595,1347 595,1329 595,1311 595,1294 595,1276 595,1258 595,1240 595,1222 595,1204 595,1186 595,1168 595,1150 595,1133 595,1115 595,1097 595,1079 595,1061 595,1043 595,1025 595,1007 595,989 595,972 595,954 595,936 595,918 595,900 595,882 595,864 595,846 595,828 595,811 595,793 595,775 595,757 595,739 595,721 595,703 595,685 595,667 595,650 595,632 595,614 595,596 595,578 595,560 595,542 595,524 595,506 595,489 595,471 613,1347 613,1329 613,1311 613,1294 613,1276 613,1258 613,1240 613,1222 613,1204 613,1186 613,1168 613,1150 613,1133 613,1115 613,1097 613,1079 613,1061 613,1043 613,1025 613,1007 613,989 613,972 613,954 613,936 613,918 613,900 613,882 613,864 613,846 613,828 613,811 613,793 613,775 613,757 613,739 613,721 613,703 613,685 613,667 613,650 613,632 613,614 613,596 613,578 613,560 613,542 613,524 613,506 613,489 613,471 631,1347 631,1329 631,1311 631,1294 631,1276 631,1258 631,1240 631,1222 631,1204 631,1186 631,1168 631,1150 631,1133 631,1115 631,1097 631,1079 631,1061 631,1043 631,1025 631,1007 631,989 631,972 631,954 631,936 631,918 631,900 631,882 631,864 631,846 631,828 631,811 631,793 631,775 631,757 631,739 631,721 631,703 631,685 631,667 631,650 631,632 631,614 631,596 631,578 631,560 631,542 631,524 631,506 631,489 631,471 649,1347 649,1329 649,1311 649,1294 649,1276 649,1258 649,1240 649,1222 649,1204 649,1186 649,1168 649,1150 649,1133 649,1115 649,1097 649,1079 649,1061 649,1043 649,1025 649,1007 649,989 649,972 649,954 649,936 649,918 649,900 649,882 649,864 649,846 649,828 649,811 649,793 649,775 649,757 649,739 649,721 649,703 649,685 649,667 649,650 649,632 649,614 649,596 649,578 649,560 649,542 649,524 649,506 649,489 649,471 666,1347 666,1329 666,1311 666,1294 666,1276 666,1258 666,1240 666,1222 666,1204 666,1186 666,1168 666,1150 666,1133 666,1115 666,1097 666,1079 666,1061 666,1043 666,1025 666,1007 666,989 666,972 666,954 666,936 666,918 666,900 666,882 666,864 666,846 666,828 666,811 666,793 666,775 666,757 666,739 666,721 666,703 666,685 666,667 666,650 666,632 666,614 666,596 666,578 666,560 666,542 666,524 666,506 666,489 666,471 684,1347 684,1329 684,1311 684,1294 684,1276 684,1258 684,1240 684,1222 684,1204 684,1186 684,1168 684,1150 684,1133 684,1115 684,1097 684,1079 684,1061 684,1043 684,1025 684,1007 684,989 684,972 684,954 684,936 684,918 684,900 684,882 684,864 684,846 684,828 684,811 684,793 684,775 684,757 684,739 684,721 684,703 684,685 684,667 684,650 684,632 684,614 684,596 684,578 684,560 684,542 684,524 684,506 684,489 684,471 702,1347 702,1329 702,1311 702,1294 702,1276 702,1258 702,1240 702,1222 702,1204 702,1186 702,1168 702,1150 702,1133 702,1115 702,1097 702,1079 702,1061 702,1043 702,1025 702,1007 702,989 702,972 702,954 702,936 702,918 702,900 702,882 702,864 702,846 702,828 702,811 702,793 702,775 702,757 702,739 702,721 702,703 702,685 702,667 702,650 702,632 702,614 702,596 702,578 702,560 702,542 702,524 702,506 702,489 702,471 720,1347 720,1329 720,1311 720,1294 720,1276 720,1258 720,1240 720,1222 720,1204 720,1186 720,1168 720,1150 720,1133 720,1115 720,1097 720,1079 720,1061 720,1043 720,1025 720,1007 720,989 720,972 720,954 720,936 720,918 720,900 720,882 720,864 720,846 720,828 720,811 720,793 720,775 720,757 720,739 720,721 720,703 720,685 720,667 720,650 720,632 720,614 720,596 720,578 720,560 720,542 720,524 720,506 720,489 720,471 738,1347 738,1329 738,1311 738,1294 738,1276 738,1258 738,1240 738,1222 738,1204 738,1186 738,1168 738,1150 738,1133 738,1115 738,1097 738,1079 738,1061 738,1043 738,1025 738,1007 738,989 738,972 738,954 738,936 738,918 738,900 738,882 738,864 738,846 738,828 738,811 738,793 738,775 738,757 738,739 738,721 738,703 738,685 738,667 738,650 738,632 738,614 738,596 738,578 738,560 738,542 738,524 738,506 738,489 738,471 756,1347 756,1329 756,1311 756,1294 756,1276 756,1258 756,1240 756,1222 756,1204 756,1186 756,1168 756,1150 756,1133 756,1115 756,1097 756,1079 756,1061 756,1043 756,1025 756,1007 756,989 756,972 756,954 756,936 756,918 756,900 756,882 756,864 756,846 756,828 756,811 756,793 756,775 756,757 756,739 756,721 756,703 756,685 756,667 756,650 756,632 756,614 756,596 756,578 756,560 756,542 756,524 756,506 756,489 756,471 774,1347 774,1329 774,1311 774,1294 774,1276 774,1258 774,1240 774,1222 774,1204 774,1186 774,1168 774,1150 774,1133 774,1115 774,1097 774,1079 774,1061 774,1043 774,1025 774,1007 774,989 774,972 774,954 774,936 774,918 774,900 774,882 774,864 774,846 774,828 774,811 774,793 774,775 774,757 774,739 774,721 774,703 774,685 774,667 774,650 774,632 774,614 774,596 774,578 774,560 774,542 774,524 774,506 774,489 774,471 792,1347 792,1329 792,1311 792,1294 792,1276 792,1258 792,1240 792,1222 792,1204 792,1186 792,1168 792,1150 792,1133 792,1115 792,1097 792,1079 792,1061 792,1043 792,1025 792,1007 792,989 792,972 792,954 792,936 792,918 792,900 792,882 792,864 792,846 792,828 792,811 792,793 792,775 792,757 792,739 792,721 792,703 792,685 792,667 792,650 792,632 792,614 792,596 792,578 792,560 792,542 792,524 792,506 792,489 792,471 810,1347 810,1329 810,1311 810,1294 810,1276 810,1258 810,1240 810,1222 810,1204 810,1186 810,1168 810,1150 810,1133 810,1115 810,1097 810,1079 810,1061 810,1043 810,1025 810,1007 810,989 810,972 810,954 810,936 810,918 810,900 810,882 810,864 810,846 810,828 810,811 810,793 810,775 810,757 810,739 810,721 810,703 810,685 810,667 810,650 810,632 810,614 810,596 810,578 810,560 810,542 810,524 810,506 810,489 810,471 827,1347 827,1329 827,1311 827,1294 827,1276 827,1258 827,1240 827,1222 827,1204 827,1186 827,1168 827,1150 827,1133 827,1115 827,1097 827,1079 827,1061 827,1043 827,1025 827,1007 827,989 827,972 827,954 827,936 827,918 827,900 827,882 827,864 827,846 827,828 827,811 827,793 827,775 827,757 827,739 827,721 827,703 827,685 827,667 827,650 827,632 827,614 827,596 827,578 827,560 827,542 827,524 827,506 827,489 827,471 845,1347 845,1329 845,1311 845,1294 845,1276 845,1258 845,1240 845,1222 845,1204 845,1186 845,1168 845,1150 845,1133 845,1115 845,1097 845,1079 845,1061 845,1043 845,1025 845,1007 845,989 845,972 845,954 845,936 845,918 845,900 845,882 845,864 845,846 845,828 845,811 845,793 845,775 845,757 845,739 845,721 845,703 845,685 845,667 845,650 845,632 845,614 845,596 845,578 845,560 845,542 845,524 845,506 845,489 845,471 863,1347 863,1329 863,1311 863,1294 863,1276 863,1258 863,1240 863,1222 863,1204 863,1186 863,1168 863,1150 863,1133 863,1115 863,1097 863,1079 863,1061 863,1043 863,1025 863,1007 863,989 863,972 863,954 863,936 863,918 863,900 863,882 863,864 863,846 863,828 863,811 863,793 863,775 863,757 863,739 863,721 863,703 863,685 863,667 863,650 863,632 863,614 863,596 863,578 863,560 863,542 863,524 863,506 863,489 863,471 881,1347 881,1329 881,1311 881,1294 881,1276 881,1258 881,1240 881,1222 881,1204 881,1186 881,1168 881,1150 881,1133 881,1115 881,1097 881,1079 881,1061 881,1043 881,1025 881,1007 881,989 881,972 881,954 881,936 881,918 881,900 881,882 881,864 881,846 881,828 881,811 881,793 881,775 881,757 881,739 881,721 881,703 881,685 881,667 881,650 881,632 881,614 881,596 881,578 881,560 881,542 881,524 881,506 881,489 881,471 899,1347 899,1329 899,1311 899,1294 899,1276 899,1258 899,1240 899,1222 899,1204 899,1186 899,1168 899,1150 899,1133 899,1115 899,1097 899,1079 899,1061 899,1043 899,1025 899,1007 899,989 899,972 899,954 899,936 899,918 899,900 899,882 899,864 899,846 899,828 899,811 899,793 899,775 899,757 899,739 899,721 899,703 899,685 899,667 899,650 899,632 899,614 899,596 899,578 899,560 899,542 899,524 899,506 899,489 899,471 917,1347 917,1329 917,1311 917,1294 917,1276 917,1258 917,1240 917,1222 917,1204 917,1186 917,1168 917,1150 917,1133 917,1115 917,1097 917,1079 917,1061 917,1043 917,1025 917,1007 917,989 917,972 917,954 917,936 917,918 917,900 917,882 917,864 917,846 917,828 917,811 917,793 917,775 917,757 917,739 917,721 917,703 917,685 917,667 917,650 917,632 917,614 917,596 917,578 917,560 917,542 917,524 917,506 917,489 917,471 935,1347 935,1329 935,1311 935,1294 935,1276 935,1258 935,1240 935,1222 935,1204 935,1186 935,1168 935,1150 935,1133 935,1115 935,1097 935,1079 935,1061 935,1043 935,1025 935,1007 935,989 935,972 935,954 935,936 935,918 935,900 935,882 935,864 935,846 935,828 935,811 935,793 935,775 935,757 935,739 935,721 935,703 935,685 935,667 935,650 935,632 935,614 935,596 935,578 935,560 935,542 935,524 935,506 935,489 935,471 953,1347 953,1329 953,1311 953,1294 953,1276 953,1258 953,1240 953,1222 953,1204 953,1186 953,1168 953,1150 953,1133 953,1115 953,1097 953,1079 953,1061 953,1043 953,1025 953,1007 953,989 953,972 953,954 953,936 953,918 953,900 953,882 953,864 953,846 953,828 953,811 953,793 953,775 953,757 953,739 953,721 953,703 953,685 953,667 953,650 953,632 953,614 953,596 953,578 953,560 953,542 953,524 953,506 953,489 953,471 971,1347 971,1329 971,1311 971,1294 971,1276 971,1258 971,1240 971,1222 971,1204 971,1186 971,1168 971,1150 971,1133 971,1115 971,1097 971,1079 971,1061 971,1043 971,1025 971,1007 971,989 971,972 971,954 971,936 971,918 971,900 971,882 971,864 971,846 971,828 971,811 971,793 971,775 971,757 971,739 971,721 971,703 971,685 971,667 971,650 971,632 971,614 971,596 971,578 971,560 971,542 971,524 971,506 971,489 971,471 988,1347 988,1329 988,1311 988,1294 988,1276 988,1258 988,1240 988,1222 988,1204 988,1186 988,1168 988,1150 988,1133 988,1115 988,1097 988,1079 988,1061 988,1043 988,1025 988,1007 988,989 988,972 988,954 988,936 988,918 988,900 988,882 988,864 988,846 988,828 988,811 988,793 988,775 988,757 988,739 988,721 988,703 988,685 988,667 988,650 988,632 988,614 988,596 988,578 988,560 988,542 988,524 988,506 988,489 988,471 1006,1347 1006,1329 1006,1311 1006,1294 1006,1276 1006,1258 1006,1240 1006,1222 1006,1204 1006,1186 1006,1168 1006,1150 1006,1133 1006,1115 1006,1097 1006,1079 1006,1061 1006,1043 1006,1025 1006,1007 1006,989 1006,972 1006,954 1006,936 1006,918 1006,900 1006,882 1006,864 1006,846 1006,828 1006,811 1006,793 1006,775 1006,757 1006,739 1006,721 1006,703 1006,685 1006,667 1006,650 1006,632 1006,614 1006,596 1006,578 1006,560 1006,542 1006,524 1006,506 1006,489 1006,471 1024,1347 1024,1329 1024,1311 1024,1294 1024,1276 1024,1258 1024,1240 1024,1222 1024,1204 1024,1186 1024,1168 1024,1150 1024,1133 1024,1115 1024,1097 1024,1079 1024,1061 1024,1043 1024,1025 1024,1007 1024,989 1024,972 1024,954 1024,936 1024,918 1024,900 1024,882 1024,864 1024,846 1024,828 1024,811 1024,793 1024,775 1024,757 1024,739 1024,721 1024,703 1024,685 1024,667 1024,650 1024,632 1024,614 1024,596 1024,578 1024,560 1024,542 1024,524 1024,506 1024,489 1024,471 1042,1347 1042,1329 1042,1311 1042,1294 1042,1276 1042,1258 1042,1240 1042,1222 1042,1204 1042,1186 1042,1168 1042,1150 1042,1133 1042,1115 1042,1097 1042,1079 1042,1061 1042,1043 1042,1025 1042,1007 1042,989 1042,972 1042,954 1042,936 1042,918 1042,900 1042,882 1042,864 1042,846 1042,828 1042,811 1042,793 1042,775 1042,757 1042,739 1042,721 1042,703 1042,685 1042,667 1042,650 1042,632 1042,614 1042,596 1042,578 1042,560 1042,542 1042,524 1042,506 1042,489 1042,471 1060,1347 1060,1329 1060,1311 1060,1294 1060,1276 1060,1258 1060,1240 1060,1222 1060,1204 1060,1186 1060,1168 1060,1150 1060,1133 1060,1115 1060,1097 1060,1079 1060,1061 1060,1043 1060,1025 1060,1007 1060,989 1060,972 1060,954 1060,936 1060,918 1060,900 1060,882 1060,864 1060,846 1060,828 1060,811 1060,793 1060,775 1060,757 1060,739 1060,721 1060,703 1060,685 1060,667 1060,650 1060,632 1060,614 1060,596 1060,578 1060,560 1060,542 1060,524 1060,506 1060,489 1060,471 1078,1347 1078,1329 1078,1311 1078,1294 1078,1276 1078,1258 1078,1240 1078,1222 1078,1204 1078,1186 1078,1168 1078,1150 1078,1133 1078,1115 1078,1097 1078,1079 1078,1061 1078,1043 1078,1025 1078,1007 1078,989 1078,972 1078,954 1078,936 1078,918 1078,900 1078,882 1078,864 1078,846 1078,828 1078,811 1078,793 1078,775 1078,757 1078,739 1078,721 1078,703 1078,685 1078,667 1078,650 1078,632 1078,614 1078,596 1078,578 1078,560 1078,542 1078,524 1078,506 1078,489 1078,471 1096,1347 1096,1329 1096,1311 1096,1294 1096,1276 1096,1258 1096,1240 1096,1222 1096,1204 1096,1186 1096,1168 1096,1150 1096,1133 1096,1115 1096,1097 1096,1079 1096,1061 1096,1043 1096,1025 1096,1007 1096,989 1096,972 1096,954 1096,936 1096,918 1096,900 1096,882 1096,864 1096,846 1096,828 1096,811 1096,793 1096,775 1096,757 1096,739 1096,721 1096,703 1096,685 1096,667 1096,650 1096,632 1096,614 1096,596 1096,578 1096,560 1096,542 1096,524 1096,506 1096,489 1096,471 1114,1347 1114,1329 1114,1311 1114,1294 1114,1276 1114,1258 1114,1240 1114,1222 1114,1204 1114,1186 1114,1168 1114,1150 1114,1133 1114,1115 1114,1097 1114,1079 1114,1061 1114,1043 1114,1025 1114,1007 1114,989 1114,972 1114,954 1114,936 1114,918 1114,900 1114,882 1114,864 1114,846 1114,828 1114,811 1114,793 1114,775 1114,757 1114,739 1114,721 1114,703 1114,685 1114,667 1114,650 1114,632 1114,614 1114,596 1114,578 1114,560 1114,542 1114,524 1114,506 1114,489 1114,471 1132,1347 1132,1329 1132,1311 1132,1294 1132,1276 1132,1258 1132,1240 1132,1222 1132,1204 1132,1186 1132,1168 1132,1150 1132,1133 1132,1115 1132,1097 1132,1079 1132,1061 1132,1043 1132,1025 1132,1007 1132,989 1132,972 1132,954 1132,936 1132,918 1132,900 1132,882 1132,864 1132,846 1132,828 1132,811 1132,793 1132,775 1132,757 1132,739 1132,721 1132,703 1132,685 1132,667 1132,650 1132,632 1132,614 1132,596 1132,578 1132,560 1132,542 1132,524 1132,506 1132,489 1132,471 1149,1347 1149,1329 1149,1311 1149,1294 1149,1276 1149,1258 1149,1240 1149,1222 1149,1204 1149,1186 1149,1168 1149,1150 1149,1133 1149,1115 1149,1097 1149,1079 1149,1061 1149,1043 1149,1025 1149,1007 1149,989 1149,972 1149,954 1149,936 1149,918 1149,900 1149,882 1149,864 1149,846 1149,828 1149,811 1149,793 1149,775 1149,757 1149,739 1149,721 1149,703 1149,685 1149,667 1149,650 1149,632 1149,614 1149,596 1149,578 1149,560 1149,542 1149,524 1149,506 1149,489 1149,471 1167,1347 1167,1329 1167,1311 1167,1294 1167,1276 1167,1258 1167,1240 1167,1222 1167,1204 1167,1186 1167,1168 1167,1150 1167,1133 1167,1115 1167,1097 1167,1079 1167,1061 1167,1043 1167,1025 1167,1007 1167,989 1167,972 1167,954 1167,936 1167,918 1167,900 1167,882 1167,864 1167,846 1167,828 1167,811 1167,793 1167,775 1167,757 1167,739 1167,721 1167,703 1167,685 1167,667 1167,650 1167,632 1167,614 1167,596 1167,578 1167,560 1167,542 1167,524 1167,506 1167,489 1167,471 1185,1347 1185,1329 1185,1311 1185,1294 1185,1276 1185,1258 1185,1240 1185,1222 1185,1204 1185,1186 1185,1168 1185,1150 1185,1133 1185,1115 1185,1097 1185,1079 1185,1061 1185,1043 1185,1025 1185,1007 1185,989 1185,972 1185,954 1185,936 1185,918 1185,900 1185,882 1185,864 1185,846 1185,828 1185,811 1185,793 1185,775 1185,757 1185,739 1185,721 1185,703 1185,685 1185,667 1185,650 1185,632 1185,614 1185,596 1185,578 1185,560 1185,542 1185,524 1185,506 1185,489 1185,471 1203,1347 1203,1329 1203,1311 1203,1294 1203,1276 1203,1258 1203,1240 1203,1222 1203,1204 1203,1186 1203,1168 1203,1150 1203,1133 1203,1115 1203,1097 1203,1079 1203,1061 1203,1043 1203,1025 1203,1007 1203,989 1203,972 1203,954 1203,936 1203,918 1203,900 1203,882 1203,864 1203,846 1203,828 1203,811 1203,793 1203,775 1203,757 1203,739 1203,721 1203,703 1203,685 1203,667 1203,650 1203,632 1203,614 1203,596 1203,578 1203,560 1203,542 1203,524 1203,506 1203,489 1203,471 1221,1347 1221,1329 1221,1311 1221,1294 1221,1276 1221,1258 1221,1240 1221,1222 1221,1204 1221,1186 1221,1168 1221,1150 1221,1133 1221,1115 1221,1097 1221,1079 1221,1061 1221,1043 1221,1025 1221,1007 1221,989 1221,972 1221,954 1221,936 1221,918 1221,900 1221,882 1221,864 1221,846 1221,828 1221,811 1221,793 1221,775 1221,757 1221,739 1221,721 1221,703 1221,685 1221,667 1221,650 1221,632 1221,614 1221,596 1221,578 1221,560 1221,542 1221,524 1221,506 1221,489 1221,471 1239,1347 1239,1329 1239,1311 1239,1294 1239,1276 1239,1258 1239,1240 1239,1222 1239,1204 1239,1186 1239,1168 1239,1150 1239,1133 1239,1115 1239,1097 1239,1079 1239,1061 1239,1043 1239,1025 1239,1007 1239,989 1239,972 1239,954 1239,936 1239,918 1239,900 1239,882 1239,864 1239,846 1239,828 1239,811 1239,793 1239,775 1239,757 1239,739 1239,721 1239,703 1239,685 1239,667 1239,650 1239,632 1239,614 1239,596 1239,578 1239,560 1239,542 1239,524 1239,506 1239,489 1239,471 1257,1347 1257,1329 1257,1311 1257,1294 1257,1276 1257,1258 1257,1240 1257,1222 1257,1204 1257,1186 1257,1168 1257,1150 1257,1133 1257,1115 1257,1097 1257,1079 1257,1061 1257,1043 1257,1025 1257,1007 1257,989 1257,972 1257,954 1257,936 1257,918 1257,900 1257,882 1257,864 1257,846 1257,828 1257,811 1257,793 1257,775 1257,757 1257,739 1257,721 1257,703 1257,685 1257,667 1257,650 1257,632 1257,614 1257,596 1257,578 1257,560 1257,542 1257,524 1257,506 1257,489 1257,471 1275,1347 1275,1329 1275,1311 1275,1294 1275,1276 1275,1258 1275,1240 1275,1222 1275,1204 1275,1186 1275,1168 1275,1150 1275,1133 1275,1115 1275,1097 1275,1079 1275,1061 1275,1043 1275,1025 1275,1007 1275,989 1275,972 1275,954 1275,936 1275,918 1275,900 1275,882 1275,864 1275,846 1275,828 1275,811 1275,793 1275,775 1275,757 1275,739 1275,721 1275,703 1275,685 1275,667 1275,650 1275,632 1275,614 1275,596 1275,578 1275,560 1275,542 1275,524 1275,506 1275,489 1275,471 1293,1347 1293,1329 1293,1311 1293,1294 1293,1276 1293,1258 1293,1240 1293,1222 1293,1204 1293,1186 1293,1168 1293,1150 1293,1133 1293,1115 1293,1097 1293,1079 1293,1061 1293,1043 1293,1025 1293,1007 1293,989 1293,972 1293,954 1293,936 1293,918 1293,900 1293,882 1293,864 1293,846 1293,828 1293,811 1293,793 1293,775 1293,757 1293,739 1293,721 1293,703 1293,685 1293,667 1293,650 1293,632 1293,614 1293,596 1293,578 1293,560 1293,542 1293,524 1293,506 1293,489 1293,471 1310,1347 1310,1329 1310,1311 1310,1294 1310,1276 1310,1258 1310,1240 1310,1222 1310,1204 1310,1186 1310,1168 1310,1150 1310,1133 1310,1115 1310,1097 1310,1079 1310,1061 1310,1043 1310,1025 1310,1007 1310,989 1310,972 1310,954 1310,936 1310,918 1310,900 1310,882 1310,864 1310,846 1310,828 1310,811 1310,793 1310,775 1310,757 1310,739 1310,721 1310,703 1310,685 1310,667 1310,650 1310,632 1310,614 1310,596 1310,578 1310,560 1310,542 1310,524 1310,506 1310,489 1310,471 1328,1347 1328,1329 1328,1311 1328,1294 1328,1276 1328,1258 1328,1240 1328,1222 1328,1204 1328,1186 1328,1168 1328,1150 1328,1133 1328,1115 1328,1097 1328,1079 1328,1061 1328,1043 1328,1025 1328,1007 1328,989 1328,972 1328,954 1328,936 1328,918 1328,900 1328,882 1328,864 1328,846 1328,828 1328,811 1328,793 1328,775 1328,757 1328,739 1328,721 1328,703 1328,685 1328,667 1328,650 1328,632 1328,614 1328,596 1328,578 1328,560 1328,542 1328,524 1328,506 1328,489 1328,471 "/>
</svg>
