<svg width="1800" height="1800" viewBox="0 0 1800 1800" xmlns="http://www.w3.org/2000/svg">
<polyline fill="none" opacity="1" stroke="#FFFFFF" stroke-width="1" points="505,321 534,331 563,340 592,350 620,359 648,369 675,378 701,388 727,397 753,407 778,416 803,426 827,435 851,445 874,454 896,464 919,473 940,483 961,492 982,502 1002,511 1022,521 1041,530 1060,540 1079,549 1096,559 1114,568 1131,578 1147,587 1163,597 1178,606 1193,616 1207,625 1221,634 1235,644 1248,653 1260,663 1272,672 1283,682 496,351 525,360 554,369 583,378 611,387 638,396 665,405 692,414 718,423 744,432 769,441 793,450 818,459 841,468 864,477 887,486 909,495 931,504 952,513 973,522 993,531 1013,540 1032,549 1051,558 1069,567 1087,576 1104,585 1121,594 1138,603 1153,612 1169,621 1184,630 1198,639 1212,648 1225,657 1238,666 1251,675 1263,684 1274,693 487,381 516,389 545,398 574,406 602,415 630,423 657,432 683,440 709,449 735,457 760,466 785,474 809,483 832,492 856,500 878,509 901,517 922,526 943,534 964,543 984,551 1004,560 1023,568 1042,577 1061,585 1078,594 1096,602 1112,611 1129,619 1145,628 1160,636 1175,645 1189,653 1203,662 1217,670 1230,679 1242,687 1254,696 1265,704 479,411 508,419 537,427 566,435 594,443 621,451 648,459 675,467 701,475 727,483 752,491 776,499 801,507 824,515 847,523 870,531 892,539 914,547 935,555 956,563 976,571 996,579 1015,587 1034,595 1052,603 1070,611 1087,619 1104,627 1121,635 1136,643 1152,651 1167,659 1181,667 1195,675 1208,683 1221,692 1234,700 1246,708 1257,716 471,440 500,448 529,455 558,463 586,470 613,478 641,486 667,493 693,501 719,508 744,516 769,523 793,531 816,538 840,546 862,553 884,561 906,568 927,576 948,584 968,591 988,599 1007,606 1026,614 1044,621 1062,629 1080,636 1096,644 1113,651 1129,659 1144,666 1159,674 1173,682 1187,689 1201,697 1213,704 1226,712 1238,719 1249,727 463,470 493,477 522,484 551,491 579,498 606,505 633,512 660,519 686,527 712,534 737,541 761,548 785,555 809,562 832,569 855,576 877,583 899,590 920,597 941,604 961,611 981,618 1000,625 1019,632 1037,639 1055,646 1072,653 1089,660 1105,668 1121,675 1137,682 1152,689 1166,696 1180,703 1193,710 1206,717 1219,724 1231,731 1242,738 457,500 486,506 515,513 544,520 572,526 599,533 626,539 653,546 679,552 705,559 730,565 755,572 779,579 802,585 826,592 848,598 870,605 892,611 913,618 934,625 954,631 974,638 993,644 1012,651 1030,657 1048,664 1066,670 1082,677 1099,684 1115,690 1130,697 1145,703 1159,710 1173,716 1186,723 1199,730 1212,736 1224,743 1235,749 450,530 480,536 509,542 537,548 566,554 593,560 620,566 647,572 673,578 698,584 724,590 748,596 772,603 796,609 819,615 842,621 864,627 886,633 907,639 928,645 948,651 968,657 987,663 1006,669 1024,675 1042,681 1059,688 1076,694 1092,700 1108,706 1124,712 1138,718 1153,724 1167,730 1180,736 1193,742 1206,748 1217,754 1229,760 445,559 474,565 503,571 532,576 560,582 587,587 614,593 641,598 667,604 693,610 718,615 742,621 767,626 790,632 813,638 836,643 858,649 880,654 901,660 922,666 942,671 962,677 981,682 1000,688 1018,693 1036,699 1053,705 1070,710 1087,716 1102,721 1118,727 1133,733 1147,738 1161,744 1174,749 1187,755 1200,760 1212,766 1223,772 439,589 469,594 498,599 526,604 554,610 582,615 609,620 636,625 662,630 687,635 712,640 737,645 761,650 785,655 808,661 831,666 853,671 875,676 896,681 917,686 937,691 957,696 976,701 995,706 1013,712 1031,717 1048,722 1065,727 1081,732 1097,737 1112,742 1127,747 1142,752 1156,757 1169,762 1182,768 1194,773 1206,778 1218,783 434,619 464,624 493,628 521,633 549,637 577,642 604,647 631,651 657,656 682,660 708,665 732,670 756,674 780,679 803,683 826,688 848,693 870,697 891,702 912,707 932,711 952,716 971,720 990,725 1008,730 1026,734 1043,739 1060,743 1076,748 1092,753 1108,757 1122,762 1137,766 1151,771 1164,776 1177,780 1189,785 1201,789 1213,794 430,649 459,653 489,657 517,661 545,665 573,669 600,673 626,678 652,682 678,686 703,690 728,694 752,698 776,702 799,706 821,711 844,715 865,719 887,723 907,727 928,731 947,735 967,739 985,743 1004,748 1021,752 1039,756 1056,760 1072,764 1088,768 1103,772 1118,776 1132,781 1146,785 1160,789 1173,793 1185,797 1197,801 1209,805 426,678 456,682 485,686 513,689 541,693 569,697 596,700 622,704 649,708 674,711 699,715 724,718 748,722 772,726 795,729 818,733 840,737 862,740 883,744 903,747 924,751 943,755 963,758 982,762 1000,766 1018,769 1035,773 1052,777 1068,780 1084,784 1099,787 1114,791 1129,795 1142,798 1156,802 1169,806 1181,809 1193,813 1205,817 423,708 452,711 481,714 510,718 538,721 565,724 592,727 619,730 645,733 671,737 696,740 721,743 745,746 768,749 792,752 814,755 836,759 858,762 879,765 900,768 920,771 940,774 959,777 978,781 996,784 1014,787 1032,790 1048,793 1065,796 1081,799 1096,803 1111,806 1125,809 1139,812 1152,815 1165,818 1178,821 1190,825 1201,828 420,738 449,741 478,743 507,746 535,749 563,751 590,754 616,757 642,759 668,762 693,765 718,767 742,770 765,773 789,775 811,778 834,780 855,783 876,786 897,788 917,791 937,794 956,796 975,799 994,802 1011,804 1029,807 1045,810 1062,812 1078,815 1093,818 1108,820 1122,823 1136,826 1150,828 1163,831 1175,834 1187,836 1198,839 417,768 447,770 476,772 504,774 533,776 560,779 587,781 614,783 640,785 665,787 691,789 715,792 739,794 763,796 786,798 809,800 831,802 853,805 874,807 895,809 915,811 935,813 954,815 973,818 991,820 1009,822 1026,824 1043,826 1059,828 1075,831 1091,833 1105,835 1120,837 1134,839 1147,841 1160,844 1173,846 1184,848 1196,850 415,797 445,799 474,801 503,803 531,804 558,806 585,808 612,809 638,811 664,813 689,814 713,816 737,818 761,819 784,821 807,823 829,824 851,826 872,828 893,829 913,831 933,833 952,834 971,836 989,838 1007,840 1024,841 1041,843 1057,845 1073,846 1089,848 1104,850 1118,851 1132,853 1145,855 1158,856 1171,858 1183,860 1194,861 414,827 444,828 473,830 501,831 529,832 557,833 584,834 610,836 637,837 662,838 687,839 712,840 736,842 760,843 783,844 806,845 828,846 849,848 871,849 891,850 912,851 931,852 951,853 969,855 988,856 1006,857 1023,858 1040,859 1056,861 1072,862 1087,863 1102,864 1117,865 1130,867 1144,868 1157,869 1169,870 1181,871 1193,873 413,857 443,858 472,858 500,859 528,860 556,861 583,861 609,862 636,863 661,863 686,864 711,865 735,865 759,866 782,867 805,868 827,868 849,869 870,870 890,870 911,871 930,872 950,873 968,873 987,874 1005,875 1022,875 1039,876 1055,877 1071,877 1086,878 1101,879 1116,880 1129,880 1143,881 1156,882 1168,882 1180,883 1192,884 413,887 442,887 471,887 500,887 528,888 555,888 582,888 609,888 635,889 661,889 686,889 710,889 735,889 758,890 781,890 804,890 826,890 848,890 869,891 890,891 910,891 930,891 949,892 968,892 986,892 1004,892 1021,892 1038,893 1055,893 1070,893 1086,893 1101,893 1115,894 1129,894 1142,894 1155,894 1168,895 1180,895 1191,895 413,917 442,916 471,916 500,916 528,915 555,915 582,915 609,915 635,914 661,914 686,914 710,914 735,913 758,913 781,913 804,912 826,912 848,912 869,912 890,911 910,911 930,911 949,911 968,910 986,910 1004,910 1021,909 1038,909 1055,909 1070,909 1086,908 1101,908 1115,908 1129,908 1142,907 1155,907 1168,907 1180,907 1191,906 413,946 443,946 472,945 500,944 528,943 556,942 583,942 610,941 636,940 661,939 686,939 711,938 735,937 759,936 782,936 805,935 827,934 849,933 870,933 891,932 911,931 931,930 950,930 969,929 987,928 1005,927 1022,927 1039,926 1055,925 1071,924 1086,924 1101,923 1116,922 1130,921 1143,920 1156,920 1168,919 1180,918 1192,917 414,976 444,975 473,974 501,972 529,971 557,970 584,969 611,967 637,966 662,965 687,964 712,962 736,961 760,960 783,959 806,957 828,956 850,955 871,954 892,952 912,951 932,950 951,949 970,947 988,946 1006,945 1023,944 1040,942 1056,941 1072,940 1087,939 1102,937 1117,936 1131,935 1144,934 1157,932 1169,931 1181,930 1193,929 416,1006 445,1004 474,1002 503,1001 531,999 558,997 585,995 612,994 638,992 664,990 689,988 714,987 738,985 761,983 784,982 807,980 829,978 851,976 872,975 893,973 913,971 933,969 952,968 971,966 989,964 1007,962 1024,961 1041,959 1058,957 1074,955 1089,954 1104,952 1118,950 1132,949 1145,947 1158,945 1171,943 1183,942 1194,940 418,1036 447,1033 476,1031 505,1029 533,1027 560,1024 587,1022 614,1020 640,1018 666,1016 691,1013 715,1011 740,1009 763,1007 786,1004 809,1002 831,1000 853,998 874,996 895,993 915,991 935,989 954,987 973,984 991,982 1009,980 1026,978 1043,976 1060,973 1075,971 1091,969 1106,967 1120,964 1134,962 1147,960 1160,958 1173,956 1185,953 1196,951 420,1065 450,1063 479,1060 507,1057 535,1054 563,1052 590,1049 616,1046 643,1044 668,1041 693,1038 718,1036 742,1033 766,1030 789,1027 812,1025 834,1022 856,1019 877,1017 897,1014 918,1011 937,1008 957,1006 976,1003 994,1000 1012,998 1029,995 1046,992 1062,989 1078,987 1093,984 1108,981 1123,979 1136,976 1150,973 1163,970 1175,968 1187,965 1199,962 423,1095 453,1092 482,1089 510,1086 538,1082 566,1079 593,1076 619,1073 646,1070 671,1066 696,1063 721,1060 745,1057 769,1054 792,1050 815,1047 837,1044 858,1041 880,1038 900,1034 921,1031 940,1028 960,1025 978,1022 997,1018 1015,1015 1032,1012 1049,1009 1065,1006 1081,1002 1096,999 1111,996 1126,993 1139,990 1153,986 1166,983 1178,980 1190,977 1202,974 426,1125 456,1121 485,1117 514,1114 542,1110 569,1106 596,1103 623,1099 649,1095 675,1092 700,1088 724,1084 749,1081 772,1077 795,1073 818,1070 840,1066 862,1062 883,1058 904,1055 924,1051 944,1047 963,1044 982,1040 1000,1036 1018,1033 1035,1029 1052,1025 1068,1022 1084,1018 1100,1014 1115,1011 1129,1007 1143,1003 1156,999 1169,996 1182,992 1194,988 1205,985 430,1155 460,1150 489,1146 518,1142 546,1138 573,1134 600,1130 627,1125 653,1121 679,1117 704,1113 728,1109 752,1105 776,1100 799,1096 822,1092 844,1088 866,1084 887,1079 908,1075 928,1071 948,1067 967,1063 986,1059 1004,1054 1022,1050 1039,1046 1056,1042 1072,1038 1088,1034 1104,1029 1119,1025 1133,1021 1147,1017 1160,1013 1173,1008 1186,1004 1198,1000 1209,996 435,1184 464,1180 493,1175 522,1170 550,1166 578,1161 605,1156 631,1152 657,1147 683,1142 708,1138 733,1133 757,1128 781,1124 804,1119 826,1114 849,1110 870,1105 891,1100 912,1096 932,1091 952,1086 971,1082 990,1077 1009,1072 1026,1068 1044,1063 1061,1058 1077,1054 1093,1049 1108,1044 1123,1040 1137,1035 1151,1030 1165,1026 1178,1021 1190,1016 1202,1012 1213,1007 440,1214 469,1209 498,1204 527,1199 555,1194 582,1188 610,1183 636,1178 662,1173 688,1168 713,1163 738,1157 762,1152 785,1147 809,1142 831,1137 853,1132 875,1127 896,1121 917,1116 937,1111 957,1106 976,1101 995,1096 1013,1090 1031,1085 1049,1080 1065,1075 1082,1070 1098,1065 1113,1060 1128,1054 1142,1049 1156,1044 1170,1039 1182,1034 1195,1029 1207,1024 1218,1018 445,1244 475,1238 504,1233 532,1227 560,1221 588,1216 615,1210 642,1204 668,1199 693,1193 718,1188 743,1182 767,1176 791,1171 814,1165 837,1159 859,1154 881,1148 902,1142 923,1137 943,1131 963,1125 982,1120 1001,1114 1019,1109 1037,1103 1054,1097 1071,1092 1087,1086 1103,1080 1118,1075 1133,1069 1148,1063 1162,1058 1175,1052 1188,1047 1200,1041 1212,1035 1224,1030 451,1274 481,1268 510,1261 538,1255 566,1249 594,1243 621,1237 647,1231 674,1225 699,1219 724,1212 749,1206 773,1200 797,1194 820,1188 843,1182 865,1176 886,1169 908,1163 928,1157 949,1151 968,1145 988,1139 1006,1133 1025,1127 1043,1120 1060,1114 1077,1108 1093,1102 1109,1096 1124,1090 1139,1084 1154,1078 1167,1071 1181,1065 1194,1059 1206,1053 1218,1047 1230,1041 457,1303 487,1297 516,1290 545,1284 573,1277 600,1270 627,1264 654,1257 680,1251 706,1244 731,1237 755,1231 779,1224 803,1217 826,1211 849,1204 871,1198 893,1191 914,1184 935,1178 955,1171 975,1164 994,1158 1013,1151 1031,1145 1049,1138 1066,1131 1083,1125 1099,1118 1115,1112 1131,1105 1146,1098 1160,1092 1174,1085 1187,1078 1200,1072 1213,1065 1224,1059 1236,1052 464,1333 494,1326 523,1319 551,1312 579,1305 607,1298 634,1291 661,1283 687,1276 712,1269 737,1262 762,1255 786,1248 810,1241 833,1234 856,1227 878,1220 900,1212 921,1205 942,1198 962,1191 982,1184 1001,1177 1020,1170 1038,1163 1056,1156 1073,1148 1090,1141 1106,1134 1122,1127 1137,1120 1152,1113 1167,1106 1181,1099 1194,1092 1207,1085 1219,1077 1231,1070 1243,1063 472,1363 501,1355 530,1348 559,1340 587,1333 614,1325 641,1317 668,1310 694,1302 720,1295 745,1287 769,1279 794,1272 817,1264 840,1257 863,1249 885,1241 907,1234 928,1226 949,1219 969,1211 989,1204 1008,1196 1027,1188 1045,1181 1063,1173 1080,1166 1097,1158 1114,1150 1129,1143 1145,1135 1160,1128 1174,1120 1188,1112 1201,1105 1214,1097 1227,1090 1239,1082 1250,1074 479,1393 509,1385 538,1377 567,1368 595,1360 622,1352 649,1344 676,1336 702,1328 728,1320 753,1312 777,1304 801,1296 825,1288 848,1280 871,1272 893,1263 915,1255 936,1247 957,1239 977,1231 997,1223 1016,1215 1035,1207 1053,1199 1071,1191 1088,1183 1105,1175 1121,1166 1137,1158 1153,1150 1168,1142 1182,1134 1196,1126 1209,1118 1222,1110 1235,1102 1247,1094 1258,1086 488,1422 517,1414 546,1405 575,1397 603,1388 630,1380 658,1371 684,1363 710,1354 736,1345 761,1337 786,1328 810,1320 833,1311 857,1303 879,1294 902,1285 923,1277 944,1268 965,1260 985,1251 1005,1243 1024,1234 1043,1225 1061,1217 1079,1208 1097,1200 1113,1191 1130,1183 1146,1174 1161,1165 1176,1157 1190,1148 1204,1140 1218,1131 1230,1123 1243,1114 1255,1105 1266,1097 497,1452 526,1443 555,1434 584,1425 612,1416 639,1407 666,1398 693,1389 719,1380 745,1371 770,1362 794,1353 819,1344 842,1335 865,1325 888,1316 910,1307 932,1298 953,1289 974,1280 994,1271 1014,1262 1033,1253 1052,1244 1070,1235 1088,1226 1105,1217 1122,1208 1139,1199 1154,1190 1170,1181 1185,1171 1199,1162 1213,1153 1226,1144 1239,1135 1252,1126 1264,1117 1275,1108 "/>
</svg>
