<svg width="1800" height="1800" viewBox="0 0 1800 1800" xmlns="http://www.w3.org/2000/svg">
<polyline fill="none" opacity="1" stroke="#FF0000" stroke-width="1" points="1012,429 1028,449 1043,468 1057,488 1070,507 1083,526 1095,546 1106,565 1117,585 1127,604 1137,624 1146,643 1154,663 1162,682 1169,702 1175,721 1181,741 1186,760 1190,780 1194,799 1197,819 1199,838 1201,858 1202,877 1202,897 1202,916 1201,936 1200,955 1197,975 1195,994 1191,1013 1187,1033 1182,1052 1177,1072 1171,1091 1164,1111 1157,1130 1149,1150 1140,1169 1131,1189 1121,1208 1110,1228 1099,1247 1087,1267 1075,1286 1061,1306 1048,1325 1033,1345 1018,1364 1002,1384 986,1403 969,1423 951,1442 932,1462 913,1481 894,1500 873,1520 852,1539 831,1559 808,1578 993,445 1009,464 1023,482 1037,501 1051,520 1064,539 1076,558 1087,577 1098,595 1108,614 1118,633 1127,652 1135,671 1143,690 1149,708 1156,727 1161,746 1166,765 1171,784 1174,803 1177,821 1180,840 1182,859 1183,878 1183,897 1183,916 1182,934 1180,953 1178,972 1176,991 1172,1010 1168,1029 1163,1047 1158,1066 1152,1085 1145,1104 1138,1123 1130,1142 1121,1160 1112,1179 1102,1198 1091,1217 1080,1236 1068,1254 1055,1273 1042,1292 1028,1311 1014,1330 999,1349 983,1367 967,1386 949,1405 932,1424 913,1443 894,1462 875,1480 854,1499 833,1518 812,1537 789,1556 975,460 990,479 1005,497 1019,515 1032,533 1045,551 1057,570 1069,588 1080,606 1090,624 1099,642 1108,660 1116,679 1124,697 1131,715 1137,733 1143,751 1148,770 1152,788 1156,806 1159,824 1161,842 1163,860 1164,879 1165,897 1164,915 1163,933 1162,951 1160,970 1157,988 1154,1006 1149,1024 1145,1042 1139,1060 1133,1079 1127,1097 1119,1115 1111,1133 1103,1151 1093,1170 1083,1188 1073,1206 1061,1224 1050,1242 1037,1260 1024,1279 1010,1297 995,1315 980,1333 964,1351 948,1370 931,1388 913,1406 895,1424 876,1442 856,1460 836,1479 815,1497 793,1515 771,1533 957,476 972,494 987,511 1001,529 1015,546 1027,564 1039,581 1051,599 1062,616 1072,634 1081,651 1090,669 1099,687 1106,704 1113,722 1119,739 1125,757 1130,774 1134,792 1138,809 1141,827 1143,844 1145,862 1146,879 1147,897 1146,914 1146,932 1144,950 1142,967 1139,985 1136,1002 1132,1020 1127,1037 1121,1055 1115,1072 1109,1090 1101,1107 1093,1125 1085,1142 1075,1160 1065,1177 1055,1195 1044,1213 1032,1230 1019,1248 1006,1265 992,1283 978,1300 962,1318 947,1335 930,1353 913,1370 895,1388 877,1405 858,1423 838,1440 818,1458 797,1475 775,1493 753,1511 940,492 955,509 970,526 984,543 997,559 1010,576 1022,593 1034,610 1045,627 1055,644 1064,661 1073,678 1081,694 1089,711 1096,728 1102,745 1108,762 1113,779 1117,796 1121,813 1124,830 1126,846 1128,863 1129,880 1129,897 1129,914 1128,931 1127,948 1125,965 1122,981 1118,998 1114,1015 1110,1032 1104,1049 1098,1066 1091,1083 1084,1100 1076,1117 1067,1133 1058,1150 1048,1167 1038,1184 1026,1201 1014,1218 1002,1235 989,1252 975,1268 960,1285 945,1302 929,1319 913,1336 896,1353 878,1370 860,1387 841,1404 821,1420 801,1437 780,1454 758,1471 736,1488 923,508 939,524 953,540 967,556 981,572 994,589 1006,605 1017,621 1028,637 1038,654 1048,670 1057,686 1065,702 1072,719 1079,735 1086,751 1091,767 1096,784 1101,800 1104,816 1107,832 1110,848 1111,865 1112,881 1113,897 1113,913 1112,930 1110,946 1108,962 1105,978 1102,995 1098,1011 1093,1027 1088,1043 1082,1059 1075,1076 1068,1092 1060,1108 1051,1124 1042,1141 1032,1157 1021,1173 1010,1189 998,1206 985,1222 972,1238 958,1254 944,1271 929,1287 913,1303 896,1319 879,1335 862,1352 843,1368 824,1384 804,1400 784,1417 763,1433 741,1449 719,1465 907,523 923,539 937,554 951,570 965,586 978,601 990,617 1001,632 1012,648 1022,664 1032,679 1041,695 1049,710 1056,726 1063,741 1070,757 1075,773 1080,788 1085,804 1088,819 1091,835 1094,851 1095,866 1097,882 1097,897 1097,913 1096,928 1094,944 1092,960 1089,975 1086,991 1082,1006 1077,1022 1072,1038 1066,1053 1059,1069 1052,1084 1044,1100 1035,1115 1026,1131 1016,1147 1005,1162 994,1178 982,1193 969,1209 956,1225 942,1240 928,1256 913,1271 897,1287 880,1302 863,1318 846,1334 827,1349 808,1365 789,1380 768,1396 747,1412 726,1427 703,1443 892,539 907,554 922,569 936,584 950,599 962,614 975,629 986,643 997,658 1007,673 1017,688 1025,703 1034,718 1041,733 1048,748 1054,763 1060,778 1065,793 1069,808 1073,823 1076,838 1078,853 1080,868 1081,882 1082,897 1082,912 1081,927 1079,942 1077,957 1074,972 1071,987 1067,1002 1062,1017 1056,1032 1050,1047 1044,1062 1036,1077 1028,1092 1020,1106 1010,1121 1000,1136 990,1151 979,1166 967,1181 954,1196 941,1211 927,1226 913,1241 897,1256 882,1271 865,1286 848,1301 830,1316 812,1330 793,1345 773,1360 753,1375 732,1390 710,1405 688,1420 877,555 893,569 908,583 922,598 935,612 948,626 960,640 971,655 982,669 992,683 1002,698 1011,712 1019,726 1027,740 1034,755 1040,769 1045,783 1050,797 1055,812 1058,826 1061,840 1064,855 1066,869 1067,883 1067,897 1067,912 1066,926 1065,940 1062,955 1060,969 1056,983 1052,997 1047,1012 1042,1026 1036,1040 1029,1055 1022,1069 1014,1083 1005,1097 996,1112 986,1126 975,1140 964,1155 952,1169 940,1183 926,1197 913,1212 898,1226 883,1240 867,1255 851,1269 834,1283 816,1297 797,1312 778,1326 759,1340 738,1355 717,1369 696,1383 673,1397 863,570 879,584 894,598 908,611 921,625 934,639 946,652 957,666 968,679 978,693 988,707 997,720 1005,734 1013,748 1020,761 1026,775 1031,789 1036,802 1041,816 1045,829 1048,843 1050,857 1052,870 1053,884 1053,898 1053,911 1052,925 1051,939 1048,952 1046,966 1042,979 1038,993 1033,1007 1028,1020 1022,1034 1015,1048 1008,1061 1000,1075 991,1089 982,1102 972,1116 961,1129 950,1143 938,1157 926,1170 912,1184 899,1198 884,1211 869,1225 853,1239 837,1252 820,1266 802,1279 783,1293 764,1307 745,1320 724,1334 703,1348 682,1361 659,1375 850,586 866,599 880,612 894,625 908,638 921,651 933,664 944,677 955,690 965,703 975,716 984,729 992,742 999,755 1006,768 1013,781 1018,794 1023,807 1028,820 1031,833 1034,846 1037,859 1038,872 1039,885 1040,898 1040,911 1039,924 1037,937 1035,950 1032,963 1029,976 1025,989 1020,1002 1015,1015 1009,1028 1002,1041 994,1054 986,1067 978,1080 969,1093 959,1106 948,1119 937,1131 925,1144 912,1157 899,1170 885,1183 871,1196 856,1209 840,1222 823,1235 806,1248 789,1261 770,1274 751,1287 731,1300 711,1313 690,1326 668,1339 646,1352 837,602 853,614 868,626 882,639 895,651 908,663 920,676 931,688 942,700 952,713 962,725 971,737 979,750 987,762 994,774 1000,787 1006,799 1011,811 1015,824 1019,836 1022,848 1024,861 1026,873 1027,886 1027,898 1027,910 1026,923 1025,935 1022,947 1020,960 1016,972 1012,984 1007,997 1002,1009 996,1021 989,1034 982,1046 974,1058 965,1071 956,1083 946,1095 935,1108 924,1120 912,1132 900,1145 886,1157 873,1169 858,1182 843,1194 827,1206 811,1219 794,1231 776,1243 757,1256 738,1268 719,1280 698,1293 677,1305 656,1317 633,1330 825,617 841,629 856,641 870,653 883,664 896,676 908,688 919,699 930,711 940,723 950,734 959,746 967,758 975,769 982,781 988,793 994,804 998,816 1003,828 1007,840 1010,851 1012,863 1014,875 1015,886 1015,898 1015,910 1014,921 1013,933 1010,945 1008,956 1004,968 1000,980 995,991 990,1003 984,1015 977,1027 970,1038 962,1050 953,1062 944,1073 934,1085 923,1097 912,1108 900,1120 888,1132 874,1143 861,1155 846,1167 831,1178 815,1190 799,1202 782,1214 764,1225 745,1237 726,1249 707,1260 686,1272 665,1284 644,1295 621,1307 814,633 829,644 844,655 858,666 872,677 884,688 897,699 908,710 919,721 929,732 939,744 947,755 956,766 963,777 970,788 977,799 982,810 987,821 991,832 995,843 998,854 1001,865 1002,876 1003,887 1004,898 1004,909 1003,920 1001,931 999,942 996,953 993,964 989,975 984,986 979,997 973,1008 966,1019 958,1031 950,1042 942,1053 932,1064 923,1075 912,1086 901,1097 889,1108 876,1119 863,1130 849,1141 835,1152 820,1163 804,1174 787,1185 770,1196 752,1207 734,1218 715,1229 695,1240 675,1251 654,1262 632,1273 610,1284 803,649 819,659 833,670 848,680 861,690 874,701 886,711 897,722 908,732 918,742 928,753 937,763 945,774 953,784 960,794 966,805 971,815 976,825 981,836 984,846 987,857 990,867 992,877 993,888 993,898 993,909 992,919 991,929 988,940 986,950 982,961 978,971 973,981 968,992 962,1002 955,1012 948,1023 940,1033 931,1044 922,1054 912,1064 901,1075 890,1085 878,1096 866,1106 852,1116 838,1127 824,1137 809,1148 793,1158 777,1168 760,1179 742,1189 723,1199 704,1210 685,1220 664,1231 643,1241 622,1251 599,1262 793,665 809,674 823,684 837,694 851,703 864,713 876,723 887,733 898,742 908,752 918,762 927,772 935,781 943,791 949,801 956,811 961,820 966,830 971,840 974,850 977,859 980,869 982,879 983,889 983,898 983,908 982,918 980,928 978,937 976,947 972,957 968,966 963,976 958,986 952,996 945,1005 938,1015 930,1025 921,1035 912,1044 902,1054 891,1064 880,1074 868,1083 855,1093 842,1103 828,1113 814,1122 799,1132 783,1142 767,1152 749,1161 732,1171 713,1181 694,1190 675,1200 654,1210 633,1220 612,1229 589,1239 784,680 799,689 814,698 828,708 842,717 854,726 866,735 878,744 889,753 899,762 908,771 917,780 926,789 933,798 940,807 946,817 952,826 957,835 961,844 965,853 968,862 970,871 972,880 973,889 974,898 973,907 973,917 971,926 969,935 966,944 963,953 959,962 954,971 948,980 942,989 936,998 928,1007 920,1017 912,1026 902,1035 892,1044 882,1053 870,1062 859,1071 846,1080 833,1089 819,1098 805,1107 789,1117 774,1126 757,1135 740,1144 722,1153 704,1162 685,1171 665,1180 645,1189 624,1198 602,1207 580,1217 775,696 791,704 805,713 819,721 833,730 846,738 858,747 869,755 880,763 890,772 900,780 909,789 917,797 924,806 931,814 938,823 943,831 948,839 953,848 956,856 959,865 962,873 963,882 964,890 965,899 965,907 964,915 962,924 960,932 957,941 954,949 950,958 945,966 940,974 934,983 927,991 919,1000 911,1008 903,1017 894,1025 884,1034 873,1042 862,1050 850,1059 837,1067 824,1076 810,1084 796,1093 781,1101 765,1110 748,1118 731,1126 714,1135 695,1143 676,1152 656,1160 636,1169 615,1177 593,1186 571,1194 767,712 782,719 797,727 811,735 825,743 837,751 850,758 861,766 872,774 882,782 892,790 900,797 909,805 916,813 923,821 929,829 935,836 940,844 944,852 948,860 951,867 953,875 955,883 956,891 957,899 957,906 956,914 954,922 952,930 949,938 946,945 942,953 937,961 931,969 925,977 919,984 911,992 903,1000 895,1008 885,1016 875,1023 865,1031 854,1039 842,1047 829,1054 816,1062 802,1070 788,1078 772,1086 757,1093 740,1101 723,1109 705,1117 687,1125 668,1132 648,1140 628,1148 607,1156 585,1164 563,1171 760,727 775,734 790,742 804,749 817,756 830,763 842,770 854,777 864,784 875,792 884,799 893,806 901,813 909,820 916,827 922,834 928,842 933,849 937,856 941,863 944,870 946,877 948,884 949,892 949,899 949,906 948,913 947,920 945,927 942,934 938,942 934,949 929,956 924,963 918,970 911,977 904,984 896,992 887,999 878,1006 868,1013 857,1020 846,1027 834,1034 822,1042 809,1049 795,1056 780,1063 765,1070 749,1077 733,1084 716,1092 698,1099 680,1106 660,1113 641,1120 620,1127 599,1134 578,1142 556,1149 753,743 768,750 783,756 797,763 810,769 823,775 835,782 847,788 858,795 868,801 877,808 886,814 894,821 902,827 909,834 915,840 921,847 926,853 930,860 934,866 937,873 939,879 941,886 942,892 942,899 942,905 941,912 940,918 938,925 935,931 931,938 927,944 923,951 917,957 911,964 904,970 897,977 889,983 880,990 871,996 861,1003 851,1009 839,1016 827,1022 815,1029 802,1035 788,1042 773,1048 758,1055 742,1061 726,1068 709,1074 691,1081 673,1087 654,1094 634,1100 614,1107 593,1113 571,1120 549,1126 747,759 762,765 777,770 791,776 804,782 817,788 829,794 841,800 851,805 862,811 871,817 880,823 888,829 896,835 903,841 909,846 915,852 920,858 924,864 928,870 931,876 933,881 935,887 936,893 936,899 936,905 935,911 934,917 932,922 929,928 925,934 921,940 916,946 911,952 905,957 898,963 891,969 883,975 874,981 865,987 855,992 844,998 833,1004 821,1010 809,1016 796,1022 782,1028 767,1033 752,1039 736,1045 720,1051 703,1057 685,1063 667,1068 648,1074 628,1080 607,1086 586,1092 565,1098 543,1104 741,774 756,780 771,785 785,790 799,795 811,800 824,806 835,811 846,816 856,821 866,826 874,832 883,837 890,842 897,847 903,852 909,858 914,863 918,868 922,873 925,878 928,884 929,889 930,894 931,899 931,904 930,909 928,915 926,920 923,925 920,930 916,935 911,941 906,946 899,951 893,956 885,961 877,967 869,972 859,977 849,982 839,987 828,993 816,998 803,1003 790,1008 776,1013 762,1019 747,1024 731,1029 714,1034 697,1039 679,1045 661,1050 642,1055 622,1060 602,1065 581,1071 559,1076 537,1081 736,790 752,795 766,799 780,804 794,808 807,813 819,817 830,822 841,826 851,831 861,836 870,840 878,845 885,849 892,854 899,858 904,863 909,867 914,872 917,876 920,881 923,886 924,890 925,895 926,899 926,904 925,908 923,913 921,917 918,922 915,926 911,931 906,936 901,940 895,945 888,949 881,954 873,958 864,963 855,967 845,972 834,976 823,981 811,986 798,990 785,995 771,999 757,1004 742,1008 726,1013 709,1017 692,1022 675,1026 656,1031 637,1036 617,1040 597,1045 576,1049 554,1054 532,1058 732,806 747,810 762,814 776,817 790,821 802,825 814,829 826,833 837,837 847,841 856,845 865,849 874,853 881,856 888,860 894,864 900,868 905,872 909,876 913,880 916,884 918,888 920,892 921,895 922,899 921,903 921,907 919,911 917,915 914,919 911,923 907,927 902,930 896,934 890,938 884,942 876,946 868,950 860,954 850,958 840,962 830,966 819,969 807,973 794,977 781,981 767,985 753,989 737,993 722,997 705,1001 688,1005 670,1008 652,1012 633,1016 613,1020 593,1024 572,1028 550,1032 528,1036 728,822 744,825 758,828 773,831 786,834 799,838 811,841 822,844 833,847 843,851 853,854 862,857 870,860 878,864 885,867 891,870 896,873 901,877 906,880 909,883 912,886 915,890 917,893 918,896 918,899 918,903 917,906 916,909 913,912 911,916 907,919 903,922 898,925 893,929 887,932 880,935 873,938 865,942 856,945 847,948 837,951 826,955 815,958 803,961 791,964 777,968 763,971 749,974 734,977 718,981 702,984 685,987 667,990 648,994 629,997 610,1000 589,1003 568,1007 547,1010 524,1013 725,837 741,840 756,842 770,845 783,848 796,850 808,853 819,855 830,858 840,861 850,863 859,866 867,868 875,871 882,874 888,876 894,879 898,881 903,884 907,887 910,889 912,892 914,894 915,897 915,900 915,902 914,905 913,907 910,910 908,913 904,915 900,918 895,920 890,923 884,926 877,928 870,931 862,933 853,936 844,939 834,941 823,944 812,946 800,949 788,951 774,954 761,957 746,959 731,962 715,964 699,967 682,970 664,972 645,975 626,977 607,980 586,983 565,985 544,988 521,990 723,853 739,855 753,857 767,859 781,861 794,863 806,865 817,867 828,868 838,870 848,872 857,874 865,876 872,878 879,880 886,882 891,884 896,886 901,888 904,890 907,892 910,894 911,896 912,898 913,900 913,902 912,904 910,906 908,907 905,909 902,911 898,913 893,915 888,917 882,919 875,921 868,923 860,925 851,927 842,929 832,931 821,933 810,935 798,937 785,939 772,941 758,943 744,944 729,946 713,948 696,950 679,952 662,954 643,956 624,958 604,960 584,962 563,964 541,966 519,968 722,869 737,870 752,871 766,872 779,874 792,875 804,876 816,878 826,879 837,880 846,882 855,883 863,884 871,885 878,887 884,888 890,889 895,891 899,892 903,893 906,895 908,896 910,897 911,898 911,900 911,901 910,902 909,904 907,905 904,906 900,908 896,909 891,910 886,911 880,913 873,914 866,915 858,917 849,918 840,919 830,921 819,922 808,923 796,924 784,926 771,927 757,928 742,930 727,931 711,932 695,934 678,935 660,936 642,937 623,939 603,940 582,941 561,943 540,944 518,945 721,884 736,885 751,886 765,886 778,887 791,888 803,888 815,889 825,889 836,890 845,891 854,891 862,892 870,893 877,893 883,894 889,895 894,895 898,896 902,897 905,897 907,898 909,899 910,899 910,900 910,901 909,901 908,902 906,902 903,903 899,904 895,904 890,905 885,906 879,906 872,907 865,908 857,908 848,909 839,910 829,910 818,911 807,912 795,912 783,913 770,914 756,914 741,915 726,915 710,916 694,917 677,917 659,918 641,919 622,919 602,920 582,921 561,921 539,922 517,923 720,900 736,900 750,900 764,900 778,900 791,900 803,900 814,900 825,900 835,900 845,900 854,900 862,900 869,900 876,900 883,900 888,900 893,900 898,900 901,900 904,900 907,900 908,900 910,900 910,900 910,900 909,900 907,900 905,900 902,900 899,900 895,900 890,900 885,900 879,900 872,900 865,900 857,900 848,900 839,900 829,900 818,900 807,900 795,900 782,900 769,900 755,900 741,900 726,900 710,900 693,900 676,900 659,900 640,900 621,900 602,900 581,900 560,900 539,900 516,900 721,916 736,915 751,914 765,914 778,913 791,912 803,912 815,911 825,911 836,910 845,909 854,909 862,908 870,907 877,907 883,906 889,905 894,905 898,904 902,903 905,903 907,902 909,901 910,901 910,900 910,899 909,899 908,898 906,898 903,897 899,896 895,896 890,895 885,894 879,894 872,893 865,892 857,892 848,891 839,890 829,890 818,889 807,888 795,888 783,887 770,886 756,886 741,885 726,885 710,884 694,883 677,883 659,882 641,881 622,881 602,880 582,879 561,879 539,878 517,877 722,931 737,930 752,929 766,927 779,926 792,925 804,924 816,922 826,921 837,920 846,918 855,917 863,916 871,915 878,913 884,912 890,911 895,909 899,908 903,907 906,905 908,904 910,903 911,902 911,900 911,899 910,898 909,896 907,895 904,894 900,892 896,891 891,890 886,889 880,887 873,886 866,885 858,883 849,882 840,881 830,879 819,878 808,877 796,876 784,874 771,873 757,872 742,870 727,869 711,868 695,866 678,865 660,864 642,863 623,861 603,860 582,859 561,857 540,856 518,855 723,947 739,945 753,943 767,941 781,939 794,937 806,935 817,933 828,932 838,930 848,928 857,926 865,924 872,922 879,920 886,918 891,916 896,914 901,912 904,910 907,908 910,906 911,904 912,902 913,900 913,898 912,896 910,894 908,893 905,891 902,889 898,887 893,885 888,883 882,881 875,879 868,877 860,875 851,873 842,871 832,869 821,867 810,865 798,863 785,861 772,859 758,857 744,856 729,854 713,852 696,850 679,848 662,846 643,844 624,842 604,840 584,838 563,836 541,834 519,832 725,963 741,960 756,958 770,955 783,952 796,950 808,947 819,945 830,942 840,939 850,937 859,934 867,932 875,929 882,926 888,924 894,921 898,919 903,916 907,913 910,911 912,908 914,906 915,903 915,900 915,898 914,895 913,893 910,890 908,887 904,885 900,882 895,880 890,877 884,874 877,872 870,869 862,867 853,864 844,861 834,859 823,856 812,854 800,851 788,849 774,846 761,843 746,841 731,838 715,836 699,833 682,830 664,828 645,825 626,823 607,820 586,817 565,815 544,812 521,810 728,978 744,975 758,972 773,969 786,966 799,962 811,959 822,956 833,953 843,949 853,946 862,943 870,940 878,936 885,933 891,930 896,927 901,923 906,920 909,917 912,914 915,910 917,907 918,904 918,901 918,897 917,894 916,891 913,888 911,884 907,881 903,878 898,875 893,871 887,868 880,865 873,862 865,858 856,855 847,852 837,849 826,845 815,842 803,839 791,836 777,832 763,829 749,826 734,823 718,819 702,816 685,813 667,810 648,806 629,803 610,800 589,797 568,793 547,790 524,787 732,994 747,990 762,986 776,982 790,979 802,975 814,971 826,967 837,963 847,959 856,955 865,951 874,947 881,944 888,940 894,936 900,932 905,928 909,924 913,920 916,916 918,912 920,908 921,905 922,901 921,897 921,893 919,889 917,885 914,881 911,877 907,873 902,870 896,866 890,862 884,858 876,854 868,850 860,846 850,842 840,838 830,834 819,831 807,827 794,823 781,819 767,815 753,811 737,807 722,803 705,799 688,795 670,792 652,788 633,784 613,780 593,776 572,772 550,768 528,764 736,1010 752,1005 766,1001 780,996 794,992 807,987 819,983 830,978 841,974 851,969 861,964 870,960 878,955 885,951 892,946 899,942 904,937 909,933 914,928 917,924 920,919 923,914 924,910 925,905 926,901 926,896 925,892 923,887 921,883 918,878 915,874 911,869 906,864 901,860 895,855 888,851 881,846 873,842 864,837 855,833 845,828 834,824 823,819 811,814 798,810 785,805 771,801 757,796 742,792 726,787 709,783 692,778 675,774 656,769 637,764 617,760 597,755 576,751 554,746 532,742 741,1026 756,1020 771,1015 785,1010 799,1005 811,1000 824,994 835,989 846,984 856,979 866,974 874,968 883,963 890,958 897,953 903,948 909,942 914,937 918,932 922,927 925,922 928,916 929,911 930,906 931,901 931,896 930,891 928,885 926,880 923,875 920,870 916,865 911,859 906,854 899,849 893,844 885,839 877,833 869,828 859,823 849,818 839,813 828,807 816,802 803,797 790,792 776,787 762,781 747,776 731,771 714,766 697,761 679,755 661,750 642,745 622,740 602,735 581,729 559,724 537,719 747,1041 762,1035 777,1030 791,1024 804,1018 817,1012 829,1006 841,1000 851,995 862,989 871,983 880,977 888,971 896,965 903,959 909,954 915,948 920,942 924,936 928,930 931,924 933,919 935,913 936,907 936,901 936,895 935,889 934,883 932,878 929,872 925,866 921,860 916,854 911,848 905,843 898,837 891,831 883,825 874,819 865,813 855,808 844,802 833,796 821,790 809,784 796,778 782,772 767,767 752,761 736,755 720,749 703,743 685,737 667,732 648,726 628,720 607,714 586,708 565,702 543,696 753,1057 768,1050 783,1044 797,1037 810,1031 823,1025 835,1018 847,1012 858,1005 868,999 877,992 886,986 894,979 902,973 909,966 915,960 921,953 926,947 930,940 934,934 937,927 939,921 941,914 942,908 942,901 942,895 941,888 940,882 938,875 935,869 931,862 927,856 923,849 917,843 911,836 904,830 897,823 889,817 880,810 871,804 861,797 851,791 839,784 827,778 815,771 802,765 788,758 773,752 758,745 742,739 726,732 709,726 691,719 673,713 654,706 634,700 614,693 593,687 571,680 549,674 760,1073 775,1066 790,1058 804,1051 817,1044 830,1037 842,1030 854,1023 864,1016 875,1008 884,1001 893,994 901,987 909,980 916,973 922,966 928,958 933,951 937,944 941,937 944,930 946,923 948,916 949,908 949,901 949,894 948,887 947,880 945,873 942,866 938,858 934,851 929,844 924,837 918,830 911,823 904,816 896,808 887,801 878,794 868,787 857,780 846,773 834,766 822,758 809,751 795,744 780,737 765,730 749,723 733,716 716,708 698,701 680,694 660,687 641,680 620,673 599,666 578,658 556,651 767,1088 782,1081 797,1073 811,1065 825,1057 837,1049 850,1042 861,1034 872,1026 882,1018 892,1010 900,1003 909,995 916,987 923,979 929,971 935,964 940,956 944,948 948,940 951,933 953,925 955,917 956,909 957,901 957,894 956,886 954,878 952,870 949,862 946,855 942,847 937,839 931,831 925,823 919,816 911,808 903,800 895,792 885,784 875,777 865,769 854,761 842,753 829,746 816,738 802,730 788,722 772,714 757,707 740,699 723,691 705,683 687,675 668,668 648,660 628,652 607,644 585,636 563,629 775,1104 791,1096 805,1087 819,1079 833,1070 846,1062 858,1053 869,1045 880,1037 890,1028 900,1020 909,1011 917,1003 924,994 931,986 938,977 943,969 948,961 953,952 956,944 959,935 962,927 963,918 964,910 965,901 965,893 964,885 962,876 960,868 957,859 954,851 950,842 945,834 940,826 934,817 927,809 919,800 911,792 903,783 894,775 884,766 873,758 862,750 850,741 837,733 824,724 810,716 796,707 781,699 765,690 748,682 731,674 714,665 695,657 676,648 656,640 636,631 615,623 593,614 571,606 784,1120 799,1111 814,1102 828,1092 842,1083 854,1074 866,1065 878,1056 889,1047 899,1038 908,1029 917,1020 926,1011 933,1002 940,992 946,983 952,974 957,965 961,956 965,947 968,938 970,929 972,920 973,911 974,902 973,893 973,883 971,874 969,865 966,856 963,847 959,838 954,829 948,820 942,811 936,802 928,793 920,783 912,774 902,765 892,756 882,747 870,738 859,729 846,720 833,711 819,702 805,693 789,683 774,674 757,665 740,656 722,647 704,638 685,629 665,620 645,611 624,602 602,593 580,583 793,1135 809,1126 823,1116 837,1106 851,1097 864,1087 876,1077 887,1067 898,1058 908,1048 918,1038 927,1028 935,1019 943,1009 949,999 956,989 961,980 966,970 971,960 974,950 977,941 980,931 982,921 983,911 983,902 983,892 982,882 980,872 978,863 976,853 972,843 968,834 963,824 958,814 952,804 945,795 938,785 930,775 921,765 912,756 902,746 891,736 880,726 868,717 855,707 842,697 828,687 814,678 799,668 783,658 767,648 749,639 732,629 713,619 694,610 675,600 654,590 633,580 612,571 589,561 803,1151 819,1141 833,1130 848,1120 861,1110 874,1099 886,1089 897,1078 908,1068 918,1058 928,1047 937,1037 945,1026 953,1016 960,1006 966,995 971,985 976,975 981,964 984,954 987,943 990,933 992,923 993,912 993,902 993,891 992,881 991,871 988,860 986,850 982,839 978,829 973,819 968,808 962,798 955,788 948,777 940,767 931,756 922,746 912,736 901,725 890,715 878,704 866,694 852,684 838,673 824,663 809,652 793,642 777,632 760,621 742,611 723,601 704,590 685,580 664,569 643,559 622,549 599,538 814,1167 829,1156 844,1145 858,1134 872,1123 884,1112 897,1101 908,1090 919,1079 929,1068 939,1056 947,1045 956,1034 963,1023 970,1012 977,1001 982,990 987,979 991,968 995,957 998,946 1001,935 1002,924 1003,913 1004,902 1004,891 1003,880 1001,869 999,858 996,847 993,836 989,825 984,814 979,803 973,792 966,781 958,769 950,758 942,747 932,736 923,725 912,714 901,703 889,692 876,681 863,670 849,659 835,648 820,637 804,626 787,615 770,604 752,593 734,582 715,571 695,560 675,549 654,538 632,527 610,516 825,1183 841,1171 856,1159 870,1147 883,1136 896,1124 908,1112 919,1101 930,1089 940,1077 950,1066 959,1054 967,1042 975,1031 982,1019 988,1007 994,996 998,984 1003,972 1007,960 1010,949 1012,937 1014,925 1015,914 1015,902 1015,890 1014,879 1013,867 1010,855 1008,844 1004,832 1000,820 995,809 990,797 984,785 977,773 970,762 962,750 953,738 944,727 934,715 923,703 912,692 900,680 888,668 874,657 861,645 846,633 831,622 815,610 799,598 782,586 764,575 745,563 726,551 707,540 686,528 665,516 644,505 621,493 837,1198 853,1186 868,1174 882,1161 895,1149 908,1137 920,1124 931,1112 942,1100 952,1087 962,1075 971,1063 979,1050 987,1038 994,1026 1000,1013 1006,1001 1011,989 1015,976 1019,964 1022,952 1024,939 1026,927 1027,914 1027,902 1027,890 1026,877 1025,865 1022,853 1020,840 1016,828 1012,816 1007,803 1002,791 996,779 989,766 982,754 974,742 965,729 956,717 946,705 935,692 924,680 912,668 900,655 886,643 873,631 858,618 843,606 827,594 811,581 794,569 776,557 757,544 738,532 719,520 698,507 677,495 656,483 633,470 850,1214 866,1201 880,1188 894,1175 908,1162 921,1149 933,1136 944,1123 955,1110 965,1097 975,1084 984,1071 992,1058 999,1045 1006,1032 1013,1019 1018,1006 1023,993 1028,980 1031,967 1034,954 1037,941 1038,928 1039,915 1040,902 1040,889 1039,876 1037,863 1035,850 1032,837 1029,824 1025,811 1020,798 1015,785 1009,772 1002,759 994,746 986,733 978,720 969,707 959,694 948,681 937,669 925,656 912,643 899,630 885,617 871,604 856,591 840,578 823,565 806,552 789,539 770,526 751,513 731,500 711,487 690,474 668,461 646,448 863,1230 879,1216 894,1202 908,1189 921,1175 934,1161 946,1148 957,1134 968,1121 978,1107 988,1093 997,1080 1005,1066 1013,1052 1020,1039 1026,1025 1031,1011 1036,998 1041,984 1045,971 1048,957 1050,943 1052,930 1053,916 1053,902 1053,889 1052,875 1051,861 1048,848 1046,834 1042,821 1038,807 1033,793 1028,780 1022,766 1015,752 1008,739 1000,725 991,711 982,698 972,684 961,671 950,657 938,643 926,630 912,616 899,602 884,589 869,575 853,561 837,548 820,534 802,521 783,507 764,493 745,480 724,466 703,452 682,439 659,425 877,1245 893,1231 908,1217 922,1202 935,1188 948,1174 960,1160 971,1145 982,1131 992,1117 1002,1102 1011,1088 1019,1074 1027,1060 1034,1045 1040,1031 1045,1017 1050,1002 1055,988 1058,974 1061,960 1064,945 1066,931 1067,917 1067,903 1067,888 1066,874 1065,860 1062,845 1060,831 1056,817 1052,803 1047,788 1042,774 1036,760 1029,745 1022,731 1014,717 1005,703 996,688 986,674 975,660 964,645 952,631 940,617 926,603 913,588 898,574 883,560 867,545 851,531 834,517 816,503 797,488 778,474 759,460 738,445 717,431 696,417 673,403 892,1261 907,1246 922,1231 936,1216 950,1201 962,1186 975,1171 986,1157 997,1142 1007,1127 1017,1112 1025,1097 1034,1082 1041,1067 1048,1052 1054,1037 1060,1022 1065,1007 1069,992 1073,977 1076,962 1078,947 1080,932 1081,918 1082,903 1082,888 1081,873 1079,858 1077,843 1074,828 1071,813 1067,798 1062,783 1056,768 1050,753 1044,738 1036,723 1028,708 1020,694 1010,679 1000,664 990,649 979,634 967,619 954,604 941,589 927,574 913,559 897,544 882,529 865,514 848,499 830,484 812,470 793,455 773,440 753,425 732,410 710,395 688,380 907,1277 923,1261 937,1246 951,1230 965,1214 978,1199 990,1183 1001,1168 1012,1152 1022,1136 1032,1121 1041,1105 1049,1090 1056,1074 1063,1059 1070,1043 1075,1027 1080,1012 1085,996 1088,981 1091,965 1094,949 1095,934 1097,918 1097,903 1097,887 1096,872 1094,856 1092,840 1089,825 1086,809 1082,794 1077,778 1072,762 1066,747 1059,731 1052,716 1044,700 1035,685 1026,669 1016,653 1005,638 994,622 982,607 969,591 956,575 942,560 928,544 913,529 897,513 880,498 863,482 846,466 827,451 808,435 789,420 768,404 747,388 726,373 703,357 923,1292 939,1276 953,1260 967,1244 981,1228 994,1211 1006,1195 1017,1179 1028,1163 1038,1146 1048,1130 1057,1114 1065,1098 1072,1081 1079,1065 1086,1049 1091,1033 1096,1016 1101,1000 1104,984 1107,968 1110,952 1111,935 1112,919 1113,903 1113,887 1112,870 1110,854 1108,838 1105,822 1102,805 1098,789 1093,773 1088,757 1082,741 1075,724 1068,708 1060,692 1051,676 1042,659 1032,643 1021,627 1010,611 998,594 985,578 972,562 958,546 944,529 929,513 913,497 896,481 879,465 862,448 843,432 824,416 804,400 784,383 763,367 741,351 719,335 940,1308 955,1291 970,1274 984,1257 997,1241 1010,1224 1022,1207 1034,1190 1045,1173 1055,1156 1064,1139 1073,1122 1081,1106 1089,1089 1096,1072 1102,1055 1108,1038 1113,1021 1117,1004 1121,987 1124,970 1126,954 1128,937 1129,920 1129,903 1129,886 1128,869 1127,852 1125,835 1122,819 1118,802 1114,785 1110,768 1104,751 1098,734 1091,717 1084,700 1076,683 1067,667 1058,650 1048,633 1038,616 1026,599 1014,582 1002,565 989,548 975,532 960,515 945,498 929,481 913,464 896,447 878,430 860,413 841,396 821,380 801,363 780,346 758,329 736,312 957,1324 972,1306 987,1289 1001,1271 1015,1254 1027,1236 1039,1219 1051,1201 1062,1184 1072,1166 1081,1149 1090,1131 1099,1113 1106,1096 1113,1078 1119,1061 1125,1043 1130,1026 1134,1008 1138,991 1141,973 1143,956 1145,938 1146,921 1147,903 1146,886 1146,868 1144,850 1142,833 1139,815 1136,798 1132,780 1127,763 1121,745 1115,728 1109,710 1101,693 1093,675 1085,658 1075,640 1065,623 1055,605 1044,587 1032,570 1019,552 1006,535 992,517 978,500 962,482 947,465 930,447 913,430 895,412 877,395 858,377 838,360 818,342 797,325 775,307 753,289 975,1340 990,1321 1005,1303 1019,1285 1032,1267 1045,1249 1057,1230 1069,1212 1080,1194 1090,1176 1099,1158 1108,1140 1116,1121 1124,1103 1131,1085 1137,1067 1143,1049 1148,1030 1152,1012 1156,994 1159,976 1161,958 1163,940 1164,921 1165,903 1164,885 1163,867 1162,849 1160,830 1157,812 1154,794 1149,776 1145,758 1139,740 1133,721 1127,703 1119,685 1111,667 1103,649 1093,630 1083,612 1073,594 1061,576 1050,558 1037,540 1024,521 1010,503 995,485 980,467 964,449 948,430 931,412 913,394 895,376 876,358 856,340 836,321 815,303 793,285 771,267 993,1355 1009,1336 1023,1318 1037,1299 1051,1280 1064,1261 1076,1242 1087,1223 1098,1205 1108,1186 1118,1167 1127,1148 1135,1129 1143,1110 1149,1092 1156,1073 1161,1054 1166,1035 1171,1016 1174,997 1177,979 1180,960 1182,941 1183,922 1183,903 1183,884 1182,866 1180,847 1178,828 1176,809 1172,790 1168,771 1163,753 1158,734 1152,715 1145,696 1138,677 1130,658 1121,640 1112,621 1102,602 1091,583 1080,564 1068,546 1055,527 1042,508 1028,489 1014,470 999,451 983,433 967,414 949,395 932,376 913,357 894,338 875,320 854,301 833,282 812,263 789,244 "/>
</svg>
