<svg width="1800" height="1800" viewBox="0 0 1800 1800" xmlns="http://www.w3.org/2000/svg">
<polyline fill="none" opacity="1" stroke="#FFCDD2" stroke-width="1" points="532,163 557,173 581,184 604,195 628,205 650,216 673,227 695,238 716,248 737,259 758,270 778,281 798,292 818,304 837,315 855,326 873,337 891,348 909,360 926,371 942,382 958,394 974,405 989,416 1004,428 1019,439 1033,451 1047,462 1060,474 1073,485 1085,497 1097,508 1109,520 1120,531 1131,543 1142,554 1152,566 1161,578 1171,589 1180,601 1188,612 1196,624 1204,635 1211,646 1218,658 1224,669 1230,681 1236,692 1241,703 1246,715 1250,726 1254,737 1258,748 1261,760 1263,771 1266,782 1268,793 1269,804 1270,815 1271,826 1271,837 1271,847 1270,858 1269,869 1268,880 1266,890 1263,901 522,187 546,198 570,208 594,218 617,228 640,238 662,249 684,259 705,270 727,280 747,291 767,301 787,312 807,323 826,334 844,344 862,355 880,366 898,377 914,388 931,399 947,410 963,421 978,432 993,443 1008,454 1022,465 1035,476 1049,487 1062,498 1074,509 1086,520 1098,531 1109,543 1120,554 1130,565 1141,576 1150,587 1159,598 1168,609 1177,620 1185,631 1192,642 1200,653 1207,665 1213,676 1219,686 1225,697 1230,708 1235,719 1239,730 1243,741 1247,752 1250,762 1252,773 1255,784 1257,795 1258,805 1259,816 1260,826 1260,837 1260,847 1260,857 1259,868 1257,878 1255,888 1253,898 512,212 536,222 560,231 584,241 607,251 630,261 652,271 674,281 695,291 716,301 737,311 757,321 777,332 796,342 815,352 834,363 852,373 870,383 887,394 904,404 920,415 936,426 952,436 967,447 982,457 997,468 1011,479 1024,489 1038,500 1051,511 1063,521 1075,532 1087,543 1098,554 1109,564 1120,575 1130,586 1139,596 1149,607 1157,618 1166,629 1174,639 1182,650 1189,661 1196,671 1202,682 1208,692 1214,703 1219,713 1224,724 1228,734 1232,745 1236,755 1239,765 1242,776 1244,786 1246,796 1248,806 1249,817 1250,827 1250,837 1250,847 1249,857 1249,867 1247,876 1245,886 1243,896 503,237 527,246 551,255 574,265 597,274 620,283 642,293 664,303 685,312 706,322 727,332 747,341 767,351 786,361 805,371 823,381 842,391 859,401 877,411 893,421 910,431 926,441 942,452 957,462 972,472 986,482 1000,492 1014,503 1027,513 1040,523 1053,534 1065,544 1076,554 1088,565 1099,575 1109,585 1119,596 1129,606 1138,616 1147,627 1155,637 1163,647 1171,657 1178,668 1185,678 1192,688 1198,698 1204,708 1209,718 1214,729 1218,739 1222,749 1226,759 1229,768 1232,778 1234,788 1236,798 1238,808 1239,818 1240,827 1240,837 1240,846 1240,856 1239,865 1238,875 1236,884 1234,893 494,261 518,270 542,279 565,288 588,297 611,306 633,315 655,324 676,333 697,343 717,352 737,361 757,371 776,380 795,390 814,399 832,409 849,418 867,428 884,438 900,448 916,457 932,467 947,477 962,487 976,496 990,506 1004,516 1017,526 1030,536 1042,546 1055,556 1066,566 1078,576 1088,586 1099,596 1109,606 1119,615 1128,625 1137,635 1145,645 1153,655 1161,665 1168,675 1175,685 1182,694 1188,704 1194,714 1199,724 1204,733 1208,743 1212,752 1216,762 1219,772 1222,781 1225,790 1227,800 1228,809 1230,819 1230,828 1231,837 1231,846 1230,855 1230,864 1228,873 1227,882 1225,891 485,286 509,294 533,302 556,311 579,320 602,328 624,337 646,346 667,354 688,363 708,372 728,381 748,390 767,399 786,408 804,418 822,427 840,436 857,445 874,454 890,464 906,473 922,482 937,492 952,501 967,511 981,520 994,530 1007,539 1020,549 1033,558 1045,568 1056,577 1068,587 1079,596 1089,606 1099,615 1109,625 1118,634 1127,644 1136,653 1144,663 1151,672 1159,682 1166,691 1172,701 1178,710 1184,719 1189,729 1194,738 1199,747 1203,756 1207,766 1210,775 1213,784 1215,793 1218,802 1219,811 1221,820 1221,828 1222,837 1222,846 1222,855 1221,863 1220,872 1218,880 1216,889 477,310 501,318 525,326 548,334 571,342 593,350 615,359 637,367 658,376 679,384 699,392 719,401 739,410 758,418 777,427 795,436 813,444 831,453 848,462 865,471 881,480 897,489 913,498 928,507 943,516 957,525 971,534 985,543 998,552 1011,561 1023,570 1036,580 1047,589 1058,598 1069,607 1080,616 1090,625 1100,634 1109,644 1118,653 1126,662 1134,671 1142,680 1150,689 1157,698 1163,707 1169,716 1175,725 1180,734 1185,743 1190,751 1194,760 1198,769 1201,778 1204,786 1207,795 1209,804 1211,812 1212,821 1213,829 1213,838 1213,846 1213,854 1212,862 1211,871 1210,879 1208,887 469,334 493,342 517,349 540,357 563,365 585,373 607,381 629,389 650,397 671,405 691,413 711,421 731,429 750,437 768,446 787,454 805,462 822,471 839,479 856,488 873,496 889,505 904,513 919,522 934,531 948,539 962,548 976,557 989,565 1002,574 1015,583 1027,591 1038,600 1049,609 1060,618 1071,626 1081,635 1091,644 1100,653 1109,661 1117,670 1126,679 1133,687 1141,696 1148,705 1154,713 1160,722 1166,730 1172,739 1177,747 1181,756 1185,764 1189,773 1193,781 1196,789 1198,797 1200,806 1202,814 1204,822 1205,830 1205,838 1205,846 1205,854 1204,861 1203,869 1202,877 1200,885 462,358 486,366 509,373 532,380 555,387 578,395 599,402 621,410 642,417 663,425 683,433 703,441 723,448 742,456 760,464 779,472 797,480 814,488 831,496 848,504 864,512 880,520 896,529 911,537 926,545 940,553 954,562 968,570 981,578 994,587 1006,595 1018,603 1030,612 1041,620 1052,628 1062,637 1072,645 1082,653 1091,662 1100,670 1109,678 1117,687 1125,695 1132,703 1139,712 1146,720 1152,728 1158,736 1163,744 1168,752 1173,760 1177,768 1181,776 1185,784 1188,792 1190,800 1193,808 1194,815 1196,823 1197,831 1197,838 1198,846 1197,853 1197,861 1196,868 1194,875 1193,882 455,383 479,389 502,396 525,403 548,410 570,417 592,424 614,431 635,438 655,446 676,453 696,460 715,468 734,475 753,483 771,490 789,498 806,505 823,513 840,521 856,528 872,536 888,544 903,552 918,560 932,567 946,575 959,583 973,591 985,599 998,607 1010,615 1021,623 1033,631 1044,639 1054,647 1064,655 1074,663 1083,671 1092,679 1101,687 1109,695 1117,703 1124,711 1131,718 1138,726 1144,734 1150,742 1155,749 1161,757 1165,765 1169,772 1173,780 1177,787 1180,795 1183,802 1185,810 1187,817 1188,824 1189,832 1190,839 1190,846 1190,853 1190,860 1189,867 1187,874 1186,880 448,407 472,413 496,419 519,426 541,432 563,439 585,446 607,452 628,459 648,466 669,473 688,480 708,487 727,494 745,501 764,508 781,515 799,523 816,530 832,537 849,544 865,552 880,559 895,567 910,574 924,582 938,589 952,597 965,604 978,612 990,619 1002,627 1014,635 1025,642 1036,650 1046,657 1056,665 1066,673 1076,680 1085,688 1093,695 1101,703 1109,710 1117,718 1124,725 1130,733 1137,740 1142,747 1148,755 1153,762 1158,769 1162,776 1166,784 1170,791 1173,798 1175,805 1178,812 1180,819 1181,826 1182,832 1183,839 1184,846 1183,853 1183,859 1182,866 1181,872 1179,878 442,431 466,437 489,443 512,449 535,455 557,461 579,467 600,474 621,480 642,486 662,493 682,499 701,506 720,513 738,519 757,526 774,533 792,540 809,547 825,554 842,560 857,567 873,575 888,582 903,589 917,596 931,603 944,610 957,617 970,624 983,632 995,639 1006,646 1018,653 1028,660 1039,668 1049,675 1059,682 1068,689 1077,696 1086,704 1094,711 1102,718 1109,725 1116,732 1123,739 1129,746 1135,753 1141,760 1146,767 1151,774 1155,781 1159,787 1163,794 1166,801 1169,807 1171,814 1173,821 1175,827 1176,833 1177,840 1177,846 1177,852 1177,858 1176,865 1175,871 1173,877 436,455 460,460 484,466 506,471 529,477 551,483 573,489 594,495 615,501 635,507 656,513 675,519 695,525 713,531 732,538 750,544 768,550 785,557 802,563 819,570 835,576 851,583 866,590 881,596 896,603 910,610 924,617 937,623 950,630 963,637 976,644 988,651 999,657 1011,664 1021,671 1032,678 1042,685 1052,692 1061,698 1070,705 1079,712 1087,719 1095,726 1102,732 1109,739 1116,746 1123,752 1129,759 1134,765 1139,772 1144,778 1149,785 1153,791 1156,798 1159,804 1162,810 1165,816 1167,822 1168,828 1170,834 1171,840 1171,846 1171,852 1171,858 1170,864 1169,869 1167,875 431,479 455,484 478,489 501,494 523,499 545,505 567,510 588,516 609,521 630,527 650,533 669,538 688,544 707,550 726,556 744,562 762,568 779,574 796,580 812,586 828,592 844,599 860,605 875,611 889,618 903,624 917,630 931,637 944,643 957,650 969,656 981,662 993,669 1004,675 1015,682 1025,688 1035,695 1045,701 1055,708 1064,714 1072,720 1080,727 1088,733 1096,740 1103,746 1110,752 1116,758 1122,765 1128,771 1133,777 1138,783 1142,789 1146,795 1150,801 1153,807 1156,813 1159,819 1161,824 1163,830 1164,836 1165,841 1165,847 1165,852 1165,857 1164,863 1163,868 1162,873 426,502 450,507 473,512 496,517 518,522 540,527 562,532 583,537 604,542 624,547 644,552 664,558 683,563 702,569 720,574 738,580 756,585 773,591 790,597 806,603 822,608 838,614 853,620 868,626 883,632 897,638 911,644 925,650 938,656 950,662 963,668 975,674 986,680 998,686 1008,693 1019,699 1029,705 1039,711 1048,717 1057,723 1066,729 1074,735 1082,741 1090,747 1097,753 1104,759 1110,765 1116,770 1122,776 1127,782 1132,788 1136,793 1141,799 1144,805 1148,810 1151,815 1153,821 1155,826 1157,831 1159,837 1160,842 1160,847 1160,852 1160,857 1159,862 1158,867 1157,871 422,526 445,530 469,535 491,539 514,544 535,548 557,553 578,558 599,562 619,567 639,572 658,577 678,582 696,587 715,592 733,598 750,603 767,608 784,613 801,619 817,624 832,630 848,635 863,641 877,646 891,652 905,658 919,663 932,669 944,675 957,680 969,686 980,692 992,697 1003,703 1013,709 1023,715 1033,720 1042,726 1051,732 1060,737 1068,743 1076,749 1084,754 1091,760 1098,765 1104,771 1111,776 1116,782 1122,787 1126,792 1131,798 1135,803 1139,808 1142,813 1145,818 1148,823 1150,828 1152,833 1154,838 1155,843 1155,847 1155,852 1155,857 1155,861 1154,865 1152,870 418,550 441,554 464,558 487,562 509,566 531,570 552,574 573,579 594,583 614,587 634,592 654,596 673,601 691,606 710,611 728,615 745,620 762,625 779,630 795,635 811,640 827,645 842,650 857,656 872,661 886,666 900,671 913,677 926,682 939,687 951,692 963,698 975,703 986,709 997,714 1008,719 1018,725 1027,730 1037,735 1046,741 1055,746 1063,751 1071,756 1079,762 1086,767 1093,772 1099,777 1105,782 1111,787 1116,792 1121,797 1126,802 1130,807 1134,812 1137,816 1141,821 1143,826 1146,830 1147,835 1149,839 1150,844 1151,848 1151,852 1151,856 1151,860 1150,864 1148,868 414,573 438,577 461,580 483,584 505,588 527,592 548,595 569,599 590,603 610,607 630,612 649,616 668,620 687,624 705,629 723,633 740,638 758,642 774,647 791,651 807,656 822,661 837,665 852,670 867,675 881,680 895,685 908,690 921,695 934,700 946,705 958,710 970,715 981,720 992,725 1002,730 1013,735 1022,740 1032,745 1041,750 1050,754 1058,759 1066,764 1074,769 1081,774 1088,779 1094,783 1100,788 1106,793 1112,797 1117,802 1121,807 1126,811 1129,815 1133,820 1136,824 1139,828 1141,832 1143,837 1145,841 1146,845 1147,848 1147,852 1147,856 1147,860 1146,863 1145,867 411,597 434,600 457,603 480,606 502,610 523,613 545,617 566,620 586,624 606,627 626,631 645,635 664,639 683,643 701,647 719,651 736,655 753,659 770,663 786,667 802,672 818,676 833,680 848,685 862,689 876,694 890,698 903,703 916,708 929,712 941,717 953,721 965,726 976,731 987,735 998,740 1008,745 1018,749 1027,754 1036,758 1045,763 1053,768 1061,772 1069,777 1076,781 1083,785 1090,790 1096,794 1102,798 1107,803 1112,807 1117,811 1121,815 1125,819 1129,823 1132,827 1135,831 1137,835 1139,838 1141,842 1142,846 1143,849 1144,852 1144,856 1143,859 1143,862 1141,865 408,620 431,623 454,626 477,629 499,632 520,635 541,638 562,641 583,644 603,647 622,651 642,654 660,657 679,661 697,665 715,668 732,672 749,676 766,680 782,683 798,687 813,691 829,695 843,700 858,704 872,708 886,712 899,716 912,720 925,725 937,729 949,733 960,737 972,742 983,746 993,750 1003,755 1013,759 1023,763 1032,767 1040,772 1049,776 1057,780 1065,784 1072,788 1079,792 1086,796 1092,800 1098,804 1103,808 1108,812 1113,816 1117,819 1121,823 1125,827 1128,830 1131,833 1134,837 1136,840 1138,843 1139,847 1140,850 1140,853 1140,856 1140,859 1140,861 1139,864 406,644 429,646 452,648 474,651 496,653 517,656 538,659 559,661 580,664 600,667 619,670 638,673 657,676 676,679 694,683 711,686 729,689 746,693 762,696 778,700 794,703 810,707 825,710 839,714 854,718 868,722 882,725 895,729 908,733 921,737 933,741 945,745 956,749 968,753 978,757 989,761 999,765 1009,769 1018,772 1028,776 1036,780 1045,784 1053,788 1061,792 1068,795 1075,799 1082,803 1088,806 1094,810 1100,813 1105,817 1110,820 1114,824 1118,827 1122,830 1125,833 1128,836 1131,839 1133,842 1135,845 1136,848 1137,851 1138,853 1138,856 1138,858 1137,861 1136,863 404,667 427,669 449,671 472,673 493,675 515,677 536,680 557,682 577,684 597,687 616,689 635,692 654,695 673,698 691,700 708,703 725,706 742,709 759,712 775,716 791,719 806,722 821,725 836,729 850,732 864,735 878,739 891,742 904,746 917,749 929,753 941,757 953,760 964,764 975,767 985,771 995,775 1005,778 1015,782 1024,785 1033,789 1041,792 1049,796 1057,799 1065,803 1072,806 1078,809 1085,812 1091,816 1096,819 1101,822 1106,825 1111,828 1115,831 1119,834 1122,836 1125,839 1128,842 1130,844 1132,847 1133,849 1134,851 1135,854 1135,856 1135,858 1135,860 1134,862 402,690 425,692 448,693 470,695 491,697 513,698 534,700 554,702 575,704 594,706 614,709 633,711 652,713 670,716 688,718 705,721 723,723 739,726 756,729 772,731 788,734 803,737 818,740 833,743 847,746 861,749 875,752 888,756 901,759 913,762 926,765 938,768 949,772 960,775 971,778 982,781 992,785 1002,788 1011,791 1021,794 1029,798 1038,801 1046,804 1054,807 1061,810 1068,813 1075,816 1082,819 1088,821 1093,824 1099,827 1104,830 1108,832 1112,835 1116,837 1120,840 1123,842 1125,844 1128,846 1130,848 1131,850 1132,852 1133,854 1133,856 1133,858 1133,859 1132,861 401,713 424,714 446,716 468,717 490,718 511,720 532,721 553,723 573,724 593,726 612,728 631,730 649,732 668,734 686,736 703,738 720,740 737,743 753,745 769,747 785,750 800,752 815,755 830,758 844,760 858,763 872,766 885,769 898,771 910,774 923,777 934,780 946,783 957,786 968,789 979,792 989,795 999,798 1008,801 1018,803 1026,806 1035,809 1043,812 1051,814 1059,817 1066,820 1072,822 1079,825 1085,827 1091,830 1096,832 1101,834 1106,837 1110,839 1114,841 1117,843 1121,845 1123,847 1126,848 1128,850 1129,852 1131,853 1131,855 1132,856 1132,857 1132,859 1131,860 400,736 423,737 445,738 467,739 489,740 510,741 531,742 551,743 571,744 591,746 610,747 629,749 648,750 666,752 684,753 701,755 718,757 735,759 751,761 767,763 783,765 798,767 813,770 827,772 842,774 856,777 869,779 882,782 895,784 908,787 920,789 932,792 943,794 954,797 965,800 976,802 986,805 996,807 1006,810 1015,812 1024,815 1032,817 1041,820 1048,822 1056,825 1063,827 1070,829 1077,831 1083,833 1089,835 1094,837 1099,839 1104,841 1108,843 1112,845 1116,846 1119,848 1122,849 1124,851 1126,852 1128,853 1129,854 1130,855 1131,856 1131,857 1131,858 1130,859 400,759 422,760 445,760 466,760 488,761 509,762 530,762 550,763 570,764 590,765 609,766 628,767 646,768 664,770 682,771 699,772 716,774 733,776 749,777 765,779 781,781 796,783 811,784 825,786 839,788 853,790 867,793 880,795 893,797 905,799 917,801 929,804 941,806 952,808 963,810 973,813 984,815 994,817 1003,819 1013,822 1021,824 1030,826 1038,828 1046,830 1054,832 1061,834 1068,836 1075,838 1081,839 1087,841 1092,843 1097,844 1102,846 1107,847 1111,848 1114,850 1118,851 1120,852 1123,853 1125,854 1127,855 1128,856 1129,856 1130,857 1130,857 1130,858 1130,858 400,782 422,782 444,782 466,782 488,782 509,783 529,783 550,783 569,784 589,784 608,785 627,786 645,787 663,788 681,789 698,790 715,791 732,792 748,793 764,795 779,796 794,798 809,799 823,801 838,802 851,804 865,806 878,808 891,809 903,811 915,813 927,815 939,817 950,819 961,821 971,823 982,825 992,827 1001,829 1010,831 1019,832 1028,834 1036,836 1044,838 1052,839 1059,841 1066,842 1073,844 1079,845 1085,847 1091,848 1096,849 1101,850 1105,851 1109,852 1113,853 1117,854 1120,855 1122,855 1124,856 1126,856 1128,857 1129,857 1130,857 1130,857 1130,857 1129,857 400,805 422,804 445,804 466,804 488,803 509,803 529,803 549,803 569,803 588,804 608,804 626,804 644,805 662,805 680,806 697,807 714,807 730,808 747,809 762,810 778,811 793,812 808,814 822,815 836,816 850,818 863,819 876,821 889,822 901,824 914,825 925,827 937,829 948,830 959,832 970,833 980,835 990,837 999,838 1009,840 1018,841 1027,843 1035,844 1043,846 1051,847 1058,848 1065,849 1072,850 1078,851 1084,852 1090,853 1095,854 1100,855 1105,856 1109,856 1113,857 1116,857 1119,858 1122,858 1124,858 1126,858 1128,858 1129,858 1130,858 1130,858 1130,857 1130,857 401,828 423,827 445,826 467,825 488,825 509,824 529,824 549,823 569,823 588,823 607,823 626,823 644,823 662,823 679,823 697,824 713,824 730,825 746,825 762,826 777,827 792,827 807,828 821,829 835,830 849,831 862,832 875,833 888,835 900,836 912,837 924,839 935,840 947,841 957,843 968,844 978,845 988,847 998,848 1007,849 1017,850 1025,851 1034,852 1042,853 1050,854 1057,855 1064,856 1071,857 1077,858 1083,858 1089,859 1094,859 1099,860 1104,860 1108,860 1112,860 1116,861 1119,861 1122,860 1124,860 1126,860 1128,860 1129,859 1130,859 1131,858 1131,857 1130,856 402,850 424,849 446,848 468,847 489,846 509,845 530,844 550,843 569,842 589,842 608,841 626,841 644,841 662,841 679,841 696,841 713,841 729,841 745,841 761,841 776,842 791,842 806,843 820,843 834,844 848,845 861,845 874,846 887,847 899,848 911,849 923,850 934,851 945,852 956,853 967,854 977,855 987,856 997,857 1006,858 1015,859 1024,860 1033,861 1041,861 1049,862 1056,863 1063,863 1070,864 1077,864 1083,864 1089,864 1094,865 1099,865 1104,865 1108,864 1112,864 1116,864 1119,864 1122,863 1125,863 1127,862 1129,861 1130,860 1131,859 1132,858 1132,857 1132,856 403,873 426,871 447,869 469,868 490,866 511,865 531,864 551,863 570,862 589,861 608,860 627,859 645,859 662,858 680,858 697,857 713,857 729,857 745,857 761,857 776,857 791,857 805,857 820,857 833,858 847,858 860,859 873,859 886,860 898,860 910,861 922,862 933,862 944,863 955,864 966,865 976,866 986,866 996,867 1006,868 1015,868 1024,869 1032,869 1040,870 1048,870 1056,870 1063,870 1070,870 1077,870 1083,870 1089,870 1094,870 1099,870 1104,869 1109,869 1113,868 1117,867 1120,867 1123,866 1125,865 1128,864 1130,863 1131,861 1132,860 1133,859 1133,857 1133,856 405,895 427,893 449,891 470,889 491,887 512,886 532,884 552,883 571,881 590,880 609,879 627,878 645,877 663,876 680,875 697,874 714,873 730,873 746,872 761,872 776,872 791,872 805,871 819,871 833,871 847,871 860,872 873,872 885,872 898,872 910,873 921,873 933,874 944,874 955,875 965,875 976,876 986,876 996,877 1005,877 1014,877 1023,877 1032,878 1040,878 1048,878 1056,878 1063,877 1070,877 1077,877 1083,876 1089,876 1095,875 1100,875 1105,874 1109,873 1114,872 1117,871 1121,870 1124,869 1127,867 1129,866 1131,864 1132,863 1134,861 1134,859 1135,857 1135,855 408,917 430,915 451,912 472,910 493,908 514,906 534,904 554,902 573,900 592,899 610,897 629,896 647,894 664,893 681,892 698,891 714,890 730,889 746,888 762,887 777,887 791,886 806,886 820,885 833,885 847,885 860,885 873,884 885,884 897,885 909,885 921,885 932,885 943,885 954,886 965,886 975,886 986,886 995,886 1005,886 1014,886 1023,886 1032,886 1040,886 1048,885 1056,885 1064,885 1071,884 1077,883 1084,883 1090,882 1096,881 1101,880 1106,879 1110,877 1115,876 1119,875 1122,873 1125,872 1128,870 1131,868 1133,866 1134,864 1136,862 1137,860 1137,858 1137,855 410,939 432,937 454,934 475,931 496,929 516,926 536,924 556,922 575,919 594,917 612,915 630,914 648,912 665,910 682,909 699,907 715,906 731,905 747,904 762,902 777,901 792,901 806,900 820,899 834,898 847,898 860,897 873,897 885,897 897,897 909,896 921,896 932,896 943,896 954,896 965,896 975,896 986,896 995,896 1005,896 1015,895 1024,895 1032,895 1041,894 1049,893 1057,893 1064,892 1071,891 1078,890 1085,889 1091,888 1097,886 1102,885 1107,883 1112,882 1116,880 1120,878 1124,877 1127,875 1130,873 1133,870 1135,868 1137,866 1138,863 1139,861 1140,858 1140,855 413,961 435,958 457,955 478,952 498,949 519,946 538,944 558,941 577,938 596,936 614,934 632,932 650,929 667,927 684,926 701,924 717,922 733,920 748,919 764,918 778,916 793,915 807,914 821,913 835,912 848,911 861,910 873,910 886,909 898,909 909,908 921,908 932,907 943,907 954,907 965,907 976,907 986,906 996,906 1006,905 1015,905 1024,904 1033,903 1042,902 1050,901 1058,900 1065,899 1073,898 1079,897 1086,895 1092,894 1098,892 1104,890 1109,888 1114,887 1118,884 1122,882 1126,880 1129,878 1132,875 1135,873 1137,870 1139,867 1141,865 1142,862 1143,859 1143,855 417,983 439,980 460,976 481,973 501,969 522,966 541,963 561,960 580,957 598,955 617,952 635,949 652,947 669,944 686,942 703,940 719,938 735,936 750,934 765,932 780,931 794,929 808,928 822,927 836,925 849,924 862,923 874,922 886,921 898,920 910,920 921,919 933,919 944,918 955,918 965,918 976,917 986,917 996,916 1006,915 1016,914 1025,913 1034,912 1043,911 1051,910 1059,908 1067,907 1074,905 1081,903 1088,902 1094,900 1100,898 1106,896 1111,893 1116,891 1120,889 1125,886 1129,884 1132,881 1135,878 1138,875 1140,872 1142,869 1144,866 1145,863 1146,859 1146,856 421,1005 442,1001 464,997 484,993 505,990 525,986 545,983 564,979 583,976 601,973 619,970 637,967 655,964 672,961 689,959 705,956 721,954 737,952 752,949 767,947 782,945 796,944 810,942 824,940 837,938 850,937 863,936 875,934 887,933 899,932 911,931 922,930 933,930 944,929 955,929 966,929 977,928 987,927 997,926 1007,925 1017,924 1026,922 1035,921 1044,919 1052,918 1061,916 1068,914 1076,912 1083,910 1090,908 1096,906 1102,904 1108,901 1113,899 1118,896 1123,893 1127,890 1131,887 1135,884 1138,881 1141,878 1143,874 1146,871 1147,867 1149,864 1150,860 1150,856 425,1027 447,1023 468,1018 488,1014 509,1010 529,1006 548,1002 567,998 586,995 605,991 623,988 640,985 658,981 675,978 691,975 708,972 723,970 739,967 754,965 769,962 784,960 798,958 812,956 825,954 839,952 852,950 864,948 877,947 889,945 900,944 912,943 923,941 934,940 945,940 956,940 967,939 978,938 988,937 999,936 1009,935 1018,933 1028,931 1037,930 1046,928 1054,926 1063,924 1070,922 1078,920 1085,917 1092,915 1099,912 1105,910 1111,907 1116,904 1121,901 1126,898 1130,895 1135,891 1138,888 1142,884 1145,881 1147,877 1149,873 1151,869 1153,865 1154,861 1154,856 430,1049 451,1044 472,1039 493,1034 513,1030 533,1026 552,1021 571,1017 590,1013 608,1009 626,1006 644,1002 661,998 678,995 694,992 711,989 726,985 742,982 757,980 772,977 786,974 800,972 814,969 827,967 841,965 853,963 866,961 878,959 890,957 902,955 913,954 924,953 935,951 946,950 957,952 968,950 979,949 990,948 1000,946 1010,945 1020,943 1030,941 1039,939 1048,937 1056,934 1065,932 1073,930 1080,927 1088,924 1095,922 1101,919 1108,916 1114,913 1119,909 1125,906 1129,902 1134,899 1138,895 1142,891 1145,887 1148,883 1151,879 1153,875 1155,871 1157,866 1158,862 1159,857 435,1070 456,1065 477,1060 497,1055 517,1050 537,1045 556,1041 575,1036 594,1032 612,1028 630,1023 648,1019 665,1015 681,1012 698,1008 714,1004 730,1001 745,998 760,994 775,991 789,988 803,986 817,983 830,980 843,978 856,975 868,973 880,971 892,969 903,967 915,965 926,963 936,962 947,960 958,963 969,962 980,960 991,958 1002,957 1012,955 1022,953 1032,950 1041,948 1050,946 1059,943 1067,940 1075,938 1083,935 1091,932 1098,928 1105,925 1111,922 1117,918 1123,915 1128,911 1133,907 1138,903 1142,899 1146,895 1150,891 1153,886 1156,882 1158,877 1160,872 1162,868 1163,863 1164,857 440,1091 461,1086 482,1080 502,1075 522,1070 542,1065 561,1060 580,1055 598,1050 617,1046 634,1041 652,1037 669,1032 685,1028 702,1024 718,1020 733,1016 748,1013 763,1009 778,1006 792,1002 806,999 819,996 833,993 846,990 858,988 870,985 882,983 894,980 905,978 917,976 927,974 938,972 948,971 959,975 971,973 982,971 993,969 1004,967 1014,965 1024,962 1034,960 1044,957 1053,955 1062,952 1070,949 1078,946 1086,942 1094,939 1101,935 1108,932 1115,928 1121,924 1127,920 1132,916 1137,912 1142,908 1146,903 1150,899 1154,894 1157,889 1160,885 1163,879 1165,874 1167,869 1168,864 1169,858 446,1113 467,1107 488,1101 508,1095 528,1090 547,1084 566,1079 585,1073 603,1068 621,1063 639,1058 656,1054 673,1049 690,1045 706,1040 722,1036 737,1032 752,1028 767,1024 781,1020 795,1016 809,1013 823,1010 836,1006 848,1003 861,1000 873,997 885,994 896,992 908,989 919,987 929,985 940,983 950,981 961,986 973,984 984,982 995,980 1006,978 1017,975 1027,972 1037,970 1046,967 1056,964 1065,960 1073,957 1082,954 1090,950 1097,946 1105,943 1112,939 1118,935 1125,930 1131,926 1136,922 1142,917 1146,912 1151,908 1155,903 1159,898 1162,893 1165,887 1168,882 1170,876 1172,871 1174,865 1175,859 452,1134 473,1127 494,1121 514,1115 533,1109 553,1103 572,1098 590,1092 609,1086 626,1081 644,1076 661,1071 678,1066 694,1061 710,1056 726,1052 741,1047 756,1043 771,1038 785,1034 799,1030 813,1026 826,1023 839,1019 852,1016 864,1012 876,1009 888,1006 899,1003 910,1000 921,998 932,995 942,993 952,991 963,998 975,996 987,994 998,991 1009,988 1019,986 1030,983 1040,979 1050,976 1059,973 1068,969 1077,966 1085,962 1094,958 1101,954 1109,950 1116,946 1123,941 1129,937 1135,932 1141,927 1146,922 1151,917 1156,912 1160,907 1164,901 1168,896 1171,890 1174,884 1176,879 1178,873 1180,866 1181,860 459,1155 480,1148 500,1141 520,1135 540,1129 559,1122 578,1116 596,1110 614,1104 632,1099 649,1093 666,1088 683,1082 699,1077 715,1072 731,1067 746,1062 761,1057 775,1053 789,1048 803,1044 817,1040 830,1036 843,1032 855,1028 867,1024 879,1021 891,1018 902,1014 913,1011 924,1008 934,1006 944,1003 954,1000 965,1010 977,1008 989,1005 1001,1002 1012,999 1022,996 1033,993 1043,989 1053,986 1063,982 1072,978 1081,974 1089,970 1098,966 1106,962 1113,957 1121,953 1127,948 1134,943 1140,938 1146,933 1152,928 1157,922 1161,917 1166,911 1170,905 1174,899 1177,893 1180,887 1182,881 1184,874 1186,868 1188,861 466,1176 487,1169 507,1162 527,1155 546,1148 565,1141 584,1135 602,1128 620,1122 638,1116 655,1110 672,1104 688,1099 705,1093 720,1088 736,1082 751,1077 766,1072 780,1067 794,1062 808,1058 821,1053 834,1049 847,1045 859,1040 871,1036 883,1033 894,1029 906,1025 916,1022 927,1019 937,1016 947,1013 957,1010 968,1023 980,1020 992,1017 1004,1014 1015,1010 1026,1007 1037,1003 1047,1000 1057,996 1067,992 1076,988 1085,983 1094,979 1102,974 1110,970 1118,965 1125,960 1132,955 1139,949 1145,944 1151,939 1157,933 1162,927 1167,921 1172,915 1176,909 1180,903 1183,896 1186,890 1189,883 1191,876 1193,870 1195,863 473,1196 494,1189 514,1182 534,1174 553,1167 572,1160 590,1153 609,1147 627,1140 644,1133 661,1127 678,1121 694,1115 710,1109 726,1103 741,1097 756,1092 771,1087 785,1081 799,1076 812,1071 826,1066 839,1062 851,1057 863,1053 875,1048 887,1044 898,1040 909,1036 920,1033 930,1029 940,1026 950,1022 959,1019 971,1035 983,1032 995,1029 1007,1025 1018,1022 1030,1018 1040,1014 1051,1010 1061,1006 1071,1001 1080,997 1090,992 1098,987 1107,983 1115,977 1123,972 1131,967 1138,962 1145,956 1151,950 1157,944 1163,938 1168,932 1173,926 1178,920 1182,913 1186,907 1190,900 1193,893 1196,886 1198,879 1200,871 1202,864 481,1217 501,1209 521,1201 541,1194 560,1186 579,1179 597,1172 616,1165 633,1158 651,1151 668,1144 684,1137 700,1131 716,1125 732,1119 747,1113 762,1107 776,1101 790,1095 804,1090 818,1084 831,1079 843,1074 856,1069 868,1065 880,1060 891,1055 902,1051 913,1047 924,1043 934,1039 944,1035 953,1032 963,1029 974,1047 987,1044 999,1040 1011,1037 1022,1033 1034,1029 1044,1025 1055,1020 1065,1016 1075,1011 1085,1006 1094,1001 1103,996 1112,991 1120,986 1128,980 1136,974 1143,969 1150,963 1157,957 1163,950 1169,944 1175,938 1180,931 1185,924 1189,917 1193,910 1197,903 1200,896 1203,888 1206,881 1208,873 1210,865 489,1237 509,1229 529,1221 549,1213 568,1205 586,1197 605,1190 623,1182 640,1175 658,1168 674,1161 691,1154 707,1147 723,1140 738,1134 753,1127 768,1121 782,1115 796,1109 810,1103 823,1098 836,1092 849,1087 861,1082 873,1076 884,1071 896,1067 907,1062 917,1058 928,1053 938,1049 947,1045 957,1041 966,1038 978,1060 990,1056 1003,1053 1015,1049 1026,1044 1038,1040 1049,1035 1060,1031 1070,1026 1080,1021 1090,1016 1100,1011 1109,1005 1118,1000 1126,994 1134,988 1142,982 1149,976 1157,970 1163,963 1170,957 1176,950 1181,943 1187,936 1192,929 1196,922 1200,914 1204,907 1208,899 1211,891 1213,883 1216,875 1218,867 498,1258 518,1249 538,1241 557,1232 576,1224 594,1216 613,1208 630,1200 648,1192 665,1185 682,1177 698,1170 714,1163 729,1156 745,1149 760,1142 774,1136 788,1129 802,1123 816,1117 829,1111 842,1105 854,1099 866,1094 878,1088 889,1083 901,1078 911,1073 922,1068 932,1063 942,1059 951,1055 961,1051 970,1047 981,1073 994,1069 1007,1065 1019,1061 1031,1056 1042,1051 1054,1047 1065,1042 1075,1036 1086,1031 1096,1026 1105,1020 1114,1014 1123,1008 1132,1002 1140,996 1148,990 1156,983 1163,977 1170,970 1177,963 1183,956 1188,949 1194,941 1199,934 1204,926 1208,918 1212,910 1216,902 1219,894 1222,886 1224,877 1226,869 507,1278 527,1269 546,1260 565,1251 584,1243 603,1234 621,1226 638,1218 656,1209 673,1202 689,1194 705,1186 721,1179 737,1171 752,1164 766,1157 781,1150 795,1143 808,1136 822,1130 835,1124 847,1117 860,1111 872,1105 883,1100 895,1094 906,1089 916,1083 927,1078 937,1073 946,1069 956,1064 965,1060 974,1055 985,1086 998,1082 1011,1077 1023,1073 1036,1068 1047,1063 1059,1058 1070,1052 1081,1047 1091,1041 1101,1035 1111,1030 1120,1023 1130,1017 1138,1011 1147,1004 1155,997 1163,991 1170,984 1177,976 1184,969 1190,962 1196,954 1202,947 1207,939 1212,931 1216,923 1220,914 1224,906 1227,897 1230,889 1233,880 1235,871 516,1298 536,1289 555,1279 574,1270 593,1261 611,1252 629,1244 647,1235 664,1227 681,1218 697,1210 713,1202 729,1194 744,1186 759,1179 774,1171 788,1164 802,1157 815,1150 828,1143 841,1136 854,1130 866,1123 878,1117 889,1111 900,1105 911,1099 922,1094 932,1088 942,1083 951,1078 961,1073 969,1068 978,1064 990,1099 1003,1095 1016,1090 1028,1085 1041,1080 1053,1075 1064,1069 1075,1063 1086,1058 1097,1052 1107,1045 1117,1039 1127,1033 1136,1026 1145,1019 1154,1013 1162,1005 1170,998 1177,991 1184,983 1191,976 1198,968 1204,960 1209,952 1215,944 1220,935 1224,927 1229,918 1233,909 1236,901 1239,891 1242,882 1244,873 526,1318 545,1308 565,1299 584,1289 602,1280 620,1270 638,1261 655,1252 672,1243 689,1235 705,1226 721,1218 737,1210 752,1201 767,1193 781,1186 795,1178 809,1171 822,1163 835,1156 848,1149 860,1142 872,1135 884,1129 895,1122 906,1116 917,1110 927,1104 937,1098 947,1093 956,1087 966,1082 974,1077 983,1072 994,1113 1008,1108 1021,1103 1034,1098 1046,1092 1058,1086 1070,1081 1081,1075 1092,1068 1103,1062 1114,1056 1124,1049 1134,1042 1143,1035 1152,1028 1161,1021 1169,1014 1177,1006 1185,998 1192,990 1199,982 1206,974 1212,966 1218,958 1223,949 1228,940 1233,931 1238,922 1242,913 1245,904 1248,894 1251,885 1254,875 536,1338 555,1328 574,1318 593,1308 612,1298 630,1288 647,1279 664,1269 681,1260 698,1251 714,1242 730,1233 745,1225 760,1216 775,1208 789,1200 803,1192 817,1184 830,1176 843,1169 855,1161 867,1154 879,1147 891,1140 902,1133 913,1127 923,1120 933,1114 943,1108 953,1102 962,1096 971,1091 979,1085 988,1080 999,1126 1013,1121 1026,1116 1039,1110 1052,1104 1064,1098 1076,1092 1088,1086 1099,1079 1110,1073 1120,1066 1131,1059 1141,1052 1150,1045 1159,1037 1168,1030 1177,1022 1185,1014 1193,1006 1200,998 1207,989 1214,981 1221,972 1227,963 1232,954 1237,945 1242,936 1247,927 1251,917 1255,907 1258,898 1261,888 1264,877 546,1358 566,1347 585,1336 603,1326 622,1316 639,1306 657,1296 674,1286 691,1277 707,1267 723,1258 739,1249 754,1240 769,1231 783,1222 797,1214 811,1206 825,1197 838,1189 850,1181 863,1174 875,1166 886,1159 898,1151 909,1144 919,1137 930,1131 940,1124 949,1118 959,1111 968,1105 976,1099 985,1094 993,1088 1005,1140 1019,1135 1032,1129 1045,1123 1058,1117 1070,1111 1082,1104 1094,1097 1106,1091 1117,1084 1127,1077 1138,1069 1148,1062 1158,1054 1167,1046 1176,1038 1185,1030 1193,1022 1201,1014 1209,1005 1216,996 1223,987 1229,978 1236,969 1241,960 1247,950 1252,941 1257,931 1261,921 1265,911 1268,901 1271,890 1274,880 557,1377 576,1366 595,1355 614,1344 632,1334 650,1324 667,1313 684,1303 700,1293 717,1283 732,1274 748,1264 763,1255 778,1246 792,1237 806,1228 820,1219 833,1211 846,1202 858,1194 871,1186 882,1178 894,1170 905,1163 916,1155 926,1148 937,1141 946,1134 956,1127 965,1121 974,1114 982,1108 991,1102 998,1096 1010,1154 1024,1148 1038,1142 1051,1136 1064,1130 1077,1123 1089,1116 1101,1109 1113,1102 1124,1095 1135,1087 1145,1080 1156,1072 1166,1064 1175,1056 1184,1047 1193,1039 1202,1030 1210,1021 1218,1013 1225,1003 1232,994 1239,985 1245,975 1251,966 1257,956 1262,946 1267,936 1271,925 1275,915 1279,904 1282,893 1285,883 568,1396 588,1385 606,1374 625,1363 642,1352 660,1341 677,1330 694,1320 710,1310 726,1299 742,1289 757,1279 772,1270 787,1260 801,1251 815,1242 828,1232 842,1224 854,1215 867,1206 879,1198 890,1189 902,1181 913,1173 923,1166 934,1158 944,1151 953,1143 963,1136 972,1129 980,1123 989,1116 997,1110 1004,1104 1016,1168 1030,1162 1044,1156 1058,1149 1071,1142 1084,1135 1096,1128 1108,1121 1120,1114 1131,1106 1143,1098 1153,1090 1164,1082 1174,1074 1184,1065 1193,1056 1202,1048 1211,1039 1219,1030 1227,1020 1234,1011 1242,1001 1248,991 1255,981 1261,971 1267,961 1272,951 1277,940 1282,930 1286,919 1290,908 1293,897 1296,885 580,1416 599,1404 618,1392 636,1381 654,1369 671,1358 688,1347 705,1336 721,1326 737,1315 752,1305 767,1294 782,1284 797,1274 811,1265 824,1255 838,1246 851,1236 863,1227 875,1218 887,1210 899,1201 910,1192 921,1184 931,1176 941,1168 951,1160 961,1153 970,1145 979,1138 987,1131 995,1124 1003,1118 1011,1111 1023,1183 1037,1176 1051,1170 1065,1163 1078,1156 1091,1148 1104,1141 1116,1133 1128,1125 1139,1117 1151,1109 1162,1101 1172,1092 1182,1084 1192,1075 1202,1066 1211,1057 1220,1047 1228,1038 1236,1028 1244,1018 1251,1008 1258,998 1265,988 1271,977 1277,967 1283,956 1288,945 1292,934 1297,923 1301,911 1304,900 1308,888 592,1435 611,1423 629,1410 647,1399 665,1387 682,1375 699,1364 716,1353 732,1342 747,1331 763,1320 778,1309 792,1299 807,1289 820,1279 834,1269 847,1259 860,1249 872,1240 884,1230 896,1221 907,1212 919,1203 929,1195 939,1186 949,1178 959,1170 968,1162 977,1154 986,1147 994,1139 1002,1132 1010,1125 1017,1118 1029,1197 1044,1190 1058,1183 1072,1176 1085,1169 1098,1161 1111,1153 1124,1145 1136,1137 1148,1129 1159,1120 1170,1112 1181,1103 1191,1094 1201,1085 1211,1075 1220,1066 1229,1056 1238,1046 1246,1036 1254,1026 1262,1016 1269,1005 1276,994 1282,984 1288,973 1294,961 1299,950 1304,939 1308,927 1312,915 1316,903 1320,891 605,1454 623,1441 641,1429 659,1416 677,1404 694,1392 711,1381 727,1369 743,1358 758,1346 774,1335 788,1324 803,1313 817,1303 831,1292 844,1282 857,1272 870,1262 882,1252 894,1242 905,1233 917,1223 927,1214 938,1205 948,1196 958,1188 967,1179 976,1171 985,1163 994,1155 1002,1147 1009,1140 1017,1132 1024,1125 1036,1212 1051,1205 1065,1198 1079,1190 1093,1182 1106,1174 1119,1166 1132,1158 1144,1149 1156,1141 1168,1132 1179,1123 1190,1113 1201,1104 1211,1094 1221,1085 1230,1075 1239,1065 1248,1055 1257,1044 1265,1034 1272,1023 1280,1012 1287,1001 1293,990 1299,978 1305,967 1310,955 1316,943 1320,931 1324,919 1328,907 1332,895 617,1472 636,1459 654,1447 672,1434 689,1421 706,1409 722,1397 739,1385 754,1373 770,1362 785,1350 800,1339 814,1327 828,1316 841,1306 854,1295 867,1284 880,1274 892,1264 904,1254 915,1244 926,1234 937,1225 947,1215 957,1206 967,1197 976,1188 985,1180 993,1171 1002,1163 1009,1155 1017,1147 1024,1140 1031,1132 1044,1227 1058,1220 1073,1212 1087,1204 1101,1196 1115,1187 1128,1179 1141,1170 1153,1161 1165,1152 1177,1143 1188,1134 1200,1124 1210,1115 1221,1105 1231,1095 1240,1084 1250,1074 1259,1063 1267,1053 1275,1042 1283,1031 1291,1019 1298,1008 1305,996 1311,985 1317,973 1322,961 1328,948 1332,936 1337,924 1341,911 1345,898 631,1491 649,1478 667,1464 684,1451 702,1439 718,1426 735,1413 751,1401 766,1389 782,1377 796,1365 811,1353 825,1341 839,1330 852,1319 865,1308 878,1297 890,1286 902,1276 914,1265 925,1255 936,1245 946,1235 956,1225 966,1216 976,1207 985,1197 993,1189 1002,1180 1010,1171 1018,1163 1025,1155 1032,1147 1039,1139 1051,1242 1066,1234 1081,1226 1095,1218 1109,1210 1123,1201 1136,1192 1149,1183 1162,1174 1174,1164 1186,1155 1198,1145 1209,1135 1220,1125 1231,1115 1241,1104 1251,1094 1260,1083 1269,1072 1278,1061 1287,1050 1295,1038 1302,1027 1309,1015 1316,1003 1323,991 1329,979 1335,966 1340,953 1345,941 1350,928 1354,915 1358,902 644,1509 662,1496 680,1482 698,1469 715,1455 731,1442 747,1429 763,1417 779,1404 794,1392 808,1379 823,1367 837,1355 850,1344 864,1332 876,1321 889,1309 901,1298 913,1287 924,1277 935,1266 946,1256 956,1245 966,1235 976,1225 985,1216 994,1206 1002,1197 1011,1188 1019,1179 1026,1170 1033,1162 1040,1153 1047,1145 1059,1258 1074,1249 1089,1241 1104,1232 1118,1224 1132,1215 1146,1205 1159,1196 1172,1186 1184,1177 1196,1167 1208,1157 1220,1146 1231,1136 1241,1125 1252,1115 1262,1104 1271,1092 1281,1081 1290,1070 1298,1058 1306,1046 1314,1034 1322,1022 1329,1010 1335,997 1342,985 1347,972 1353,959 1358,946 1363,932 1367,919 1371,905 658,1528 676,1514 694,1500 711,1486 728,1472 744,1459 760,1445 776,1432 791,1419 806,1406 821,1394 835,1381 849,1369 862,1357 875,1345 888,1333 900,1321 912,1310 924,1299 935,1288 946,1277 956,1266 966,1255 976,1245 986,1235 995,1225 1003,1215 1012,1205 1020,1196 1028,1187 1035,1177 1042,1169 1049,1160 1055,1151 1067,1273 1083,1265 1098,1256 1113,1247 1127,1238 1141,1228 1155,1219 1168,1209 1181,1199 1194,1189 1206,1179 1218,1168 1230,1158 1241,1147 1252,1136 1263,1125 1273,1113 1283,1102 1292,1090 1301,1078 1310,1066 1318,1054 1326,1042 1334,1029 1341,1017 1348,1004 1354,991 1361,978 1366,964 1372,951 1376,937 1381,923 1385,909 673,1546 690,1531 708,1517 725,1503 742,1489 758,1475 774,1461 789,1448 804,1434 819,1421 834,1408 848,1395 861,1383 874,1370 887,1358 900,1346 912,1334 924,1322 935,1310 946,1299 957,1287 967,1276 977,1265 987,1255 996,1244 1005,1234 1013,1223 1022,1213 1029,1204 1037,1194 1044,1185 1051,1175 1057,1166 1063,1157 1076,1289 1092,1280 1107,1271 1122,1262 1137,1252 1151,1242 1165,1232 1178,1222 1192,1212 1204,1202 1217,1191 1229,1180 1241,1169 1252,1158 1264,1147 1274,1135 1285,1124 1295,1112 1304,1100 1313,1087 1322,1075 1331,1062 1339,1050 1347,1037 1354,1024 1361,1010 1368,997 1374,983 1380,970 1385,956 1390,942 1395,928 1399,913 687,1564 705,1549 722,1534 739,1520 756,1505 772,1491 788,1477 803,1463 818,1449 833,1436 847,1422 861,1409 874,1396 887,1383 900,1370 912,1358 924,1345 936,1333 947,1321 958,1309 968,1298 978,1286 988,1275 998,1264 1007,1253 1015,1242 1024,1232 1032,1221 1039,1211 1047,1201 1054,1191 1060,1182 1066,1172 1072,1163 1085,1305 1101,1296 1116,1286 1132,1276 1146,1267 1161,1257 1175,1246 1189,1236 1202,1225 1215,1215 1228,1204 1240,1192 1252,1181 1264,1170 1275,1158 1286,1146 1297,1134 1307,1122 1317,1109 1326,1097 1335,1084 1344,1071 1352,1058 1360,1044 1368,1031 1375,1017 1381,1004 1388,990 1394,975 1400,961 1405,947 1410,932 1414,917 703,1582 720,1566 737,1551 754,1536 770,1521 786,1507 802,1492 817,1478 832,1464 846,1450 860,1436 874,1423 887,1409 900,1396 913,1383 925,1370 937,1357 948,1345 959,1332 970,1320 980,1308 990,1296 1000,1284 1009,1273 1018,1262 1026,1251 1034,1240 1042,1229 1050,1219 1057,1208 1063,1198 1070,1188 1076,1178 1082,1169 1094,1321 1110,1311 1126,1302 1141,1292 1156,1281 1171,1271 1185,1260 1199,1250 1213,1239 1226,1228 1239,1216 1252,1205 1264,1193 1276,1181 1287,1169 1298,1157 1309,1144 1319,1132 1329,1119 1339,1106 1348,1093 1357,1079 1365,1066 1374,1052 1381,1038 1389,1024 1396,1010 1402,996 1408,981 1414,967 1420,952 1425,937 1429,922 718,1599 735,1583 752,1568 769,1553 785,1537 801,1522 816,1508 831,1493 846,1478 860,1464 874,1450 888,1436 901,1422 913,1408 926,1395 938,1382 949,1369 961,1356 971,1343 982,1330 992,1318 1002,1306 1011,1294 1020,1282 1029,1270 1037,1259 1045,1248 1053,1237 1060,1226 1067,1215 1074,1205 1080,1194 1086,1184 1091,1174 1104,1337 1120,1327 1136,1317 1152,1307 1167,1296 1182,1286 1196,1275 1210,1264 1224,1252 1238,1241 1251,1229 1263,1217 1276,1205 1288,1193 1299,1180 1311,1168 1322,1155 1332,1142 1342,1129 1352,1115 1361,1102 1371,1088 1379,1074 1387,1060 1395,1046 1403,1032 1410,1017 1417,1002 1423,987 1429,972 1435,957 1440,942 1445,926 "/>
</svg>
