<svg width="1800" height="1800" viewBox="0 0 1800 1800" xmlns="http://www.w3.org/2000/svg">
<polyline fill="none" opacity="1" stroke="#FF0000" stroke-width="1" points="1795,1272 1726,1350 1621,1418 1513,1475 1402,1523 1288,1560 1173,1587 1056,1605 938,1613 892,1258 881,1269 869,1290 856,1321 840,1362 822,1413 801,1473 776,1545 1746,1179 1655,1252 1561,1316 1462,1370 1361,1415 1257,1450 1151,1476 1043,1493 935,1500 886,1243 865,1253 844,1273 821,1302 796,1340 768,1388 737,1445 702,1513 1669,1095 1589,1165 1503,1225 1415,1275 1322,1317 1227,1350 1130,1374 1032,1389 932,1396 880,1218 851,1228 821,1247 789,1273 754,1309 717,1354 676,1407 632,1471 1598,1022 1526,1086 1450,1142 1370,1189 1287,1227 1200,1258 1111,1280 1021,1294 930,1301 874,1185 837,1194 799,1211 759,1236 716,1269 670,1310 620,1360 566,1419 1531,957 1468,1017 1401,1068 1329,1111 1254,1146 1175,1174 1094,1194 1011,1207 927,1213 870,1145 825,1153 779,1168 731,1191 680,1221 626,1259 568,1304 505,1358 1469,902 1415,956 1356,1003 1292,1041 1224,1073 1153,1097 1079,1115 1002,1127 925,1132 865,1097 814,1104 761,1118 706,1138 648,1165 586,1199 520,1240 450,1289 1414,854 1368,903 1316,945 1259,979 1198,1007 1133,1028 1065,1043 995,1053 923,1057 861,1043 804,1050 746,1061 684,1078 620,1101 551,1131 478,1168 399,1212 1364,815 1325,858 1280,894 1230,923 1176,947 1117,964 1054,976 989,984 922,987 858,985 797,989 733,998 666,1012 595,1032 520,1057 440,1089 354,1127 1320,783 1289,819 1251,850 1207,874 1158,892 1104,906 1046,914 984,919 921,921 856,922 791,925 723,931 651,941 575,956 494,976 408,1003 316,1035 1284,758 1258,788 1226,812 1188,830 1144,843 1095,852 1041,856 982,858 921,858 856,856 788,857 717,859 641,865 560,875 474,890 382,910 283,936 1254,739 1235,762 1209,779 1176,791 1136,798 1091,802 1040,802 984,799 923,795 858,790 789,786 715,784 636,785 551,789 460,798 362,812 258,831 1232,727 1219,742 1198,752 1169,757 1134,758 1092,755 1044,749 990,741 930,732 865,722 795,713 718,706 636,701 547,700 452,702 349,708 240,720 1218,720 1210,727 1194,730 1170,727 1138,721 1100,712 1054,699 1002,685 943,670 878,654 806,639 728,626 643,614 551,606 451,601 344,600 229,604 1212,719 1209,718 1198,712 1178,702 1150,688 1114,671 1071,651 1020,630 962,608 897,585 824,564 744,543 656,524 561,508 458,495 347,487 227,482 1215,723 1217,713 1210,698 1194,679 1170,657 1137,632 1095,605 1046,576 988,546 923,516 849,487 768,458 678,432 580,407 473,386 358,369 233,356 1228,732 1235,713 1232,689 1219,661 1198,630 1167,596 1128,560 1079,523 1022,485 957,446 882,409 799,372 708,337 607,304 497,274 378,247 249,224 1250,746 1262,717 1262,683 1254,645 1235,605 1207,562 1169,517 1122,471 1065,424 999,376 924,329 840,283 746,239 643,197 530,157 407,121 275,89 "/>
</svg>
