<svg width="794" xmlns="http://www.w3.org/2000/svg" height="314" id="screenshot-ae60b895-3b67-8054-8005-f90ceb339dc4" viewBox="0 0 794 314" xmlns:xlink="http://www.w3.org/1999/xlink" fill="none" version="1.1"><g id="shape-ae60b895-3b67-8054-8005-f90ceb339dc4"><defs><clipPath id="frame-clip-ae60b895-3b67-8054-8005-f90ceb339dc4-render-1" class="frame-clip frame-clip-def"><rect rx="0" ry="0" x="0" y="0" width="794" height="314" transform="matrix(1.000000, 0.000000, 0.000000, 1.000000, 0.000000, 0.000000)"/></clipPath></defs><g class="frame-container-wrapper"><g class="frame-container-blur"><g class="frame-container-shadows"><g clip-path="url(#frame-clip-ae60b895-3b67-8054-8005-f90ceb339dc4-render-1)" fill="none"><g class="fills" id="fills-ae60b895-3b67-8054-8005-f90ceb339dc4"><rect rx="0" ry="0" x="0" y="0" width="794" height="314" transform="matrix(1.000000, 0.000000, 0.000000, 1.000000, 0.000000, 0.000000)" class="frame-background"/></g><g class="frame-children"><g id="shape-ae60b895-3b67-8054-8005-f90ceb339dc5" rx="0" ry="0"><g id="shape-ae60b895-3b67-8054-8005-f90ceb339dc6"><g class="fills" id="fills-ae60b895-3b67-8054-8005-f90ceb339dc6"><rect rx="0" ry="0" x="36.5" y="33.5" transform="matrix(1.000000, 0.000000, 0.000000, 1.000000, 0.000000, 0.000000)" width="40" height="245.99999999999977" style="fill: rgb(28, 28, 28);"/></g></g><g id="shape-ae60b895-3b67-8054-8005-f90ceb339dc7"><g class="fills" id="fills-ae60b895-3b67-8054-8005-f90ceb339dc7"><rect rx="0" ry="0" x="444.5" y="33.5" transform="matrix(1.000000, 0.000000, 0.000000, 1.000000, 0.000000, 0.000000)" width="40" height="31.999999999999773" style="fill: rgb(28, 28, 28);"/></g></g><g id="shape-ae60b895-3b67-8054-8005-f90ceb339dc8"><g class="fills" id="fills-ae60b895-3b67-8054-8005-f90ceb339dc8"><rect rx="0" ry="0" x="649.5" y="246.5" transform="matrix(1.000000, 0.000000, 0.000000, 1.000000, 0.000000, 0.000000)" width="40.00000000000023" height="31.999999999999773" style="fill: rgb(28, 28, 28);"/></g></g><g id="shape-ae60b895-3b67-8054-8005-f90ceb339dc9"><g class="fills" id="fills-ae60b895-3b67-8054-8005-f90ceb339dc9"><rect rx="0" ry="0" x="376.5" y="246.5" transform="matrix(1.000000, 0.000000, 0.000000, 1.000000, 0.000000, 0.000000)" width="40" height="31.999999999999773" style="fill: rgb(28, 28, 28);"/></g></g><g id="shape-ae60b895-3b67-8054-8005-f90ceb339dca"><g class="fills" id="fills-ae60b895-3b67-8054-8005-f90ceb339dca"><rect rx="0" ry="0" x="717.5" y="33.5" transform="matrix(1.000000, 0.000000, 0.000000, 1.000000, 0.000000, 0.000000)" width="40" height="245.99999999999977" style="fill: rgb(28, 28, 28);"/></g></g><g id="shape-ae60b895-3b67-8054-8005-f90ceb339dcb"><g class="fills" id="fills-ae60b895-3b67-8054-8005-f90ceb339dcb"><rect rx="0" ry="0" x="514.5" y="33.5" transform="matrix(1.000000, 0.000000, 0.000000, 1.000000, 0.000000, 0.000000)" width="40.00000000000023" height="245.99999999999977" style="fill: rgb(28, 28, 28);"/></g></g><g id="shape-ae60b895-3b67-8054-8005-f90ceb339dcc"><g class="fills" id="fills-ae60b895-3b67-8054-8005-f90ceb339dcc"><rect rx="0" ry="0" x="103.5" y="33.5" transform="matrix(1.000000, 0.000000, 0.000000, 1.000000, 0.000000, 0.000000)" width="40" height="117" style="fill: rgb(28, 28, 28);"/></g></g><g id="shape-ae60b895-3b67-8054-8005-f90ceb339dcd"><g class="fills" id="fills-ae60b895-3b67-8054-8005-f90ceb339dcd"><rect rx="0" ry="0" x="649.5" y="33.5" transform="matrix(1.000000, 0.000000, 0.000000, 1.000000, 0.000000, 0.000000)" width="40.00000000000023" height="117" style="fill: rgb(28, 28, 28);"/></g></g><g id="shape-ae60b895-3b67-8054-8005-f90ceb339dce"><g class="fills" id="fills-ae60b895-3b67-8054-8005-f90ceb339dce"><rect rx="0" ry="0" x="581.5" y="33.5" transform="matrix(1.000000, 0.000000, 0.000000, 1.000000, 0.000000, 0.000000)" width="39.99999999999977" height="104.99999999999977" style="fill: rgb(28, 28, 28);"/></g></g><g id="shape-ae60b895-3b67-8054-8005-f90ceb339dcf"><g class="fills" id="fills-ae60b895-3b67-8054-8005-f90ceb339dcf"><rect rx="0" ry="0" x="581.5" y="174.5" transform="matrix(1.000000, 0.000000, 0.000000, 1.000000, 0.000000, 0.000000)" width="39.99999999999977" height="105" style="fill: rgb(28, 28, 28);"/></g></g><g id="shape-ae60b895-3b67-8054-8005-f90ceb339dd0"><g class="fills" id="fills-ae60b895-3b67-8054-8005-f90ceb339dd0"><rect rx="0" ry="0" x="171.5" y="33.5" transform="matrix(1.000000, 0.000000, 0.000000, 1.000000, 0.000000, 0.000000)" width="39.999999999999886" height="245.99999999999977" style="fill: rgb(28, 28, 28);"/></g></g><g id="shape-ae60b895-3b67-8054-8005-f90ceb339dd1"><g class="fills" id="fills-ae60b895-3b67-8054-8005-f90ceb339dd1"><rect rx="0" ry="0" x="376.5" y="33.5" transform="matrix(1.000000, 0.000000, 0.000000, 1.000000, 0.000000, 0.000000)" width="40" height="117" style="fill: rgb(28, 28, 28);"/></g></g><g id="shape-ae60b895-3b67-8054-8005-f90ceb339dd2"><g class="fills" id="fills-ae60b895-3b67-8054-8005-f90ceb339dd2"><rect rx="0" ry="0" x="240.5" y="33.5" transform="matrix(1.000000, 0.000000, 0.000000, 1.000000, 0.000000, 0.000000)" width="40" height="245.99999999999977" style="fill: rgb(28, 28, 28);"/></g></g><g id="shape-ae60b895-3b67-8054-8005-f90ceb339dd3"><g class="fills" id="fills-ae60b895-3b67-8054-8005-f90ceb339dd3"><rect rx="0" ry="0" x="444.5" y="166.5" transform="matrix(1.000000, 0.000000, 0.000000, 1.000000, 0.000000, 0.000000)" width="40" height="114" style="fill: rgb(28, 28, 28);"/></g></g><g id="shape-ae60b895-3b67-8054-8005-f90ceb339dd4"><g class="fills" id="fills-ae60b895-3b67-8054-8005-f90ceb339dd4"><rect rx="0" ry="0" x="308.5" y="66.5" transform="matrix(1.000000, 0.000000, 0.000000, 1.000000, 0.000000, 0.000000)" width="39.999999999999886" height="211.99999999999977" style="fill: rgb(28, 28, 28);"/></g></g></g></g></g></g></g></g></g></svg>